<svg id="Layer_1" data-name="Layer 1" xmlns="http://www.w3.org/2000/svg" viewBox="0 0 216 72"><defs><style>.cls-1{fill:#eee;}.cls-2,.cls-3{fill:none;stroke:#0b697f;stroke-miterlimit:10;}.cls-2{stroke-width:5px;}.cls-4{fill:#1e363a;}</style></defs><title>scan_header_logo</title><rect class="cls-1" width="216" height="72"/><polygon class="cls-2" points="122.47 9.29 85.45 63.8 159.49 63.8 122.47 9.29"/><polygon class="cls-1" points="122.5 13.06 67 95 178 95 122.5 13.06"/><path class="cls-3" d="M122.44,12.51S112.4,42,89.21,66.23"/><path class="cls-3" d="M155.67,66.23C132.48,42,122.44,12.51,122.44,12.51"/><path class="cls-3" d="M122.44,13.07s.92,31.48,25.1,53.16"/><path class="cls-3" d="M122.44,13.07s-.92,31.48-25.1,53.16"/><path class="cls-4" d="M16.15,53.49A16.13,16.13,0,0,0,18.69,55a20.22,20.22,0,0,0,2.84,1.15,20.54,20.54,0,0,0,2.92.7,17.44,17.44,0,0,0,2.81.24q5.21,0,7.79-2a6.89,6.89,0,0,0,2.59-5.78A7.74,7.74,0,0,0,37,46.16a7.85,7.85,0,0,0-1.88-2.54,19.57,19.57,0,0,0-3.23-2.35q-1.95-1.17-4.6-2.64-2.94-1.6-5-3a18.43,18.43,0,0,1-3.42-2.91,9.8,9.8,0,0,1-1.95-3.21,11.53,11.53,0,0,1-.62-3.93,10.38,10.38,0,0,1,1.18-5,11.63,11.63,0,0,1,3.19-3.75,14.79,14.79,0,0,1,4.71-2.38,19.51,19.51,0,0,1,5.77-.83,23.81,23.81,0,0,1,9,1.5v4.7a18.77,18.77,0,0,0-9.52-2.33,14.54,14.54,0,0,0-3.85.49,10.07,10.07,0,0,0-3.16,1.45,7,7,0,0,0-2.14,2.38,6.75,6.75,0,0,0-.78,3.31,8.14,8.14,0,0,0,.53,3.08A7.32,7.32,0,0,0,23,30.65,16.13,16.13,0,0,0,26,32.94q1.9,1.13,4.65,2.6a55.26,55.26,0,0,1,5,3,19.48,19.48,0,0,1,3.56,3,11.2,11.2,0,0,1,2.12,3.35,10.62,10.62,0,0,1,.7,3.94A11.88,11.88,0,0,1,41,54.15a10.29,10.29,0,0,1-3.13,3.79,14.27,14.27,0,0,1-4.79,2.27A23,23,0,0,1,27,61a22.7,22.7,0,0,1-2.59-.18q-1.5-.18-3-.51a28.83,28.83,0,0,1-2.92-.8,10.55,10.55,0,0,1-2.25-1Z"/><path class="cls-4" d="M82.38,58.51A28.16,28.16,0,0,1,70.27,61a22,22,0,0,1-8.82-1.71,19.64,19.64,0,0,1-6.76-4.74,21.16,21.16,0,0,1-4.31-7.22,26.6,26.6,0,0,1-1.52-9.14,28.45,28.45,0,0,1,1.61-9.7,23,23,0,0,1,4.62-7.79,21.33,21.33,0,0,1,7.27-5.19,23.42,23.42,0,0,1,9.57-1.88,28.63,28.63,0,0,1,10.45,1.79V20a23.2,23.2,0,0,0-10.51-2.46A19.24,19.24,0,0,0,64,19a16.35,16.35,0,0,0-5.81,4.26,18.91,18.91,0,0,0-3.61,6.45,25.48,25.48,0,0,0-1.25,8.13,24.34,24.34,0,0,0,1.12,7.46,17.94,17.94,0,0,0,3.31,6.12,15.68,15.68,0,0,0,5.45,4.15,17.58,17.58,0,0,0,7.57,1.54,23.61,23.61,0,0,0,11.63-2.78Z"/><path class="cls-4" d="M193.65,60.2,168.22,23.43q-.48-.7-.94-1.44a9.26,9.26,0,0,1-.75-1.44h-.16q.06.57.11,1.6t0,2.55V60.2h-4.25V14.39H167l25,36.32q.57.86,1,1.61l.85,1.39H194q-.13-1.05-.19-2.36t-.06-2.91V14.39h4.28V60.2Z"/></svg>