<svg id="Layer_1" data-name="Layer 1" xmlns="http://www.w3.org/2000/svg" xmlns:xlink="http://www.w3.org/1999/xlink" viewBox="0 0 1280 436"><defs><style>.cls-1,.cls-10,.cls-5,.cls-7,.cls-8{fill:none;}.cls-2{fill:#1d363a;}.cls-3{fill:#026b80;}.cls-4{fill:#fff;}.cls-5{stroke:#fff;stroke-width:2px;}.cls-10,.cls-5,.cls-7,.cls-8{stroke-miterlimit:10;}.cls-6{clip-path:url(#clip-path);}.cls-7,.cls-8{stroke:#0b697f;}.cls-7{stroke-width:5px;}.cls-9{font-size:20.32px;fill:#1e363a;font-family:SegoeUI-Semilight, Segoe UI;}.cls-10{stroke:#026b80;}</style><clipPath id="clip-path"><rect class="cls-1" x="796.91" y="33.05" width="67.07" height="22.36"/></clipPath></defs><title>phone_banner</title><rect class="cls-2" width="1280" height="436"/><rect class="cls-3" x="781.92" y="14.36" width="202.64" height="407.28" rx="12" ry="12"/><rect class="cls-4" x="791.18" y="24.95" width="183.88" height="362.24"/><rect class="cls-5" x="866.33" y="391.54" width="33.58" height="25.75" rx="12" ry="12"/><g class="cls-6"><rect class="cls-4" x="796.91" y="33.05" width="67.07" height="22.36"/><g class="cls-6"><polygon class="cls-7" points="834.94 35.94 823.45 52.86 846.44 52.86 834.94 35.94"/></g><polygon class="cls-4" points="822.56 55.41 847.35 55.41 834.95 37.11 822.56 55.41"/><g class="cls-6"><path class="cls-8" d="M834.93,36.93a50.83,50.83,0,0,1-10.32,16.68"/><path class="cls-8" d="M845.25,53.61a50.83,50.83,0,0,1-10.32-16.68"/><path class="cls-8" d="M834.93,37.11s.29,9.78,7.79,16.51"/><path class="cls-8" d="M834.93,37.11s-.29,9.78-7.79,16.51"/><text class="cls-9" transform="translate(800.64 51.74)">SC</text><text class="cls-9" transform="translate(845.46 51.74)">N</text></g></g><rect class="cls-10" x="800.48" y="67.28" width="77.68" height="46.4" rx="12" ry="12"/><rect class="cls-10" x="888.21" y="67.28" width="77.68" height="46.4" rx="12" ry="12"/><path class="cls-2" d="M819.28,95.09h-1l-.83-2.2h-3.32l-.78,2.2h-1l3-7.84h1Zm-2.15-3-1.23-3.34a3.19,3.19,0,0,1-.12-.52h0a2.94,2.94,0,0,1-.13.52l-1.22,3.34Z"/><path class="cls-2" d="M820.23,95.09V87.25h2.16q4.14,0,4.14,3.82A3.85,3.85,0,0,1,825.39,94a4.27,4.27,0,0,1-3.08,1.1Zm.92-7v6.18h1.17a3.32,3.32,0,0,0,2.4-.83,3.09,3.09,0,0,0,.86-2.34q0-3-3.2-3Z"/><path class="cls-2" d="M827.88,95.09V87.25H830q4.14,0,4.14,3.82A3.85,3.85,0,0,1,833,94a4.27,4.27,0,0,1-3.08,1.1Zm.92-7v6.18H830a3.32,3.32,0,0,0,2.4-.83,3.09,3.09,0,0,0,.86-2.34q0-3-3.2-3Z"/><path class="cls-2" d="M838.39,95.09V87.25h2.23a2.44,2.44,0,0,1,1.61.5,1.61,1.61,0,0,1,.6,1.3,1.91,1.91,0,0,1-.36,1.16,2,2,0,0,1-1,.7v0a2,2,0,0,1,1.27.6,1.84,1.84,0,0,1,.47,1.31,2,2,0,0,1-.72,1.63,2.69,2.69,0,0,1-1.82.62Zm.92-7v2.53h.94a1.78,1.78,0,0,0,1.19-.36,1.26,1.26,0,0,0,.43-1q0-1.14-1.5-1.14Zm0,3.36v2.82h1.25a1.86,1.86,0,0,0,1.25-.38,1.31,1.31,0,0,0,.45-1q0-1.39-1.89-1.39Z"/><path class="cls-2" d="M847.76,95.22a3.44,3.44,0,0,1-2.67-1.1,4.07,4.07,0,0,1-1-2.86,4.32,4.32,0,0,1,1-3,3.57,3.57,0,0,1,2.78-1.13,3.36,3.36,0,0,1,2.62,1.09,4.09,4.09,0,0,1,1,2.86,4.33,4.33,0,0,1-1,3A3.5,3.5,0,0,1,847.76,95.22Zm.07-7.27a2.53,2.53,0,0,0-2,.89,4,4,0,0,0,0,4.67,2.45,2.45,0,0,0,2,.88,2.57,2.57,0,0,0,2-.84,3.44,3.44,0,0,0,.74-2.36,3.6,3.6,0,0,0-.72-2.4A2.47,2.47,0,0,0,847.83,88Z"/><path class="cls-2" d="M856,95.22a3.44,3.44,0,0,1-2.67-1.1,4.07,4.07,0,0,1-1-2.86,4.32,4.32,0,0,1,1-3,3.57,3.57,0,0,1,2.78-1.13,3.36,3.36,0,0,1,2.62,1.09,4.09,4.09,0,0,1,1,2.86,4.33,4.33,0,0,1-1,3A3.5,3.5,0,0,1,856,95.22Zm.07-7.27a2.53,2.53,0,0,0-2,.89,4,4,0,0,0,0,4.67,2.45,2.45,0,0,0,2,.88,2.57,2.57,0,0,0,2-.84,3.44,3.44,0,0,0,.74-2.36,3.6,3.6,0,0,0-.72-2.4A2.47,2.47,0,0,0,856.06,88Z"/><path class="cls-2" d="M866.53,95.09h-1.28l-3-3.58a2.21,2.21,0,0,1-.21-.27h0v3.86h-.92V87.25H862v3.68h0a2.17,2.17,0,0,1,.21-.27l2.93-3.42h1.14L862.93,91Z"/><path class="cls-2" d="M817.37,154.1h-4.15v-7.84h4v.83h-3.06v2.61H817v.83h-2.83v2.74h3.24Z"/><path class="cls-2" d="M818.67,154.1v-7.84h2.16q4.14,0,4.14,3.82a3.85,3.85,0,0,1-1.15,2.92,4.27,4.27,0,0,1-3.08,1.1Zm.92-7v6.18h1.17a3.32,3.32,0,0,0,2.4-.83,3.09,3.09,0,0,0,.86-2.34q0-3-3.2-3Z"/><path class="cls-2" d="M827.24,154.1h-.92v-7.84h.92Z"/><path class="cls-2" d="M833.73,147.1h-2.26v7h-.92v-7h-2.26v-.83h5.44Z"/><path class="cls-2" d="M837.62,154.1v-7.84h2.23a2.44,2.44,0,0,1,1.61.5,1.61,1.61,0,0,1,.6,1.3,1.91,1.91,0,0,1-.36,1.16,2,2,0,0,1-1,.7v0a2,2,0,0,1,1.27.6,1.84,1.84,0,0,1,.47,1.31,2,2,0,0,1-.72,1.63,2.69,2.69,0,0,1-1.82.62Zm.92-7v2.53h.94a1.78,1.78,0,0,0,1.19-.36,1.26,1.26,0,0,0,.43-1q0-1.14-1.5-1.14Zm0,3.36v2.82h1.25a1.86,1.86,0,0,0,1.25-.38,1.31,1.31,0,0,0,.45-1q0-1.39-1.89-1.39Z"/><path class="cls-2" d="M847,154.23a3.44,3.44,0,0,1-2.67-1.1,4.07,4.07,0,0,1-1-2.86,4.32,4.32,0,0,1,1-3,3.57,3.57,0,0,1,2.78-1.13,3.36,3.36,0,0,1,2.62,1.09,4.09,4.09,0,0,1,1,2.86,4.33,4.33,0,0,1-1,3A3.5,3.5,0,0,1,847,154.23Zm.07-7.27a2.53,2.53,0,0,0-2,.89,4,4,0,0,0,0,4.67,2.45,2.45,0,0,0,2,.88,2.57,2.57,0,0,0,2-.84,3.44,3.44,0,0,0,.74-2.36,3.6,3.6,0,0,0-.72-2.4A2.47,2.47,0,0,0,847.06,147Z"/><path class="cls-2" d="M855.23,154.23a3.44,3.44,0,0,1-2.67-1.1,4.07,4.07,0,0,1-1-2.86,4.32,4.32,0,0,1,1-3,3.57,3.57,0,0,1,2.78-1.13,3.36,3.36,0,0,1,2.62,1.09,4.09,4.09,0,0,1,1,2.86,4.33,4.33,0,0,1-1,3A3.5,3.5,0,0,1,855.23,154.23Zm.07-7.27a2.53,2.53,0,0,0-2,.89,4,4,0,0,0,0,4.67,2.45,2.45,0,0,0,2,.88,2.57,2.57,0,0,0,2-.84,3.44,3.44,0,0,0,.74-2.36,3.6,3.6,0,0,0-.72-2.4A2.47,2.47,0,0,0,855.3,147Z"/><path class="cls-2" d="M865.76,154.1h-1.28l-3-3.58a2.21,2.21,0,0,1-.21-.27h0v3.86h-.92v-7.84h.92v3.68h0a2.17,2.17,0,0,1,.21-.27l2.93-3.42h1.14L862.17,150Z"/><rect class="cls-10" x="799.46" y="124.26" width="77.68" height="46.4" rx="12" ry="12"/><rect class="cls-10" x="887.19" y="124.26" width="77.68" height="46.4" rx="12" ry="12"/><path class="cls-2" d="M908.25,94.88h-1l-.83-2.2h-3.32l-.78,2.2h-1l3-7.84h1Zm-2.15-3-1.23-3.34a3.19,3.19,0,0,1-.12-.52h0a2.94,2.94,0,0,1-.13.52l-1.22,3.34Z"/><path class="cls-2" d="M909.2,94.88V87h2.16q4.14,0,4.14,3.82a3.85,3.85,0,0,1-1.15,2.92,4.27,4.27,0,0,1-3.08,1.1Zm.92-7v6.18h1.17a3.32,3.32,0,0,0,2.4-.83,3.09,3.09,0,0,0,.86-2.34q0-3-3.2-3Z"/><path class="cls-2" d="M916.84,94.88V87H919q4.14,0,4.14,3.82A3.85,3.85,0,0,1,922,93.78a4.27,4.27,0,0,1-3.08,1.1Zm.92-7v6.18h1.17a3.32,3.32,0,0,0,2.4-.83,3.09,3.09,0,0,0,.86-2.34q0-3-3.2-3Z"/><path class="cls-2" d="M933.09,91.71q0,3.3-3,3.3t-2.85-3.18V87h.92v4.73q0,2.41,2,2.41t2-2.33V87h.92Z"/><path class="cls-2" d="M934.48,94.57V93.49a2.11,2.11,0,0,0,.45.29,3.6,3.6,0,0,0,.55.22,4.26,4.26,0,0,0,.58.14,3.23,3.23,0,0,0,.54,0,2.1,2.1,0,0,0,1.26-.31,1.18,1.18,0,0,0,.28-1.46,1.57,1.57,0,0,0-.38-.43,3.83,3.83,0,0,0-.58-.37l-.72-.37q-.41-.21-.77-.42a3.32,3.32,0,0,1-.62-.47,2,2,0,0,1-.41-.58,1.81,1.81,0,0,1-.15-.76,1.79,1.79,0,0,1,.24-.93,2,2,0,0,1,.62-.65,2.8,2.8,0,0,1,.87-.38,4,4,0,0,1,1-.13,3.82,3.82,0,0,1,1.69.28v1a3.06,3.06,0,0,0-1.78-.48,2.93,2.93,0,0,0-.6.06A1.7,1.7,0,0,0,936,88a1.2,1.2,0,0,0-.38.37,1,1,0,0,0-.15.55,1.12,1.12,0,0,0,.11.52,1.26,1.26,0,0,0,.33.4,3.3,3.3,0,0,0,.53.35l.72.37q.42.21.8.44a3.66,3.66,0,0,1,.66.51,2.25,2.25,0,0,1,.45.62,1.73,1.73,0,0,1,.17.78,2,2,0,0,1-.23,1,1.86,1.86,0,0,1-.61.65,2.68,2.68,0,0,1-.89.36,4.87,4.87,0,0,1-1.06.11L936,95l-.56-.09a4.51,4.51,0,0,1-.54-.14A1.7,1.7,0,0,1,934.48,94.57Z"/><path class="cls-2" d="M944.74,94.88h-4.15V87h4v.83H941.5v2.61h2.83v.83H941.5v2.74h3.24Z"/><path class="cls-2" d="M951.67,94.88h-1.09l-1.31-2.2a4.87,4.87,0,0,0-.35-.52,2,2,0,0,0-.35-.35,1.2,1.2,0,0,0-.38-.2,1.57,1.57,0,0,0-.46-.06H947v3.33H946V87h2.34a3.32,3.32,0,0,1,.95.13,2.11,2.11,0,0,1,.75.39,1.81,1.81,0,0,1,.5.65,2.17,2.17,0,0,1,.18.92,2.2,2.2,0,0,1-.12.75,2,2,0,0,1-.35.61,2.11,2.11,0,0,1-.55.46,2.78,2.78,0,0,1-.72.29v0a1.65,1.65,0,0,1,.34.2,1.9,1.9,0,0,1,.28.27,3.65,3.65,0,0,1,.26.35l.29.45Zm-4.7-7v2.84h1.25a1.89,1.89,0,0,0,.64-.1,1.48,1.48,0,0,0,.51-.3,1.35,1.35,0,0,0,.33-.48,1.59,1.59,0,0,0,.12-.63,1.23,1.23,0,0,0-.41-1,1.75,1.75,0,0,0-1.18-.35Z"/><path class="cls-2" d="M906.33,152.07h-4.15v-7.84h4v.83H903.1v2.61h2.83v.83H903.1v2.74h3.24Z"/><path class="cls-2" d="M907.64,152.07v-7.84h2.16q4.14,0,4.14,3.82A3.85,3.85,0,0,1,912.8,151a4.27,4.27,0,0,1-3.08,1.1Zm.92-7v6.18h1.17a3.32,3.32,0,0,0,2.4-.83,3.09,3.09,0,0,0,.86-2.34q0-3-3.2-3Z"/><path class="cls-2" d="M916.21,152.07h-.92v-7.84h.92Z"/><path class="cls-2" d="M922.7,145.06h-2.26v7h-.92v-7h-2.26v-.83h5.44Z"/><path class="cls-2" d="M932.32,148.9q0,3.3-3,3.3T926.49,149v-4.79h.92V149q0,2.41,2,2.41t2-2.33v-4.81h.92Z"/><path class="cls-2" d="M933.71,151.75v-1.08a2.11,2.11,0,0,0,.45.29,3.6,3.6,0,0,0,.55.22,4.26,4.26,0,0,0,.58.14,3.23,3.23,0,0,0,.54,0,2.1,2.1,0,0,0,1.26-.31,1.18,1.18,0,0,0,.28-1.46,1.57,1.57,0,0,0-.38-.43,3.83,3.83,0,0,0-.58-.37l-.72-.37q-.41-.21-.77-.42a3.32,3.32,0,0,1-.62-.47,2,2,0,0,1-.41-.58,1.81,1.81,0,0,1-.15-.76,1.79,1.79,0,0,1,.24-.93,2,2,0,0,1,.62-.65,2.8,2.8,0,0,1,.87-.38,4,4,0,0,1,1-.13,3.82,3.82,0,0,1,1.69.28v1a3.06,3.06,0,0,0-1.78-.48,2.93,2.93,0,0,0-.6.06,1.7,1.7,0,0,0-.54.21,1.2,1.2,0,0,0-.38.37,1,1,0,0,0-.15.55,1.12,1.12,0,0,0,.11.52,1.26,1.26,0,0,0,.33.4,3.3,3.3,0,0,0,.53.35l.72.37q.42.21.8.44a3.66,3.66,0,0,1,.66.51,2.25,2.25,0,0,1,.45.62,1.73,1.73,0,0,1,.17.78,2,2,0,0,1-.23,1,1.86,1.86,0,0,1-.61.65,2.68,2.68,0,0,1-.89.36,4.87,4.87,0,0,1-1.06.11l-.46,0-.56-.09a4.51,4.51,0,0,1-.54-.14A1.7,1.7,0,0,1,933.71,151.75Z"/><path class="cls-2" d="M944,152.07h-4.15v-7.84h4v.83h-3.06v2.61h2.83v.83h-2.83v2.74H944Z"/><path class="cls-2" d="M950.9,152.07h-1.09l-1.31-2.2a4.87,4.87,0,0,0-.35-.52,2,2,0,0,0-.35-.35,1.2,1.2,0,0,0-.38-.2,1.57,1.57,0,0,0-.46-.06h-.75v3.33h-.92v-7.84h2.34a3.32,3.32,0,0,1,.95.13,2.11,2.11,0,0,1,.75.39,1.81,1.81,0,0,1,.5.65,2.17,2.17,0,0,1,.18.92,2.2,2.2,0,0,1-.12.75,2,2,0,0,1-.35.61,2.11,2.11,0,0,1-.55.46,2.78,2.78,0,0,1-.72.29v0a1.65,1.65,0,0,1,.34.2,1.9,1.9,0,0,1,.28.27,3.65,3.65,0,0,1,.26.35l.29.45Zm-4.7-7v2.84h1.25a1.89,1.89,0,0,0,.64-.1,1.48,1.48,0,0,0,.51-.3,1.35,1.35,0,0,0,.33-.48,1.59,1.59,0,0,0,.12-.63,1.23,1.23,0,0,0-.41-1,1.75,1.75,0,0,0-1.18-.35Z"/><path class="cls-2" d="M821.84,201.92v-7.84H824q4.14,0,4.14,3.82a3.85,3.85,0,0,1-1.15,2.92,4.27,4.27,0,0,1-3.08,1.1Zm.92-7v6.18h1.17a3.32,3.32,0,0,0,2.4-.83,3.09,3.09,0,0,0,.86-2.34q0-3-3.2-3Z"/><path class="cls-2" d="M833.64,201.92h-4.15v-7.84h4v.83h-3.06v2.61h2.83v.83h-2.83v2.74h3.24Z"/><path class="cls-2" d="M839,201.92H835v-7.84h.92v7H839Z"/><path class="cls-2" d="M844.17,201.92H840v-7.84h4v.83h-3.06v2.61h2.83v.83h-2.83v2.74h3.24Z"/><path class="cls-2" d="M850.11,194.92h-2.26v7h-.92v-7h-2.26v-.83h5.44Z"/><path class="cls-2" d="M855.3,201.92h-4.15v-7.84h4v.83h-3.06v2.61h2.83v.83h-2.83v2.74h3.24Z"/><path class="cls-2" d="M824.73,215.35v-7.84H827a2.44,2.44,0,0,1,1.61.5,1.61,1.61,0,0,1,.6,1.3,1.91,1.91,0,0,1-.36,1.16,2,2,0,0,1-1,.7v0a2,2,0,0,1,1.27.6,1.84,1.84,0,0,1,.47,1.31,2,2,0,0,1-.72,1.63,2.69,2.69,0,0,1-1.82.62Zm.92-7v2.53h.94a1.78,1.78,0,0,0,1.19-.36,1.26,1.26,0,0,0,.43-1q0-1.14-1.5-1.14Zm0,3.36v2.82h1.25a1.86,1.86,0,0,0,1.25-.38,1.31,1.31,0,0,0,.45-1q0-1.39-1.89-1.39Z"/><path class="cls-2" d="M834.11,215.48a3.44,3.44,0,0,1-2.67-1.1,4.07,4.07,0,0,1-1-2.86,4.32,4.32,0,0,1,1-3,3.57,3.57,0,0,1,2.78-1.13,3.36,3.36,0,0,1,2.62,1.09,4.09,4.09,0,0,1,1,2.86,4.33,4.33,0,0,1-1,3A3.5,3.5,0,0,1,834.11,215.48Zm.07-7.27a2.53,2.53,0,0,0-2,.89,4,4,0,0,0,0,4.67,2.45,2.45,0,0,0,2,.88,2.57,2.57,0,0,0,2-.84,3.44,3.44,0,0,0,.74-2.36,3.6,3.6,0,0,0-.72-2.4A2.47,2.47,0,0,0,834.17,208.22Z"/><path class="cls-2" d="M842.34,215.48a3.44,3.44,0,0,1-2.67-1.1,4.07,4.07,0,0,1-1-2.86,4.32,4.32,0,0,1,1-3,3.57,3.57,0,0,1,2.78-1.13,3.36,3.36,0,0,1,2.62,1.09,4.09,4.09,0,0,1,1,2.86,4.33,4.33,0,0,1-1,3A3.5,3.5,0,0,1,842.34,215.48Zm.07-7.27a2.53,2.53,0,0,0-2,.89,4,4,0,0,0,0,4.67,2.45,2.45,0,0,0,2,.88,2.57,2.57,0,0,0,2-.84,3.44,3.44,0,0,0,.74-2.36,3.6,3.6,0,0,0-.72-2.4A2.47,2.47,0,0,0,842.41,208.22Z"/><path class="cls-2" d="M852.87,215.35h-1.28l-3-3.58a2.21,2.21,0,0,1-.21-.27h0v3.86h-.92v-7.84h.92v3.68h0a2.17,2.17,0,0,1,.21-.27l2.93-3.42h1.14l-3.36,3.76Z"/><rect class="cls-10" x="799.46" y="182.25" width="77.68" height="46.4" rx="12" ry="12"/><rect class="cls-10" x="887.19" y="182.25" width="77.68" height="46.4" rx="12" ry="12"/><path class="cls-2" d="M909.58,201.92v-7.84h2.16q4.14,0,4.14,3.82a3.85,3.85,0,0,1-1.15,2.92,4.27,4.27,0,0,1-3.08,1.1Zm.92-7v6.18h1.17a3.32,3.32,0,0,0,2.4-.83,3.09,3.09,0,0,0,.86-2.34q0-3-3.2-3Z"/><path class="cls-2" d="M921.38,201.92h-4.15v-7.84h4v.83h-3.06v2.61H921v.83h-2.83v2.74h3.24Z"/><path class="cls-2" d="M926.75,201.92h-4.07v-7.84h.92v7h3.15Z"/><path class="cls-2" d="M931.91,201.92h-4.15v-7.84h4v.83h-3.06v2.61h2.83v.83h-2.83v2.74h3.24Z"/><path class="cls-2" d="M937.85,194.92h-2.26v7h-.92v-7h-2.26v-.83h5.44Z"/><path class="cls-2" d="M943,201.92h-4.15v-7.84h4v.83h-3.06v2.61h2.83v.83h-2.83v2.74H943Z"/><path class="cls-2" d="M920.1,212.18q0,3.3-3,3.3t-2.85-3.18v-4.79h.92v4.73q0,2.41,2,2.41t2-2.33v-4.81h.92Z"/><path class="cls-2" d="M921.49,215V214a2.11,2.11,0,0,0,.45.29,3.6,3.6,0,0,0,.55.22,4.26,4.26,0,0,0,.58.14,3.23,3.23,0,0,0,.54,0,2.1,2.1,0,0,0,1.26-.31,1.18,1.18,0,0,0,.28-1.46,1.57,1.57,0,0,0-.38-.43,3.83,3.83,0,0,0-.58-.37l-.72-.37q-.41-.21-.77-.42a3.32,3.32,0,0,1-.62-.47,2,2,0,0,1-.41-.58,1.81,1.81,0,0,1-.15-.76,1.79,1.79,0,0,1,.24-.93,2,2,0,0,1,.62-.65,2.8,2.8,0,0,1,.87-.38,4,4,0,0,1,1-.13,3.82,3.82,0,0,1,1.69.28v1a3.06,3.06,0,0,0-1.78-.48,2.93,2.93,0,0,0-.6.06,1.7,1.7,0,0,0-.54.21,1.2,1.2,0,0,0-.38.37,1,1,0,0,0-.15.55,1.12,1.12,0,0,0,.11.52,1.26,1.26,0,0,0,.33.4,3.3,3.3,0,0,0,.53.35l.72.37q.42.21.8.44a3.66,3.66,0,0,1,.66.51,2.25,2.25,0,0,1,.45.62,1.73,1.73,0,0,1,.17.78,2,2,0,0,1-.23,1,1.86,1.86,0,0,1-.61.65,2.68,2.68,0,0,1-.89.36,4.87,4.87,0,0,1-1.06.11l-.46,0-.56-.09a4.51,4.51,0,0,1-.54-.14A1.7,1.7,0,0,1,921.49,215Z"/><path class="cls-2" d="M931.75,215.35h-4.15v-7.84h4v.83h-3.06V211h2.83v.83h-2.83v2.74h3.24Z"/><path class="cls-2" d="M938.67,215.35h-1.09l-1.31-2.2a4.87,4.87,0,0,0-.35-.52,2,2,0,0,0-.35-.35,1.2,1.2,0,0,0-.38-.2,1.57,1.57,0,0,0-.46-.06H934v3.33h-.92v-7.84h2.34a3.32,3.32,0,0,1,.95.13,2.11,2.11,0,0,1,.75.39,1.81,1.81,0,0,1,.5.65,2.17,2.17,0,0,1,.18.92,2.2,2.2,0,0,1-.12.75,2,2,0,0,1-.35.61,2.11,2.11,0,0,1-.55.46,2.78,2.78,0,0,1-.72.29v0a1.65,1.65,0,0,1,.34.2,1.9,1.9,0,0,1,.28.27,3.65,3.65,0,0,1,.26.35l.29.45Zm-4.7-7v2.84h1.25a1.89,1.89,0,0,0,.64-.1,1.48,1.48,0,0,0,.51-.3,1.35,1.35,0,0,0,.33-.48,1.59,1.59,0,0,0,.12-.63,1.23,1.23,0,0,0-.41-1,1.75,1.75,0,0,0-1.18-.35Z"/><rect class="cls-10" x="799.46" y="244.97" width="77.68" height="56.54" rx="12" ry="12"/><rect class="cls-10" x="888.21" y="244.97" width="77.68" height="56.54" rx="12" ry="12"/><rect class="cls-10" x="799.46" y="313.14" width="77.68" height="56.54" rx="12" ry="12"/><rect class="cls-10" x="888.21" y="313.14" width="77.68" height="56.54" rx="12" ry="12"/><path class="cls-2" d="M819.34,270.58v-1.08a2.13,2.13,0,0,0,.45.3,3.59,3.59,0,0,0,.55.22,4.34,4.34,0,0,0,.58.14,3.18,3.18,0,0,0,.54,0,2.1,2.1,0,0,0,1.26-.31,1.18,1.18,0,0,0,.28-1.46,1.56,1.56,0,0,0-.38-.43,3.94,3.94,0,0,0-.58-.37l-.72-.37q-.41-.21-.77-.42a3.32,3.32,0,0,1-.62-.47,2,2,0,0,1-.41-.58,1.81,1.81,0,0,1-.15-.76,1.79,1.79,0,0,1,.24-.93,2,2,0,0,1,.62-.65,2.81,2.81,0,0,1,.87-.38,4,4,0,0,1,1-.13,3.83,3.83,0,0,1,1.69.28v1a3.06,3.06,0,0,0-1.78-.48,2.93,2.93,0,0,0-.6.06,1.7,1.7,0,0,0-.54.21,1.19,1.19,0,0,0-.38.37,1,1,0,0,0-.15.55,1.12,1.12,0,0,0,.11.52,1.26,1.26,0,0,0,.33.4,3.26,3.26,0,0,0,.53.35l.72.37q.42.21.8.44a3.64,3.64,0,0,1,.66.51,2.23,2.23,0,0,1,.45.62,1.73,1.73,0,0,1,.17.78,2,2,0,0,1-.23,1,1.86,1.86,0,0,1-.61.65,2.68,2.68,0,0,1-.89.36,4.9,4.9,0,0,1-1.06.11l-.46,0-.56-.09a4.51,4.51,0,0,1-.54-.14A1.66,1.66,0,0,1,819.34,270.58Z"/><path class="cls-2" d="M829.61,270.89h-4.15v-7.84h4v.83h-3.06v2.61h2.83v.83h-2.83v2.74h3.24Z"/><path class="cls-2" d="M837,270.89h-1l-.83-2.2h-3.32l-.78,2.2h-1l3-7.84h1Zm-2.15-3-1.23-3.34a3.2,3.2,0,0,1-.12-.52h0a2.92,2.92,0,0,1-.13.52l-1.22,3.34Z"/><path class="cls-2" d="M843.55,270.89h-1.09l-1.31-2.2a4.81,4.81,0,0,0-.35-.52,2,2,0,0,0-.35-.35,1.21,1.21,0,0,0-.38-.2,1.57,1.57,0,0,0-.46-.06h-.75v3.33h-.92v-7.84h2.34a3.32,3.32,0,0,1,.95.13,2.11,2.11,0,0,1,.75.39,1.8,1.8,0,0,1,.5.65,2.16,2.16,0,0,1,.18.92,2.2,2.2,0,0,1-.12.75,1.94,1.94,0,0,1-.35.61,2.12,2.12,0,0,1-.55.46,2.81,2.81,0,0,1-.72.29v0a1.65,1.65,0,0,1,.34.2,1.89,1.89,0,0,1,.28.26,3.77,3.77,0,0,1,.26.35l.29.45Zm-4.7-7v2.84h1.25a1.89,1.89,0,0,0,.64-.1,1.45,1.45,0,0,0,.51-.3,1.35,1.35,0,0,0,.33-.47,1.59,1.59,0,0,0,.12-.63,1.23,1.23,0,0,0-.41-1,1.75,1.75,0,0,0-1.18-.35Z"/><path class="cls-2" d="M849.6,270.56a4.59,4.59,0,0,1-2.16.46,3.49,3.49,0,0,1-2.68-1.08,4,4,0,0,1-1-2.83,4.16,4.16,0,0,1,1.13-3,3.84,3.84,0,0,1,2.87-1.16,4.61,4.61,0,0,1,1.85.32v1a3.75,3.75,0,0,0-1.86-.47,2.85,2.85,0,0,0-2.19.9,3.39,3.39,0,0,0-.84,2.41,3.23,3.23,0,0,0,.78,2.28,2.67,2.67,0,0,0,2.06.85,3.86,3.86,0,0,0,2-.52Z"/><path class="cls-2" d="M856.89,270.89H856v-3.57h-4.05v3.57H851v-7.84h.92v3.44H856v-3.44h.92Z"/><path class="cls-2" d="M811.65,284.32h-.92v-7.84h.92Z"/><path class="cls-2" d="M819.83,284.32h-1.13l-4-6.25a2.66,2.66,0,0,1-.25-.49h0a8,8,0,0,1,0,1.08v5.66h-.92v-7.84h1.19l3.92,6.15q.25.38.32.52h0a8.34,8.34,0,0,1-.05-1.15v-5.52h.92Z"/><path class="cls-2" d="M827.51,276.49l-2.9,7.84h-1l-2.84-7.84h1l2.17,6.21a3.65,3.65,0,0,1,.16.69h0a3.42,3.42,0,0,1,.18-.71l2.21-6.2Z"/><path class="cls-2" d="M832.59,284.32h-4.15v-7.84h4v.83h-3.06v2.61h2.83v.83h-2.83v2.74h3.24Z"/><path class="cls-2" d="M840.21,284.32h-1.13l-4-6.25a2.66,2.66,0,0,1-.25-.49h0a8,8,0,0,1,0,1.08v5.66h-.92v-7.84h1.19l3.92,6.15q.25.38.32.52h0a8.34,8.34,0,0,1-.05-1.15v-5.52h.92Z"/><path class="cls-2" d="M846.7,277.32h-2.26v7h-.92v-7h-2.26v-.83h5.44Z"/><path class="cls-2" d="M850.37,284.45a3.44,3.44,0,0,1-2.67-1.1,4.07,4.07,0,0,1-1-2.86,4.32,4.32,0,0,1,1-3,3.57,3.57,0,0,1,2.78-1.13,3.36,3.36,0,0,1,2.62,1.09,4.09,4.09,0,0,1,1,2.86,4.33,4.33,0,0,1-1,3A3.5,3.5,0,0,1,850.37,284.45Zm.07-7.27a2.53,2.53,0,0,0-2,.89,4,4,0,0,0,0,4.67,2.45,2.45,0,0,0,2,.88,2.57,2.57,0,0,0,2-.84,3.44,3.44,0,0,0,.74-2.36,3.6,3.6,0,0,0-.72-2.4A2.48,2.48,0,0,0,850.43,277.19Z"/><path class="cls-2" d="M861.06,284.32H860l-1.31-2.2a4.81,4.81,0,0,0-.35-.52,2,2,0,0,0-.35-.35,1.21,1.21,0,0,0-.38-.2,1.57,1.57,0,0,0-.46-.06h-.75v3.33h-.92v-7.84h2.34a3.32,3.32,0,0,1,.95.13,2.11,2.11,0,0,1,.75.39,1.8,1.8,0,0,1,.5.65,2.16,2.16,0,0,1,.18.92,2.2,2.2,0,0,1-.12.75,1.94,1.94,0,0,1-.35.61,2.12,2.12,0,0,1-.55.46,2.81,2.81,0,0,1-.72.29v0a1.65,1.65,0,0,1,.34.2,1.89,1.89,0,0,1,.28.26,3.77,3.77,0,0,1,.26.35l.29.45Zm-4.7-7v2.84h1.25a1.89,1.89,0,0,0,.64-.1,1.45,1.45,0,0,0,.51-.3,1.35,1.35,0,0,0,.33-.47,1.59,1.59,0,0,0,.12-.63,1.23,1.23,0,0,0-.41-1,1.75,1.75,0,0,0-1.18-.35Z"/><path class="cls-2" d="M866.82,276.49l-2.58,4.94v2.9h-.92v-2.87l-2.52-5h1l1.75,3.54s.09.2.19.48h0A2.89,2.89,0,0,1,864,280l1.84-3.54Z"/><path class="cls-2" d="M906.49,271a3.44,3.44,0,0,1-2.67-1.1,4.07,4.07,0,0,1-1-2.86,4.32,4.32,0,0,1,1-3,3.57,3.57,0,0,1,2.78-1.13,3.36,3.36,0,0,1,2.62,1.09,4.09,4.09,0,0,1,1,2.86,4.33,4.33,0,0,1-1,3A3.5,3.5,0,0,1,906.49,271Zm.07-7.27a2.53,2.53,0,0,0-2,.89,4,4,0,0,0,0,4.67,2.45,2.45,0,0,0,2,.88,2.57,2.57,0,0,0,2-.84,3.44,3.44,0,0,0,.74-2.36,3.6,3.6,0,0,0-.72-2.4A2.48,2.48,0,0,0,906.55,263.76Z"/><path class="cls-2" d="M917.11,263.06l-2.9,7.84h-1l-2.84-7.84h1l2.17,6.21a3.65,3.65,0,0,1,.16.69h0a3.42,3.42,0,0,1,.18-.71l2.21-6.2Z"/><path class="cls-2" d="M922.19,270.89H918v-7.84h4v.83H919v2.61h2.83v.83H919v2.74h3.24Z"/><path class="cls-2" d="M929.12,270.89H928l-1.31-2.2a4.81,4.81,0,0,0-.35-.52,2,2,0,0,0-.35-.35,1.21,1.21,0,0,0-.38-.2,1.57,1.57,0,0,0-.46-.06h-.75v3.33h-.92v-7.84h2.34a3.32,3.32,0,0,1,.95.13,2.11,2.11,0,0,1,.75.39,1.8,1.8,0,0,1,.5.65,2.16,2.16,0,0,1,.18.92,2.2,2.2,0,0,1-.12.75,1.94,1.94,0,0,1-.35.61,2.12,2.12,0,0,1-.55.46,2.81,2.81,0,0,1-.72.29v0a1.65,1.65,0,0,1,.34.2,1.89,1.89,0,0,1,.28.26,3.77,3.77,0,0,1,.26.35l.29.45Zm-4.7-7v2.84h1.25a1.89,1.89,0,0,0,.64-.1,1.45,1.45,0,0,0,.51-.3,1.35,1.35,0,0,0,.33-.47,1.59,1.59,0,0,0,.12-.63,1.23,1.23,0,0,0-.41-1,1.75,1.75,0,0,0-1.18-.35Z"/><path class="cls-2" d="M930,270.89v-7.84h2.16q4.14,0,4.14,3.82a3.85,3.85,0,0,1-1.15,2.92,4.27,4.27,0,0,1-3.08,1.1Zm.92-7v6.17h1.17a3.31,3.31,0,0,0,2.4-.83,3.09,3.09,0,0,0,.86-2.34q0-3-3.2-3Z"/><path class="cls-2" d="M943.37,267.72q0,3.3-3,3.3t-2.85-3.17v-4.79h.92v4.73q0,2.41,2,2.41t2-2.33v-4.81h.92Z"/><path class="cls-2" d="M949.28,270.89h-4.15v-7.84h4v.83H946v2.61h2.83v.83H946v2.74h3.24Z"/><path class="cls-2" d="M913.13,284.32h-.92v-7.84h.92Z"/><path class="cls-2" d="M919.62,277.32h-2.26v7h-.92v-7h-2.26v-.83h5.44Z"/><path class="cls-2" d="M924.8,284.32h-4.15v-7.84h4v.83h-3.06v2.61h2.83v.83h-2.83v2.74h3.24Z"/><path class="cls-2" d="M934.1,284.32h-.91v-5.26q0-.62.08-1.53h0a4.91,4.91,0,0,1-.24.76l-2.68,6h-.45l-2.67-6a4.69,4.69,0,0,1-.24-.8h0q0,.47,0,1.54v5.25h-.89v-7.84h1.21l2.41,5.46a7,7,0,0,1,.36.94h0q.23-.64.38-1l2.45-5.44h1.15Z"/><path class="cls-2" d="M935.59,284v-1.08a2.13,2.13,0,0,0,.45.3,3.59,3.59,0,0,0,.55.22,4.34,4.34,0,0,0,.58.14,3.18,3.18,0,0,0,.54,0,2.1,2.1,0,0,0,1.26-.31,1.18,1.18,0,0,0,.28-1.46,1.56,1.56,0,0,0-.38-.43,3.94,3.94,0,0,0-.58-.37l-.72-.37q-.41-.21-.77-.42a3.32,3.32,0,0,1-.62-.47,2,2,0,0,1-.41-.58,1.81,1.81,0,0,1-.15-.76,1.79,1.79,0,0,1,.24-.93,2,2,0,0,1,.62-.65,2.81,2.81,0,0,1,.87-.38,4,4,0,0,1,1-.13,3.83,3.83,0,0,1,1.69.28v1a3.06,3.06,0,0,0-1.78-.48,2.93,2.93,0,0,0-.6.06,1.7,1.7,0,0,0-.54.21,1.19,1.19,0,0,0-.38.37,1,1,0,0,0-.15.55,1.12,1.12,0,0,0,.11.52,1.26,1.26,0,0,0,.33.4,3.26,3.26,0,0,0,.53.35l.72.37q.42.21.8.44a3.64,3.64,0,0,1,.66.51,2.23,2.23,0,0,1,.45.62,1.73,1.73,0,0,1,.17.78,2,2,0,0,1-.23,1,1.86,1.86,0,0,1-.61.65,2.68,2.68,0,0,1-.89.36,4.9,4.9,0,0,1-1.06.11l-.46,0-.56-.09a4.51,4.51,0,0,1-.54-.14A1.66,1.66,0,0,1,935.59,284Z"/><path class="cls-2" d="M818.65,337.73a4.59,4.59,0,0,1-2.16.46,3.49,3.49,0,0,1-2.68-1.08,4,4,0,0,1-1-2.83,4.16,4.16,0,0,1,1.13-3,3.84,3.84,0,0,1,2.87-1.16,4.61,4.61,0,0,1,1.85.32v1a3.75,3.75,0,0,0-1.86-.47,2.85,2.85,0,0,0-2.19.9,3.39,3.39,0,0,0-.84,2.41,3.23,3.23,0,0,0,.78,2.28,2.67,2.67,0,0,0,2.06.85,3.86,3.86,0,0,0,2-.52Z"/><path class="cls-2" d="M825.94,338.06H825v-3.57H821v3.57H820v-7.84H821v3.44H825v-3.44h.92Z"/><path class="cls-2" d="M831.94,338.06h-4.15v-7.84h4v.83h-3.06v2.61h2.83v.83h-2.83v2.74h3.24Z"/><path class="cls-2" d="M838.58,337.73a4.59,4.59,0,0,1-2.16.46,3.49,3.49,0,0,1-2.68-1.08,4,4,0,0,1-1-2.83,4.16,4.16,0,0,1,1.13-3,3.84,3.84,0,0,1,2.87-1.16,4.61,4.61,0,0,1,1.85.32v1a3.75,3.75,0,0,0-1.86-.47,2.85,2.85,0,0,0-2.19.9,3.39,3.39,0,0,0-.84,2.41,3.23,3.23,0,0,0,.78,2.28,2.67,2.67,0,0,0,2.06.85,3.86,3.86,0,0,0,2-.52Z"/><path class="cls-2" d="M845.43,338.06h-1.28l-3-3.58a2.17,2.17,0,0,1-.21-.27h0v3.86H840v-7.84h.92v3.68h0a2.2,2.2,0,0,1,.21-.27l2.93-3.42h1.14L841.84,334Z"/><path class="cls-2" d="M848.94,338.19a3.44,3.44,0,0,1-2.67-1.1,4.07,4.07,0,0,1-1-2.86,4.32,4.32,0,0,1,1-3,3.57,3.57,0,0,1,2.78-1.13,3.36,3.36,0,0,1,2.62,1.09,4.09,4.09,0,0,1,1,2.86,4.33,4.33,0,0,1-1,3A3.5,3.5,0,0,1,848.94,338.19Zm.07-7.27a2.53,2.53,0,0,0-2,.89,4,4,0,0,0,0,4.67,2.45,2.45,0,0,0,2,.88,2.57,2.57,0,0,0,2-.84,3.44,3.44,0,0,0,.74-2.36,3.6,3.6,0,0,0-.72-2.4A2.48,2.48,0,0,0,849,330.92Z"/><path class="cls-2" d="M859.75,334.89q0,3.3-3,3.3T853.92,335v-4.79h.92V335q0,2.41,2,2.41t2-2.33v-4.81h.92Z"/><path class="cls-2" d="M866.14,331.05h-2.26v7H863v-7H860.7v-.83h5.44Z"/><path class="cls-2" d="M825.75,351.49v-7.84H828a2.44,2.44,0,0,1,1.61.5,1.61,1.61,0,0,1,.6,1.3,1.91,1.91,0,0,1-.36,1.16,1.94,1.94,0,0,1-1,.7v0a2,2,0,0,1,1.27.6,1.84,1.84,0,0,1,.47,1.31,2,2,0,0,1-.72,1.63,2.69,2.69,0,0,1-1.82.62Zm.92-7V347h.94a1.78,1.78,0,0,0,1.19-.36,1.27,1.27,0,0,0,.43-1q0-1.14-1.5-1.14Zm0,3.36v2.82h1.25a1.87,1.87,0,0,0,1.25-.38,1.31,1.31,0,0,0,.45-1q0-1.39-1.89-1.39Z"/><path class="cls-2" d="M835.13,351.62a3.44,3.44,0,0,1-2.67-1.1,4.07,4.07,0,0,1-1-2.86,4.32,4.32,0,0,1,1-3,3.57,3.57,0,0,1,2.78-1.13,3.36,3.36,0,0,1,2.62,1.09,4.09,4.09,0,0,1,1,2.86,4.33,4.33,0,0,1-1,3A3.5,3.5,0,0,1,835.13,351.62Zm.07-7.27a2.53,2.53,0,0,0-2,.89,4,4,0,0,0,0,4.67,2.45,2.45,0,0,0,2,.88,2.57,2.57,0,0,0,2-.84,3.44,3.44,0,0,0,.74-2.36,3.6,3.6,0,0,0-.72-2.4A2.48,2.48,0,0,0,835.19,344.35Z"/><path class="cls-2" d="M843.36,351.62a3.44,3.44,0,0,1-2.67-1.1,4.07,4.07,0,0,1-1-2.86,4.32,4.32,0,0,1,1-3,3.57,3.57,0,0,1,2.78-1.13,3.36,3.36,0,0,1,2.62,1.09,4.09,4.09,0,0,1,1,2.86,4.33,4.33,0,0,1-1,3A3.5,3.5,0,0,1,843.36,351.62Zm.07-7.27a2.53,2.53,0,0,0-2,.89,4,4,0,0,0,0,4.67,2.45,2.45,0,0,0,2,.88,2.57,2.57,0,0,0,2-.84,3.44,3.44,0,0,0,.74-2.36,3.6,3.6,0,0,0-.72-2.4A2.48,2.48,0,0,0,843.43,344.35Z"/><path class="cls-2" d="M853.89,351.49h-1.28l-3-3.58a2.17,2.17,0,0,1-.21-.27h0v3.86h-.92v-7.84h.92v3.68h0a2.2,2.2,0,0,1,.21-.27l2.93-3.42h1.14l-3.36,3.76Z"/><path class="cls-2" d="M912.69,338.06H911.6l-1.31-2.2a4.81,4.81,0,0,0-.35-.52,2,2,0,0,0-.35-.35,1.21,1.21,0,0,0-.38-.2,1.57,1.57,0,0,0-.46-.06H908v3.33h-.92v-7.84h2.34a3.32,3.32,0,0,1,.95.13,2.11,2.11,0,0,1,.75.39,1.8,1.8,0,0,1,.5.65,2.16,2.16,0,0,1,.18.92,2.2,2.2,0,0,1-.12.75,1.94,1.94,0,0,1-.35.61,2.12,2.12,0,0,1-.55.46,2.81,2.81,0,0,1-.72.29v0a1.65,1.65,0,0,1,.34.2,1.89,1.89,0,0,1,.28.26,3.77,3.77,0,0,1,.26.35l.29.45Zm-4.7-7v2.84h1.25a1.89,1.89,0,0,0,.64-.1,1.45,1.45,0,0,0,.51-.3,1.35,1.35,0,0,0,.33-.47,1.59,1.59,0,0,0,.12-.63,1.23,1.23,0,0,0-.41-1,1.75,1.75,0,0,0-1.18-.35Z"/><path class="cls-2" d="M917.72,338.06h-4.15v-7.84h4v.83h-3.06v2.61h2.83v.83h-2.83v2.74h3.24Z"/><path class="cls-2" d="M923.66,331.05H921.4v7h-.92v-7h-2.26v-.83h5.44Z"/><path class="cls-2" d="M930.42,334.89q0,3.3-3,3.3T924.59,335v-4.79h.92V335q0,2.41,2,2.41t2-2.33v-4.81h.92Z"/><path class="cls-2" d="M937.79,338.06H936.7l-1.31-2.2a4.81,4.81,0,0,0-.35-.52,2,2,0,0,0-.35-.35,1.21,1.21,0,0,0-.38-.2,1.57,1.57,0,0,0-.46-.06h-.75v3.33h-.92v-7.84h2.34a3.32,3.32,0,0,1,.95.13,2.11,2.11,0,0,1,.75.39,1.8,1.8,0,0,1,.5.65,2.16,2.16,0,0,1,.18.92,2.2,2.2,0,0,1-.12.75,1.94,1.94,0,0,1-.35.61,2.12,2.12,0,0,1-.55.46,2.81,2.81,0,0,1-.72.29v0a1.65,1.65,0,0,1,.34.2,1.89,1.89,0,0,1,.28.26,3.77,3.77,0,0,1,.26.35l.29.45Zm-4.7-7v2.84h1.25a1.89,1.89,0,0,0,.64-.1,1.45,1.45,0,0,0,.51-.3,1.35,1.35,0,0,0,.33-.47,1.59,1.59,0,0,0,.12-.63,1.23,1.23,0,0,0-.41-1,1.75,1.75,0,0,0-1.18-.35Z"/><path class="cls-2" d="M945,338.06h-1.13l-4-6.25a2.66,2.66,0,0,1-.25-.49h0a8,8,0,0,1,0,1.08v5.66h-.92v-7.84h1.19l3.92,6.15q.25.38.32.52h0a8.34,8.34,0,0,1-.05-1.15v-5.52H945Z"/><path class="cls-2" d="M912.47,351.49v-7.84h2.23a2.44,2.44,0,0,1,1.61.5,1.61,1.61,0,0,1,.6,1.3,1.91,1.91,0,0,1-.36,1.16,1.94,1.94,0,0,1-1,.7v0a2,2,0,0,1,1.27.6,1.84,1.84,0,0,1,.47,1.31,2,2,0,0,1-.72,1.63,2.69,2.69,0,0,1-1.82.62Zm.92-7V347h.94a1.78,1.78,0,0,0,1.19-.36,1.27,1.27,0,0,0,.43-1q0-1.14-1.5-1.14Zm0,3.36v2.82h1.25a1.87,1.87,0,0,0,1.25-.38,1.31,1.31,0,0,0,.45-1q0-1.39-1.89-1.39Z"/><path class="cls-2" d="M921.84,351.62a3.44,3.44,0,0,1-2.67-1.1,4.07,4.07,0,0,1-1-2.86,4.32,4.32,0,0,1,1-3,3.57,3.57,0,0,1,2.78-1.13,3.36,3.36,0,0,1,2.62,1.09,4.09,4.09,0,0,1,1,2.86,4.33,4.33,0,0,1-1,3A3.5,3.5,0,0,1,921.84,351.62Zm.07-7.27a2.53,2.53,0,0,0-2,.89,4,4,0,0,0,0,4.67,2.45,2.45,0,0,0,2,.88,2.57,2.57,0,0,0,2-.84,3.44,3.44,0,0,0,.74-2.36,3.6,3.6,0,0,0-.72-2.4A2.48,2.48,0,0,0,921.91,344.35Z"/><path class="cls-2" d="M930.08,351.62a3.44,3.44,0,0,1-2.67-1.1,4.07,4.07,0,0,1-1-2.86,4.32,4.32,0,0,1,1-3,3.57,3.57,0,0,1,2.78-1.13,3.36,3.36,0,0,1,2.62,1.09,4.09,4.09,0,0,1,1,2.86,4.33,4.33,0,0,1-1,3A3.5,3.5,0,0,1,930.08,351.62Zm.07-7.27a2.53,2.53,0,0,0-2,.89,4,4,0,0,0,0,4.67,2.45,2.45,0,0,0,2,.88,2.57,2.57,0,0,0,2-.84,3.44,3.44,0,0,0,.74-2.36,3.6,3.6,0,0,0-.72-2.4A2.48,2.48,0,0,0,930.14,344.35Z"/><path class="cls-2" d="M940.61,351.49h-1.28l-3-3.58a2.17,2.17,0,0,1-.21-.27h0v3.86h-.92v-7.84h.92v3.68h0a2.2,2.2,0,0,1,.21-.27l2.93-3.42h1.14L937,347.41Z"/><path class="cls-4" d="M272,179.23a6.15,6.15,0,0,1-4.77-2,7.28,7.28,0,0,1-1.79-5.11,7.71,7.71,0,0,1,1.83-5.39,6.38,6.38,0,0,1,5-2,6,6,0,0,1,4.67,2,7.31,7.31,0,0,1,1.77,5.11,7.74,7.74,0,0,1-1.82,5.42A6.26,6.26,0,0,1,272,179.23Zm.12-13a4.51,4.51,0,0,0-3.58,1.59,7.08,7.08,0,0,0,0,8.34,4.38,4.38,0,0,0,3.5,1.58,4.6,4.6,0,0,0,3.63-1.5,6.15,6.15,0,0,0,1.33-4.21,6.42,6.42,0,0,0-1.29-4.29A4.42,4.42,0,0,0,272.1,166.24Z"/><path class="cls-4" d="M290.49,179h-1.6v-1.58h0a3.29,3.29,0,0,1-3.09,1.82q-3.57,0-3.57-4.26v-6h1.59v5.72q0,3.16,2.42,3.16a2.45,2.45,0,0,0,1.93-.86,3.31,3.31,0,0,0,.76-2.26V169h1.6Z"/><path class="cls-4" d="M300.13,170.61a2,2,0,0,0-1.21-.32,2,2,0,0,0-1.71,1,4.47,4.47,0,0,0-.69,2.64V179h-1.6V169h1.6v2.06h0a3.49,3.49,0,0,1,1-1.65,2.38,2.38,0,0,1,1.57-.59,2.62,2.62,0,0,1,1,.14Z"/><path class="cls-4" d="M309.14,178.63v-1.72a4.74,4.74,0,0,0,2.88,1q2.11,0,2.11-1.41a1.22,1.22,0,0,0-.18-.68,1.81,1.81,0,0,0-.49-.49,3.75,3.75,0,0,0-.72-.39l-.89-.36a11.58,11.58,0,0,1-1.17-.53,3.51,3.51,0,0,1-.84-.61,2.25,2.25,0,0,1-.51-.77,2.72,2.72,0,0,1-.17-1,2.39,2.39,0,0,1,.32-1.25,2.86,2.86,0,0,1,.86-.91,4,4,0,0,1,1.23-.55,5.42,5.42,0,0,1,1.42-.19,5.73,5.73,0,0,1,2.32.45v1.62a4.53,4.53,0,0,0-2.54-.72,3,3,0,0,0-.81.1,2,2,0,0,0-.62.29,1.33,1.33,0,0,0-.4.44,1.17,1.17,0,0,0-.14.57,1.37,1.37,0,0,0,.14.65,1.44,1.44,0,0,0,.42.47,3.16,3.16,0,0,0,.66.37l.89.36a12.35,12.35,0,0,1,1.19.52,4.08,4.08,0,0,1,.9.61,2.36,2.36,0,0,1,.57.78,2.51,2.51,0,0,1,.2,1,2.46,2.46,0,0,1-.33,1.29,2.81,2.81,0,0,1-.87.91,4,4,0,0,1-1.26.54,6.22,6.22,0,0,1-1.49.18A5.67,5.67,0,0,1,309.14,178.63Z"/><path class="cls-4" d="M323.62,179.23a4.64,4.64,0,0,1-3.54-1.4,5.19,5.19,0,0,1-1.32-3.72,5.41,5.41,0,0,1,1.38-3.94,5,5,0,0,1,3.72-1.42,4.49,4.49,0,0,1,3.49,1.38A5.46,5.46,0,0,1,328.6,174a5.37,5.37,0,0,1-1.35,3.83A4.74,4.74,0,0,1,323.62,179.23Zm.12-9.12a3,3,0,0,0-2.44,1,4.31,4.31,0,0,0-.9,2.9,4.08,4.08,0,0,0,.91,2.8,3.09,3.09,0,0,0,2.43,1,2.93,2.93,0,0,0,2.39-1A4.36,4.36,0,0,0,327,174a4.44,4.44,0,0,0-.83-2.89A2.92,2.92,0,0,0,323.73,170.11Z"/><path class="cls-4" d="M334,179h-1.6v-14.8H334Z"/><path class="cls-4" d="M346.48,179h-1.6v-1.58h0a3.29,3.29,0,0,1-3.09,1.82q-3.57,0-3.57-4.26v-6h1.59v5.72q0,3.16,2.42,3.16a2.45,2.45,0,0,0,1.93-.86,3.31,3.31,0,0,0,.76-2.26V169h1.6Z"/><path class="cls-4" d="M355.56,178.9a3.09,3.09,0,0,1-1.49.31q-2.63,0-2.63-2.93v-5.92h-1.72V169h1.72v-2.44L353,166v3h2.52v1.37H353V176a2.33,2.33,0,0,0,.34,1.44,1.37,1.37,0,0,0,1.13.43,1.68,1.68,0,0,0,1-.33Z"/><path class="cls-4" d="M359.71,166.45a1,1,0,0,1-.73-.29,1,1,0,0,1-.3-.74,1,1,0,0,1,1-1,1,1,0,0,1,.75.3,1,1,0,0,1,0,1.48A1,1,0,0,1,359.71,166.45ZM360.5,179h-1.6V169h1.6Z"/><path class="cls-4" d="M369.12,179.23a4.64,4.64,0,0,1-3.54-1.4,5.19,5.19,0,0,1-1.32-3.72,5.41,5.41,0,0,1,1.38-3.94,5,5,0,0,1,3.72-1.42,4.49,4.49,0,0,1,3.49,1.38A5.46,5.46,0,0,1,374.1,174a5.37,5.37,0,0,1-1.35,3.83A4.74,4.74,0,0,1,369.12,179.23Zm.12-9.12a3,3,0,0,0-2.44,1,4.31,4.31,0,0,0-.9,2.9,4.08,4.08,0,0,0,.91,2.8,3.09,3.09,0,0,0,2.43,1,2.93,2.93,0,0,0,2.39-1,4.36,4.36,0,0,0,.83-2.86,4.44,4.44,0,0,0-.83-2.89A2.92,2.92,0,0,0,369.23,170.11Z"/><path class="cls-4" d="M386.16,179h-1.6v-5.7q0-3.18-2.32-3.18a2.52,2.52,0,0,0-2,.9,3.35,3.35,0,0,0-.79,2.28V179h-1.6V169h1.6v1.66h0a3.61,3.61,0,0,1,3.28-1.89,3.06,3.06,0,0,1,2.51,1.06,4.72,4.72,0,0,1,.87,3.06Z"/><path class="cls-4" d="M397.87,166.45a1,1,0,0,1-.73-.29,1,1,0,0,1-.3-.74,1,1,0,0,1,1-1,1,1,0,0,1,.75.3,1,1,0,0,1,0,1.48A1,1,0,0,1,397.87,166.45Zm.78,12.54h-1.6V169h1.6Z"/><path class="cls-4" d="M402.49,178.63v-1.72a4.74,4.74,0,0,0,2.88,1q2.11,0,2.11-1.41a1.22,1.22,0,0,0-.18-.68,1.81,1.81,0,0,0-.49-.49,3.75,3.75,0,0,0-.72-.39l-.89-.36A11.58,11.58,0,0,1,404,174a3.51,3.51,0,0,1-.84-.61,2.25,2.25,0,0,1-.51-.77,2.72,2.72,0,0,1-.17-1,2.39,2.39,0,0,1,.32-1.25,2.86,2.86,0,0,1,.86-.91,4,4,0,0,1,1.23-.55,5.42,5.42,0,0,1,1.42-.19,5.73,5.73,0,0,1,2.32.45v1.62a4.53,4.53,0,0,0-2.54-.72,3,3,0,0,0-.81.1,2,2,0,0,0-.62.29,1.33,1.33,0,0,0-.4.44,1.17,1.17,0,0,0-.14.57,1.37,1.37,0,0,0,.14.65,1.44,1.44,0,0,0,.42.47,3.16,3.16,0,0,0,.66.37l.89.36a12.35,12.35,0,0,1,1.19.52,4.08,4.08,0,0,1,.9.61,2.36,2.36,0,0,1,.57.78,2.51,2.51,0,0,1,.2,1,2.46,2.46,0,0,1-.33,1.29,2.81,2.81,0,0,1-.87.91,4,4,0,0,1-1.26.54,6.22,6.22,0,0,1-1.49.18A5.67,5.67,0,0,1,402.49,178.63Z"/><path class="cls-4" d="M426.62,179H425v-1.56h0a3.35,3.35,0,0,1-3.08,1.8,3.29,3.29,0,0,1-2.34-.79,2.74,2.74,0,0,1-.84-2.1q0-2.8,3.3-3.26l3-.42q0-2.55-2.06-2.55a4.92,4.92,0,0,0-3.26,1.23V169.7a6.2,6.2,0,0,1,3.4-.94q3.53,0,3.53,3.73Zm-1.6-5.06-2.41.33a3.92,3.92,0,0,0-1.68.55,1.59,1.59,0,0,0-.57,1.4,1.53,1.53,0,0,0,.52,1.2,2,2,0,0,0,1.39.46,2.57,2.57,0,0,0,2-.83,3,3,0,0,0,.78-2.11Z"/><path class="cls-4" d="M451.72,179h-1.6v-5.74a4.33,4.33,0,0,0-.51-2.4,1.94,1.94,0,0,0-1.72-.74,2.13,2.13,0,0,0-1.74.94,3.59,3.59,0,0,0-.72,2.25V179h-1.6v-5.94q0-2.95-2.28-2.95a2.11,2.11,0,0,0-1.74.88,3.65,3.65,0,0,0-.68,2.3V179h-1.6V169h1.6v1.58h0a3.4,3.4,0,0,1,3.11-1.82,2.89,2.89,0,0,1,2.83,2.07,3.57,3.57,0,0,1,3.32-2.07q3.3,0,3.3,4.07Z"/><path class="cls-4" d="M460.12,179.23a4.64,4.64,0,0,1-3.54-1.4,5.19,5.19,0,0,1-1.32-3.72,5.41,5.41,0,0,1,1.38-3.94,5,5,0,0,1,3.72-1.42,4.49,4.49,0,0,1,3.49,1.38A5.46,5.46,0,0,1,465.1,174a5.37,5.37,0,0,1-1.35,3.83A4.74,4.74,0,0,1,460.12,179.23Zm.12-9.12a3,3,0,0,0-2.44,1,4.31,4.31,0,0,0-.9,2.9,4.08,4.08,0,0,0,.91,2.8,3.09,3.09,0,0,0,2.43,1,2.93,2.93,0,0,0,2.39-1,4.36,4.36,0,0,0,.83-2.86,4.44,4.44,0,0,0-.83-2.89A2.92,2.92,0,0,0,460.24,170.11Z"/><path class="cls-4" d="M470.5,177.55h0V179h-1.6v-14.8h1.6v6.56h0a3.79,3.79,0,0,1,3.46-2,3.66,3.66,0,0,1,3,1.34,5.54,5.54,0,0,1,1.09,3.6,6.2,6.2,0,0,1-1.22,4,4.06,4.06,0,0,1-3.34,1.51A3.29,3.29,0,0,1,470.5,177.55Zm0-4v1.4a3,3,0,0,0,.81,2.1,2.87,2.87,0,0,0,4.33-.25,5.11,5.11,0,0,0,.83-3.1,4,4,0,0,0-.77-2.62,2.55,2.55,0,0,0-2.09-.95,2.84,2.84,0,0,0-2.25,1A3.57,3.57,0,0,0,470.46,173.52Z"/><path class="cls-4" d="M482.64,166.45a1,1,0,0,1-.73-.29,1,1,0,0,1-.3-.74,1,1,0,0,1,1-1,1,1,0,0,1,.75.3,1,1,0,0,1,0,1.48A1,1,0,0,1,482.64,166.45Zm.78,12.54h-1.6V169h1.6Z"/><path class="cls-4" d="M489.46,179h-1.6v-14.8h1.6Z"/><path class="cls-4" d="M501.94,174.39h-7.06a3.74,3.74,0,0,0,.9,2.58,3.1,3.1,0,0,0,2.36.91,4.91,4.91,0,0,0,3.11-1.11v1.5a5.81,5.81,0,0,1-3.49,1,4.23,4.23,0,0,1-3.33-1.36,5.58,5.58,0,0,1-1.21-3.83,5.47,5.47,0,0,1,1.32-3.8,4.24,4.24,0,0,1,3.29-1.47,3.76,3.76,0,0,1,3,1.27,5.29,5.29,0,0,1,1.07,3.53ZM500.3,173a3.26,3.26,0,0,0-.67-2.16,2.28,2.28,0,0,0-1.83-.77,2.59,2.59,0,0,0-1.92.81,3.68,3.68,0,0,0-1,2.12Z"/><path class="cls-4" d="M519.4,179h-1.6v-1.56h0a3.35,3.35,0,0,1-3.08,1.8,3.29,3.29,0,0,1-2.34-.79,2.74,2.74,0,0,1-.84-2.1q0-2.8,3.3-3.26l3-.42q0-2.55-2.06-2.55a4.92,4.92,0,0,0-3.26,1.23V169.7a6.2,6.2,0,0,1,3.4-.94q3.53,0,3.53,3.73Zm-1.6-5.06-2.41.33a3.92,3.92,0,0,0-1.68.55,1.59,1.59,0,0,0-.57,1.4,1.53,1.53,0,0,0,.52,1.2,2,2,0,0,0,1.39.46,2.57,2.57,0,0,0,2-.83,3,3,0,0,0,.78-2.11Z"/><path class="cls-4" d="M525.26,177.55h0v6h-1.6V169h1.6v1.76h0a3.79,3.79,0,0,1,3.46-2,3.66,3.66,0,0,1,3,1.34,5.56,5.56,0,0,1,1.08,3.6,6.2,6.2,0,0,1-1.22,4,4.06,4.06,0,0,1-3.34,1.51A3.35,3.35,0,0,1,525.26,177.55Zm0-4v1.4A3,3,0,0,0,526,177a2.87,2.87,0,0,0,4.33-.25,5.11,5.11,0,0,0,.83-3.1,4,4,0,0,0-.77-2.62,2.55,2.55,0,0,0-2.09-.95,2.84,2.84,0,0,0-2.25,1A3.57,3.57,0,0,0,525.22,173.52Z"/><path class="cls-4" d="M538.22,177.55h0v6h-1.6V169h1.6v1.76h0a3.79,3.79,0,0,1,3.46-2,3.66,3.66,0,0,1,3,1.34,5.56,5.56,0,0,1,1.08,3.6,6.2,6.2,0,0,1-1.22,4,4.06,4.06,0,0,1-3.34,1.51A3.35,3.35,0,0,1,538.22,177.55Zm0-4v1.4A3,3,0,0,0,539,177a2.87,2.87,0,0,0,4.33-.25,5.11,5.11,0,0,0,.83-3.1,4,4,0,0,0-.77-2.62,2.55,2.55,0,0,0-2.09-.95,2.84,2.84,0,0,0-2.25,1A3.57,3.57,0,0,0,538.18,173.52Z"/><path class="cls-4" d="M551.14,179h-1.6v-14.8h1.6Z"/><path class="cls-4" d="M556.4,166.45a1,1,0,0,1-.73-.29,1,1,0,0,1-.3-.74,1,1,0,0,1,1-1,1,1,0,0,1,.75.3,1,1,0,0,1,0,1.48A1,1,0,0,1,556.4,166.45Zm.78,12.54h-1.6V169h1.6Z"/><path class="cls-4" d="M568.44,178.53a5.21,5.21,0,0,1-2.73.69,4.53,4.53,0,0,1-3.45-1.39,5,5,0,0,1-1.31-3.61,5.54,5.54,0,0,1,1.42-4,5,5,0,0,1,3.78-1.5,5.26,5.26,0,0,1,2.32.49v1.64a4.07,4.07,0,0,0-2.38-.78,3.22,3.22,0,0,0-2.51,1.1,4.17,4.17,0,0,0-1,2.89,4,4,0,0,0,.92,2.77,3.18,3.18,0,0,0,2.48,1,4,4,0,0,0,2.46-.87Z"/><path class="cls-4" d="M579.22,179h-1.6v-1.56h0a3.35,3.35,0,0,1-3.08,1.8,3.29,3.29,0,0,1-2.34-.79,2.74,2.74,0,0,1-.84-2.1q0-2.8,3.3-3.26l3-.42q0-2.55-2.06-2.55a4.92,4.92,0,0,0-3.26,1.23V169.7a6.2,6.2,0,0,1,3.4-.94q3.53,0,3.53,3.73Zm-1.6-5.06-2.41.33a3.92,3.92,0,0,0-1.68.55,1.59,1.59,0,0,0-.57,1.4,1.53,1.53,0,0,0,.52,1.2,2,2,0,0,0,1.39.46,2.57,2.57,0,0,0,2-.83,3,3,0,0,0,.78-2.11Z"/><path class="cls-4" d="M588.08,178.9a3.09,3.09,0,0,1-1.49.31q-2.63,0-2.63-2.93v-5.92h-1.72V169H584v-2.44l1.6-.52v3h2.52v1.37h-2.52V176a2.33,2.33,0,0,0,.34,1.44,1.37,1.37,0,0,0,1.13.43,1.68,1.68,0,0,0,1-.33Z"/><path class="cls-4" d="M592.24,166.45a1,1,0,0,1-.73-.29,1,1,0,0,1-.3-.74,1,1,0,0,1,1-1,1,1,0,0,1,.75.3,1,1,0,0,1,0,1.48A1,1,0,0,1,592.24,166.45ZM593,179h-1.6V169H593Z"/><path class="cls-4" d="M601.64,179.23a4.64,4.64,0,0,1-3.54-1.4,5.19,5.19,0,0,1-1.32-3.72,5.41,5.41,0,0,1,1.38-3.94,5,5,0,0,1,3.72-1.42,4.49,4.49,0,0,1,3.49,1.38,5.46,5.46,0,0,1,1.25,3.82,5.37,5.37,0,0,1-1.35,3.83A4.74,4.74,0,0,1,601.64,179.23Zm.12-9.12a3,3,0,0,0-2.44,1,4.31,4.31,0,0,0-.9,2.9,4.08,4.08,0,0,0,.91,2.8,3.09,3.09,0,0,0,2.43,1,2.93,2.93,0,0,0,2.39-1A4.36,4.36,0,0,0,605,174a4.44,4.44,0,0,0-.83-2.89A2.92,2.92,0,0,0,601.76,170.11Z"/><path class="cls-4" d="M618.68,179h-1.6v-5.7q0-3.18-2.32-3.18a2.52,2.52,0,0,0-2,.9,3.35,3.35,0,0,0-.79,2.28V179h-1.6V169H612v1.66h0a3.61,3.61,0,0,1,3.28-1.89,3.06,3.06,0,0,1,2.51,1.06,4.72,4.72,0,0,1,.87,3.06Z"/><path class="cls-4" d="M273.28,203h-1.6v-1.56h0a3.35,3.35,0,0,1-3.08,1.8,3.29,3.29,0,0,1-2.34-.79,2.74,2.74,0,0,1-.84-2.1q0-2.8,3.3-3.26l3-.42q0-2.55-2.06-2.55a4.92,4.92,0,0,0-3.26,1.23V193.7a6.2,6.2,0,0,1,3.4-.94q3.53,0,3.53,3.73Zm-1.6-5.06-2.41.33a3.92,3.92,0,0,0-1.68.55,1.59,1.59,0,0,0-.57,1.4,1.53,1.53,0,0,0,.52,1.2,2,2,0,0,0,1.39.46,2.57,2.57,0,0,0,2-.83,3,3,0,0,0,.78-2.11Z"/><path class="cls-4" d="M285.8,203h-1.6v-5.7q0-3.18-2.32-3.18a2.52,2.52,0,0,0-2,.9,3.35,3.35,0,0,0-.79,2.28V203h-1.6V193h1.6v1.66h0a3.61,3.61,0,0,1,3.28-1.89,3.06,3.06,0,0,1,2.51,1.06,4.72,4.72,0,0,1,.87,3.06Z"/><path class="cls-4" d="M298.55,203h-1.6v-1.7h0a4,4,0,0,1-6.45.59,5.51,5.51,0,0,1-1.13-3.66,6,6,0,0,1,1.25-4,4.12,4.12,0,0,1,3.33-1.49,3.21,3.21,0,0,1,3,1.62h0v-6.19h1.6Zm-1.6-4.52V197a2.86,2.86,0,0,0-.8-2.05,2.69,2.69,0,0,0-2-.84,2.77,2.77,0,0,0-2.3,1.07,4.71,4.71,0,0,0-.84,3,4.23,4.23,0,0,0,.81,2.73,2.63,2.63,0,0,0,2.16,1,2.74,2.74,0,0,0,2.17-1A3.6,3.6,0,0,0,296.95,198.47Z"/><path class="cls-4" d="M316.49,202.53a5.21,5.21,0,0,1-2.73.69,4.53,4.53,0,0,1-3.45-1.39,5,5,0,0,1-1.31-3.61,5.54,5.54,0,0,1,1.42-4,5,5,0,0,1,3.78-1.5,5.26,5.26,0,0,1,2.32.49v1.64a4.07,4.07,0,0,0-2.38-.78,3.22,3.22,0,0,0-2.51,1.1,4.17,4.17,0,0,0-1,2.89,4,4,0,0,0,.92,2.77,3.18,3.18,0,0,0,2.48,1,4,4,0,0,0,2.46-.87Z"/><path class="cls-4" d="M328.15,198.39h-7.06A3.74,3.74,0,0,0,322,201a3.1,3.1,0,0,0,2.36.91,4.91,4.91,0,0,0,3.11-1.11v1.5a5.81,5.81,0,0,1-3.49,1,4.23,4.23,0,0,1-3.33-1.36,5.58,5.58,0,0,1-1.21-3.83,5.47,5.47,0,0,1,1.32-3.8,4.24,4.24,0,0,1,3.29-1.47,3.76,3.76,0,0,1,3,1.27,5.29,5.29,0,0,1,1.07,3.53ZM326.51,197a3.26,3.26,0,0,0-.67-2.16,2.28,2.28,0,0,0-1.83-.77,2.59,2.59,0,0,0-1.92.81,3.68,3.68,0,0,0-1,2.12Z"/><path class="cls-4" d="M340.07,203h-1.6v-5.7q0-3.18-2.32-3.18a2.52,2.52,0,0,0-2,.9,3.35,3.35,0,0,0-.79,2.28V203h-1.6V193h1.6v1.66h0a3.61,3.61,0,0,1,3.28-1.89,3.06,3.06,0,0,1,2.51,1.06,4.72,4.72,0,0,1,.87,3.06Z"/><path class="cls-4" d="M348.93,202.9a3.09,3.09,0,0,1-1.49.31q-2.63,0-2.63-2.93v-5.92h-1.72V193h1.72v-2.44l1.6-.52v3h2.52v1.37h-2.52V200a2.33,2.33,0,0,0,.34,1.44,1.37,1.37,0,0,0,1.13.43,1.68,1.68,0,0,0,1-.33Z"/><path class="cls-4" d="M357.48,194.61a2,2,0,0,0-1.21-.32,2,2,0,0,0-1.71,1,4.47,4.47,0,0,0-.69,2.64V203h-1.6V193h1.6v2.06h0a3.49,3.49,0,0,1,1-1.65,2.38,2.38,0,0,1,1.57-.59,2.62,2.62,0,0,1,1,.14Z"/><path class="cls-4" d="M367.58,203H366v-1.56h0a3.35,3.35,0,0,1-3.08,1.8,3.29,3.29,0,0,1-2.34-.79,2.74,2.74,0,0,1-.84-2.1q0-2.8,3.3-3.26l3-.42q0-2.55-2.06-2.55a4.92,4.92,0,0,0-3.26,1.23V193.7a6.2,6.2,0,0,1,3.4-.94q3.53,0,3.53,3.73Zm-1.6-5.06-2.41.33a3.92,3.92,0,0,0-1.68.55,1.59,1.59,0,0,0-.57,1.4,1.53,1.53,0,0,0,.52,1.2,2,2,0,0,0,1.39.46,2.57,2.57,0,0,0,2-.83,3,3,0,0,0,.78-2.11Z"/><path class="cls-4" d="M373.4,203h-1.6v-14.8h1.6Z"/><path class="cls-4" d="M393.05,203h-1.6v-1.7h0a4,4,0,0,1-6.45.59,5.51,5.51,0,0,1-1.13-3.66,6,6,0,0,1,1.25-4,4.12,4.12,0,0,1,3.33-1.49,3.21,3.21,0,0,1,3,1.62h0v-6.19h1.6Zm-1.6-4.52V197a2.86,2.86,0,0,0-.8-2.05,2.69,2.69,0,0,0-2-.84,2.77,2.77,0,0,0-2.3,1.07,4.71,4.71,0,0,0-.84,3,4.23,4.23,0,0,0,.81,2.73,2.63,2.63,0,0,0,2.16,1,2.74,2.74,0,0,0,2.17-1A3.6,3.6,0,0,0,391.45,198.47Z"/><path class="cls-4" d="M404.65,203H403v-1.56h0a3.35,3.35,0,0,1-3.08,1.8,3.29,3.29,0,0,1-2.34-.79,2.74,2.74,0,0,1-.84-2.1q0-2.8,3.3-3.26l3-.42q0-2.55-2.06-2.55a4.92,4.92,0,0,0-3.26,1.23V193.7a6.2,6.2,0,0,1,3.4-.94q3.53,0,3.53,3.73Zm-1.6-5.06-2.41.33a3.92,3.92,0,0,0-1.68.55,1.59,1.59,0,0,0-.57,1.4,1.53,1.53,0,0,0,.52,1.2,2,2,0,0,0,1.39.46,2.57,2.57,0,0,0,2-.83,3,3,0,0,0,.78-2.11Z"/><path class="cls-4" d="M413.51,202.9a3.09,3.09,0,0,1-1.49.31q-2.63,0-2.63-2.93v-5.92h-1.72V193h1.72v-2.44L411,190v3h2.52v1.37H411V200a2.33,2.33,0,0,0,.34,1.44,1.37,1.37,0,0,0,1.13.43,1.68,1.68,0,0,0,1-.33Z"/><path class="cls-4" d="M424,203h-1.6v-1.56h0a3.35,3.35,0,0,1-3.08,1.8,3.29,3.29,0,0,1-2.34-.79,2.74,2.74,0,0,1-.84-2.1q0-2.8,3.3-3.26l3-.42q0-2.55-2.06-2.55a4.92,4.92,0,0,0-3.26,1.23V193.7a6.2,6.2,0,0,1,3.4-.94q3.53,0,3.53,3.73Zm-1.6-5.06-2.41.33a3.92,3.92,0,0,0-1.68.55,1.59,1.59,0,0,0-.57,1.4,1.53,1.53,0,0,0,.52,1.2,2,2,0,0,0,1.39.46,2.57,2.57,0,0,0,2-.83,3,3,0,0,0,.78-2.11Z"/><path class="cls-4" d="M429.86,201.55h0V203h-1.6v-14.8h1.6v6.56h0a3.79,3.79,0,0,1,3.46-2,3.66,3.66,0,0,1,3,1.34,5.54,5.54,0,0,1,1.09,3.6,6.2,6.2,0,0,1-1.22,4,4.06,4.06,0,0,1-3.34,1.51A3.29,3.29,0,0,1,429.86,201.55Zm0-4v1.4a3,3,0,0,0,.81,2.1,2.87,2.87,0,0,0,4.33-.25,5.11,5.11,0,0,0,.83-3.1,4,4,0,0,0-.77-2.62,2.55,2.55,0,0,0-2.09-.95,2.84,2.84,0,0,0-2.25,1A3.57,3.57,0,0,0,429.82,197.52Z"/><path class="cls-4" d="M448.34,203h-1.6v-1.56h0a3.35,3.35,0,0,1-3.08,1.8,3.29,3.29,0,0,1-2.34-.79,2.74,2.74,0,0,1-.84-2.1q0-2.8,3.3-3.26l3-.42q0-2.55-2.06-2.55a4.92,4.92,0,0,0-3.26,1.23V193.7a6.2,6.2,0,0,1,3.4-.94q3.53,0,3.53,3.73Zm-1.6-5.06-2.41.33a3.92,3.92,0,0,0-1.68.55,1.59,1.59,0,0,0-.57,1.4,1.53,1.53,0,0,0,.52,1.2,2,2,0,0,0,1.39.46,2.57,2.57,0,0,0,2-.83,3,3,0,0,0,.78-2.11Z"/><path class="cls-4" d="M452,202.63v-1.72a4.74,4.74,0,0,0,2.88,1q2.11,0,2.11-1.41a1.22,1.22,0,0,0-.18-.68,1.81,1.81,0,0,0-.49-.49,3.75,3.75,0,0,0-.72-.39l-.89-.36a11.58,11.58,0,0,1-1.17-.53,3.51,3.51,0,0,1-.84-.61,2.25,2.25,0,0,1-.51-.77,2.72,2.72,0,0,1-.17-1,2.39,2.39,0,0,1,.32-1.25,2.86,2.86,0,0,1,.86-.91,4,4,0,0,1,1.23-.55,5.42,5.42,0,0,1,1.42-.19,5.73,5.73,0,0,1,2.32.45v1.62a4.53,4.53,0,0,0-2.54-.72,3,3,0,0,0-.81.1,2,2,0,0,0-.62.29,1.33,1.33,0,0,0-.4.44,1.17,1.17,0,0,0-.14.57,1.37,1.37,0,0,0,.14.65,1.44,1.44,0,0,0,.42.47,3.16,3.16,0,0,0,.66.37l.89.36a12.35,12.35,0,0,1,1.19.52,4.08,4.08,0,0,1,.9.61,2.36,2.36,0,0,1,.57.78,2.51,2.51,0,0,1,.2,1,2.46,2.46,0,0,1-.33,1.29,2.81,2.81,0,0,1-.87.91,4,4,0,0,1-1.26.54,6.22,6.22,0,0,1-1.49.18A5.67,5.67,0,0,1,452,202.63Z"/><path class="cls-4" d="M470.28,198.39h-7.06a3.74,3.74,0,0,0,.9,2.58,3.1,3.1,0,0,0,2.36.91,4.91,4.91,0,0,0,3.11-1.11v1.5a5.81,5.81,0,0,1-3.49,1,4.23,4.23,0,0,1-3.33-1.36,5.58,5.58,0,0,1-1.21-3.83,5.47,5.47,0,0,1,1.32-3.8,4.24,4.24,0,0,1,3.29-1.47,3.76,3.76,0,0,1,3,1.27,5.29,5.29,0,0,1,1.07,3.53ZM468.64,197a3.26,3.26,0,0,0-.67-2.16,2.28,2.28,0,0,0-1.83-.77,2.59,2.59,0,0,0-1.92.81,3.68,3.68,0,0,0-1,2.12Z"/><path class="cls-4" d="M480,202.63v-1.72a4.74,4.74,0,0,0,2.88,1q2.11,0,2.11-1.41a1.22,1.22,0,0,0-.18-.68,1.81,1.81,0,0,0-.49-.49,3.75,3.75,0,0,0-.72-.39l-.89-.36a11.58,11.58,0,0,1-1.17-.53,3.51,3.51,0,0,1-.84-.61,2.25,2.25,0,0,1-.51-.77,2.72,2.72,0,0,1-.17-1,2.39,2.39,0,0,1,.32-1.25,2.86,2.86,0,0,1,.86-.91,4,4,0,0,1,1.23-.55,5.42,5.42,0,0,1,1.42-.19,5.73,5.73,0,0,1,2.32.45v1.62a4.53,4.53,0,0,0-2.54-.72,3,3,0,0,0-.81.1,2,2,0,0,0-.62.29,1.33,1.33,0,0,0-.4.44,1.17,1.17,0,0,0-.14.57,1.37,1.37,0,0,0,.14.65,1.44,1.44,0,0,0,.42.47,3.16,3.16,0,0,0,.66.37l.89.36a12.35,12.35,0,0,1,1.19.52,4.08,4.08,0,0,1,.9.61,2.36,2.36,0,0,1,.57.78,2.51,2.51,0,0,1,.2,1,2.46,2.46,0,0,1-.33,1.29,2.81,2.81,0,0,1-.87.91,4,4,0,0,1-1.26.54,6.22,6.22,0,0,1-1.49.18A5.67,5.67,0,0,1,480,202.63Z"/><path class="cls-4" d="M498.22,193l-4.6,11.6q-1.23,3.11-3.46,3.11a3.65,3.65,0,0,1-1-.13v-1.44a3,3,0,0,0,.95.18,2,2,0,0,0,1.82-1.45l.8-1.89-3.91-10h1.78l2.71,7.7q0,.15.21.76h.06q0-.23.2-.74l2.84-7.71Z"/><path class="cls-4" d="M500.54,202.63v-1.72a4.74,4.74,0,0,0,2.88,1q2.11,0,2.11-1.41a1.22,1.22,0,0,0-.18-.68,1.81,1.81,0,0,0-.49-.49,3.75,3.75,0,0,0-.72-.39l-.89-.36a11.58,11.58,0,0,1-1.17-.53,3.51,3.51,0,0,1-.84-.61,2.25,2.25,0,0,1-.51-.77,2.72,2.72,0,0,1-.17-1,2.39,2.39,0,0,1,.32-1.25,2.86,2.86,0,0,1,.86-.91,4,4,0,0,1,1.23-.55,5.42,5.42,0,0,1,1.42-.19,5.73,5.73,0,0,1,2.32.45v1.62a4.53,4.53,0,0,0-2.54-.72,3,3,0,0,0-.81.1,2,2,0,0,0-.62.29,1.33,1.33,0,0,0-.4.44,1.17,1.17,0,0,0-.14.57,1.37,1.37,0,0,0,.14.65,1.44,1.44,0,0,0,.42.47,3.16,3.16,0,0,0,.66.37l.89.36a12.35,12.35,0,0,1,1.19.52,4.08,4.08,0,0,1,.9.61,2.36,2.36,0,0,1,.57.78,2.51,2.51,0,0,1,.2,1,2.46,2.46,0,0,1-.33,1.29,2.81,2.81,0,0,1-.87.91,4,4,0,0,1-1.26.54,6.22,6.22,0,0,1-1.49.18A5.67,5.67,0,0,1,500.54,202.63Z"/><path class="cls-4" d="M515.47,202.9a3.09,3.09,0,0,1-1.49.31q-2.63,0-2.63-2.93v-5.92h-1.72V193h1.72v-2.44l1.6-.52v3h2.52v1.37h-2.52V200a2.33,2.33,0,0,0,.34,1.44,1.37,1.37,0,0,0,1.13.43,1.68,1.68,0,0,0,1-.33Z"/><path class="cls-4" d="M526.84,198.39h-7.06a3.74,3.74,0,0,0,.9,2.58,3.1,3.1,0,0,0,2.36.91,4.91,4.91,0,0,0,3.11-1.11v1.5a5.81,5.81,0,0,1-3.49,1,4.23,4.23,0,0,1-3.33-1.36,5.58,5.58,0,0,1-1.21-3.83,5.47,5.47,0,0,1,1.32-3.8,4.24,4.24,0,0,1,3.29-1.47,3.76,3.76,0,0,1,3,1.27,5.29,5.29,0,0,1,1.07,3.53ZM525.2,197a3.26,3.26,0,0,0-.67-2.16,2.28,2.28,0,0,0-1.83-.77,2.59,2.59,0,0,0-1.92.81,3.68,3.68,0,0,0-1,2.12Z"/><path class="cls-4" d="M544.67,203h-1.6v-5.74a4.33,4.33,0,0,0-.51-2.4,1.94,1.94,0,0,0-1.72-.74,2.13,2.13,0,0,0-1.74.94,3.59,3.59,0,0,0-.72,2.25V203h-1.6v-5.94q0-2.95-2.28-2.95a2.11,2.11,0,0,0-1.74.88,3.65,3.65,0,0,0-.68,2.3V203h-1.6V193h1.6v1.58h0a3.4,3.4,0,0,1,3.11-1.82,2.89,2.89,0,0,1,2.83,2.07,3.57,3.57,0,0,1,3.32-2.07q3.3,0,3.3,4.07Z"/><path class="cls-4" d="M568.17,193l-3,10h-1.66l-2.06-7.16a4.66,4.66,0,0,1-.16-.93h0a4.38,4.38,0,0,1-.21.91L558.81,203h-1.6l-3-10h1.68l2.07,7.52a4.53,4.53,0,0,1,.14.9h.08a4.2,4.2,0,0,1,.18-.92l2.3-7.5h1.46l2.07,7.54a5.42,5.42,0,0,1,.15.9h.08a4.16,4.16,0,0,1,.17-.9l2-7.54Z"/><path class="cls-4" d="M579.52,203h-1.6v-5.76q0-3.12-2.32-3.12a2.53,2.53,0,0,0-2,.9,3.37,3.37,0,0,0-.8,2.32V203h-1.6v-14.8h1.6v6.46h0a3.64,3.64,0,0,1,3.28-1.89q3.38,0,3.38,4.07Z"/><path class="cls-4" d="M584.56,190.45a1,1,0,0,1-.73-.29,1,1,0,0,1-.3-.74,1,1,0,0,1,1-1,1,1,0,0,1,.75.3,1,1,0,0,1,0,1.48A1,1,0,0,1,584.56,190.45Zm.78,12.54h-1.6V193h1.6Z"/><path class="cls-4" d="M596.6,202.53a5.21,5.21,0,0,1-2.73.69,4.53,4.53,0,0,1-3.45-1.39,5,5,0,0,1-1.31-3.61,5.54,5.54,0,0,1,1.42-4,5,5,0,0,1,3.78-1.5,5.26,5.26,0,0,1,2.32.49v1.64a4.07,4.07,0,0,0-2.38-.78,3.22,3.22,0,0,0-2.51,1.1,4.17,4.17,0,0,0-1,2.89,4,4,0,0,0,.92,2.77,3.18,3.18,0,0,0,2.48,1,4,4,0,0,0,2.46-.87Z"/><path class="cls-4" d="M608.53,203h-1.6v-5.76q0-3.12-2.32-3.12a2.53,2.53,0,0,0-2,.9,3.37,3.37,0,0,0-.8,2.32V203h-1.6v-14.8h1.6v6.46h0a3.64,3.64,0,0,1,3.28-1.89q3.38,0,3.38,4.07Z"/><path class="cls-4" d="M278.72,217l-3,10h-1.66L272,219.83a4.66,4.66,0,0,1-.16-.93h0a4.38,4.38,0,0,1-.21.91L269.36,227h-1.6l-3-10h1.68l2.07,7.52a4.53,4.53,0,0,1,.14.9h.08a4.2,4.2,0,0,1,.18-.92l2.3-7.5h1.46l2.07,7.54a5.42,5.42,0,0,1,.15.9h.08a4.16,4.16,0,0,1,.17-.9l2-7.54Z"/><path class="cls-4" d="M282.6,214.45a1,1,0,0,1-.73-.29,1,1,0,0,1-.3-.74,1,1,0,0,1,1-1,1,1,0,0,1,.75.3,1,1,0,0,1,0,1.48A1,1,0,0,1,282.6,214.45Zm.78,12.54h-1.6V217h1.6Z"/><path class="cls-4" d="M289.42,227h-1.6v-14.8h1.6Z"/><path class="cls-4" d="M295.46,227h-1.6v-14.8h1.6Z"/><path class="cls-4" d="M311.8,218.61a2,2,0,0,0-1.21-.32,2,2,0,0,0-1.71,1,4.47,4.47,0,0,0-.69,2.64V227h-1.6V217h1.6v2.06h0a3.49,3.49,0,0,1,1-1.65,2.38,2.38,0,0,1,1.57-.59,2.62,2.62,0,0,1,1,.14Z"/><path class="cls-4" d="M322.77,222.39h-7.06a3.74,3.74,0,0,0,.9,2.58,3.1,3.1,0,0,0,2.36.91,4.91,4.91,0,0,0,3.11-1.11v1.5a5.81,5.81,0,0,1-3.49,1,4.23,4.23,0,0,1-3.33-1.36,5.58,5.58,0,0,1-1.21-3.83,5.47,5.47,0,0,1,1.32-3.8,4.24,4.24,0,0,1,3.29-1.47,3.76,3.76,0,0,1,3,1.27,5.29,5.29,0,0,1,1.07,3.52ZM321.13,221a3.26,3.26,0,0,0-.67-2.16,2.28,2.28,0,0,0-1.83-.77,2.59,2.59,0,0,0-1.92.81,3.67,3.67,0,0,0-1,2.12Z"/><path class="cls-4" d="M328,225.55h0v6h-1.6V217H328v1.76h0a3.79,3.79,0,0,1,3.46-2,3.66,3.66,0,0,1,3,1.34,5.56,5.56,0,0,1,1.08,3.6,6.2,6.2,0,0,1-1.22,4,4.06,4.06,0,0,1-3.34,1.51A3.35,3.35,0,0,1,328,225.55Zm0-4v1.4a3,3,0,0,0,.81,2.1,2.87,2.87,0,0,0,4.33-.25,5.11,5.11,0,0,0,.83-3.1,4,4,0,0,0-.77-2.62,2.55,2.55,0,0,0-2.09-.95,2.84,2.84,0,0,0-2.25,1A3.57,3.57,0,0,0,328,221.51Z"/><path class="cls-4" d="M341,227h-1.6v-14.8H341Z"/><path class="cls-4" d="M352.56,227H351v-1.56h0a3.35,3.35,0,0,1-3.08,1.8,3.29,3.29,0,0,1-2.34-.79,2.74,2.74,0,0,1-.84-2.1q0-2.8,3.3-3.26l3-.42q0-2.55-2.06-2.55a4.92,4.92,0,0,0-3.26,1.23V217.7a6.2,6.2,0,0,1,3.4-.94q3.53,0,3.53,3.73Zm-1.6-5.06-2.41.33a3.92,3.92,0,0,0-1.68.55,1.59,1.59,0,0,0-.57,1.4,1.53,1.53,0,0,0,.52,1.2,2,2,0,0,0,1.39.46,2.57,2.57,0,0,0,2-.83,3,3,0,0,0,.78-2.11Z"/><path class="cls-4" d="M363.59,226.53a5.21,5.21,0,0,1-2.73.69,4.53,4.53,0,0,1-3.45-1.39,5,5,0,0,1-1.31-3.61,5.54,5.54,0,0,1,1.42-4,5,5,0,0,1,3.78-1.5,5.26,5.26,0,0,1,2.32.49v1.64a4.07,4.07,0,0,0-2.38-.78,3.22,3.22,0,0,0-2.51,1.1,4.17,4.17,0,0,0-1,2.89,4,4,0,0,0,.92,2.77,3.18,3.18,0,0,0,2.48,1,4,4,0,0,0,2.46-.87Z"/><path class="cls-4" d="M375.25,222.39h-7.06a3.74,3.74,0,0,0,.9,2.58,3.1,3.1,0,0,0,2.36.91,4.91,4.91,0,0,0,3.11-1.11v1.5a5.81,5.81,0,0,1-3.49,1,4.23,4.23,0,0,1-3.33-1.36,5.58,5.58,0,0,1-1.21-3.83,5.47,5.47,0,0,1,1.32-3.8,4.24,4.24,0,0,1,3.29-1.47,3.76,3.76,0,0,1,3,1.27,5.29,5.29,0,0,1,1.07,3.52ZM373.61,221a3.26,3.26,0,0,0-.67-2.16,2.28,2.28,0,0,0-1.83-.77,2.59,2.59,0,0,0-1.92.81,3.67,3.67,0,0,0-1,2.12Z"/><path class="cls-4" d="M390.19,226.9a3.09,3.09,0,0,1-1.49.31q-2.63,0-2.63-2.93v-5.92h-1.72V217h1.72v-2.44l1.6-.52v3h2.52v1.37h-2.52V224a2.33,2.33,0,0,0,.34,1.44,1.37,1.37,0,0,0,1.13.43,1.68,1.68,0,0,0,1-.33Z"/><path class="cls-4" d="M401.83,227h-1.6v-5.76q0-3.12-2.32-3.12a2.53,2.53,0,0,0-2,.9,3.37,3.37,0,0,0-.8,2.32V227h-1.6v-14.8h1.6v6.46h0a3.64,3.64,0,0,1,3.28-1.89q3.38,0,3.38,4.07Z"/><path class="cls-4" d="M414.08,222.39H407a3.74,3.74,0,0,0,.9,2.58,3.1,3.1,0,0,0,2.36.91,4.91,4.91,0,0,0,3.11-1.11v1.5a5.81,5.81,0,0,1-3.49,1,4.23,4.23,0,0,1-3.33-1.36,5.58,5.58,0,0,1-1.21-3.83,5.47,5.47,0,0,1,1.32-3.8,4.24,4.24,0,0,1,3.29-1.47,3.76,3.76,0,0,1,3,1.27,5.29,5.29,0,0,1,1.07,3.52ZM412.44,221a3.26,3.26,0,0,0-.67-2.16,2.28,2.28,0,0,0-1.83-.77,2.59,2.59,0,0,0-1.92.81,3.67,3.67,0,0,0-1,2.12Z"/><path class="cls-4" d="M426,225.55h0v6h-1.6V217H426v1.76h0a3.79,3.79,0,0,1,3.46-2,3.66,3.66,0,0,1,3,1.34,5.56,5.56,0,0,1,1.08,3.6,6.2,6.2,0,0,1-1.22,4,4.06,4.06,0,0,1-3.34,1.51A3.35,3.35,0,0,1,426,225.55Zm0-4v1.4a3,3,0,0,0,.81,2.1,2.87,2.87,0,0,0,4.33-.25,5.11,5.11,0,0,0,.83-3.1,4,4,0,0,0-.77-2.62,2.55,2.55,0,0,0-2.09-.95,2.84,2.84,0,0,0-2.25,1A3.57,3.57,0,0,0,426,221.51Z"/><path class="cls-4" d="M444.5,227h-1.6v-1.56h0a3.35,3.35,0,0,1-3.08,1.8,3.29,3.29,0,0,1-2.34-.79,2.74,2.74,0,0,1-.84-2.1q0-2.8,3.3-3.26l3-.42q0-2.55-2.06-2.55a4.92,4.92,0,0,0-3.26,1.23V217.7a6.2,6.2,0,0,1,3.4-.94q3.53,0,3.53,3.73Zm-1.6-5.06-2.41.33a3.92,3.92,0,0,0-1.68.55,1.59,1.59,0,0,0-.57,1.4,1.53,1.53,0,0,0,.52,1.2,2,2,0,0,0,1.39.46,2.57,2.57,0,0,0,2-.83,3,3,0,0,0,.78-2.11Z"/><path class="cls-4" d="M450.36,225.55h0v6h-1.6V217h1.6v1.76h0a3.79,3.79,0,0,1,3.46-2,3.66,3.66,0,0,1,3,1.34,5.56,5.56,0,0,1,1.08,3.6,6.2,6.2,0,0,1-1.22,4,4.06,4.06,0,0,1-3.34,1.51A3.35,3.35,0,0,1,450.36,225.55Zm0-4v1.4a3,3,0,0,0,.81,2.1,2.87,2.87,0,0,0,4.33-.25,5.11,5.11,0,0,0,.83-3.1,4,4,0,0,0-.77-2.62,2.55,2.55,0,0,0-2.09-.95,2.84,2.84,0,0,0-2.25,1A3.57,3.57,0,0,0,450.32,221.51Z"/><path class="cls-4" d="M469.71,222.39h-7.06a3.74,3.74,0,0,0,.9,2.58,3.1,3.1,0,0,0,2.36.91,4.91,4.91,0,0,0,3.11-1.11v1.5a5.81,5.81,0,0,1-3.49,1,4.23,4.23,0,0,1-3.33-1.36A5.58,5.58,0,0,1,461,222a5.47,5.47,0,0,1,1.32-3.8,4.24,4.24,0,0,1,3.29-1.47,3.76,3.76,0,0,1,3,1.27,5.29,5.29,0,0,1,1.07,3.52ZM468.07,221a3.26,3.26,0,0,0-.67-2.16,2.28,2.28,0,0,0-1.83-.77,2.59,2.59,0,0,0-1.92.81,3.67,3.67,0,0,0-1,2.12Z"/><path class="cls-4" d="M478.55,218.61a2,2,0,0,0-1.21-.32,2,2,0,0,0-1.71,1,4.47,4.47,0,0,0-.69,2.64V227h-1.6V217h1.6v2.06h0a3.49,3.49,0,0,1,1-1.65,2.38,2.38,0,0,1,1.57-.59,2.62,2.62,0,0,1,1,.14Z"/><path class="cls-4" d="M495,226.53a5.21,5.21,0,0,1-2.73.69,4.53,4.53,0,0,1-3.45-1.39,5,5,0,0,1-1.31-3.61,5.54,5.54,0,0,1,1.42-4,5,5,0,0,1,3.78-1.5,5.26,5.26,0,0,1,2.32.49v1.64a4.07,4.07,0,0,0-2.38-.78,3.22,3.22,0,0,0-2.51,1.1,4.17,4.17,0,0,0-1,2.89,4,4,0,0,0,.92,2.77,3.18,3.18,0,0,0,2.48,1A4,4,0,0,0,495,225Z"/><path class="cls-4" d="M505.76,227h-1.6v-1.56h0a3.35,3.35,0,0,1-3.08,1.8,3.29,3.29,0,0,1-2.34-.79,2.74,2.74,0,0,1-.84-2.1q0-2.8,3.3-3.26l3-.42q0-2.55-2.06-2.55a4.92,4.92,0,0,0-3.26,1.23V217.7a6.2,6.2,0,0,1,3.4-.94q3.53,0,3.53,3.73Zm-1.6-5.06-2.41.33a3.92,3.92,0,0,0-1.68.55,1.59,1.59,0,0,0-.57,1.4,1.53,1.53,0,0,0,.52,1.2,2,2,0,0,0,1.39.46,2.57,2.57,0,0,0,2-.83,3,3,0,0,0,.78-2.11Z"/><path class="cls-4" d="M514.62,226.9a3.09,3.09,0,0,1-1.49.31q-2.63,0-2.63-2.93v-5.92h-1.72V217h1.72v-2.44l1.6-.52v3h2.52v1.37H512.1V224a2.33,2.33,0,0,0,.34,1.44,1.37,1.37,0,0,0,1.13.43,1.68,1.68,0,0,0,1-.33Z"/><path class="cls-4" d="M525.11,227h-1.6v-1.56h0a3.35,3.35,0,0,1-3.08,1.8,3.29,3.29,0,0,1-2.34-.79,2.74,2.74,0,0,1-.84-2.1q0-2.8,3.3-3.26l3-.42q0-2.55-2.06-2.55a4.92,4.92,0,0,0-3.26,1.23V217.7a6.2,6.2,0,0,1,3.4-.94q3.53,0,3.53,3.73Zm-1.6-5.06-2.41.33a3.92,3.92,0,0,0-1.68.55,1.59,1.59,0,0,0-.57,1.4,1.53,1.53,0,0,0,.52,1.2,2,2,0,0,0,1.39.46,2.57,2.57,0,0,0,2-.83,3,3,0,0,0,.78-2.11Z"/><path class="cls-4" d="M530.93,227h-1.6v-14.8h1.6Z"/><path class="cls-4" d="M539.56,227.23a4.64,4.64,0,0,1-3.54-1.4,5.19,5.19,0,0,1-1.32-3.72,5.41,5.41,0,0,1,1.38-3.94,5,5,0,0,1,3.72-1.42,4.49,4.49,0,0,1,3.49,1.38,5.46,5.46,0,0,1,1.25,3.82,5.37,5.37,0,0,1-1.35,3.83A4.74,4.74,0,0,1,539.56,227.23Zm.12-9.12a3,3,0,0,0-2.44,1,4.31,4.31,0,0,0-.9,2.9,4.08,4.08,0,0,0,.91,2.8,3.09,3.09,0,0,0,2.43,1,2.93,2.93,0,0,0,2.39-1,4.36,4.36,0,0,0,.83-2.86,4.44,4.44,0,0,0-.83-2.89A2.92,2.92,0,0,0,539.67,218.11Z"/><path class="cls-4" d="M556.83,226.19q0,5.51-5.27,5.51a7.08,7.08,0,0,1-3.24-.7v-1.6a6.66,6.66,0,0,0,3.22.94q3.69,0,3.69-3.93v-1.09h0a4,4,0,0,1-6.44.58,5.33,5.33,0,0,1-1.14-3.58,6.22,6.22,0,0,1,1.23-4.05,4.09,4.09,0,0,1,3.35-1.5,3.26,3.26,0,0,1,3,1.62h0V217h1.6Zm-1.6-3.72V221a2.86,2.86,0,0,0-.81-2,2.65,2.65,0,0,0-2-.85,2.78,2.78,0,0,0-2.32,1.08,4.82,4.82,0,0,0-.84,3,4.13,4.13,0,0,0,.81,2.67,2.6,2.6,0,0,0,2.13,1,2.79,2.79,0,0,0,2.19-1A3.57,3.57,0,0,0,555.23,222.47Z"/><path class="cls-4" d="M562.09,214.45a1,1,0,0,1-.73-.29,1,1,0,0,1-.3-.74,1,1,0,0,1,1-1,1,1,0,0,1,.75.3,1,1,0,0,1,0,1.48A1,1,0,0,1,562.09,214.45Zm.78,12.54h-1.6V217h1.6Z"/><path class="cls-4" d="M575.62,227H574v-5.7q0-3.18-2.32-3.18a2.52,2.52,0,0,0-2,.9,3.35,3.35,0,0,0-.79,2.28V227h-1.6V217h1.6v1.66h0a3.61,3.61,0,0,1,3.28-1.89,3.06,3.06,0,0,1,2.51,1.06,4.72,4.72,0,0,1,.87,3.06Z"/><path class="cls-4" d="M588.37,226.19q0,5.51-5.27,5.51a7.08,7.08,0,0,1-3.24-.7v-1.6a6.66,6.66,0,0,0,3.22.94q3.69,0,3.69-3.93v-1.09h0a4,4,0,0,1-6.44.58,5.33,5.33,0,0,1-1.14-3.58,6.22,6.22,0,0,1,1.23-4.05,4.09,4.09,0,0,1,3.35-1.5,3.26,3.26,0,0,1,3,1.62h0V217h1.6Zm-1.6-3.72V221a2.86,2.86,0,0,0-.81-2,2.65,2.65,0,0,0-2-.85,2.78,2.78,0,0,0-2.32,1.08,4.82,4.82,0,0,0-.84,3,4.13,4.13,0,0,0,.81,2.67,2.6,2.6,0,0,0,2.13,1,2.79,2.79,0,0,0,2.19-1A3.57,3.57,0,0,0,586.77,222.47Z"/><path class="cls-4" d="M265.52,250.63v-1.72a4.74,4.74,0,0,0,2.88,1q2.11,0,2.11-1.41a1.22,1.22,0,0,0-.18-.68,1.81,1.81,0,0,0-.49-.49,3.75,3.75,0,0,0-.72-.39l-.89-.36a11.58,11.58,0,0,1-1.17-.53,3.51,3.51,0,0,1-.84-.61,2.25,2.25,0,0,1-.51-.77,2.72,2.72,0,0,1-.17-1,2.39,2.39,0,0,1,.32-1.25,2.86,2.86,0,0,1,.86-.91,4,4,0,0,1,1.23-.55,5.42,5.42,0,0,1,1.42-.19,5.73,5.73,0,0,1,2.32.45v1.62a4.53,4.53,0,0,0-2.54-.72,3,3,0,0,0-.81.1,2,2,0,0,0-.62.29,1.33,1.33,0,0,0-.4.44,1.17,1.17,0,0,0-.14.57,1.37,1.37,0,0,0,.14.65,1.44,1.44,0,0,0,.42.47,3.16,3.16,0,0,0,.66.37l.89.36a12.35,12.35,0,0,1,1.19.52,4.08,4.08,0,0,1,.9.61,2.36,2.36,0,0,1,.57.78,2.51,2.51,0,0,1,.2,1,2.46,2.46,0,0,1-.33,1.29,2.81,2.81,0,0,1-.87.91,4,4,0,0,1-1.26.54,6.22,6.22,0,0,1-1.49.18A5.67,5.67,0,0,1,265.52,250.63Z"/><path class="cls-4" d="M283.77,241l-4.6,11.6q-1.23,3.11-3.46,3.11a3.65,3.65,0,0,1-1-.13v-1.44a3,3,0,0,0,.95.18,2,2,0,0,0,1.82-1.45l.8-1.89-3.91-10h1.78l2.71,7.7q0,.15.21.76h.06q0-.23.2-.74l2.84-7.71Z"/><path class="cls-4" d="M286.08,250.63v-1.72a4.74,4.74,0,0,0,2.88,1q2.11,0,2.11-1.41a1.22,1.22,0,0,0-.18-.68,1.81,1.81,0,0,0-.49-.49,3.75,3.75,0,0,0-.72-.39l-.89-.36a11.58,11.58,0,0,1-1.17-.53,3.51,3.51,0,0,1-.84-.61,2.25,2.25,0,0,1-.51-.77,2.72,2.72,0,0,1-.17-1,2.39,2.39,0,0,1,.32-1.25,2.86,2.86,0,0,1,.86-.91,4,4,0,0,1,1.23-.55,5.42,5.42,0,0,1,1.42-.19,5.73,5.73,0,0,1,2.32.45v1.62a4.53,4.53,0,0,0-2.54-.72,3,3,0,0,0-.81.1,2,2,0,0,0-.62.29,1.33,1.33,0,0,0-.4.44,1.17,1.17,0,0,0-.14.57,1.37,1.37,0,0,0,.14.65,1.44,1.44,0,0,0,.42.47,3.16,3.16,0,0,0,.66.37l.89.36a12.35,12.35,0,0,1,1.19.52,4.08,4.08,0,0,1,.9.61,2.36,2.36,0,0,1,.57.78,2.51,2.51,0,0,1,.2,1,2.46,2.46,0,0,1-.33,1.29,2.81,2.81,0,0,1-.87.91,4,4,0,0,1-1.26.54,6.22,6.22,0,0,1-1.49.18A5.67,5.67,0,0,1,286.08,250.63Z"/><path class="cls-4" d="M301,250.9a3.09,3.09,0,0,1-1.49.31q-2.63,0-2.63-2.93v-5.92h-1.72V241h1.72v-2.44l1.6-.52v3H301v1.37h-2.52V248a2.33,2.33,0,0,0,.34,1.44,1.37,1.37,0,0,0,1.13.43,1.68,1.68,0,0,0,1-.33Z"/><path class="cls-4" d="M312.39,246.39h-7.06a3.74,3.74,0,0,0,.9,2.58,3.1,3.1,0,0,0,2.36.91,4.91,4.91,0,0,0,3.11-1.11v1.5a5.81,5.81,0,0,1-3.49,1,4.23,4.23,0,0,1-3.33-1.36,5.58,5.58,0,0,1-1.21-3.83,5.47,5.47,0,0,1,1.32-3.8,4.24,4.24,0,0,1,3.29-1.47,3.76,3.76,0,0,1,3,1.27,5.29,5.29,0,0,1,1.07,3.53ZM310.75,245a3.26,3.26,0,0,0-.67-2.16,2.28,2.28,0,0,0-1.83-.77,2.59,2.59,0,0,0-1.92.81,3.68,3.68,0,0,0-1,2.12Z"/><path class="cls-4" d="M330.21,251h-1.6v-5.74a4.33,4.33,0,0,0-.51-2.4,1.94,1.94,0,0,0-1.72-.74,2.13,2.13,0,0,0-1.74.94,3.59,3.59,0,0,0-.72,2.25V251h-1.6v-5.94q0-2.95-2.28-2.95a2.11,2.11,0,0,0-1.74.88,3.65,3.65,0,0,0-.68,2.3V251H316V241h1.6v1.58h0a3.4,3.4,0,0,1,3.11-1.82,2.89,2.89,0,0,1,2.83,2.07,3.57,3.57,0,0,1,3.32-2.07q3.3,0,3.3,4.07Z"/><path class="cls-4" d="M347.93,250.53a5.21,5.21,0,0,1-2.73.69,4.53,4.53,0,0,1-3.45-1.39,5,5,0,0,1-1.31-3.61,5.54,5.54,0,0,1,1.42-4,5,5,0,0,1,3.78-1.5,5.26,5.26,0,0,1,2.32.49v1.64a4.07,4.07,0,0,0-2.38-.78,3.22,3.22,0,0,0-2.51,1.1,4.17,4.17,0,0,0-1,2.89,4,4,0,0,0,.92,2.77,3.18,3.18,0,0,0,2.48,1,4,4,0,0,0,2.46-.87Z"/><path class="cls-4" d="M359.64,251H358v-1.58h0a3.29,3.29,0,0,1-3.09,1.82q-3.57,0-3.57-4.26v-6h1.59v5.72q0,3.16,2.42,3.16a2.45,2.45,0,0,0,1.93-.86,3.31,3.31,0,0,0,.76-2.26V241h1.6Z"/><path class="cls-4" d="M369.28,242.61a2,2,0,0,0-1.21-.32,2,2,0,0,0-1.71,1,4.47,4.47,0,0,0-.69,2.64V251h-1.6V241h1.6v2.06h0a3.49,3.49,0,0,1,1-1.65,2.38,2.38,0,0,1,1.57-.59,2.62,2.62,0,0,1,1,.14Z"/><path class="cls-4" d="M377.44,242.61a2,2,0,0,0-1.21-.32,2,2,0,0,0-1.71,1,4.47,4.47,0,0,0-.69,2.64V251h-1.6V241h1.6v2.06h0a3.49,3.49,0,0,1,1-1.65,2.38,2.38,0,0,1,1.57-.59,2.62,2.62,0,0,1,1,.14Z"/><path class="cls-4" d="M388.41,246.39h-7.06a3.74,3.74,0,0,0,.9,2.58,3.1,3.1,0,0,0,2.36.91,4.91,4.91,0,0,0,3.11-1.11v1.5a5.81,5.81,0,0,1-3.49,1,4.23,4.23,0,0,1-3.33-1.36,5.58,5.58,0,0,1-1.21-3.83,5.47,5.47,0,0,1,1.32-3.8,4.24,4.24,0,0,1,3.29-1.47,3.76,3.76,0,0,1,3,1.27,5.29,5.29,0,0,1,1.07,3.53ZM386.77,245a3.26,3.26,0,0,0-.67-2.16,2.28,2.28,0,0,0-1.83-.77,2.59,2.59,0,0,0-1.92.81,3.68,3.68,0,0,0-1,2.12Z"/><path class="cls-4" d="M400.34,251h-1.6v-5.7q0-3.18-2.32-3.18a2.52,2.52,0,0,0-2,.9,3.35,3.35,0,0,0-.79,2.28V251H392V241h1.6v1.66h0a3.61,3.61,0,0,1,3.28-1.89,3.06,3.06,0,0,1,2.51,1.06,4.72,4.72,0,0,1,.87,3.06Z"/><path class="cls-4" d="M409.19,250.9a3.09,3.09,0,0,1-1.49.31q-2.63,0-2.63-2.93v-5.92h-1.72V241h1.72v-2.44l1.6-.52v3h2.52v1.37h-2.52V248a2.33,2.33,0,0,0,.34,1.44,1.37,1.37,0,0,0,1.13.43,1.68,1.68,0,0,0,1-.33Z"/><path class="cls-4" d="M414.13,251h-1.6v-14.8h1.6Z"/><path class="cls-4" d="M426.53,241l-4.6,11.6q-1.23,3.11-3.46,3.11a3.65,3.65,0,0,1-1-.13v-1.44a3,3,0,0,0,.95.18,2,2,0,0,0,1.82-1.45L421,251l-3.91-10h1.78l2.71,7.7q0,.15.21.76h.06q0-.23.2-.74l2.84-7.71Z"/><path class="cls-4" d="M437,238.45a1,1,0,0,1-.73-.29,1,1,0,0,1-.3-.74,1,1,0,0,1,1-1,1,1,0,0,1,.75.3,1,1,0,0,1,0,1.48A1,1,0,0,1,437,238.45Zm.78,12.54h-1.6V241h1.6Z"/><path class="cls-4" d="M450.48,251h-1.6v-5.7q0-3.18-2.32-3.18a2.52,2.52,0,0,0-2,.9,3.35,3.35,0,0,0-.79,2.28V251h-1.6V241h1.6v1.66h0a3.61,3.61,0,0,1,3.28-1.89,3.06,3.06,0,0,1,2.51,1.06,4.72,4.72,0,0,1,.87,3.06Z"/><path class="cls-4" d="M469.46,251h-1.6v-1.58h0a3.29,3.29,0,0,1-3.09,1.82q-3.57,0-3.57-4.26v-6h1.59v5.72q0,3.16,2.42,3.16a2.45,2.45,0,0,0,1.93-.86,3.31,3.31,0,0,0,.76-2.26V241h1.6Z"/><path class="cls-4" d="M473.28,250.63v-1.72a4.74,4.74,0,0,0,2.88,1q2.11,0,2.11-1.41a1.22,1.22,0,0,0-.18-.68,1.81,1.81,0,0,0-.49-.49,3.75,3.75,0,0,0-.72-.39l-.89-.36a11.58,11.58,0,0,1-1.17-.53,3.51,3.51,0,0,1-.84-.61,2.25,2.25,0,0,1-.51-.77,2.72,2.72,0,0,1-.17-1,2.39,2.39,0,0,1,.32-1.25,2.86,2.86,0,0,1,.86-.91,4,4,0,0,1,1.23-.55,5.42,5.42,0,0,1,1.42-.19,5.73,5.73,0,0,1,2.32.45v1.62a4.53,4.53,0,0,0-2.54-.72,3,3,0,0,0-.81.1,2,2,0,0,0-.62.29,1.33,1.33,0,0,0-.4.44,1.17,1.17,0,0,0-.14.57,1.37,1.37,0,0,0,.14.65,1.44,1.44,0,0,0,.42.47,3.16,3.16,0,0,0,.66.37l.89.36a12.35,12.35,0,0,1,1.19.52,4.08,4.08,0,0,1,.9.61,2.36,2.36,0,0,1,.57.78,2.51,2.51,0,0,1,.2,1,2.46,2.46,0,0,1-.33,1.29,2.81,2.81,0,0,1-.87.91,4,4,0,0,1-1.26.54,6.22,6.22,0,0,1-1.49.18A5.67,5.67,0,0,1,473.28,250.63Z"/><path class="cls-4" d="M491.61,246.39h-7.06a3.74,3.74,0,0,0,.9,2.58,3.1,3.1,0,0,0,2.36.91,4.91,4.91,0,0,0,3.11-1.11v1.5a5.81,5.81,0,0,1-3.49,1,4.23,4.23,0,0,1-3.33-1.36,5.58,5.58,0,0,1-1.21-3.83,5.47,5.47,0,0,1,1.32-3.8,4.24,4.24,0,0,1,3.29-1.47,3.76,3.76,0,0,1,3,1.27,5.29,5.29,0,0,1,1.07,3.53ZM490,245a3.26,3.26,0,0,0-.67-2.16,2.28,2.28,0,0,0-1.83-.77,2.59,2.59,0,0,0-1.92.81,3.68,3.68,0,0,0-1,2.12Z"/><path class="cls-4" d="M495.79,251.21a1,1,0,0,1-.77-.32,1.06,1.06,0,0,1-.32-.77,1.08,1.08,0,0,1,.32-.78,1,1,0,0,1,.77-.33,1.06,1.06,0,0,1,.78.33,1.07,1.07,0,0,1,.32.78,1.05,1.05,0,0,1-.32.77A1.06,1.06,0,0,1,495.79,251.21Z"/><path class="cls-4" d="M273.6,299h-7.27V285H268v12.52h5.63Z"/><path class="cls-4" d="M277.56,286.45a1,1,0,0,1-.73-.29,1,1,0,0,1-.3-.74,1,1,0,0,1,1-1,1,1,0,0,1,.75.3,1,1,0,0,1,0,1.48A1,1,0,0,1,277.56,286.45Zm.78,12.54h-1.6V289h1.6Z"/><path class="cls-4" d="M284.42,297.55h0V299h-1.6v-14.8h1.6v6.56h0a3.79,3.79,0,0,1,3.46-2,3.66,3.66,0,0,1,3,1.34,5.54,5.54,0,0,1,1.09,3.6,6.2,6.2,0,0,1-1.22,4,4.06,4.06,0,0,1-3.34,1.51A3.29,3.29,0,0,1,284.42,297.55Zm0-4v1.4a3,3,0,0,0,.81,2.1,2.87,2.87,0,0,0,4.33-.25,5.11,5.11,0,0,0,.83-3.1,4,4,0,0,0-.77-2.62,2.55,2.55,0,0,0-2.09-.95,2.84,2.84,0,0,0-2.25,1A3.57,3.57,0,0,0,284.38,293.51Z"/><path class="cls-4" d="M301,290.61a2,2,0,0,0-1.21-.32,2,2,0,0,0-1.71,1,4.47,4.47,0,0,0-.69,2.64V299h-1.6V289h1.6v2.06h0a3.49,3.49,0,0,1,1-1.65,2.38,2.38,0,0,1,1.57-.59,2.62,2.62,0,0,1,1,.14Z"/><path class="cls-4" d="M311,299h-1.6v-1.56h0a3.35,3.35,0,0,1-3.08,1.8,3.29,3.29,0,0,1-2.34-.79,2.74,2.74,0,0,1-.84-2.1q0-2.8,3.3-3.26l3-.42q0-2.55-2.06-2.55a4.92,4.92,0,0,0-3.26,1.23V289.7a6.2,6.2,0,0,1,3.4-.94q3.53,0,3.53,3.73Zm-1.6-5.06-2.41.33a3.92,3.92,0,0,0-1.68.55,1.59,1.59,0,0,0-.57,1.4,1.53,1.53,0,0,0,.52,1.2,2,2,0,0,0,1.39.46,2.57,2.57,0,0,0,2-.83,3,3,0,0,0,.78-2.11Z"/><path class="cls-4" d="M320.48,290.61a2,2,0,0,0-1.21-.32,2,2,0,0,0-1.71,1,4.47,4.47,0,0,0-.69,2.64V299h-1.6V289h1.6v2.06h0a3.49,3.49,0,0,1,1-1.65,2.38,2.38,0,0,1,1.57-.59,2.62,2.62,0,0,1,1,.14Z"/><path class="cls-4" d="M324.24,286.45a1,1,0,0,1-.73-.29,1,1,0,0,1-.3-.74,1,1,0,0,1,1-1,1,1,0,0,1,.75.3,1,1,0,0,1,0,1.48A1,1,0,0,1,324.24,286.45ZM325,299h-1.6V289H325Z"/><path class="cls-4" d="M336.62,299H335v-1.56h0a3.35,3.35,0,0,1-3.08,1.8,3.29,3.29,0,0,1-2.34-.79,2.74,2.74,0,0,1-.84-2.1q0-2.8,3.3-3.26l3-.42q0-2.55-2.06-2.55a4.92,4.92,0,0,0-3.26,1.23V289.7a6.2,6.2,0,0,1,3.4-.94q3.53,0,3.53,3.73Zm-1.6-5.06-2.41.33a3.92,3.92,0,0,0-1.68.55,1.59,1.59,0,0,0-.57,1.4,1.53,1.53,0,0,0,.52,1.2,2,2,0,0,0,1.39.46,2.57,2.57,0,0,0,2-.83,3,3,0,0,0,.78-2.11Z"/><path class="cls-4" d="M349.14,299h-1.6v-5.7q0-3.18-2.32-3.18a2.52,2.52,0,0,0-2,.9,3.35,3.35,0,0,0-.79,2.28V299h-1.6V289h1.6v1.66h0a3.61,3.61,0,0,1,3.28-1.89,3.06,3.06,0,0,1,2.51,1.06,4.72,4.72,0,0,1,.87,3.06Z"/><path class="cls-4" d="M352.75,298.63v-1.72a4.74,4.74,0,0,0,2.88,1q2.11,0,2.11-1.41a1.22,1.22,0,0,0-.18-.68,1.81,1.81,0,0,0-.49-.49,3.75,3.75,0,0,0-.72-.39l-.89-.36a11.58,11.58,0,0,1-1.17-.53,3.51,3.51,0,0,1-.84-.61,2.25,2.25,0,0,1-.51-.77,2.72,2.72,0,0,1-.17-1,2.39,2.39,0,0,1,.32-1.25,2.86,2.86,0,0,1,.86-.91,4,4,0,0,1,1.23-.55,5.42,5.42,0,0,1,1.42-.19,5.73,5.73,0,0,1,2.32.45v1.62a4.53,4.53,0,0,0-2.54-.72,3,3,0,0,0-.81.1,2,2,0,0,0-.62.29,1.33,1.33,0,0,0-.4.44,1.17,1.17,0,0,0-.14.57,1.37,1.37,0,0,0,.14.65,1.44,1.44,0,0,0,.42.47,3.16,3.16,0,0,0,.66.37l.89.36a12.35,12.35,0,0,1,1.19.52,4.08,4.08,0,0,1,.9.61,2.36,2.36,0,0,1,.57.78,2.51,2.51,0,0,1,.2,1,2.46,2.46,0,0,1-.33,1.29,2.81,2.81,0,0,1-.87.91,4,4,0,0,1-1.26.54,6.22,6.22,0,0,1-1.49.18A5.67,5.67,0,0,1,352.75,298.63Z"/><path class="cls-4" d="M382.32,289l-3,10h-1.66l-2.06-7.16a4.66,4.66,0,0,1-.16-.93h0a4.38,4.38,0,0,1-.21.91L373,299h-1.6l-3-10H370l2.07,7.52a4.53,4.53,0,0,1,.14.9h.08a4.2,4.2,0,0,1,.18-.92l2.3-7.5h1.46l2.07,7.54a5.42,5.42,0,0,1,.15.9h.08a4.16,4.16,0,0,1,.17-.9l2-7.54Z"/><path class="cls-4" d="M386.2,286.45a1,1,0,0,1-.73-.29,1,1,0,0,1-.3-.74,1,1,0,0,1,1-1,1,1,0,0,1,.75.3,1,1,0,0,1,0,1.48A1,1,0,0,1,386.2,286.45ZM387,299h-1.6V289H387Z"/><path class="cls-4" d="M393,299h-1.6v-14.8H393Z"/><path class="cls-4" d="M399.06,299h-1.6v-14.8h1.6Z"/><path class="cls-4" d="M418.49,299h-1.6v-5.7q0-3.18-2.32-3.18a2.52,2.52,0,0,0-2,.9,3.35,3.35,0,0,0-.79,2.28V299h-1.6V289h1.6v1.66h0a3.61,3.61,0,0,1,3.28-1.89,3.06,3.06,0,0,1,2.51,1.06,4.72,4.72,0,0,1,.87,3.06Z"/><path class="cls-4" d="M426.88,299.23a4.64,4.64,0,0,1-3.54-1.4,5.19,5.19,0,0,1-1.32-3.72,5.41,5.41,0,0,1,1.38-3.94,5,5,0,0,1,3.72-1.42,4.49,4.49,0,0,1,3.49,1.38,5.46,5.46,0,0,1,1.25,3.82,5.37,5.37,0,0,1-1.35,3.83A4.74,4.74,0,0,1,426.88,299.23Zm.12-9.12a3,3,0,0,0-2.44,1,4.31,4.31,0,0,0-.9,2.9,4.08,4.08,0,0,0,.91,2.8,3.09,3.09,0,0,0,2.43,1,2.93,2.93,0,0,0,2.39-1,4.36,4.36,0,0,0,.83-2.86,4.44,4.44,0,0,0-.83-2.89A2.92,2.92,0,0,0,427,290.11Z"/><path class="cls-4" d="M443.9,299h-1.6v-14.8h1.6Z"/><path class="cls-4" d="M452.52,299.23a4.64,4.64,0,0,1-3.54-1.4,5.19,5.19,0,0,1-1.32-3.72,5.41,5.41,0,0,1,1.38-3.94,5,5,0,0,1,3.72-1.42,4.49,4.49,0,0,1,3.49,1.38A5.46,5.46,0,0,1,457.5,294a5.37,5.37,0,0,1-1.35,3.83A4.74,4.74,0,0,1,452.52,299.23Zm.12-9.12a3,3,0,0,0-2.44,1,4.31,4.31,0,0,0-.9,2.9,4.08,4.08,0,0,0,.91,2.8,3.09,3.09,0,0,0,2.43,1,2.93,2.93,0,0,0,2.39-1,4.36,4.36,0,0,0,.83-2.86,4.44,4.44,0,0,0-.83-2.89A2.92,2.92,0,0,0,452.64,290.11Z"/><path class="cls-4" d="M469.56,299H468v-5.7q0-3.18-2.32-3.18a2.52,2.52,0,0,0-2,.9,3.35,3.35,0,0,0-.79,2.28V299h-1.6V289h1.6v1.66h0a3.61,3.61,0,0,1,3.28-1.89,3.06,3.06,0,0,1,2.51,1.06,4.72,4.72,0,0,1,.87,3.06Z"/><path class="cls-4" d="M482.32,298.19q0,5.51-5.27,5.51a7.08,7.08,0,0,1-3.24-.7v-1.6a6.66,6.66,0,0,0,3.22.94q3.69,0,3.69-3.93v-1.09h0a4,4,0,0,1-6.44.58,5.33,5.33,0,0,1-1.14-3.58,6.23,6.23,0,0,1,1.23-4.05,4.09,4.09,0,0,1,3.35-1.5,3.26,3.26,0,0,1,3,1.62h0V289h1.6Zm-1.6-3.72V293a2.86,2.86,0,0,0-.81-2,2.65,2.65,0,0,0-2-.85,2.78,2.78,0,0,0-2.32,1.08,4.82,4.82,0,0,0-.84,3,4.13,4.13,0,0,0,.81,2.67,2.6,2.6,0,0,0,2.13,1,2.79,2.79,0,0,0,2.19-1A3.57,3.57,0,0,0,480.71,294.47Z"/><path class="cls-4" d="M494.8,294.39h-7.06a3.74,3.74,0,0,0,.9,2.58,3.1,3.1,0,0,0,2.36.91,4.91,4.91,0,0,0,3.11-1.11v1.5a5.81,5.81,0,0,1-3.49,1,4.23,4.23,0,0,1-3.33-1.36,5.58,5.58,0,0,1-1.21-3.83,5.47,5.47,0,0,1,1.32-3.8,4.24,4.24,0,0,1,3.29-1.47,3.76,3.76,0,0,1,3,1.27,5.29,5.29,0,0,1,1.07,3.53ZM493.16,293a3.26,3.26,0,0,0-.67-2.16,2.28,2.28,0,0,0-1.83-.77,2.59,2.59,0,0,0-1.92.81,3.68,3.68,0,0,0-1,2.12Z"/><path class="cls-4" d="M503.63,290.61a2,2,0,0,0-1.21-.32,2,2,0,0,0-1.71,1,4.47,4.47,0,0,0-.69,2.64V299h-1.6V289H500v2.06h0a3.49,3.49,0,0,1,1-1.65,2.38,2.38,0,0,1,1.57-.59,2.62,2.62,0,0,1,1,.14Z"/><path class="cls-4" d="M521.55,299h-1.6v-5.76q0-3.12-2.32-3.12a2.53,2.53,0,0,0-2,.9,3.37,3.37,0,0,0-.8,2.32V299h-1.6v-14.8h1.6v6.46h0a3.64,3.64,0,0,1,3.28-1.89q3.38,0,3.38,4.07Z"/><path class="cls-4" d="M532.93,299h-1.6v-1.56h0a3.35,3.35,0,0,1-3.08,1.8,3.29,3.29,0,0,1-2.34-.79,2.74,2.74,0,0,1-.84-2.1q0-2.8,3.3-3.26l3-.42q0-2.55-2.06-2.55a4.92,4.92,0,0,0-3.26,1.23V289.7a6.2,6.2,0,0,1,3.4-.94q3.53,0,3.53,3.73Zm-1.6-5.06-2.41.33a3.92,3.92,0,0,0-1.68.55,1.59,1.59,0,0,0-.57,1.4,1.53,1.53,0,0,0,.52,1.2,2,2,0,0,0,1.39.46,2.57,2.57,0,0,0,2-.83,3,3,0,0,0,.78-2.11Z"/><path class="cls-4" d="M545,289l-4,10h-1.57l-3.79-10h1.76l2.54,7.27a6.5,6.5,0,0,1,.35,1.4h0a6.6,6.6,0,0,1,.31-1.36l2.66-7.3Z"/><path class="cls-4" d="M556,294.39H548.9a3.74,3.74,0,0,0,.9,2.58,3.1,3.1,0,0,0,2.36.91,4.91,4.91,0,0,0,3.11-1.11v1.5a5.81,5.81,0,0,1-3.49,1,4.23,4.23,0,0,1-3.33-1.36,5.58,5.58,0,0,1-1.21-3.83,5.47,5.47,0,0,1,1.32-3.8,4.24,4.24,0,0,1,3.29-1.47,3.76,3.76,0,0,1,3,1.27,5.29,5.29,0,0,1,1.07,3.53ZM554.32,293a3.26,3.26,0,0,0-.67-2.16,2.28,2.28,0,0,0-1.83-.77,2.59,2.59,0,0,0-1.92.81,3.68,3.68,0,0,0-1,2.12Z"/><path class="cls-4" d="M570.9,298.9a3.09,3.09,0,0,1-1.49.31q-2.63,0-2.63-2.93v-5.92h-1.72V289h1.72v-2.44l1.6-.52v3h2.52v1.37h-2.52V296a2.33,2.33,0,0,0,.34,1.44,1.37,1.37,0,0,0,1.13.43,1.68,1.68,0,0,0,1-.33Z"/><path class="cls-4" d="M578.42,299.23a4.64,4.64,0,0,1-3.54-1.4,5.19,5.19,0,0,1-1.32-3.72,5.41,5.41,0,0,1,1.38-3.94,5,5,0,0,1,3.72-1.42,4.49,4.49,0,0,1,3.49,1.38A5.46,5.46,0,0,1,583.4,294a5.37,5.37,0,0,1-1.35,3.83A4.74,4.74,0,0,1,578.42,299.23Zm.12-9.12a3,3,0,0,0-2.44,1,4.31,4.31,0,0,0-.9,2.9,4.08,4.08,0,0,0,.91,2.8,3.09,3.09,0,0,0,2.43,1,2.93,2.93,0,0,0,2.39-1,4.36,4.36,0,0,0,.83-2.86,4.44,4.44,0,0,0-.83-2.89A2.92,2.92,0,0,0,578.54,290.11Z"/><path class="cls-4" d="M280.32,323h-1.6v-5.74a4.33,4.33,0,0,0-.51-2.4,1.94,1.94,0,0,0-1.72-.74,2.13,2.13,0,0,0-1.74.94,3.59,3.59,0,0,0-.72,2.25V323h-1.6v-5.94q0-2.95-2.28-2.95a2.11,2.11,0,0,0-1.74.88,3.65,3.65,0,0,0-.68,2.3V323h-1.6V313h1.6v1.58h0a3.4,3.4,0,0,1,3.11-1.82,2.89,2.89,0,0,1,2.83,2.07,3.57,3.57,0,0,1,3.32-2.07q3.3,0,3.3,4.07Z"/><path class="cls-4" d="M291.71,323h-1.6v-1.56h0a3.35,3.35,0,0,1-3.08,1.8,3.29,3.29,0,0,1-2.34-.79,2.74,2.74,0,0,1-.84-2.1q0-2.8,3.3-3.26l3-.42q0-2.55-2.06-2.55a4.92,4.92,0,0,0-3.26,1.23V313.7a6.2,6.2,0,0,1,3.4-.94q3.53,0,3.53,3.73Zm-1.6-5.06-2.41.33a3.92,3.92,0,0,0-1.68.55,1.59,1.59,0,0,0-.57,1.4,1.53,1.53,0,0,0,.52,1.2,2,2,0,0,0,1.39.46,2.57,2.57,0,0,0,2-.83,3,3,0,0,0,.78-2.11Z"/><path class="cls-4" d="M304.22,323h-1.6v-5.7q0-3.18-2.32-3.18a2.52,2.52,0,0,0-2,.9,3.35,3.35,0,0,0-.79,2.28V323h-1.6V313h1.6v1.66h0a3.61,3.61,0,0,1,3.28-1.89,3.06,3.06,0,0,1,2.51,1.06,4.72,4.72,0,0,1,.87,3.06Z"/><path class="cls-4" d="M315.6,323H314v-1.56h0a3.35,3.35,0,0,1-3.08,1.8,3.29,3.29,0,0,1-2.34-.79,2.74,2.74,0,0,1-.84-2.1q0-2.8,3.3-3.26l3-.42q0-2.55-2.06-2.55a4.92,4.92,0,0,0-3.26,1.23V313.7a6.2,6.2,0,0,1,3.4-.94q3.53,0,3.53,3.73Zm-1.6-5.06-2.41.33a3.92,3.92,0,0,0-1.68.55,1.59,1.59,0,0,0-.57,1.4,1.53,1.53,0,0,0,.52,1.2,2,2,0,0,0,1.39.46,2.57,2.57,0,0,0,2-.83,3,3,0,0,0,.78-2.11Z"/><path class="cls-4" d="M328.35,322.19q0,5.51-5.27,5.51a7.08,7.08,0,0,1-3.24-.7v-1.6a6.66,6.66,0,0,0,3.22.94q3.69,0,3.69-3.93v-1.09h0a4,4,0,0,1-6.44.58,5.33,5.33,0,0,1-1.14-3.58,6.23,6.23,0,0,1,1.23-4.05,4.09,4.09,0,0,1,3.35-1.5,3.26,3.26,0,0,1,3,1.62h0V313h1.6Zm-1.6-3.72V317a2.86,2.86,0,0,0-.81-2,2.65,2.65,0,0,0-2-.85,2.78,2.78,0,0,0-2.32,1.08,4.82,4.82,0,0,0-.84,3,4.13,4.13,0,0,0,.81,2.67,2.6,2.6,0,0,0,2.13,1,2.79,2.79,0,0,0,2.19-1A3.57,3.57,0,0,0,326.75,318.47Z"/><path class="cls-4" d="M340.83,318.39h-7.06a3.74,3.74,0,0,0,.9,2.58,3.1,3.1,0,0,0,2.36.91,4.91,4.91,0,0,0,3.11-1.11v1.5a5.81,5.81,0,0,1-3.49,1,4.23,4.23,0,0,1-3.33-1.36,5.58,5.58,0,0,1-1.21-3.83,5.47,5.47,0,0,1,1.32-3.8,4.24,4.24,0,0,1,3.29-1.47,3.76,3.76,0,0,1,3,1.27,5.29,5.29,0,0,1,1.07,3.53ZM339.19,317a3.26,3.26,0,0,0-.67-2.16,2.28,2.28,0,0,0-1.83-.77,2.59,2.59,0,0,0-1.92.81,3.68,3.68,0,0,0-1,2.12Z"/><path class="cls-4" d="M358.29,323h-1.6v-1.56h0a3.35,3.35,0,0,1-3.08,1.8,3.29,3.29,0,0,1-2.34-.79,2.74,2.74,0,0,1-.84-2.1q0-2.8,3.3-3.26l3-.42q0-2.55-2.06-2.55a4.92,4.92,0,0,0-3.26,1.23V313.7a6.2,6.2,0,0,1,3.4-.94q3.53,0,3.53,3.73Zm-1.6-5.06-2.41.33a3.92,3.92,0,0,0-1.68.55,1.59,1.59,0,0,0-.57,1.4,1.53,1.53,0,0,0,.52,1.2,2,2,0,0,0,1.39.46,2.57,2.57,0,0,0,2-.83,3,3,0,0,0,.78-2.11Z"/><path class="cls-4" d="M377.49,323h-1.6v-5.76q0-3.12-2.32-3.12a2.53,2.53,0,0,0-2,.9,3.37,3.37,0,0,0-.8,2.32V323h-1.6v-14.8h1.6v6.46h0a3.64,3.64,0,0,1,3.28-1.89q3.38,0,3.38,4.07Z"/><path class="cls-4" d="M388.86,323h-1.6v-1.56h0a3.35,3.35,0,0,1-3.08,1.8,3.29,3.29,0,0,1-2.34-.79,2.74,2.74,0,0,1-.84-2.1q0-2.8,3.3-3.26l3-.42q0-2.55-2.06-2.55a4.92,4.92,0,0,0-3.26,1.23V313.7a6.2,6.2,0,0,1,3.4-.94q3.53,0,3.53,3.73Zm-1.6-5.06-2.41.33a3.92,3.92,0,0,0-1.68.55,1.59,1.59,0,0,0-.57,1.4,1.53,1.53,0,0,0,.52,1.2,2,2,0,0,0,1.39.46,2.57,2.57,0,0,0,2-.83,3,3,0,0,0,.78-2.11Z"/><path class="cls-4" d="M401.38,323h-1.6v-5.7q0-3.18-2.32-3.18a2.52,2.52,0,0,0-2,.9,3.35,3.35,0,0,0-.79,2.28V323h-1.6V313h1.6v1.66h0a3.61,3.61,0,0,1,3.28-1.89,3.06,3.06,0,0,1,2.51,1.06,4.72,4.72,0,0,1,.87,3.06Z"/><path class="cls-4" d="M414.13,323h-1.6v-1.7h0a4,4,0,0,1-6.45.59,5.51,5.51,0,0,1-1.13-3.66,6,6,0,0,1,1.25-4,4.12,4.12,0,0,1,3.33-1.49,3.21,3.21,0,0,1,3,1.62h0v-6.19h1.6Zm-1.6-4.52V317a2.86,2.86,0,0,0-.8-2.05,2.69,2.69,0,0,0-2-.84,2.77,2.77,0,0,0-2.3,1.07,4.71,4.71,0,0,0-.84,3,4.23,4.23,0,0,0,.81,2.73,2.63,2.63,0,0,0,2.16,1,2.74,2.74,0,0,0,2.17-1A3.6,3.6,0,0,0,412.53,318.47Z"/><path class="cls-4" d="M431.17,313l-3,10h-1.66l-2.06-7.16a4.66,4.66,0,0,1-.16-.93h0a4.38,4.38,0,0,1-.21.91L421.82,323h-1.6l-3-10h1.68l2.07,7.52a4.53,4.53,0,0,1,.14.9h.08a4.2,4.2,0,0,1,.18-.92l2.3-7.5h1.46l2.07,7.54a5.42,5.42,0,0,1,.15.9h.08a4.16,4.16,0,0,1,.17-.9l2-7.54Z"/><path class="cls-4" d="M439.44,314.61a2,2,0,0,0-1.21-.32,2,2,0,0,0-1.71,1,4.47,4.47,0,0,0-.69,2.64V323h-1.6V313h1.6v2.06h0a3.49,3.49,0,0,1,1-1.65,2.38,2.38,0,0,1,1.57-.59,2.62,2.62,0,0,1,1,.14Z"/><path class="cls-4" d="M443.2,310.45a1,1,0,0,1-.73-.29,1,1,0,0,1-.3-.74,1,1,0,0,1,1-1,1,1,0,0,1,.75.3,1,1,0,0,1,0,1.48A1,1,0,0,1,443.2,310.45ZM444,323h-1.6V313H444Z"/><path class="cls-4" d="M453.07,322.9a3.09,3.09,0,0,1-1.49.31q-2.63,0-2.63-2.93v-5.92h-1.72V313h1.72v-2.44l1.6-.52v3h2.52v1.37h-2.52V320a2.33,2.33,0,0,0,.34,1.44,1.37,1.37,0,0,0,1.13.43,1.68,1.68,0,0,0,1-.33Z"/><path class="cls-4" d="M461,322.9a3.09,3.09,0,0,1-1.49.31q-2.63,0-2.63-2.93v-5.92H455.2V313h1.72v-2.44l1.6-.52v3H461v1.37h-2.52V320a2.33,2.33,0,0,0,.34,1.44,1.37,1.37,0,0,0,1.13.43,1.68,1.68,0,0,0,1-.33Z"/><path class="cls-4" d="M472.42,318.39h-7.06a3.74,3.74,0,0,0,.9,2.58,3.1,3.1,0,0,0,2.36.91,4.91,4.91,0,0,0,3.11-1.11v1.5a5.81,5.81,0,0,1-3.49,1,4.23,4.23,0,0,1-3.33-1.36A5.58,5.58,0,0,1,463.7,318a5.47,5.47,0,0,1,1.32-3.8,4.24,4.24,0,0,1,3.29-1.47,3.76,3.76,0,0,1,3,1.27,5.29,5.29,0,0,1,1.07,3.53ZM470.78,317a3.26,3.26,0,0,0-.67-2.16,2.28,2.28,0,0,0-1.83-.77,2.59,2.59,0,0,0-1.92.81,3.68,3.68,0,0,0-1,2.12Z"/><path class="cls-4" d="M484.34,323h-1.6v-5.7q0-3.18-2.32-3.18a2.52,2.52,0,0,0-2,.9,3.35,3.35,0,0,0-.79,2.28V323H476V313h1.6v1.66h0a3.61,3.61,0,0,1,3.28-1.89,3.06,3.06,0,0,1,2.51,1.06,4.72,4.72,0,0,1,.87,3.06Z"/><path class="cls-4" d="M502.05,322.53a5.21,5.21,0,0,1-2.73.69,4.53,4.53,0,0,1-3.45-1.39,5,5,0,0,1-1.31-3.61,5.54,5.54,0,0,1,1.42-4,5,5,0,0,1,3.78-1.5,5.26,5.26,0,0,1,2.32.49v1.64a4.07,4.07,0,0,0-2.38-.78,3.22,3.22,0,0,0-2.51,1.1,4.17,4.17,0,0,0-1,2.89,4,4,0,0,0,.92,2.77,3.18,3.18,0,0,0,2.48,1,4,4,0,0,0,2.46-.87Z"/><path class="cls-4" d="M512.83,323h-1.6v-1.56h0a3.35,3.35,0,0,1-3.08,1.8,3.29,3.29,0,0,1-2.34-.79,2.74,2.74,0,0,1-.84-2.1q0-2.8,3.3-3.26l3-.42q0-2.55-2.06-2.55a4.92,4.92,0,0,0-3.26,1.23V313.7a6.2,6.2,0,0,1,3.4-.94q3.53,0,3.53,3.73Zm-1.6-5.06-2.41.33a3.92,3.92,0,0,0-1.68.55,1.59,1.59,0,0,0-.57,1.4,1.53,1.53,0,0,0,.52,1.2,2,2,0,0,0,1.39.46,2.57,2.57,0,0,0,2-.83,3,3,0,0,0,.78-2.11Z"/><path class="cls-4" d="M521.69,322.9a3.09,3.09,0,0,1-1.49.31q-2.63,0-2.63-2.93v-5.92h-1.72V313h1.72v-2.44l1.6-.52v3h2.52v1.37h-2.52V320a2.33,2.33,0,0,0,.34,1.44,1.37,1.37,0,0,0,1.13.43,1.68,1.68,0,0,0,1-.33Z"/><path class="cls-4" d="M532.19,323h-1.6v-1.56h0a3.35,3.35,0,0,1-3.08,1.8,3.29,3.29,0,0,1-2.34-.79,2.74,2.74,0,0,1-.84-2.1q0-2.8,3.3-3.26l3-.42q0-2.55-2.06-2.55a4.92,4.92,0,0,0-3.26,1.23V313.7a6.2,6.2,0,0,1,3.4-.94q3.53,0,3.53,3.73Zm-1.6-5.06-2.41.33a3.92,3.92,0,0,0-1.68.55,1.59,1.59,0,0,0-.57,1.4,1.53,1.53,0,0,0,.52,1.2,2,2,0,0,0,1.39.46,2.57,2.57,0,0,0,2-.83,3,3,0,0,0,.78-2.11Z"/><path class="cls-4" d="M538,323h-1.6v-14.8H538Z"/><path class="cls-4" d="M546.63,323.23a4.64,4.64,0,0,1-3.54-1.4,5.19,5.19,0,0,1-1.32-3.72,5.41,5.41,0,0,1,1.38-3.94,5,5,0,0,1,3.72-1.42,4.49,4.49,0,0,1,3.49,1.38,5.46,5.46,0,0,1,1.25,3.82,5.37,5.37,0,0,1-1.35,3.83A4.74,4.74,0,0,1,546.63,323.23Zm.12-9.12a3,3,0,0,0-2.44,1,4.31,4.31,0,0,0-.9,2.9,4.08,4.08,0,0,0,.91,2.8,3.09,3.09,0,0,0,2.43,1,2.93,2.93,0,0,0,2.39-1A4.36,4.36,0,0,0,550,318a4.44,4.44,0,0,0-.83-2.89A2.92,2.92,0,0,0,546.75,314.11Z"/><path class="cls-4" d="M563.9,322.19q0,5.51-5.27,5.51a7.08,7.08,0,0,1-3.24-.7v-1.6a6.66,6.66,0,0,0,3.22.94q3.69,0,3.69-3.93v-1.09h0a4,4,0,0,1-6.44.58,5.33,5.33,0,0,1-1.14-3.58,6.23,6.23,0,0,1,1.23-4.05,4.09,4.09,0,0,1,3.35-1.5,3.26,3.26,0,0,1,3,1.62h0V313h1.6Zm-1.6-3.72V317a2.86,2.86,0,0,0-.81-2,2.65,2.65,0,0,0-2-.85,2.78,2.78,0,0,0-2.32,1.08,4.82,4.82,0,0,0-.84,3,4.13,4.13,0,0,0,.81,2.67,2.6,2.6,0,0,0,2.13,1,2.79,2.79,0,0,0,2.19-1A3.57,3.57,0,0,0,562.3,318.47Z"/><path class="cls-4" d="M579.2,323.23a4.64,4.64,0,0,1-3.54-1.4,5.19,5.19,0,0,1-1.32-3.72,5.41,5.41,0,0,1,1.38-3.94,5,5,0,0,1,3.72-1.42,4.49,4.49,0,0,1,3.49,1.38,5.46,5.46,0,0,1,1.25,3.82,5.37,5.37,0,0,1-1.35,3.83A4.74,4.74,0,0,1,579.2,323.23Zm.12-9.12a3,3,0,0,0-2.44,1,4.31,4.31,0,0,0-.9,2.9,4.08,4.08,0,0,0,.91,2.8,3.09,3.09,0,0,0,2.43,1,2.93,2.93,0,0,0,2.39-1,4.36,4.36,0,0,0,.83-2.86,4.44,4.44,0,0,0-.83-2.89A2.92,2.92,0,0,0,579.32,314.11Z"/><path class="cls-4" d="M593.16,314.61a2,2,0,0,0-1.21-.32,2,2,0,0,0-1.71,1,4.47,4.47,0,0,0-.69,2.64V323h-1.6V313h1.6v2.06h0a3.49,3.49,0,0,1,1-1.65,2.38,2.38,0,0,1,1.57-.59,2.62,2.62,0,0,1,1,.14Z"/><path class="cls-4" d="M274.21,347h-1.6v-1.58h0a3.29,3.29,0,0,1-3.09,1.82q-3.57,0-3.57-4.26v-6h1.59v5.72q0,3.16,2.42,3.16a2.45,2.45,0,0,0,1.93-.86,3.31,3.31,0,0,0,.76-2.26V337h1.6Z"/><path class="cls-4" d="M278,346.63v-1.72a4.74,4.74,0,0,0,2.88,1q2.11,0,2.11-1.41a1.22,1.22,0,0,0-.18-.68,1.81,1.81,0,0,0-.49-.49,3.75,3.75,0,0,0-.72-.39l-.89-.36a11.58,11.58,0,0,1-1.17-.53,3.51,3.51,0,0,1-.84-.61,2.25,2.25,0,0,1-.51-.77,2.72,2.72,0,0,1-.17-1,2.39,2.39,0,0,1,.32-1.25,2.86,2.86,0,0,1,.86-.91,4,4,0,0,1,1.23-.55,5.42,5.42,0,0,1,1.42-.19,5.73,5.73,0,0,1,2.32.45v1.62a4.53,4.53,0,0,0-2.54-.72,3,3,0,0,0-.81.1,2,2,0,0,0-.62.29,1.33,1.33,0,0,0-.4.44,1.17,1.17,0,0,0-.14.57,1.37,1.37,0,0,0,.14.65,1.44,1.44,0,0,0,.42.47,3.16,3.16,0,0,0,.66.37l.89.36a12.35,12.35,0,0,1,1.19.52,4.08,4.08,0,0,1,.9.61,2.36,2.36,0,0,1,.57.78,2.51,2.51,0,0,1,.2,1,2.46,2.46,0,0,1-.33,1.29,2.81,2.81,0,0,1-.87.91,4,4,0,0,1-1.26.54,6.22,6.22,0,0,1-1.49.18A5.67,5.67,0,0,1,278,346.63Z"/><path class="cls-4" d="M296.36,342.39H289.3a3.74,3.74,0,0,0,.9,2.58,3.1,3.1,0,0,0,2.36.91,4.91,4.91,0,0,0,3.11-1.11v1.5a5.81,5.81,0,0,1-3.49,1,4.23,4.23,0,0,1-3.33-1.36,5.58,5.58,0,0,1-1.21-3.83,5.47,5.47,0,0,1,1.32-3.8,4.24,4.24,0,0,1,3.29-1.47,3.76,3.76,0,0,1,3,1.27,5.29,5.29,0,0,1,1.07,3.53ZM294.72,341a3.26,3.26,0,0,0-.67-2.16,2.28,2.28,0,0,0-1.83-.77,2.59,2.59,0,0,0-1.92.81,3.68,3.68,0,0,0-1,2.12Z"/><path class="cls-4" d="M313.82,347h-1.6v-1.56h0a3.35,3.35,0,0,1-3.08,1.8,3.29,3.29,0,0,1-2.34-.79,2.74,2.74,0,0,1-.84-2.1q0-2.8,3.3-3.26l3-.42q0-2.55-2.06-2.55a4.92,4.92,0,0,0-3.26,1.23V337.7a6.2,6.2,0,0,1,3.4-.94q3.53,0,3.53,3.73Zm-1.6-5.06-2.41.33a3.92,3.92,0,0,0-1.68.55,1.59,1.59,0,0,0-.57,1.4,1.53,1.53,0,0,0,.52,1.2,2,2,0,0,0,1.39.46,2.57,2.57,0,0,0,2-.83,3,3,0,0,0,.78-2.11Z"/><path class="cls-4" d="M326.36,345.55h0v6h-1.6V337h1.6v1.76h0a3.79,3.79,0,0,1,3.46-2,3.66,3.66,0,0,1,3,1.34,5.56,5.56,0,0,1,1.08,3.6,6.2,6.2,0,0,1-1.22,4,4.06,4.06,0,0,1-3.34,1.51A3.35,3.35,0,0,1,326.36,345.55Zm0-4v1.4a3,3,0,0,0,.81,2.1,2.87,2.87,0,0,0,4.33-.25,5.11,5.11,0,0,0,.83-3.1,4,4,0,0,0-.77-2.62,2.55,2.55,0,0,0-2.09-.95,2.84,2.84,0,0,0-2.25,1A3.57,3.57,0,0,0,326.32,341.51Z"/><path class="cls-4" d="M345.71,342.39h-7.06a3.74,3.74,0,0,0,.9,2.58,3.1,3.1,0,0,0,2.36.91,4.91,4.91,0,0,0,3.11-1.11v1.5a5.81,5.81,0,0,1-3.49,1,4.23,4.23,0,0,1-3.33-1.36A5.58,5.58,0,0,1,337,342a5.47,5.47,0,0,1,1.32-3.8,4.24,4.24,0,0,1,3.29-1.47,3.76,3.76,0,0,1,3,1.27,5.29,5.29,0,0,1,1.07,3.53ZM344.07,341a3.26,3.26,0,0,0-.67-2.16,2.28,2.28,0,0,0-1.83-.77,2.59,2.59,0,0,0-1.92.81,3.68,3.68,0,0,0-1,2.12Z"/><path class="cls-4" d="M357.64,347H356v-5.7q0-3.18-2.32-3.18a2.52,2.52,0,0,0-2,.9,3.35,3.35,0,0,0-.79,2.28V347h-1.6V337h1.6v1.66h0a3.61,3.61,0,0,1,3.28-1.89,3.06,3.06,0,0,1,2.51,1.06,4.72,4.72,0,0,1,.87,3.06Z"/><path class="cls-4" d="M368.67,346.53a5.21,5.21,0,0,1-2.73.69,4.53,4.53,0,0,1-3.45-1.39,5,5,0,0,1-1.31-3.61,5.54,5.54,0,0,1,1.42-4,5,5,0,0,1,3.78-1.5,5.26,5.26,0,0,1,2.32.49v1.64a4.07,4.07,0,0,0-2.38-.78,3.22,3.22,0,0,0-2.51,1.1,4.17,4.17,0,0,0-1,2.89,4,4,0,0,0,.92,2.77,3.18,3.18,0,0,0,2.48,1,4,4,0,0,0,2.46-.87Z"/><path class="cls-4" d="M373.11,334.45a1,1,0,0,1-.73-.29,1,1,0,0,1-.3-.74,1,1,0,0,1,1-1,1,1,0,0,1,.75.3,1,1,0,0,1,0,1.48A1,1,0,0,1,373.11,334.45Zm.78,12.54h-1.6V337h1.6Z"/><path class="cls-4" d="M379.94,347h-1.6v-14.8h1.6Z"/><path class="cls-4" d="M395.7,346.9a3.09,3.09,0,0,1-1.49.31q-2.63,0-2.63-2.93v-5.92h-1.72V337h1.72v-2.44l1.6-.52v3h2.52v1.37h-2.52V344a2.33,2.33,0,0,0,.34,1.44,1.37,1.37,0,0,0,1.13.43,1.68,1.68,0,0,0,1-.33Z"/><path class="cls-4" d="M403.21,347.23a4.64,4.64,0,0,1-3.54-1.4,5.19,5.19,0,0,1-1.32-3.72,5.41,5.41,0,0,1,1.38-3.94,5,5,0,0,1,3.72-1.42,4.49,4.49,0,0,1,3.49,1.38,5.46,5.46,0,0,1,1.25,3.82,5.37,5.37,0,0,1-1.35,3.83A4.74,4.74,0,0,1,403.21,347.23Zm.12-9.12a3,3,0,0,0-2.44,1,4.31,4.31,0,0,0-.9,2.9,4.08,4.08,0,0,0,.91,2.8,3.09,3.09,0,0,0,2.43,1,2.93,2.93,0,0,0,2.39-1,4.36,4.36,0,0,0,.83-2.86,4.44,4.44,0,0,0-.83-2.89A2.92,2.92,0,0,0,403.33,338.11Z"/><path class="cls-4" d="M427.17,347h-1.6v-1.7h0a4,4,0,0,1-6.45.59,5.51,5.51,0,0,1-1.13-3.66,6,6,0,0,1,1.25-4,4.12,4.12,0,0,1,3.33-1.49,3.21,3.21,0,0,1,3,1.62h0v-6.19h1.6Zm-1.6-4.52V341a2.86,2.86,0,0,0-.8-2.05,2.69,2.69,0,0,0-2-.84,2.77,2.77,0,0,0-2.3,1.07,4.71,4.71,0,0,0-.84,3,4.23,4.23,0,0,0,.81,2.73,2.63,2.63,0,0,0,2.16,1,2.74,2.74,0,0,0,2.17-1A3.6,3.6,0,0,0,425.57,342.47Z"/><path class="cls-4" d="M435.79,347.23a4.64,4.64,0,0,1-3.54-1.4,5.19,5.19,0,0,1-1.32-3.72,5.41,5.41,0,0,1,1.38-3.94,5,5,0,0,1,3.72-1.42,4.49,4.49,0,0,1,3.49,1.38,5.46,5.46,0,0,1,1.25,3.82,5.37,5.37,0,0,1-1.35,3.83A4.74,4.74,0,0,1,435.79,347.23Zm.12-9.12a3,3,0,0,0-2.44,1,4.31,4.31,0,0,0-.9,2.9,4.08,4.08,0,0,0,.91,2.8,3.09,3.09,0,0,0,2.43,1,2.93,2.93,0,0,0,2.39-1,4.36,4.36,0,0,0,.83-2.86,4.44,4.44,0,0,0-.83-2.89A2.92,2.92,0,0,0,435.91,338.11Z"/><path class="cls-4" d="M451.34,346.53a5.21,5.21,0,0,1-2.73.69,4.53,4.53,0,0,1-3.45-1.39,5,5,0,0,1-1.31-3.61,5.54,5.54,0,0,1,1.42-4,5,5,0,0,1,3.78-1.5,5.26,5.26,0,0,1,2.32.49v1.64a4.07,4.07,0,0,0-2.38-.78,3.22,3.22,0,0,0-2.51,1.1,4.17,4.17,0,0,0-1,2.89,4,4,0,0,0,.92,2.77,3.18,3.18,0,0,0,2.48,1,4,4,0,0,0,2.46-.87Z"/><path class="cls-4" d="M463.05,347h-1.6v-1.58h0a3.29,3.29,0,0,1-3.09,1.82q-3.57,0-3.57-4.26v-6h1.59v5.72q0,3.16,2.42,3.16a2.45,2.45,0,0,0,1.93-.86,3.31,3.31,0,0,0,.76-2.26V337h1.6Z"/><path class="cls-4" d="M481.68,347h-1.6v-5.74a4.33,4.33,0,0,0-.51-2.4,1.94,1.94,0,0,0-1.72-.74,2.13,2.13,0,0,0-1.74.94,3.59,3.59,0,0,0-.72,2.25V347h-1.6v-5.94q0-2.95-2.28-2.95a2.11,2.11,0,0,0-1.74.88,3.65,3.65,0,0,0-.68,2.3V347h-1.6V337h1.6v1.58h0a3.4,3.4,0,0,1,3.11-1.82,2.89,2.89,0,0,1,2.83,2.07,3.57,3.57,0,0,1,3.32-2.07q3.3,0,3.3,4.07Z"/><path class="cls-4" d="M493.95,342.39h-7.06a3.74,3.74,0,0,0,.9,2.58,3.1,3.1,0,0,0,2.36.91,4.91,4.91,0,0,0,3.11-1.11v1.5a5.81,5.81,0,0,1-3.49,1,4.23,4.23,0,0,1-3.33-1.36,5.58,5.58,0,0,1-1.21-3.83,5.47,5.47,0,0,1,1.32-3.8,4.24,4.24,0,0,1,3.29-1.47,3.76,3.76,0,0,1,3,1.27,5.29,5.29,0,0,1,1.07,3.53ZM492.31,341a3.26,3.26,0,0,0-.67-2.16,2.28,2.28,0,0,0-1.83-.77,2.59,2.59,0,0,0-1.92.81,3.68,3.68,0,0,0-1,2.12Z"/><path class="cls-4" d="M505.87,347h-1.6v-5.7q0-3.18-2.32-3.18a2.52,2.52,0,0,0-2,.9,3.35,3.35,0,0,0-.79,2.28V347h-1.6V337h1.6v1.66h0a3.61,3.61,0,0,1,3.28-1.89,3.06,3.06,0,0,1,2.51,1.06,4.72,4.72,0,0,1,.87,3.06Z"/><path class="cls-4" d="M514.73,346.9a3.09,3.09,0,0,1-1.49.31q-2.63,0-2.63-2.93v-5.92h-1.72V337h1.72v-2.44l1.6-.52v3h2.52v1.37h-2.52V344a2.33,2.33,0,0,0,.34,1.44,1.37,1.37,0,0,0,1.13.43,1.68,1.68,0,0,0,1-.33Z"/><path class="cls-4" d="M537.34,337l-3,10h-1.66l-2.06-7.16a4.66,4.66,0,0,1-.16-.93h0a4.38,4.38,0,0,1-.21.91L528,347h-1.6l-3-10H525l2.07,7.52a4.53,4.53,0,0,1,.14.9h.08a4.2,4.2,0,0,1,.18-.92l2.3-7.5h1.46l2.07,7.54a5.42,5.42,0,0,1,.15.9h.08a4.16,4.16,0,0,1,.17-.9l2-7.54Z"/><path class="cls-4" d="M548.7,347h-1.6v-5.76q0-3.12-2.32-3.12a2.53,2.53,0,0,0-2,.9,3.37,3.37,0,0,0-.8,2.32V347h-1.6v-14.8H542v6.46h0a3.64,3.64,0,0,1,3.28-1.89q3.38,0,3.38,4.07Z"/><path class="cls-4" d="M557.1,347.23a4.64,4.64,0,0,1-3.54-1.4,5.19,5.19,0,0,1-1.32-3.72,5.41,5.41,0,0,1,1.38-3.94,5,5,0,0,1,3.72-1.42,4.49,4.49,0,0,1,3.49,1.38,5.46,5.46,0,0,1,1.25,3.82,5.37,5.37,0,0,1-1.35,3.83A4.74,4.74,0,0,1,557.1,347.23Zm.12-9.12a3,3,0,0,0-2.44,1,4.31,4.31,0,0,0-.9,2.9,4.08,4.08,0,0,0,.91,2.8,3.09,3.09,0,0,0,2.43,1,2.93,2.93,0,0,0,2.39-1,4.36,4.36,0,0,0,.83-2.86,4.44,4.44,0,0,0-.83-2.89A2.92,2.92,0,0,0,557.21,338.11Z"/><path class="cls-4" d="M272.94,370.53a5.21,5.21,0,0,1-2.73.69,4.53,4.53,0,0,1-3.45-1.39,5,5,0,0,1-1.31-3.61,5.54,5.54,0,0,1,1.42-4,5,5,0,0,1,3.78-1.5,5.26,5.26,0,0,1,2.32.49v1.64a4.07,4.07,0,0,0-2.38-.78,3.22,3.22,0,0,0-2.51,1.1,4.17,4.17,0,0,0-1,2.89,4,4,0,0,0,.92,2.77,3.18,3.18,0,0,0,2.48,1,4,4,0,0,0,2.46-.87Z"/><path class="cls-4" d="M284.86,371h-1.6v-5.76q0-3.12-2.32-3.12a2.53,2.53,0,0,0-2,.9,3.37,3.37,0,0,0-.8,2.32V371h-1.6v-14.8h1.6v6.46h0a3.64,3.64,0,0,1,3.28-1.89q3.38,0,3.38,4.07Z"/><path class="cls-4" d="M297.12,366.39h-7.06A3.74,3.74,0,0,0,291,369a3.1,3.1,0,0,0,2.36.91,4.91,4.91,0,0,0,3.11-1.11v1.5a5.81,5.81,0,0,1-3.49,1,4.23,4.23,0,0,1-3.33-1.36,5.58,5.58,0,0,1-1.21-3.83,5.47,5.47,0,0,1,1.32-3.8,4.24,4.24,0,0,1,3.29-1.47,3.76,3.76,0,0,1,3,1.27,5.29,5.29,0,0,1,1.07,3.53ZM295.47,365a3.26,3.26,0,0,0-.67-2.16,2.28,2.28,0,0,0-1.83-.77,2.59,2.59,0,0,0-1.92.81,3.68,3.68,0,0,0-1,2.12Z"/><path class="cls-4" d="M307.55,370.53a5.21,5.21,0,0,1-2.73.69,4.53,4.53,0,0,1-3.45-1.39,5,5,0,0,1-1.31-3.61,5.54,5.54,0,0,1,1.42-4,5,5,0,0,1,3.78-1.5,5.26,5.26,0,0,1,2.32.49v1.64a4.07,4.07,0,0,0-2.38-.78,3.22,3.22,0,0,0-2.51,1.1,4.17,4.17,0,0,0-1,2.89,4,4,0,0,0,.92,2.77,3.18,3.18,0,0,0,2.48,1,4,4,0,0,0,2.46-.87Z"/><path class="cls-4" d="M319.48,371h-2.25l-4.41-4.8h0V371h-1.6v-14.8h1.6v9.38h0L317,361h2.1l-4.64,4.82Z"/><path class="cls-4" d="M330.35,366.39h-7.06a3.74,3.74,0,0,0,.9,2.58,3.1,3.1,0,0,0,2.36.91,4.91,4.91,0,0,0,3.11-1.11v1.5a5.81,5.81,0,0,1-3.49,1,4.23,4.23,0,0,1-3.33-1.36,5.58,5.58,0,0,1-1.21-3.83,5.47,5.47,0,0,1,1.32-3.8,4.24,4.24,0,0,1,3.29-1.47,3.76,3.76,0,0,1,3,1.27,5.29,5.29,0,0,1,1.07,3.53ZM328.71,365a3.26,3.26,0,0,0-.67-2.16,2.28,2.28,0,0,0-1.83-.77,2.59,2.59,0,0,0-1.92.81,3.68,3.68,0,0,0-1,2.12Z"/><path class="cls-4" d="M342.51,371h-1.6v-1.7h0a4,4,0,0,1-6.45.59,5.51,5.51,0,0,1-1.13-3.66,6,6,0,0,1,1.25-4,4.12,4.12,0,0,1,3.33-1.49,3.21,3.21,0,0,1,3,1.62h0v-6.19h1.6Zm-1.6-4.52V365a2.86,2.86,0,0,0-.8-2.05,2.69,2.69,0,0,0-2-.84,2.77,2.77,0,0,0-2.3,1.07,4.71,4.71,0,0,0-.84,3,4.23,4.23,0,0,0,.81,2.73,2.63,2.63,0,0,0,2.16,1,2.74,2.74,0,0,0,2.17-1A3.6,3.6,0,0,0,340.91,366.47Z"/><path class="cls-4" d="M357.81,371.23a4.64,4.64,0,0,1-3.54-1.4,5.19,5.19,0,0,1-1.32-3.72,5.41,5.41,0,0,1,1.38-3.94,5,5,0,0,1,3.72-1.42,4.49,4.49,0,0,1,3.49,1.38,5.46,5.46,0,0,1,1.25,3.82,5.37,5.37,0,0,1-1.35,3.83A4.74,4.74,0,0,1,357.81,371.23Zm.12-9.12a3,3,0,0,0-2.44,1,4.31,4.31,0,0,0-.9,2.9,4.08,4.08,0,0,0,.91,2.8,3.09,3.09,0,0,0,2.43,1,2.93,2.93,0,0,0,2.39-1,4.36,4.36,0,0,0,.83-2.86,4.44,4.44,0,0,0-.83-2.89A2.92,2.92,0,0,0,357.93,362.11Z"/><path class="cls-4" d="M374.64,371H373v-1.58h0a3.29,3.29,0,0,1-3.09,1.82q-3.57,0-3.57-4.26v-6h1.59v5.72q0,3.16,2.42,3.16a2.45,2.45,0,0,0,1.93-.86,3.31,3.31,0,0,0,.76-2.26V361h1.6Z"/><path class="cls-4" d="M383.71,370.9a3.09,3.09,0,0,1-1.49.31q-2.63,0-2.63-2.93v-5.92h-1.72V361h1.72v-2.44l1.6-.52v3h2.52v1.37h-2.52V368a2.33,2.33,0,0,0,.34,1.44,1.37,1.37,0,0,0,1.13.43,1.68,1.68,0,0,0,1-.33Z"/><path class="cls-4" d="M406.32,361l-3,10h-1.66l-2.06-7.16a4.66,4.66,0,0,1-.16-.93h0a4.38,4.38,0,0,1-.21.91L397,371h-1.6l-3-10H394l2.07,7.52a4.53,4.53,0,0,1,.14.9h.08a4.2,4.2,0,0,1,.18-.92l2.3-7.5h1.46l2.07,7.54a5.42,5.42,0,0,1,.15.9h.08a4.16,4.16,0,0,1,.17-.9l2-7.54Z"/><path class="cls-4" d="M417.68,371h-1.6v-5.76q0-3.12-2.32-3.12a2.53,2.53,0,0,0-2,.9,3.37,3.37,0,0,0-.8,2.32V371h-1.6v-14.8H411v6.46h0a3.64,3.64,0,0,1,3.28-1.89q3.38,0,3.38,4.07Z"/><path class="cls-4" d="M422.72,358.45a1,1,0,0,1-.73-.29,1,1,0,0,1-.3-.74,1,1,0,0,1,1-1,1,1,0,0,1,.75.3,1,1,0,0,1,0,1.48A1,1,0,0,1,422.72,358.45ZM423.5,371h-1.6V361h1.6Z"/><path class="cls-4" d="M434.76,370.53a5.21,5.21,0,0,1-2.73.69,4.53,4.53,0,0,1-3.45-1.39,5,5,0,0,1-1.31-3.61,5.54,5.54,0,0,1,1.42-4,5,5,0,0,1,3.78-1.5,5.26,5.26,0,0,1,2.32.49v1.64a4.07,4.07,0,0,0-2.38-.78,3.22,3.22,0,0,0-2.51,1.1,4.17,4.17,0,0,0-1,2.89,4,4,0,0,0,.92,2.77,3.18,3.18,0,0,0,2.48,1,4,4,0,0,0,2.46-.87Z"/><path class="cls-4" d="M446.68,371h-1.6v-5.76q0-3.12-2.32-3.12a2.53,2.53,0,0,0-2,.9,3.37,3.37,0,0,0-.8,2.32V371h-1.6v-14.8H440v6.46h0a3.64,3.64,0,0,1,3.28-1.89q3.38,0,3.38,4.07Z"/><path class="cls-4" d="M459.22,369.55h0V371h-1.6v-14.8h1.6v6.56h0a3.79,3.79,0,0,1,3.46-2,3.66,3.66,0,0,1,3,1.34,5.54,5.54,0,0,1,1.09,3.6,6.2,6.2,0,0,1-1.22,4,4.06,4.06,0,0,1-3.34,1.51A3.29,3.29,0,0,1,459.22,369.55Zm0-4v1.4A3,3,0,0,0,460,369a2.87,2.87,0,0,0,4.33-.25,5.11,5.11,0,0,0,.83-3.1,4,4,0,0,0-.77-2.62,2.55,2.55,0,0,0-2.09-.95,2.84,2.84,0,0,0-2.25,1A3.57,3.57,0,0,0,459.18,365.51Z"/><path class="cls-4" d="M474.71,371.23a4.64,4.64,0,0,1-3.54-1.4,5.19,5.19,0,0,1-1.32-3.72,5.41,5.41,0,0,1,1.38-3.94,5,5,0,0,1,3.72-1.42,4.49,4.49,0,0,1,3.49,1.38,5.46,5.46,0,0,1,1.25,3.82,5.37,5.37,0,0,1-1.35,3.83A4.74,4.74,0,0,1,474.71,371.23Zm.12-9.12a3,3,0,0,0-2.44,1,4.31,4.31,0,0,0-.9,2.9,4.08,4.08,0,0,0,.91,2.8,3.09,3.09,0,0,0,2.43,1,2.93,2.93,0,0,0,2.39-1,4.36,4.36,0,0,0,.83-2.86,4.44,4.44,0,0,0-.83-2.89A2.92,2.92,0,0,0,474.83,362.11Z"/><path class="cls-4" d="M487.63,371.23a4.64,4.64,0,0,1-3.54-1.4,5.19,5.19,0,0,1-1.32-3.72,5.41,5.41,0,0,1,1.38-3.94,5,5,0,0,1,3.72-1.42,4.49,4.49,0,0,1,3.49,1.38,5.46,5.46,0,0,1,1.25,3.82,5.37,5.37,0,0,1-1.35,3.83A4.74,4.74,0,0,1,487.63,371.23Zm.12-9.12a3,3,0,0,0-2.44,1,4.31,4.31,0,0,0-.9,2.9,4.08,4.08,0,0,0,.91,2.8,3.09,3.09,0,0,0,2.43,1,2.93,2.93,0,0,0,2.39-1A4.36,4.36,0,0,0,491,366a4.44,4.44,0,0,0-.83-2.89A2.92,2.92,0,0,0,487.75,362.11Z"/><path class="cls-4" d="M504.67,371h-2.25l-4.41-4.8h0V371h-1.6v-14.8H498v9.38h0l4.2-4.58h2.1l-4.64,4.82Z"/><path class="cls-4" d="M508.07,371.21a1,1,0,0,1-.77-.32,1.06,1.06,0,0,1-.32-.77,1.08,1.08,0,0,1,.32-.78,1,1,0,0,1,.77-.33,1.06,1.06,0,0,1,.78.33,1.07,1.07,0,0,1,.32.78,1.05,1.05,0,0,1-.32.77A1.06,1.06,0,0,1,508.07,371.21Z"/><path class="cls-4" d="M267.43,110.42a12.6,12.6,0,0,0,2,1.21,16,16,0,0,0,4.5,1.44,13.68,13.68,0,0,0,2.19.19q4.06,0,6.08-1.57a5.37,5.37,0,0,0,2-4.51,6,6,0,0,0-.47-2.48,6.12,6.12,0,0,0-1.47-2,15.27,15.27,0,0,0-2.52-1.83q-1.52-.91-3.59-2.05-2.29-1.25-3.92-2.35a14.36,14.36,0,0,1-2.67-2.27,7.63,7.63,0,0,1-1.52-2.5,9,9,0,0,1-.49-3.06,8.09,8.09,0,0,1,.92-3.88A9.05,9.05,0,0,1,271,81.85,11.51,11.51,0,0,1,274.64,80a15.21,15.21,0,0,1,4.5-.65,18.56,18.56,0,0,1,7,1.17v3.66a14.64,14.64,0,0,0-7.42-1.82,11.3,11.3,0,0,0-3,.39,7.82,7.82,0,0,0-2.47,1.13,5.48,5.48,0,0,0-1.67,1.86,5.25,5.25,0,0,0-.61,2.58,6.35,6.35,0,0,0,.41,2.4,5.72,5.72,0,0,0,1.32,1.9,12.59,12.59,0,0,0,2.39,1.78q1.48.88,3.62,2a43.22,43.22,0,0,1,3.91,2.33,15.18,15.18,0,0,1,2.78,2.37,8.72,8.72,0,0,1,1.66,2.61,8.29,8.29,0,0,1,.55,3.08,9.26,9.26,0,0,1-.87,4.12,8,8,0,0,1-2.44,3,11.12,11.12,0,0,1-3.74,1.77,17.73,17.73,0,0,1-6.77.46q-1.17-.14-2.37-.4a22.18,22.18,0,0,1-2.28-.62,8.14,8.14,0,0,1-1.76-.78Z"/><path class="cls-4" d="M296.1,83.7a2.22,2.22,0,0,1-1.59-.65,2.18,2.18,0,0,1-.67-1.64,2.11,2.11,0,0,1,.67-1.61,2.24,2.24,0,0,1,1.59-.64,2.5,2.5,0,0,1,.9.16,2.17,2.17,0,0,1,.73.46,2.27,2.27,0,0,1,.5.71,2.16,2.16,0,0,1,.19.91,2.34,2.34,0,0,1-.17.9,2.14,2.14,0,0,1-.5.73,2.4,2.4,0,0,1-.73.49A2.31,2.31,0,0,1,296.1,83.7Zm-1.57,31.95V90.15h3.19v25.5Z"/><path class="cls-4" d="M338,115.65v-15a18.31,18.31,0,0,0-.35-3.87,6.77,6.77,0,0,0-1.08-2.58,4.21,4.21,0,0,0-1.87-1.44,7.34,7.34,0,0,0-2.7-.45,5.56,5.56,0,0,0-2.64.66,7,7,0,0,0-2.18,1.82,8.84,8.84,0,0,0-1.47,2.73,10.41,10.41,0,0,0-.54,3.39v14.74H322V100.34q0-8-6.15-8a5.63,5.63,0,0,0-2.64.64A6.58,6.58,0,0,0,311,94.73a8.53,8.53,0,0,0-1.42,2.75,11.67,11.67,0,0,0-.51,3.55v14.62h-3.19V90.15h3.19v4.13h.1a8.54,8.54,0,0,1,7.84-4.73,7.75,7.75,0,0,1,2.54.41,7.36,7.36,0,0,1,2.14,1.15,7.48,7.48,0,0,1,1.63,1.76,7.91,7.91,0,0,1,1,2.24,10.25,10.25,0,0,1,3.5-4.13,8.65,8.65,0,0,1,4.87-1.42q8.39,0,8.39,10.36v15.74Z"/><path class="cls-4" d="M352,111.54v15.84h-3.19V90.15H352V95h.1a10.13,10.13,0,0,1,3.8-4.07,11.07,11.07,0,0,1,9.74-.52,9.06,9.06,0,0,1,3.26,2.5,11.33,11.33,0,0,1,2,3.93,17.72,17.72,0,0,1,.71,5.2,19.63,19.63,0,0,1-.8,5.77,13.31,13.31,0,0,1-2.29,4.47,10.41,10.41,0,0,1-3.62,2.9,10.85,10.85,0,0,1-4.79,1,8.67,8.67,0,0,1-8-4.71Zm0-6.5a9.08,9.08,0,0,0,.59,3.27,8.47,8.47,0,0,0,1.63,2.69,7.58,7.58,0,0,0,2.53,1.83,7.83,7.83,0,0,0,3.27.67,7.34,7.34,0,0,0,3.46-.81,7.55,7.55,0,0,0,2.63-2.3,11.16,11.16,0,0,0,1.67-3.61,17.77,17.77,0,0,0,.58-4.73,13.93,13.93,0,0,0-.55-4,9.16,9.16,0,0,0-1.56-3.08A6.74,6.74,0,0,0,363.84,93a7.44,7.44,0,0,0-3.2-.67,8.47,8.47,0,0,0-3.59.73,8.09,8.09,0,0,0-2.71,2,8.88,8.88,0,0,0-1.72,3,10.88,10.88,0,0,0-.6,3.62Z"/><path class="cls-4" d="M378.1,115.65V77.9h3.19v37.75Z"/><path class="cls-4" d="M391,103.47a14.27,14.27,0,0,0,.62,4.21,8.91,8.91,0,0,0,1.72,3.16,7.39,7.39,0,0,0,2.73,2,9.16,9.16,0,0,0,3.62.68,13,13,0,0,0,8.14-3v3.14a14.85,14.85,0,0,1-8.87,2.61,11.71,11.71,0,0,1-4.66-.9,9.65,9.65,0,0,1-3.56-2.6,11.88,11.88,0,0,1-2.27-4.2,18.59,18.59,0,0,1-.8-5.68,15.65,15.65,0,0,1,.87-5.3A13.07,13.07,0,0,1,391,93.35a11.13,11.13,0,0,1,3.66-2.79,10.62,10.62,0,0,1,4.63-1,10.44,10.44,0,0,1,4.36.86,8.56,8.56,0,0,1,3.18,2.45,11.11,11.11,0,0,1,2,3.88,18.2,18.2,0,0,1,.67,5.13v1.59Zm15.14-2.79a9.72,9.72,0,0,0-1.89-6.18,6.21,6.21,0,0,0-5.06-2.19,7.76,7.76,0,0,0-3,.57,7.14,7.14,0,0,0-2.43,1.66,8.93,8.93,0,0,0-1.73,2.64,13.25,13.25,0,0,0-1,3.5Z"/><path class="cls-4" d="M417.17,116.15a2.38,2.38,0,0,1-2.39-2.39,2.36,2.36,0,0,1,.68-1.72,2.3,2.3,0,0,1,1.71-.7,2.34,2.34,0,0,1,.93.19,2.5,2.5,0,0,1,.76.5,2.4,2.4,0,0,1,.52.76,2.36,2.36,0,0,1,.2,1,2.21,2.21,0,0,1-.2.93,2.59,2.59,0,0,1-.52.76,2.42,2.42,0,0,1-.76.51A2.35,2.35,0,0,1,417.17,116.15Z"/><path class="cls-4" d="M444.69,115.65h-3.31V79.94h3.31Z"/><path class="cls-4" d="M470.66,115.65V101q0-8.64-6.28-8.64a7.24,7.24,0,0,0-3.09.66,7.41,7.41,0,0,0-2.45,1.83,8.58,8.58,0,0,0-1.62,2.78,10.06,10.06,0,0,0-.59,3.47v14.59h-3.19V90.15h3.19v4.43h.1a9.21,9.21,0,0,1,8.54-5,7.71,7.71,0,0,1,6.38,2.71q2.19,2.71,2.19,7.84v15.54Z"/><path class="cls-4" d="M492.48,115.35a7.91,7.91,0,0,1-3.59.82q-6.18,0-6.18-7.12V92.94h-4.48V90.15h4.48V83.73l3.19-1v7.47h6.57v2.79H485.9v15.61a6.39,6.39,0,0,0,.85,3.74,3.33,3.33,0,0,0,2.86,1.15,5.15,5.15,0,0,0,2.86-.9Z"/><path class="cls-4" d="M514.41,115.65v-4.33h-.1a8.52,8.52,0,0,1-8,4.93q-9.09,0-9.09-11.11v-15h3.19v14.39q0,4.58,1.63,6.77a5.82,5.82,0,0,0,5,2.19,7,7,0,0,0,3-.63,6.86,6.86,0,0,0,2.34-1.79,8.39,8.39,0,0,0,1.53-2.78,11.15,11.15,0,0,0,.55-3.59V90.15h3.19v25.5Z"/><path class="cls-4" d="M527.39,83.7a2.22,2.22,0,0,1-1.59-.65,2.18,2.18,0,0,1-.67-1.64,2.11,2.11,0,0,1,.67-1.61,2.24,2.24,0,0,1,1.59-.64,2.5,2.5,0,0,1,.9.16,2.17,2.17,0,0,1,.73.46,2.27,2.27,0,0,1,.5.71,2.16,2.16,0,0,1,.19.91,2.34,2.34,0,0,1-.17.9,2.14,2.14,0,0,1-.5.73,2.4,2.4,0,0,1-.73.49A2.31,2.31,0,0,1,527.39,83.7Zm-1.57,31.95V90.15H529v25.5Z"/><path class="cls-4" d="M548.18,115.35a7.91,7.91,0,0,1-3.59.82q-6.18,0-6.18-7.12V92.94h-4.48V90.15h4.48V83.73l3.19-1v7.47h6.57v2.79h-6.57v15.61a6.39,6.39,0,0,0,.85,3.74,3.33,3.33,0,0,0,2.86,1.15,5.15,5.15,0,0,0,2.86-.9Z"/><path class="cls-4" d="M555,83.7a2.22,2.22,0,0,1-1.59-.65,2.18,2.18,0,0,1-.67-1.64,2.11,2.11,0,0,1,.67-1.61,2.24,2.24,0,0,1,1.59-.64,2.5,2.5,0,0,1,.9.16,2.17,2.17,0,0,1,.73.46,2.27,2.27,0,0,1,.5.71,2.16,2.16,0,0,1,.19.91,2.34,2.34,0,0,1-.17.9,2.14,2.14,0,0,1-.5.73,2.4,2.4,0,0,1-.73.49A2.31,2.31,0,0,1,555,83.7Zm-1.57,31.95V90.15h3.19v25.5Z"/><path class="cls-4" d="M573.93,115.65h-3l-9.76-25.5h3.51l7,19.42a14.78,14.78,0,0,1,.82,3.11h.1a15.49,15.49,0,0,1,.77-3l7.3-19.52h3.41Z"/><path class="cls-4" d="M589.82,103.47a14.27,14.27,0,0,0,.62,4.21,8.91,8.91,0,0,0,1.72,3.16,7.39,7.39,0,0,0,2.73,2,9.16,9.16,0,0,0,3.62.68,13,13,0,0,0,8.14-3v3.14a14.85,14.85,0,0,1-8.87,2.61,11.71,11.71,0,0,1-4.66-.9,9.65,9.65,0,0,1-3.56-2.6,11.88,11.88,0,0,1-2.27-4.2,18.59,18.59,0,0,1-.8-5.68,15.65,15.65,0,0,1,.87-5.3,13.07,13.07,0,0,1,2.42-4.22,11.13,11.13,0,0,1,3.66-2.79,10.62,10.62,0,0,1,4.63-1,10.44,10.44,0,0,1,4.36.86,8.56,8.56,0,0,1,3.18,2.45,11.11,11.11,0,0,1,2,3.88,18.2,18.2,0,0,1,.67,5.13v1.59ZM605,100.68a9.72,9.72,0,0,0-1.89-6.18A6.21,6.21,0,0,0,598,92.32a7.76,7.76,0,0,0-3,.57,7.14,7.14,0,0,0-2.43,1.66,8.93,8.93,0,0,0-1.73,2.64,13.25,13.25,0,0,0-1,3.5Z"/><path class="cls-4" d="M616,116.15a2.38,2.38,0,0,1-2.39-2.39,2.36,2.36,0,0,1,.68-1.72,2.3,2.3,0,0,1,1.71-.7,2.34,2.34,0,0,1,.93.19,2.5,2.5,0,0,1,.76.5,2.4,2.4,0,0,1,.52.76,2.36,2.36,0,0,1,.2,1,2.21,2.21,0,0,1-.2.93,2.59,2.59,0,0,1-.52.76,2.42,2.42,0,0,1-.76.51A2.35,2.35,0,0,1,616,116.15Z"/></svg>