<svg id="Layer_1" data-name="Layer 1" xmlns="http://www.w3.org/2000/svg" xmlns:xlink="http://www.w3.org/1999/xlink" viewBox="0 0 1170 399"><defs><style>.cls-1,.cls-10,.cls-5,.cls-7,.cls-8{fill:none;}.cls-2{fill:#1d363a;}.cls-3{fill:#fff;}.cls-4{fill:#026b80;}.cls-5{stroke:#fff;stroke-width:2px;}.cls-10,.cls-5,.cls-7,.cls-8{stroke-miterlimit:10;}.cls-6{clip-path:url(#clip-path);}.cls-7,.cls-8{stroke:#0b697f;}.cls-7{stroke-width:5px;}.cls-9{font-size:18.44px;fill:#1e363a;font-family:SegoeUI-Semilight, Segoe UI;}.cls-10{stroke:#026b80;}</style><clipPath id="clip-path"><rect class="cls-1" x="732.53" y="31.64" width="60.87" height="20.29"/></clipPath></defs><title>phone_smaller</title><rect class="cls-2" width="1170" height="399"/><path class="cls-3" d="M260,171.23a6.15,6.15,0,0,1-4.77-2,7.28,7.28,0,0,1-1.79-5.11,7.71,7.71,0,0,1,1.83-5.39,6.38,6.38,0,0,1,5-2,6,6,0,0,1,4.67,2,7.31,7.31,0,0,1,1.77,5.11,7.74,7.74,0,0,1-1.82,5.42A6.26,6.26,0,0,1,260,171.23Zm.12-13a4.51,4.51,0,0,0-3.58,1.59,7.08,7.08,0,0,0,0,8.34,4.38,4.38,0,0,0,3.5,1.58,4.6,4.6,0,0,0,3.63-1.5,6.15,6.15,0,0,0,1.33-4.21,6.42,6.42,0,0,0-1.29-4.29A4.42,4.42,0,0,0,260.1,158.24Z"/><path class="cls-3" d="M278.49,171h-1.6v-1.58h0a3.29,3.29,0,0,1-3.09,1.82q-3.57,0-3.57-4.26v-6h1.59v5.72q0,3.16,2.42,3.16a2.45,2.45,0,0,0,1.93-.86,3.31,3.31,0,0,0,.76-2.26V161h1.6Z"/><path class="cls-3" d="M288.13,162.61a2,2,0,0,0-1.21-.32,2,2,0,0,0-1.71,1,4.47,4.47,0,0,0-.69,2.64V171h-1.6V161h1.6v2.06h0a3.49,3.49,0,0,1,1-1.65,2.38,2.38,0,0,1,1.57-.59,2.62,2.62,0,0,1,1,.14Z"/><path class="cls-3" d="M297.14,170.63v-1.72a4.74,4.74,0,0,0,2.88,1q2.11,0,2.11-1.41a1.22,1.22,0,0,0-.18-.68,1.81,1.81,0,0,0-.49-.49,3.75,3.75,0,0,0-.72-.39l-.89-.36a11.58,11.58,0,0,1-1.17-.53,3.51,3.51,0,0,1-.84-.61,2.25,2.25,0,0,1-.51-.77,2.72,2.72,0,0,1-.17-1,2.39,2.39,0,0,1,.32-1.25,2.86,2.86,0,0,1,.86-.91,4,4,0,0,1,1.23-.55,5.42,5.42,0,0,1,1.42-.19,5.73,5.73,0,0,1,2.32.45v1.62a4.53,4.53,0,0,0-2.54-.72,3,3,0,0,0-.81.1,2,2,0,0,0-.62.29,1.33,1.33,0,0,0-.4.44,1.17,1.17,0,0,0-.14.57,1.37,1.37,0,0,0,.14.65,1.44,1.44,0,0,0,.42.47,3.16,3.16,0,0,0,.66.37l.89.36a12.35,12.35,0,0,1,1.19.52,4.08,4.08,0,0,1,.9.61,2.36,2.36,0,0,1,.57.78,2.51,2.51,0,0,1,.2,1,2.46,2.46,0,0,1-.33,1.29,2.81,2.81,0,0,1-.87.91,4,4,0,0,1-1.26.54,6.22,6.22,0,0,1-1.49.18A5.67,5.67,0,0,1,297.14,170.63Z"/><path class="cls-3" d="M311.62,171.23a4.64,4.64,0,0,1-3.54-1.4,5.19,5.19,0,0,1-1.32-3.72,5.41,5.41,0,0,1,1.38-3.94,5,5,0,0,1,3.72-1.42,4.49,4.49,0,0,1,3.49,1.38A5.46,5.46,0,0,1,316.6,166a5.37,5.37,0,0,1-1.35,3.83A4.74,4.74,0,0,1,311.62,171.23Zm.12-9.12a3,3,0,0,0-2.44,1,4.31,4.31,0,0,0-.9,2.9,4.08,4.08,0,0,0,.91,2.8,3.09,3.09,0,0,0,2.43,1,2.93,2.93,0,0,0,2.39-1A4.36,4.36,0,0,0,315,166a4.44,4.44,0,0,0-.83-2.89A2.92,2.92,0,0,0,311.73,162.11Z"/><path class="cls-3" d="M322,171h-1.6v-14.8H322Z"/><path class="cls-3" d="M334.48,171h-1.6v-1.58h0a3.29,3.29,0,0,1-3.09,1.82q-3.57,0-3.57-4.26v-6h1.59v5.72q0,3.16,2.42,3.16a2.45,2.45,0,0,0,1.93-.86,3.31,3.31,0,0,0,.76-2.26V161h1.6Z"/><path class="cls-3" d="M343.56,170.9a3.09,3.09,0,0,1-1.49.31q-2.63,0-2.63-2.93v-5.92h-1.72V161h1.72v-2.44L341,158v3h2.52v1.37H341V168a2.33,2.33,0,0,0,.34,1.44,1.37,1.37,0,0,0,1.13.43,1.68,1.68,0,0,0,1-.33Z"/><path class="cls-3" d="M347.71,158.45a1,1,0,0,1-.73-.29,1,1,0,0,1-.3-.74,1,1,0,0,1,1-1,1,1,0,0,1,.75.3,1,1,0,0,1,0,1.48A1,1,0,0,1,347.71,158.45ZM348.5,171h-1.6V161h1.6Z"/><path class="cls-3" d="M357.12,171.23a4.64,4.64,0,0,1-3.54-1.4,5.19,5.19,0,0,1-1.32-3.72,5.41,5.41,0,0,1,1.38-3.94,5,5,0,0,1,3.72-1.42,4.49,4.49,0,0,1,3.49,1.38A5.46,5.46,0,0,1,362.1,166a5.37,5.37,0,0,1-1.35,3.83A4.74,4.74,0,0,1,357.12,171.23Zm.12-9.12a3,3,0,0,0-2.44,1,4.31,4.31,0,0,0-.9,2.9,4.08,4.08,0,0,0,.91,2.8,3.09,3.09,0,0,0,2.43,1,2.93,2.93,0,0,0,2.39-1,4.36,4.36,0,0,0,.83-2.86,4.44,4.44,0,0,0-.83-2.89A2.92,2.92,0,0,0,357.23,162.11Z"/><path class="cls-3" d="M374.16,171h-1.6v-5.7q0-3.18-2.32-3.18a2.52,2.52,0,0,0-2,.9,3.35,3.35,0,0,0-.79,2.28V171h-1.6V161h1.6v1.66h0a3.61,3.61,0,0,1,3.28-1.89,3.06,3.06,0,0,1,2.51,1.06,4.72,4.72,0,0,1,.87,3.06Z"/><path class="cls-3" d="M385.87,158.45a1,1,0,0,1-.73-.29,1,1,0,0,1-.3-.74,1,1,0,0,1,1-1,1,1,0,0,1,.75.3,1,1,0,0,1,0,1.48A1,1,0,0,1,385.87,158.45Zm.78,12.54h-1.6V161h1.6Z"/><path class="cls-3" d="M390.49,170.63v-1.72a4.74,4.74,0,0,0,2.88,1q2.11,0,2.11-1.41a1.22,1.22,0,0,0-.18-.68,1.81,1.81,0,0,0-.49-.49,3.75,3.75,0,0,0-.72-.39l-.89-.36A11.58,11.58,0,0,1,392,166a3.51,3.51,0,0,1-.84-.61,2.25,2.25,0,0,1-.51-.77,2.72,2.72,0,0,1-.17-1,2.39,2.39,0,0,1,.32-1.25,2.86,2.86,0,0,1,.86-.91,4,4,0,0,1,1.23-.55,5.42,5.42,0,0,1,1.42-.19,5.73,5.73,0,0,1,2.32.45v1.62a4.53,4.53,0,0,0-2.54-.72,3,3,0,0,0-.81.1,2,2,0,0,0-.62.29,1.33,1.33,0,0,0-.4.44,1.17,1.17,0,0,0-.14.57,1.37,1.37,0,0,0,.14.65,1.44,1.44,0,0,0,.42.47,3.16,3.16,0,0,0,.66.37l.89.36a12.35,12.35,0,0,1,1.19.52,4.08,4.08,0,0,1,.9.61,2.36,2.36,0,0,1,.57.78,2.51,2.51,0,0,1,.2,1,2.46,2.46,0,0,1-.33,1.29,2.81,2.81,0,0,1-.87.91,4,4,0,0,1-1.26.54,6.22,6.22,0,0,1-1.49.18A5.67,5.67,0,0,1,390.49,170.63Z"/><path class="cls-3" d="M414.62,171H413v-1.56h0a3.35,3.35,0,0,1-3.08,1.8,3.29,3.29,0,0,1-2.34-.79,2.74,2.74,0,0,1-.84-2.1q0-2.8,3.3-3.26l3-.42q0-2.55-2.06-2.55a4.92,4.92,0,0,0-3.26,1.23V161.7a6.2,6.2,0,0,1,3.4-.94q3.53,0,3.53,3.73Zm-1.6-5.06-2.41.33a3.92,3.92,0,0,0-1.68.55,1.59,1.59,0,0,0-.57,1.4,1.53,1.53,0,0,0,.52,1.2,2,2,0,0,0,1.39.46,2.57,2.57,0,0,0,2-.83,3,3,0,0,0,.78-2.11Z"/><path class="cls-3" d="M439.72,171h-1.6v-5.74a4.33,4.33,0,0,0-.51-2.4,1.94,1.94,0,0,0-1.72-.74,2.13,2.13,0,0,0-1.74.94,3.59,3.59,0,0,0-.72,2.25V171h-1.6v-5.94q0-2.95-2.28-2.95a2.11,2.11,0,0,0-1.74.88,3.65,3.65,0,0,0-.68,2.3V171h-1.6V161h1.6v1.58h0a3.4,3.4,0,0,1,3.11-1.82,2.89,2.89,0,0,1,2.83,2.07,3.57,3.57,0,0,1,3.32-2.07q3.3,0,3.3,4.07Z"/><path class="cls-3" d="M448.12,171.23a4.64,4.64,0,0,1-3.54-1.4,5.19,5.19,0,0,1-1.32-3.72,5.41,5.41,0,0,1,1.38-3.94,5,5,0,0,1,3.72-1.42,4.49,4.49,0,0,1,3.49,1.38A5.46,5.46,0,0,1,453.1,166a5.37,5.37,0,0,1-1.35,3.83A4.74,4.74,0,0,1,448.12,171.23Zm.12-9.12a3,3,0,0,0-2.44,1,4.31,4.31,0,0,0-.9,2.9,4.08,4.08,0,0,0,.91,2.8,3.09,3.09,0,0,0,2.43,1,2.93,2.93,0,0,0,2.39-1,4.36,4.36,0,0,0,.83-2.86,4.44,4.44,0,0,0-.83-2.89A2.92,2.92,0,0,0,448.24,162.11Z"/><path class="cls-3" d="M458.5,169.55h0V171h-1.6v-14.8h1.6v6.56h0a3.79,3.79,0,0,1,3.46-2,3.66,3.66,0,0,1,3,1.34,5.54,5.54,0,0,1,1.09,3.6,6.2,6.2,0,0,1-1.22,4,4.06,4.06,0,0,1-3.34,1.51A3.29,3.29,0,0,1,458.5,169.55Zm0-4v1.4a3,3,0,0,0,.81,2.1,2.87,2.87,0,0,0,4.33-.25,5.11,5.11,0,0,0,.83-3.1,4,4,0,0,0-.77-2.62,2.55,2.55,0,0,0-2.09-.95,2.84,2.84,0,0,0-2.25,1A3.57,3.57,0,0,0,458.46,165.52Z"/><path class="cls-3" d="M470.64,158.45a1,1,0,0,1-.73-.29,1,1,0,0,1-.3-.74,1,1,0,0,1,1-1,1,1,0,0,1,.75.3,1,1,0,0,1,0,1.48A1,1,0,0,1,470.64,158.45Zm.78,12.54h-1.6V161h1.6Z"/><path class="cls-3" d="M477.46,171h-1.6v-14.8h1.6Z"/><path class="cls-3" d="M489.94,166.39h-7.06a3.74,3.74,0,0,0,.9,2.58,3.1,3.1,0,0,0,2.36.91,4.91,4.91,0,0,0,3.11-1.11v1.5a5.81,5.81,0,0,1-3.49,1,4.23,4.23,0,0,1-3.33-1.36,5.58,5.58,0,0,1-1.21-3.83,5.47,5.47,0,0,1,1.32-3.8,4.24,4.24,0,0,1,3.29-1.47,3.76,3.76,0,0,1,3,1.27,5.29,5.29,0,0,1,1.07,3.53ZM488.3,165a3.26,3.26,0,0,0-.67-2.16,2.28,2.28,0,0,0-1.83-.77,2.59,2.59,0,0,0-1.92.81,3.68,3.68,0,0,0-1,2.12Z"/><path class="cls-3" d="M507.4,171h-1.6v-1.56h0a3.35,3.35,0,0,1-3.08,1.8,3.29,3.29,0,0,1-2.34-.79,2.74,2.74,0,0,1-.84-2.1q0-2.8,3.3-3.26l3-.42q0-2.55-2.06-2.55a4.92,4.92,0,0,0-3.26,1.23V161.7a6.2,6.2,0,0,1,3.4-.94q3.53,0,3.53,3.73Zm-1.6-5.06-2.41.33a3.92,3.92,0,0,0-1.68.55,1.59,1.59,0,0,0-.57,1.4,1.53,1.53,0,0,0,.52,1.2,2,2,0,0,0,1.39.46,2.57,2.57,0,0,0,2-.83,3,3,0,0,0,.78-2.11Z"/><path class="cls-3" d="M513.26,169.55h0v6h-1.6V161h1.6v1.76h0a3.79,3.79,0,0,1,3.46-2,3.66,3.66,0,0,1,3,1.34,5.56,5.56,0,0,1,1.08,3.6,6.2,6.2,0,0,1-1.22,4,4.06,4.06,0,0,1-3.34,1.51A3.35,3.35,0,0,1,513.26,169.55Zm0-4v1.4A3,3,0,0,0,514,169a2.87,2.87,0,0,0,4.33-.25,5.11,5.11,0,0,0,.83-3.1,4,4,0,0,0-.77-2.62,2.55,2.55,0,0,0-2.09-.95,2.84,2.84,0,0,0-2.25,1A3.57,3.57,0,0,0,513.22,165.52Z"/><path class="cls-3" d="M526.22,169.55h0v6h-1.6V161h1.6v1.76h0a3.79,3.79,0,0,1,3.46-2,3.66,3.66,0,0,1,3,1.34,5.56,5.56,0,0,1,1.08,3.6,6.2,6.2,0,0,1-1.22,4,4.06,4.06,0,0,1-3.34,1.51A3.35,3.35,0,0,1,526.22,169.55Zm0-4v1.4A3,3,0,0,0,527,169a2.87,2.87,0,0,0,4.33-.25,5.11,5.11,0,0,0,.83-3.1,4,4,0,0,0-.77-2.62,2.55,2.55,0,0,0-2.09-.95,2.84,2.84,0,0,0-2.25,1A3.57,3.57,0,0,0,526.18,165.52Z"/><path class="cls-3" d="M539.14,171h-1.6v-14.8h1.6Z"/><path class="cls-3" d="M544.4,158.45a1,1,0,0,1-.73-.29,1,1,0,0,1-.3-.74,1,1,0,0,1,1-1,1,1,0,0,1,.75.3,1,1,0,0,1,0,1.48A1,1,0,0,1,544.4,158.45Zm.78,12.54h-1.6V161h1.6Z"/><path class="cls-3" d="M556.44,170.53a5.21,5.21,0,0,1-2.73.69,4.53,4.53,0,0,1-3.45-1.39,5,5,0,0,1-1.31-3.61,5.54,5.54,0,0,1,1.42-4,5,5,0,0,1,3.78-1.5,5.26,5.26,0,0,1,2.32.49v1.64a4.07,4.07,0,0,0-2.38-.78,3.22,3.22,0,0,0-2.51,1.1,4.17,4.17,0,0,0-1,2.89,4,4,0,0,0,.92,2.77,3.18,3.18,0,0,0,2.48,1,4,4,0,0,0,2.46-.87Z"/><path class="cls-3" d="M567.22,171h-1.6v-1.56h0a3.35,3.35,0,0,1-3.08,1.8,3.29,3.29,0,0,1-2.34-.79,2.74,2.74,0,0,1-.84-2.1q0-2.8,3.3-3.26l3-.42q0-2.55-2.06-2.55a4.92,4.92,0,0,0-3.26,1.23V161.7a6.2,6.2,0,0,1,3.4-.94q3.53,0,3.53,3.73Zm-1.6-5.06-2.41.33a3.92,3.92,0,0,0-1.68.55,1.59,1.59,0,0,0-.57,1.4,1.53,1.53,0,0,0,.52,1.2,2,2,0,0,0,1.39.46,2.57,2.57,0,0,0,2-.83,3,3,0,0,0,.78-2.11Z"/><path class="cls-3" d="M576.08,170.9a3.09,3.09,0,0,1-1.49.31q-2.63,0-2.63-2.93v-5.92h-1.72V161H572v-2.44l1.6-.52v3h2.52v1.37h-2.52V168a2.33,2.33,0,0,0,.34,1.44,1.37,1.37,0,0,0,1.13.43,1.68,1.68,0,0,0,1-.33Z"/><path class="cls-3" d="M580.24,158.45a1,1,0,0,1-.73-.29,1,1,0,0,1-.3-.74,1,1,0,0,1,1-1,1,1,0,0,1,.75.3,1,1,0,0,1,0,1.48A1,1,0,0,1,580.24,158.45ZM581,171h-1.6V161H581Z"/><path class="cls-3" d="M589.64,171.23a4.64,4.64,0,0,1-3.54-1.4,5.19,5.19,0,0,1-1.32-3.72,5.41,5.41,0,0,1,1.38-3.94,5,5,0,0,1,3.72-1.42,4.49,4.49,0,0,1,3.49,1.38,5.46,5.46,0,0,1,1.25,3.82,5.37,5.37,0,0,1-1.35,3.83A4.74,4.74,0,0,1,589.64,171.23Zm.12-9.12a3,3,0,0,0-2.44,1,4.31,4.31,0,0,0-.9,2.9,4.08,4.08,0,0,0,.91,2.8,3.09,3.09,0,0,0,2.43,1,2.93,2.93,0,0,0,2.39-1A4.36,4.36,0,0,0,593,166a4.44,4.44,0,0,0-.83-2.89A2.92,2.92,0,0,0,589.76,162.11Z"/><path class="cls-3" d="M606.68,171h-1.6v-5.7q0-3.18-2.32-3.18a2.52,2.52,0,0,0-2,.9,3.35,3.35,0,0,0-.79,2.28V171h-1.6V161H600v1.66h0a3.61,3.61,0,0,1,3.28-1.89,3.06,3.06,0,0,1,2.51,1.06,4.72,4.72,0,0,1,.87,3.06Z"/><path class="cls-3" d="M261.28,195h-1.6v-1.56h0a3.35,3.35,0,0,1-3.08,1.8,3.29,3.29,0,0,1-2.34-.79,2.74,2.74,0,0,1-.84-2.1q0-2.8,3.3-3.26l3-.42q0-2.55-2.06-2.55a4.92,4.92,0,0,0-3.26,1.23V185.7a6.2,6.2,0,0,1,3.4-.94q3.53,0,3.53,3.73Zm-1.6-5.06-2.41.33a3.92,3.92,0,0,0-1.68.55,1.59,1.59,0,0,0-.57,1.4,1.53,1.53,0,0,0,.52,1.2,2,2,0,0,0,1.39.46,2.57,2.57,0,0,0,2-.83,3,3,0,0,0,.78-2.11Z"/><path class="cls-3" d="M273.8,195h-1.6v-5.7q0-3.18-2.32-3.18a2.52,2.52,0,0,0-2,.9,3.35,3.35,0,0,0-.79,2.28V195h-1.6V185h1.6v1.66h0a3.61,3.61,0,0,1,3.28-1.89,3.06,3.06,0,0,1,2.51,1.06,4.72,4.72,0,0,1,.87,3.06Z"/><path class="cls-3" d="M286.55,195h-1.6v-1.7h0a4,4,0,0,1-6.45.59,5.51,5.51,0,0,1-1.13-3.66,6,6,0,0,1,1.25-4,4.12,4.12,0,0,1,3.33-1.49,3.21,3.21,0,0,1,3,1.62h0v-6.19h1.6Zm-1.6-4.52V189a2.86,2.86,0,0,0-.8-2.05,2.69,2.69,0,0,0-2-.84,2.77,2.77,0,0,0-2.3,1.07,4.71,4.71,0,0,0-.84,3,4.23,4.23,0,0,0,.81,2.73,2.63,2.63,0,0,0,2.16,1,2.74,2.74,0,0,0,2.17-1A3.6,3.6,0,0,0,284.95,190.47Z"/><path class="cls-3" d="M304.49,194.53a5.21,5.21,0,0,1-2.73.69,4.53,4.53,0,0,1-3.45-1.39,5,5,0,0,1-1.31-3.61,5.54,5.54,0,0,1,1.42-4,5,5,0,0,1,3.78-1.5,5.26,5.26,0,0,1,2.32.49v1.64a4.07,4.07,0,0,0-2.38-.78,3.22,3.22,0,0,0-2.51,1.1,4.17,4.17,0,0,0-1,2.89,4,4,0,0,0,.92,2.77,3.18,3.18,0,0,0,2.48,1,4,4,0,0,0,2.46-.87Z"/><path class="cls-3" d="M316.15,190.39h-7.06A3.74,3.74,0,0,0,310,193a3.1,3.1,0,0,0,2.36.91,4.91,4.91,0,0,0,3.11-1.11v1.5a5.81,5.81,0,0,1-3.49,1,4.23,4.23,0,0,1-3.33-1.36,5.58,5.58,0,0,1-1.21-3.83,5.47,5.47,0,0,1,1.32-3.8,4.24,4.24,0,0,1,3.29-1.47,3.76,3.76,0,0,1,3,1.27,5.29,5.29,0,0,1,1.07,3.53ZM314.51,189a3.26,3.26,0,0,0-.67-2.16,2.28,2.28,0,0,0-1.83-.77,2.59,2.59,0,0,0-1.92.81,3.68,3.68,0,0,0-1,2.12Z"/><path class="cls-3" d="M328.07,195h-1.6v-5.7q0-3.18-2.32-3.18a2.52,2.52,0,0,0-2,.9,3.35,3.35,0,0,0-.79,2.28V195h-1.6V185h1.6v1.66h0a3.61,3.61,0,0,1,3.28-1.89,3.06,3.06,0,0,1,2.51,1.06,4.72,4.72,0,0,1,.87,3.06Z"/><path class="cls-3" d="M336.93,194.9a3.09,3.09,0,0,1-1.49.31q-2.63,0-2.63-2.93v-5.92h-1.72V185h1.72v-2.44l1.6-.52v3h2.52v1.37h-2.52V192a2.33,2.33,0,0,0,.34,1.44,1.37,1.37,0,0,0,1.13.43,1.68,1.68,0,0,0,1-.33Z"/><path class="cls-3" d="M345.48,186.61a2,2,0,0,0-1.21-.32,2,2,0,0,0-1.71,1,4.47,4.47,0,0,0-.69,2.64V195h-1.6V185h1.6v2.06h0a3.49,3.49,0,0,1,1-1.65,2.38,2.38,0,0,1,1.57-.59,2.62,2.62,0,0,1,1,.14Z"/><path class="cls-3" d="M355.58,195H354v-1.56h0a3.35,3.35,0,0,1-3.08,1.8,3.29,3.29,0,0,1-2.34-.79,2.74,2.74,0,0,1-.84-2.1q0-2.8,3.3-3.26l3-.42q0-2.55-2.06-2.55a4.92,4.92,0,0,0-3.26,1.23V185.7a6.2,6.2,0,0,1,3.4-.94q3.53,0,3.53,3.73Zm-1.6-5.06-2.41.33a3.92,3.92,0,0,0-1.68.55,1.59,1.59,0,0,0-.57,1.4,1.53,1.53,0,0,0,.52,1.2,2,2,0,0,0,1.39.46,2.57,2.57,0,0,0,2-.83,3,3,0,0,0,.78-2.11Z"/><path class="cls-3" d="M361.4,195h-1.6v-14.8h1.6Z"/><path class="cls-3" d="M381.05,195h-1.6v-1.7h0a4,4,0,0,1-6.45.59,5.51,5.51,0,0,1-1.13-3.66,6,6,0,0,1,1.25-4,4.12,4.12,0,0,1,3.33-1.49,3.21,3.21,0,0,1,3,1.62h0v-6.19h1.6Zm-1.6-4.52V189a2.86,2.86,0,0,0-.8-2.05,2.69,2.69,0,0,0-2-.84,2.77,2.77,0,0,0-2.3,1.07,4.71,4.71,0,0,0-.84,3,4.23,4.23,0,0,0,.81,2.73,2.63,2.63,0,0,0,2.16,1,2.74,2.74,0,0,0,2.17-1A3.6,3.6,0,0,0,379.45,190.47Z"/><path class="cls-3" d="M392.65,195H391v-1.56h0a3.35,3.35,0,0,1-3.08,1.8,3.29,3.29,0,0,1-2.34-.79,2.74,2.74,0,0,1-.84-2.1q0-2.8,3.3-3.26l3-.42q0-2.55-2.06-2.55a4.92,4.92,0,0,0-3.26,1.23V185.7a6.2,6.2,0,0,1,3.4-.94q3.53,0,3.53,3.73Zm-1.6-5.06-2.41.33a3.92,3.92,0,0,0-1.68.55,1.59,1.59,0,0,0-.57,1.4,1.53,1.53,0,0,0,.52,1.2,2,2,0,0,0,1.39.46,2.57,2.57,0,0,0,2-.83,3,3,0,0,0,.78-2.11Z"/><path class="cls-3" d="M401.51,194.9a3.09,3.09,0,0,1-1.49.31q-2.63,0-2.63-2.93v-5.92h-1.72V185h1.72v-2.44L399,182v3h2.52v1.37H399V192a2.33,2.33,0,0,0,.34,1.44,1.37,1.37,0,0,0,1.13.43,1.68,1.68,0,0,0,1-.33Z"/><path class="cls-3" d="M412,195h-1.6v-1.56h0a3.35,3.35,0,0,1-3.08,1.8,3.29,3.29,0,0,1-2.34-.79,2.74,2.74,0,0,1-.84-2.1q0-2.8,3.3-3.26l3-.42q0-2.55-2.06-2.55a4.92,4.92,0,0,0-3.26,1.23V185.7a6.2,6.2,0,0,1,3.4-.94q3.53,0,3.53,3.73Zm-1.6-5.06-2.41.33a3.92,3.92,0,0,0-1.68.55,1.59,1.59,0,0,0-.57,1.4,1.53,1.53,0,0,0,.52,1.2,2,2,0,0,0,1.39.46,2.57,2.57,0,0,0,2-.83,3,3,0,0,0,.78-2.11Z"/><path class="cls-3" d="M417.86,193.55h0V195h-1.6v-14.8h1.6v6.56h0a3.79,3.79,0,0,1,3.46-2,3.66,3.66,0,0,1,3,1.34,5.54,5.54,0,0,1,1.09,3.6,6.2,6.2,0,0,1-1.22,4,4.06,4.06,0,0,1-3.34,1.51A3.29,3.29,0,0,1,417.86,193.55Zm0-4v1.4a3,3,0,0,0,.81,2.1,2.87,2.87,0,0,0,4.33-.25,5.11,5.11,0,0,0,.83-3.1,4,4,0,0,0-.77-2.62,2.55,2.55,0,0,0-2.09-.95,2.84,2.84,0,0,0-2.25,1A3.57,3.57,0,0,0,417.82,189.52Z"/><path class="cls-3" d="M436.34,195h-1.6v-1.56h0a3.35,3.35,0,0,1-3.08,1.8,3.29,3.29,0,0,1-2.34-.79,2.74,2.74,0,0,1-.84-2.1q0-2.8,3.3-3.26l3-.42q0-2.55-2.06-2.55a4.92,4.92,0,0,0-3.26,1.23V185.7a6.2,6.2,0,0,1,3.4-.94q3.53,0,3.53,3.73Zm-1.6-5.06-2.41.33a3.92,3.92,0,0,0-1.68.55,1.59,1.59,0,0,0-.57,1.4,1.53,1.53,0,0,0,.52,1.2,2,2,0,0,0,1.39.46,2.57,2.57,0,0,0,2-.83,3,3,0,0,0,.78-2.11Z"/><path class="cls-3" d="M440,194.63v-1.72a4.74,4.74,0,0,0,2.88,1q2.11,0,2.11-1.41a1.22,1.22,0,0,0-.18-.68,1.81,1.81,0,0,0-.49-.49,3.75,3.75,0,0,0-.72-.39l-.89-.36a11.58,11.58,0,0,1-1.17-.53,3.51,3.51,0,0,1-.84-.61,2.25,2.25,0,0,1-.51-.77,2.72,2.72,0,0,1-.17-1,2.39,2.39,0,0,1,.32-1.25,2.86,2.86,0,0,1,.86-.91,4,4,0,0,1,1.23-.55,5.42,5.42,0,0,1,1.42-.19,5.73,5.73,0,0,1,2.32.45v1.62a4.53,4.53,0,0,0-2.54-.72,3,3,0,0,0-.81.1,2,2,0,0,0-.62.29,1.33,1.33,0,0,0-.4.44,1.17,1.17,0,0,0-.14.57,1.37,1.37,0,0,0,.14.65,1.44,1.44,0,0,0,.42.47,3.16,3.16,0,0,0,.66.37l.89.36a12.35,12.35,0,0,1,1.19.52,4.08,4.08,0,0,1,.9.61,2.36,2.36,0,0,1,.57.78,2.51,2.51,0,0,1,.2,1,2.46,2.46,0,0,1-.33,1.29,2.81,2.81,0,0,1-.87.91,4,4,0,0,1-1.26.54,6.22,6.22,0,0,1-1.49.18A5.67,5.67,0,0,1,440,194.63Z"/><path class="cls-3" d="M458.28,190.39h-7.06a3.74,3.74,0,0,0,.9,2.58,3.1,3.1,0,0,0,2.36.91,4.91,4.91,0,0,0,3.11-1.11v1.5a5.81,5.81,0,0,1-3.49,1,4.23,4.23,0,0,1-3.33-1.36,5.58,5.58,0,0,1-1.21-3.83,5.47,5.47,0,0,1,1.32-3.8,4.24,4.24,0,0,1,3.29-1.47,3.76,3.76,0,0,1,3,1.27,5.29,5.29,0,0,1,1.07,3.53ZM456.64,189a3.26,3.26,0,0,0-.67-2.16,2.28,2.28,0,0,0-1.83-.77,2.59,2.59,0,0,0-1.92.81,3.68,3.68,0,0,0-1,2.12Z"/><path class="cls-3" d="M468,194.63v-1.72a4.74,4.74,0,0,0,2.88,1q2.11,0,2.11-1.41a1.22,1.22,0,0,0-.18-.68,1.81,1.81,0,0,0-.49-.49,3.75,3.75,0,0,0-.72-.39l-.89-.36a11.58,11.58,0,0,1-1.17-.53,3.51,3.51,0,0,1-.84-.61,2.25,2.25,0,0,1-.51-.77,2.72,2.72,0,0,1-.17-1,2.39,2.39,0,0,1,.32-1.25,2.86,2.86,0,0,1,.86-.91,4,4,0,0,1,1.23-.55,5.42,5.42,0,0,1,1.42-.19,5.73,5.73,0,0,1,2.32.45v1.62a4.53,4.53,0,0,0-2.54-.72,3,3,0,0,0-.81.1,2,2,0,0,0-.62.29,1.33,1.33,0,0,0-.4.44,1.17,1.17,0,0,0-.14.57,1.37,1.37,0,0,0,.14.65,1.44,1.44,0,0,0,.42.47,3.16,3.16,0,0,0,.66.37l.89.36a12.35,12.35,0,0,1,1.19.52,4.08,4.08,0,0,1,.9.61,2.36,2.36,0,0,1,.57.78,2.51,2.51,0,0,1,.2,1,2.46,2.46,0,0,1-.33,1.29,2.81,2.81,0,0,1-.87.91,4,4,0,0,1-1.26.54,6.22,6.22,0,0,1-1.49.18A5.67,5.67,0,0,1,468,194.63Z"/><path class="cls-3" d="M486.22,185l-4.6,11.6q-1.23,3.11-3.46,3.11a3.65,3.65,0,0,1-1-.13v-1.44a3,3,0,0,0,.95.18,2,2,0,0,0,1.82-1.45l.8-1.89-3.91-10h1.78l2.71,7.7q0,.15.21.76h.06q0-.23.2-.74l2.84-7.71Z"/><path class="cls-3" d="M488.54,194.63v-1.72a4.74,4.74,0,0,0,2.88,1q2.11,0,2.11-1.41a1.22,1.22,0,0,0-.18-.68,1.81,1.81,0,0,0-.49-.49,3.75,3.75,0,0,0-.72-.39l-.89-.36a11.58,11.58,0,0,1-1.17-.53,3.51,3.51,0,0,1-.84-.61,2.25,2.25,0,0,1-.51-.77,2.72,2.72,0,0,1-.17-1,2.39,2.39,0,0,1,.32-1.25,2.86,2.86,0,0,1,.86-.91,4,4,0,0,1,1.23-.55,5.42,5.42,0,0,1,1.42-.19,5.73,5.73,0,0,1,2.32.45v1.62a4.53,4.53,0,0,0-2.54-.72,3,3,0,0,0-.81.1,2,2,0,0,0-.62.29,1.33,1.33,0,0,0-.4.44,1.17,1.17,0,0,0-.14.57,1.37,1.37,0,0,0,.14.65,1.44,1.44,0,0,0,.42.47,3.16,3.16,0,0,0,.66.37l.89.36a12.35,12.35,0,0,1,1.19.52,4.08,4.08,0,0,1,.9.61,2.36,2.36,0,0,1,.57.78,2.51,2.51,0,0,1,.2,1,2.46,2.46,0,0,1-.33,1.29,2.81,2.81,0,0,1-.87.91,4,4,0,0,1-1.26.54,6.22,6.22,0,0,1-1.49.18A5.67,5.67,0,0,1,488.54,194.63Z"/><path class="cls-3" d="M503.47,194.9a3.09,3.09,0,0,1-1.49.31q-2.63,0-2.63-2.93v-5.92h-1.72V185h1.72v-2.44l1.6-.52v3h2.52v1.37h-2.52V192a2.33,2.33,0,0,0,.34,1.44,1.37,1.37,0,0,0,1.13.43,1.68,1.68,0,0,0,1-.33Z"/><path class="cls-3" d="M514.84,190.39h-7.06a3.74,3.74,0,0,0,.9,2.58,3.1,3.1,0,0,0,2.36.91,4.91,4.91,0,0,0,3.11-1.11v1.5a5.81,5.81,0,0,1-3.49,1,4.23,4.23,0,0,1-3.33-1.36,5.58,5.58,0,0,1-1.21-3.83,5.47,5.47,0,0,1,1.32-3.8,4.24,4.24,0,0,1,3.29-1.47,3.76,3.76,0,0,1,3,1.27,5.29,5.29,0,0,1,1.07,3.53ZM513.2,189a3.26,3.26,0,0,0-.67-2.16,2.28,2.28,0,0,0-1.83-.77,2.59,2.59,0,0,0-1.92.81,3.68,3.68,0,0,0-1,2.12Z"/><path class="cls-3" d="M532.67,195h-1.6v-5.74a4.33,4.33,0,0,0-.51-2.4,1.94,1.94,0,0,0-1.72-.74,2.13,2.13,0,0,0-1.74.94,3.59,3.59,0,0,0-.72,2.25V195h-1.6v-5.94q0-2.95-2.28-2.95a2.11,2.11,0,0,0-1.74.88,3.65,3.65,0,0,0-.68,2.3V195h-1.6V185h1.6v1.58h0a3.4,3.4,0,0,1,3.11-1.82,2.89,2.89,0,0,1,2.83,2.07,3.57,3.57,0,0,1,3.32-2.07q3.3,0,3.3,4.07Z"/><path class="cls-3" d="M556.17,185l-3,10h-1.66l-2.06-7.16a4.66,4.66,0,0,1-.16-.93h0a4.38,4.38,0,0,1-.21.91L546.81,195h-1.6l-3-10h1.68l2.07,7.52a4.53,4.53,0,0,1,.14.9h.08a4.2,4.2,0,0,1,.18-.92l2.3-7.5h1.46l2.07,7.54a5.42,5.42,0,0,1,.15.9h.08a4.16,4.16,0,0,1,.17-.9l2-7.54Z"/><path class="cls-3" d="M567.52,195h-1.6v-5.76q0-3.12-2.32-3.12a2.53,2.53,0,0,0-2,.9,3.37,3.37,0,0,0-.8,2.32V195h-1.6v-14.8h1.6v6.46h0a3.64,3.64,0,0,1,3.28-1.89q3.38,0,3.38,4.07Z"/><path class="cls-3" d="M572.56,182.45a1,1,0,0,1-.73-.29,1,1,0,0,1-.3-.74,1,1,0,0,1,1-1,1,1,0,0,1,.75.3,1,1,0,0,1,0,1.48A1,1,0,0,1,572.56,182.45Zm.78,12.54h-1.6V185h1.6Z"/><path class="cls-3" d="M584.6,194.53a5.21,5.21,0,0,1-2.73.69,4.53,4.53,0,0,1-3.45-1.39,5,5,0,0,1-1.31-3.61,5.54,5.54,0,0,1,1.42-4,5,5,0,0,1,3.78-1.5,5.26,5.26,0,0,1,2.32.49v1.64a4.07,4.07,0,0,0-2.38-.78,3.22,3.22,0,0,0-2.51,1.1,4.17,4.17,0,0,0-1,2.89,4,4,0,0,0,.92,2.77,3.18,3.18,0,0,0,2.48,1,4,4,0,0,0,2.46-.87Z"/><path class="cls-3" d="M596.53,195h-1.6v-5.76q0-3.12-2.32-3.12a2.53,2.53,0,0,0-2,.9,3.37,3.37,0,0,0-.8,2.32V195h-1.6v-14.8h1.6v6.46h0a3.64,3.64,0,0,1,3.28-1.89q3.38,0,3.38,4.07Z"/><path class="cls-3" d="M266.72,209l-3,10h-1.66L260,211.83a4.66,4.66,0,0,1-.16-.93h0a4.38,4.38,0,0,1-.21.91L257.36,219h-1.6l-3-10h1.68l2.07,7.52a4.53,4.53,0,0,1,.14.9h.08a4.2,4.2,0,0,1,.18-.92l2.3-7.5h1.46l2.07,7.54a5.42,5.42,0,0,1,.15.9h.08a4.16,4.16,0,0,1,.17-.9l2-7.54Z"/><path class="cls-3" d="M270.6,206.45a1,1,0,0,1-.73-.29,1,1,0,0,1-.3-.74,1,1,0,0,1,1-1,1,1,0,0,1,.75.3,1,1,0,0,1,0,1.48A1,1,0,0,1,270.6,206.45Zm.78,12.54h-1.6V209h1.6Z"/><path class="cls-3" d="M277.42,219h-1.6v-14.8h1.6Z"/><path class="cls-3" d="M283.46,219h-1.6v-14.8h1.6Z"/><path class="cls-3" d="M299.8,210.61a2,2,0,0,0-1.21-.32,2,2,0,0,0-1.71,1,4.47,4.47,0,0,0-.69,2.64V219h-1.6V209h1.6v2.06h0a3.49,3.49,0,0,1,1-1.65,2.38,2.38,0,0,1,1.57-.59,2.62,2.62,0,0,1,1,.14Z"/><path class="cls-3" d="M310.77,214.39h-7.06a3.74,3.74,0,0,0,.9,2.58,3.1,3.1,0,0,0,2.36.91,4.91,4.91,0,0,0,3.11-1.11v1.5a5.81,5.81,0,0,1-3.49,1,4.23,4.23,0,0,1-3.33-1.36,5.58,5.58,0,0,1-1.21-3.83,5.47,5.47,0,0,1,1.32-3.8,4.24,4.24,0,0,1,3.29-1.47,3.76,3.76,0,0,1,3,1.27,5.29,5.29,0,0,1,1.07,3.52ZM309.13,213a3.26,3.26,0,0,0-.67-2.16,2.28,2.28,0,0,0-1.83-.77,2.59,2.59,0,0,0-1.92.81,3.67,3.67,0,0,0-1,2.12Z"/><path class="cls-3" d="M316,217.55h0v6h-1.6V209H316v1.76h0a3.79,3.79,0,0,1,3.46-2,3.66,3.66,0,0,1,3,1.34,5.56,5.56,0,0,1,1.08,3.6,6.2,6.2,0,0,1-1.22,4,4.06,4.06,0,0,1-3.34,1.51A3.35,3.35,0,0,1,316,217.55Zm0-4v1.4a3,3,0,0,0,.81,2.1,2.87,2.87,0,0,0,4.33-.25,5.11,5.11,0,0,0,.83-3.1,4,4,0,0,0-.77-2.62,2.55,2.55,0,0,0-2.09-.95,2.84,2.84,0,0,0-2.25,1A3.57,3.57,0,0,0,316,213.51Z"/><path class="cls-3" d="M329,219h-1.6v-14.8H329Z"/><path class="cls-3" d="M340.56,219H339v-1.56h0a3.35,3.35,0,0,1-3.08,1.8,3.29,3.29,0,0,1-2.34-.79,2.74,2.74,0,0,1-.84-2.1q0-2.8,3.3-3.26l3-.42q0-2.55-2.06-2.55a4.92,4.92,0,0,0-3.26,1.23V209.7a6.2,6.2,0,0,1,3.4-.94q3.53,0,3.53,3.73Zm-1.6-5.06-2.41.33a3.92,3.92,0,0,0-1.68.55,1.59,1.59,0,0,0-.57,1.4,1.53,1.53,0,0,0,.52,1.2,2,2,0,0,0,1.39.46,2.57,2.57,0,0,0,2-.83,3,3,0,0,0,.78-2.11Z"/><path class="cls-3" d="M351.59,218.53a5.21,5.21,0,0,1-2.73.69,4.53,4.53,0,0,1-3.45-1.39,5,5,0,0,1-1.31-3.61,5.54,5.54,0,0,1,1.42-4,5,5,0,0,1,3.78-1.5,5.26,5.26,0,0,1,2.32.49v1.64a4.07,4.07,0,0,0-2.38-.78,3.22,3.22,0,0,0-2.51,1.1,4.17,4.17,0,0,0-1,2.89,4,4,0,0,0,.92,2.77,3.18,3.18,0,0,0,2.48,1,4,4,0,0,0,2.46-.87Z"/><path class="cls-3" d="M363.25,214.39h-7.06a3.74,3.74,0,0,0,.9,2.58,3.1,3.1,0,0,0,2.36.91,4.91,4.91,0,0,0,3.11-1.11v1.5a5.81,5.81,0,0,1-3.49,1,4.23,4.23,0,0,1-3.33-1.36,5.58,5.58,0,0,1-1.21-3.83,5.47,5.47,0,0,1,1.32-3.8,4.24,4.24,0,0,1,3.29-1.47,3.76,3.76,0,0,1,3,1.27,5.29,5.29,0,0,1,1.07,3.52ZM361.61,213a3.26,3.26,0,0,0-.67-2.16,2.28,2.28,0,0,0-1.83-.77,2.59,2.59,0,0,0-1.92.81,3.67,3.67,0,0,0-1,2.12Z"/><path class="cls-3" d="M378.19,218.9a3.09,3.09,0,0,1-1.49.31q-2.63,0-2.63-2.93v-5.92h-1.72V209h1.72v-2.44l1.6-.52v3h2.52v1.37h-2.52V216a2.33,2.33,0,0,0,.34,1.44,1.37,1.37,0,0,0,1.13.43,1.68,1.68,0,0,0,1-.33Z"/><path class="cls-3" d="M389.83,219h-1.6v-5.76q0-3.12-2.32-3.12a2.53,2.53,0,0,0-2,.9,3.37,3.37,0,0,0-.8,2.32V219h-1.6v-14.8h1.6v6.46h0a3.64,3.64,0,0,1,3.28-1.89q3.38,0,3.38,4.07Z"/><path class="cls-3" d="M402.08,214.39H395a3.74,3.74,0,0,0,.9,2.58,3.1,3.1,0,0,0,2.36.91,4.91,4.91,0,0,0,3.11-1.11v1.5a5.81,5.81,0,0,1-3.49,1,4.23,4.23,0,0,1-3.33-1.36,5.58,5.58,0,0,1-1.21-3.83,5.47,5.47,0,0,1,1.32-3.8,4.24,4.24,0,0,1,3.29-1.47,3.76,3.76,0,0,1,3,1.27,5.29,5.29,0,0,1,1.07,3.52ZM400.44,213a3.26,3.26,0,0,0-.67-2.16,2.28,2.28,0,0,0-1.83-.77,2.59,2.59,0,0,0-1.92.81,3.67,3.67,0,0,0-1,2.12Z"/><path class="cls-3" d="M414,217.55h0v6h-1.6V209H414v1.76h0a3.79,3.79,0,0,1,3.46-2,3.66,3.66,0,0,1,3,1.34,5.56,5.56,0,0,1,1.08,3.6,6.2,6.2,0,0,1-1.22,4,4.06,4.06,0,0,1-3.34,1.51A3.35,3.35,0,0,1,414,217.55Zm0-4v1.4a3,3,0,0,0,.81,2.1,2.87,2.87,0,0,0,4.33-.25,5.11,5.11,0,0,0,.83-3.1,4,4,0,0,0-.77-2.62,2.55,2.55,0,0,0-2.09-.95,2.84,2.84,0,0,0-2.25,1A3.57,3.57,0,0,0,414,213.51Z"/><path class="cls-3" d="M432.5,219h-1.6v-1.56h0a3.35,3.35,0,0,1-3.08,1.8,3.29,3.29,0,0,1-2.34-.79,2.74,2.74,0,0,1-.84-2.1q0-2.8,3.3-3.26l3-.42q0-2.55-2.06-2.55a4.92,4.92,0,0,0-3.26,1.23V209.7a6.2,6.2,0,0,1,3.4-.94q3.53,0,3.53,3.73Zm-1.6-5.06-2.41.33a3.92,3.92,0,0,0-1.68.55,1.59,1.59,0,0,0-.57,1.4,1.53,1.53,0,0,0,.52,1.2,2,2,0,0,0,1.39.46,2.57,2.57,0,0,0,2-.83,3,3,0,0,0,.78-2.11Z"/><path class="cls-3" d="M438.36,217.55h0v6h-1.6V209h1.6v1.76h0a3.79,3.79,0,0,1,3.46-2,3.66,3.66,0,0,1,3,1.34,5.56,5.56,0,0,1,1.08,3.6,6.2,6.2,0,0,1-1.22,4,4.06,4.06,0,0,1-3.34,1.51A3.35,3.35,0,0,1,438.36,217.55Zm0-4v1.4a3,3,0,0,0,.81,2.1,2.87,2.87,0,0,0,4.33-.25,5.11,5.11,0,0,0,.83-3.1,4,4,0,0,0-.77-2.62,2.55,2.55,0,0,0-2.09-.95,2.84,2.84,0,0,0-2.25,1A3.57,3.57,0,0,0,438.32,213.51Z"/><path class="cls-3" d="M457.71,214.39h-7.06a3.74,3.74,0,0,0,.9,2.58,3.1,3.1,0,0,0,2.36.91,4.91,4.91,0,0,0,3.11-1.11v1.5a5.81,5.81,0,0,1-3.49,1,4.23,4.23,0,0,1-3.33-1.36A5.58,5.58,0,0,1,449,214a5.47,5.47,0,0,1,1.32-3.8,4.24,4.24,0,0,1,3.29-1.47,3.76,3.76,0,0,1,3,1.27,5.29,5.29,0,0,1,1.07,3.52ZM456.07,213a3.26,3.26,0,0,0-.67-2.16,2.28,2.28,0,0,0-1.83-.77,2.59,2.59,0,0,0-1.92.81,3.67,3.67,0,0,0-1,2.12Z"/><path class="cls-3" d="M466.55,210.61a2,2,0,0,0-1.21-.32,2,2,0,0,0-1.71,1,4.47,4.47,0,0,0-.69,2.64V219h-1.6V209h1.6v2.06h0a3.49,3.49,0,0,1,1-1.65,2.38,2.38,0,0,1,1.57-.59,2.62,2.62,0,0,1,1,.14Z"/><path class="cls-3" d="M483,218.53a5.21,5.21,0,0,1-2.73.69,4.53,4.53,0,0,1-3.45-1.39,5,5,0,0,1-1.31-3.61,5.54,5.54,0,0,1,1.42-4,5,5,0,0,1,3.78-1.5,5.26,5.26,0,0,1,2.32.49v1.64a4.07,4.07,0,0,0-2.38-.78,3.22,3.22,0,0,0-2.51,1.1,4.17,4.17,0,0,0-1,2.89,4,4,0,0,0,.92,2.77,3.18,3.18,0,0,0,2.48,1A4,4,0,0,0,483,217Z"/><path class="cls-3" d="M493.76,219h-1.6v-1.56h0a3.35,3.35,0,0,1-3.08,1.8,3.29,3.29,0,0,1-2.34-.79,2.74,2.74,0,0,1-.84-2.1q0-2.8,3.3-3.26l3-.42q0-2.55-2.06-2.55a4.92,4.92,0,0,0-3.26,1.23V209.7a6.2,6.2,0,0,1,3.4-.94q3.53,0,3.53,3.73Zm-1.6-5.06-2.41.33a3.92,3.92,0,0,0-1.68.55,1.59,1.59,0,0,0-.57,1.4,1.53,1.53,0,0,0,.52,1.2,2,2,0,0,0,1.39.46,2.57,2.57,0,0,0,2-.83,3,3,0,0,0,.78-2.11Z"/><path class="cls-3" d="M502.62,218.9a3.09,3.09,0,0,1-1.49.31q-2.63,0-2.63-2.93v-5.92h-1.72V209h1.72v-2.44l1.6-.52v3h2.52v1.37H500.1V216a2.33,2.33,0,0,0,.34,1.44,1.37,1.37,0,0,0,1.13.43,1.68,1.68,0,0,0,1-.33Z"/><path class="cls-3" d="M513.11,219h-1.6v-1.56h0a3.35,3.35,0,0,1-3.08,1.8,3.29,3.29,0,0,1-2.34-.79,2.74,2.74,0,0,1-.84-2.1q0-2.8,3.3-3.26l3-.42q0-2.55-2.06-2.55a4.92,4.92,0,0,0-3.26,1.23V209.7a6.2,6.2,0,0,1,3.4-.94q3.53,0,3.53,3.73Zm-1.6-5.06-2.41.33a3.92,3.92,0,0,0-1.68.55,1.59,1.59,0,0,0-.57,1.4,1.53,1.53,0,0,0,.52,1.2,2,2,0,0,0,1.39.46,2.57,2.57,0,0,0,2-.83,3,3,0,0,0,.78-2.11Z"/><path class="cls-3" d="M518.93,219h-1.6v-14.8h1.6Z"/><path class="cls-3" d="M527.56,219.23a4.64,4.64,0,0,1-3.54-1.4,5.19,5.19,0,0,1-1.32-3.72,5.41,5.41,0,0,1,1.38-3.94,5,5,0,0,1,3.72-1.42,4.49,4.49,0,0,1,3.49,1.38,5.46,5.46,0,0,1,1.25,3.82,5.37,5.37,0,0,1-1.35,3.83A4.74,4.74,0,0,1,527.56,219.23Zm.12-9.12a3,3,0,0,0-2.44,1,4.31,4.31,0,0,0-.9,2.9,4.08,4.08,0,0,0,.91,2.8,3.09,3.09,0,0,0,2.43,1,2.93,2.93,0,0,0,2.39-1,4.36,4.36,0,0,0,.83-2.86,4.44,4.44,0,0,0-.83-2.89A2.92,2.92,0,0,0,527.67,210.11Z"/><path class="cls-3" d="M544.83,218.19q0,5.51-5.27,5.51a7.08,7.08,0,0,1-3.24-.7v-1.6a6.66,6.66,0,0,0,3.22.94q3.69,0,3.69-3.93v-1.09h0a4,4,0,0,1-6.44.58,5.33,5.33,0,0,1-1.14-3.58,6.22,6.22,0,0,1,1.23-4.05,4.09,4.09,0,0,1,3.35-1.5,3.26,3.26,0,0,1,3,1.62h0V209h1.6Zm-1.6-3.72V213a2.86,2.86,0,0,0-.81-2,2.65,2.65,0,0,0-2-.85,2.78,2.78,0,0,0-2.32,1.08,4.82,4.82,0,0,0-.84,3,4.13,4.13,0,0,0,.81,2.67,2.6,2.6,0,0,0,2.13,1,2.79,2.79,0,0,0,2.19-1A3.57,3.57,0,0,0,543.23,214.47Z"/><path class="cls-3" d="M550.09,206.45a1,1,0,0,1-.73-.29,1,1,0,0,1-.3-.74,1,1,0,0,1,1-1,1,1,0,0,1,.75.3,1,1,0,0,1,0,1.48A1,1,0,0,1,550.09,206.45Zm.78,12.54h-1.6V209h1.6Z"/><path class="cls-3" d="M563.62,219H562v-5.7q0-3.18-2.32-3.18a2.52,2.52,0,0,0-2,.9,3.35,3.35,0,0,0-.79,2.28V219h-1.6V209h1.6v1.66h0a3.61,3.61,0,0,1,3.28-1.89,3.06,3.06,0,0,1,2.51,1.06,4.72,4.72,0,0,1,.87,3.06Z"/><path class="cls-3" d="M576.37,218.19q0,5.51-5.27,5.51a7.08,7.08,0,0,1-3.24-.7v-1.6a6.66,6.66,0,0,0,3.22.94q3.69,0,3.69-3.93v-1.09h0a4,4,0,0,1-6.44.58,5.33,5.33,0,0,1-1.14-3.58,6.22,6.22,0,0,1,1.23-4.05,4.09,4.09,0,0,1,3.35-1.5,3.26,3.26,0,0,1,3,1.62h0V209h1.6Zm-1.6-3.72V213a2.86,2.86,0,0,0-.81-2,2.65,2.65,0,0,0-2-.85,2.78,2.78,0,0,0-2.32,1.08,4.82,4.82,0,0,0-.84,3,4.13,4.13,0,0,0,.81,2.67,2.6,2.6,0,0,0,2.13,1,2.79,2.79,0,0,0,2.19-1A3.57,3.57,0,0,0,574.77,214.47Z"/><path class="cls-3" d="M253.52,242.63v-1.72a4.74,4.74,0,0,0,2.88,1q2.11,0,2.11-1.41a1.22,1.22,0,0,0-.18-.68,1.81,1.81,0,0,0-.49-.49,3.75,3.75,0,0,0-.72-.39l-.89-.36a11.58,11.58,0,0,1-1.17-.53,3.51,3.51,0,0,1-.84-.61,2.25,2.25,0,0,1-.51-.77,2.72,2.72,0,0,1-.17-1,2.39,2.39,0,0,1,.32-1.25,2.86,2.86,0,0,1,.86-.91,4,4,0,0,1,1.23-.55,5.42,5.42,0,0,1,1.42-.19,5.73,5.73,0,0,1,2.32.45v1.62a4.53,4.53,0,0,0-2.54-.72,3,3,0,0,0-.81.1,2,2,0,0,0-.62.29,1.33,1.33,0,0,0-.4.44,1.17,1.17,0,0,0-.14.57,1.37,1.37,0,0,0,.14.65,1.44,1.44,0,0,0,.42.47,3.16,3.16,0,0,0,.66.37l.89.36a12.35,12.35,0,0,1,1.19.52,4.08,4.08,0,0,1,.9.61,2.36,2.36,0,0,1,.57.78,2.51,2.51,0,0,1,.2,1,2.46,2.46,0,0,1-.33,1.29,2.81,2.81,0,0,1-.87.91,4,4,0,0,1-1.26.54,6.22,6.22,0,0,1-1.49.18A5.67,5.67,0,0,1,253.52,242.63Z"/><path class="cls-3" d="M271.77,233l-4.6,11.6q-1.23,3.11-3.46,3.11a3.65,3.65,0,0,1-1-.13v-1.44a3,3,0,0,0,.95.18,2,2,0,0,0,1.82-1.45l.8-1.89-3.91-10h1.78l2.71,7.7q0,.15.21.76h.06q0-.23.2-.74l2.84-7.71Z"/><path class="cls-3" d="M274.08,242.63v-1.72a4.74,4.74,0,0,0,2.88,1q2.11,0,2.11-1.41a1.22,1.22,0,0,0-.18-.68,1.81,1.81,0,0,0-.49-.49,3.75,3.75,0,0,0-.72-.39l-.89-.36a11.58,11.58,0,0,1-1.17-.53,3.51,3.51,0,0,1-.84-.61,2.25,2.25,0,0,1-.51-.77,2.72,2.72,0,0,1-.17-1,2.39,2.39,0,0,1,.32-1.25,2.86,2.86,0,0,1,.86-.91,4,4,0,0,1,1.23-.55,5.42,5.42,0,0,1,1.42-.19,5.73,5.73,0,0,1,2.32.45v1.62a4.53,4.53,0,0,0-2.54-.72,3,3,0,0,0-.81.1,2,2,0,0,0-.62.29,1.33,1.33,0,0,0-.4.44,1.17,1.17,0,0,0-.14.57,1.37,1.37,0,0,0,.14.65,1.44,1.44,0,0,0,.42.47,3.16,3.16,0,0,0,.66.37l.89.36a12.35,12.35,0,0,1,1.19.52,4.08,4.08,0,0,1,.9.61,2.36,2.36,0,0,1,.57.78,2.51,2.51,0,0,1,.2,1,2.46,2.46,0,0,1-.33,1.29,2.81,2.81,0,0,1-.87.91,4,4,0,0,1-1.26.54,6.22,6.22,0,0,1-1.49.18A5.67,5.67,0,0,1,274.08,242.63Z"/><path class="cls-3" d="M289,242.9a3.09,3.09,0,0,1-1.49.31q-2.63,0-2.63-2.93v-5.92h-1.72V233h1.72v-2.44l1.6-.52v3H289v1.37h-2.52V240a2.33,2.33,0,0,0,.34,1.44,1.37,1.37,0,0,0,1.13.43,1.68,1.68,0,0,0,1-.33Z"/><path class="cls-3" d="M300.39,238.39h-7.06a3.74,3.74,0,0,0,.9,2.58,3.1,3.1,0,0,0,2.36.91,4.91,4.91,0,0,0,3.11-1.11v1.5a5.81,5.81,0,0,1-3.49,1,4.23,4.23,0,0,1-3.33-1.36,5.58,5.58,0,0,1-1.21-3.83,5.47,5.47,0,0,1,1.32-3.8,4.24,4.24,0,0,1,3.29-1.47,3.76,3.76,0,0,1,3,1.27,5.29,5.29,0,0,1,1.07,3.53ZM298.75,237a3.26,3.26,0,0,0-.67-2.16,2.28,2.28,0,0,0-1.83-.77,2.59,2.59,0,0,0-1.92.81,3.68,3.68,0,0,0-1,2.12Z"/><path class="cls-3" d="M318.21,243h-1.6v-5.74a4.33,4.33,0,0,0-.51-2.4,1.94,1.94,0,0,0-1.72-.74,2.13,2.13,0,0,0-1.74.94,3.59,3.59,0,0,0-.72,2.25V243h-1.6v-5.94q0-2.95-2.28-2.95a2.11,2.11,0,0,0-1.74.88,3.65,3.65,0,0,0-.68,2.3V243H304V233h1.6v1.58h0a3.4,3.4,0,0,1,3.11-1.82,2.89,2.89,0,0,1,2.83,2.07,3.57,3.57,0,0,1,3.32-2.07q3.3,0,3.3,4.07Z"/><path class="cls-3" d="M335.93,242.53a5.21,5.21,0,0,1-2.73.69,4.53,4.53,0,0,1-3.45-1.39,5,5,0,0,1-1.31-3.61,5.54,5.54,0,0,1,1.42-4,5,5,0,0,1,3.78-1.5,5.26,5.26,0,0,1,2.32.49v1.64a4.07,4.07,0,0,0-2.38-.78,3.22,3.22,0,0,0-2.51,1.1,4.17,4.17,0,0,0-1,2.89,4,4,0,0,0,.92,2.77,3.18,3.18,0,0,0,2.48,1,4,4,0,0,0,2.46-.87Z"/><path class="cls-3" d="M347.64,243H346v-1.58h0a3.29,3.29,0,0,1-3.09,1.82q-3.57,0-3.57-4.26v-6h1.59v5.72q0,3.16,2.42,3.16a2.45,2.45,0,0,0,1.93-.86,3.31,3.31,0,0,0,.76-2.26V233h1.6Z"/><path class="cls-3" d="M357.28,234.61a2,2,0,0,0-1.21-.32,2,2,0,0,0-1.71,1,4.47,4.47,0,0,0-.69,2.64V243h-1.6V233h1.6v2.06h0a3.49,3.49,0,0,1,1-1.65,2.38,2.38,0,0,1,1.57-.59,2.62,2.62,0,0,1,1,.14Z"/><path class="cls-3" d="M365.44,234.61a2,2,0,0,0-1.21-.32,2,2,0,0,0-1.71,1,4.47,4.47,0,0,0-.69,2.64V243h-1.6V233h1.6v2.06h0a3.49,3.49,0,0,1,1-1.65,2.38,2.38,0,0,1,1.57-.59,2.62,2.62,0,0,1,1,.14Z"/><path class="cls-3" d="M376.41,238.39h-7.06a3.74,3.74,0,0,0,.9,2.58,3.1,3.1,0,0,0,2.36.91,4.91,4.91,0,0,0,3.11-1.11v1.5a5.81,5.81,0,0,1-3.49,1,4.23,4.23,0,0,1-3.33-1.36,5.58,5.58,0,0,1-1.21-3.83,5.47,5.47,0,0,1,1.32-3.8,4.24,4.24,0,0,1,3.29-1.47,3.76,3.76,0,0,1,3,1.27,5.29,5.29,0,0,1,1.07,3.53ZM374.77,237a3.26,3.26,0,0,0-.67-2.16,2.28,2.28,0,0,0-1.83-.77,2.59,2.59,0,0,0-1.92.81,3.68,3.68,0,0,0-1,2.12Z"/><path class="cls-3" d="M388.34,243h-1.6v-5.7q0-3.18-2.32-3.18a2.52,2.52,0,0,0-2,.9,3.35,3.35,0,0,0-.79,2.28V243H380V233h1.6v1.66h0a3.61,3.61,0,0,1,3.28-1.89,3.06,3.06,0,0,1,2.51,1.06,4.72,4.72,0,0,1,.87,3.06Z"/><path class="cls-3" d="M397.19,242.9a3.09,3.09,0,0,1-1.49.31q-2.63,0-2.63-2.93v-5.92h-1.72V233h1.72v-2.44l1.6-.52v3h2.52v1.37h-2.52V240a2.33,2.33,0,0,0,.34,1.44,1.37,1.37,0,0,0,1.13.43,1.68,1.68,0,0,0,1-.33Z"/><path class="cls-3" d="M402.13,243h-1.6v-14.8h1.6Z"/><path class="cls-3" d="M414.53,233l-4.6,11.6q-1.23,3.11-3.46,3.11a3.65,3.65,0,0,1-1-.13v-1.44a3,3,0,0,0,.95.18,2,2,0,0,0,1.82-1.45L409,243l-3.91-10h1.78l2.71,7.7q0,.15.21.76h.06q0-.23.2-.74l2.84-7.71Z"/><path class="cls-3" d="M425,230.45a1,1,0,0,1-.73-.29,1,1,0,0,1-.3-.74,1,1,0,0,1,1-1,1,1,0,0,1,.75.3,1,1,0,0,1,0,1.48A1,1,0,0,1,425,230.45Zm.78,12.54h-1.6V233h1.6Z"/><path class="cls-3" d="M438.48,243h-1.6v-5.7q0-3.18-2.32-3.18a2.52,2.52,0,0,0-2,.9,3.35,3.35,0,0,0-.79,2.28V243h-1.6V233h1.6v1.66h0a3.61,3.61,0,0,1,3.28-1.89,3.06,3.06,0,0,1,2.51,1.06,4.72,4.72,0,0,1,.87,3.06Z"/><path class="cls-3" d="M457.46,243h-1.6v-1.58h0a3.29,3.29,0,0,1-3.09,1.82q-3.57,0-3.57-4.26v-6h1.59v5.72q0,3.16,2.42,3.16a2.45,2.45,0,0,0,1.93-.86,3.31,3.31,0,0,0,.76-2.26V233h1.6Z"/><path class="cls-3" d="M461.28,242.63v-1.72a4.74,4.74,0,0,0,2.88,1q2.11,0,2.11-1.41a1.22,1.22,0,0,0-.18-.68,1.81,1.81,0,0,0-.49-.49,3.75,3.75,0,0,0-.72-.39l-.89-.36a11.58,11.58,0,0,1-1.17-.53,3.51,3.51,0,0,1-.84-.61,2.25,2.25,0,0,1-.51-.77,2.72,2.72,0,0,1-.17-1,2.39,2.39,0,0,1,.32-1.25,2.86,2.86,0,0,1,.86-.91,4,4,0,0,1,1.23-.55,5.42,5.42,0,0,1,1.42-.19,5.73,5.73,0,0,1,2.32.45v1.62a4.53,4.53,0,0,0-2.54-.72,3,3,0,0,0-.81.1,2,2,0,0,0-.62.29,1.33,1.33,0,0,0-.4.44,1.17,1.17,0,0,0-.14.57,1.37,1.37,0,0,0,.14.65,1.44,1.44,0,0,0,.42.47,3.16,3.16,0,0,0,.66.37l.89.36a12.35,12.35,0,0,1,1.19.52,4.08,4.08,0,0,1,.9.61,2.36,2.36,0,0,1,.57.78,2.51,2.51,0,0,1,.2,1,2.46,2.46,0,0,1-.33,1.29,2.81,2.81,0,0,1-.87.91,4,4,0,0,1-1.26.54,6.22,6.22,0,0,1-1.49.18A5.67,5.67,0,0,1,461.28,242.63Z"/><path class="cls-3" d="M479.61,238.39h-7.06a3.74,3.74,0,0,0,.9,2.58,3.1,3.1,0,0,0,2.36.91,4.91,4.91,0,0,0,3.11-1.11v1.5a5.81,5.81,0,0,1-3.49,1,4.23,4.23,0,0,1-3.33-1.36,5.58,5.58,0,0,1-1.21-3.83,5.47,5.47,0,0,1,1.32-3.8,4.24,4.24,0,0,1,3.29-1.47,3.76,3.76,0,0,1,3,1.27,5.29,5.29,0,0,1,1.07,3.53ZM478,237a3.26,3.26,0,0,0-.67-2.16,2.28,2.28,0,0,0-1.83-.77,2.59,2.59,0,0,0-1.92.81,3.68,3.68,0,0,0-1,2.12Z"/><path class="cls-3" d="M483.79,243.21a1,1,0,0,1-.77-.32,1.06,1.06,0,0,1-.32-.77,1.08,1.08,0,0,1,.32-.78,1,1,0,0,1,.77-.33,1.06,1.06,0,0,1,.78.33,1.07,1.07,0,0,1,.32.78,1.05,1.05,0,0,1-.32.77A1.06,1.06,0,0,1,483.79,243.21Z"/><path class="cls-3" d="M261.6,291h-7.27V277H256v12.52h5.62Z"/><path class="cls-3" d="M265.56,278.45a1,1,0,0,1-.73-.29,1,1,0,0,1-.3-.74,1,1,0,0,1,1-1,1,1,0,0,1,.75.3,1,1,0,0,1,0,1.48A1,1,0,0,1,265.56,278.45Zm.78,12.54h-1.6V281h1.6Z"/><path class="cls-3" d="M272.42,289.55h0V291h-1.6v-14.8h1.6v6.56h0a3.79,3.79,0,0,1,3.46-2,3.66,3.66,0,0,1,3,1.34,5.54,5.54,0,0,1,1.09,3.6,6.2,6.2,0,0,1-1.22,4,4.06,4.06,0,0,1-3.34,1.51A3.29,3.29,0,0,1,272.42,289.55Zm0-4v1.4a3,3,0,0,0,.81,2.1,2.87,2.87,0,0,0,4.33-.25,5.11,5.11,0,0,0,.83-3.1,4,4,0,0,0-.77-2.62,2.55,2.55,0,0,0-2.09-.95,2.84,2.84,0,0,0-2.25,1A3.57,3.57,0,0,0,272.38,285.51Z"/><path class="cls-3" d="M289,282.61a2,2,0,0,0-1.21-.32,2,2,0,0,0-1.71,1,4.47,4.47,0,0,0-.69,2.64V291h-1.6V281h1.6v2.06h0a3.49,3.49,0,0,1,1-1.65,2.38,2.38,0,0,1,1.57-.59,2.62,2.62,0,0,1,1,.14Z"/><path class="cls-3" d="M299,291h-1.6v-1.56h0a3.35,3.35,0,0,1-3.08,1.8,3.29,3.29,0,0,1-2.34-.79,2.74,2.74,0,0,1-.84-2.1q0-2.8,3.3-3.26l3-.42q0-2.55-2.06-2.55a4.92,4.92,0,0,0-3.26,1.23V281.7a6.2,6.2,0,0,1,3.4-.94q3.53,0,3.53,3.73Zm-1.6-5.06-2.41.33a3.92,3.92,0,0,0-1.68.55,1.59,1.59,0,0,0-.57,1.4,1.53,1.53,0,0,0,.52,1.2,2,2,0,0,0,1.39.46,2.57,2.57,0,0,0,2-.83,3,3,0,0,0,.78-2.11Z"/><path class="cls-3" d="M308.48,282.61a2,2,0,0,0-1.21-.32,2,2,0,0,0-1.71,1,4.47,4.47,0,0,0-.69,2.64V291h-1.6V281h1.6v2.06h0a3.49,3.49,0,0,1,1-1.65,2.38,2.38,0,0,1,1.57-.59,2.62,2.62,0,0,1,1,.14Z"/><path class="cls-3" d="M312.24,278.45a1,1,0,0,1-.73-.29,1,1,0,0,1-.3-.74,1,1,0,0,1,1-1,1,1,0,0,1,.75.3,1,1,0,0,1,0,1.48A1,1,0,0,1,312.24,278.45ZM313,291h-1.6V281H313Z"/><path class="cls-3" d="M324.62,291H323v-1.56h0a3.35,3.35,0,0,1-3.08,1.8,3.29,3.29,0,0,1-2.34-.79,2.74,2.74,0,0,1-.84-2.1q0-2.8,3.3-3.26l3-.42q0-2.55-2.06-2.55a4.92,4.92,0,0,0-3.26,1.23V281.7a6.2,6.2,0,0,1,3.4-.94q3.53,0,3.53,3.73Zm-1.6-5.06-2.41.33a3.92,3.92,0,0,0-1.68.55,1.59,1.59,0,0,0-.57,1.4,1.53,1.53,0,0,0,.52,1.2,2,2,0,0,0,1.39.46,2.57,2.57,0,0,0,2-.83,3,3,0,0,0,.78-2.11Z"/><path class="cls-3" d="M337.14,291h-1.6v-5.7q0-3.18-2.32-3.18a2.52,2.52,0,0,0-2,.9,3.35,3.35,0,0,0-.79,2.28V291h-1.6V281h1.6v1.66h0a3.61,3.61,0,0,1,3.28-1.89,3.06,3.06,0,0,1,2.51,1.06,4.72,4.72,0,0,1,.87,3.06Z"/><path class="cls-3" d="M340.75,290.63v-1.72a4.74,4.74,0,0,0,2.88,1q2.11,0,2.11-1.41a1.22,1.22,0,0,0-.18-.68,1.81,1.81,0,0,0-.49-.49,3.75,3.75,0,0,0-.72-.39l-.89-.36a11.58,11.58,0,0,1-1.17-.53,3.51,3.51,0,0,1-.84-.61,2.25,2.25,0,0,1-.51-.77,2.72,2.72,0,0,1-.17-1,2.39,2.39,0,0,1,.32-1.25,2.86,2.86,0,0,1,.86-.91,4,4,0,0,1,1.23-.55,5.42,5.42,0,0,1,1.42-.19,5.73,5.73,0,0,1,2.32.45v1.62a4.53,4.53,0,0,0-2.54-.72,3,3,0,0,0-.81.1,2,2,0,0,0-.62.29,1.33,1.33,0,0,0-.4.44,1.17,1.17,0,0,0-.14.57,1.37,1.37,0,0,0,.14.65,1.44,1.44,0,0,0,.42.47,3.16,3.16,0,0,0,.66.37l.89.36a12.35,12.35,0,0,1,1.19.52,4.08,4.08,0,0,1,.9.61,2.36,2.36,0,0,1,.57.78,2.51,2.51,0,0,1,.2,1,2.46,2.46,0,0,1-.33,1.29,2.81,2.81,0,0,1-.87.91,4,4,0,0,1-1.26.54,6.22,6.22,0,0,1-1.49.18A5.67,5.67,0,0,1,340.75,290.63Z"/><path class="cls-3" d="M370.32,281l-3,10h-1.66l-2.06-7.16a4.66,4.66,0,0,1-.16-.93h0a4.38,4.38,0,0,1-.21.91L361,291h-1.6l-3-10H358l2.07,7.52a4.53,4.53,0,0,1,.14.9h.08a4.2,4.2,0,0,1,.18-.92l2.3-7.5h1.46l2.07,7.54a5.42,5.42,0,0,1,.15.9h.08a4.16,4.16,0,0,1,.17-.9l2-7.54Z"/><path class="cls-3" d="M374.2,278.45a1,1,0,0,1-.73-.29,1,1,0,0,1-.3-.74,1,1,0,0,1,1-1,1,1,0,0,1,.75.3,1,1,0,0,1,0,1.48A1,1,0,0,1,374.2,278.45ZM375,291h-1.6V281H375Z"/><path class="cls-3" d="M381,291h-1.6v-14.8H381Z"/><path class="cls-3" d="M387.06,291h-1.6v-14.8h1.6Z"/><path class="cls-3" d="M406.49,291h-1.6v-5.7q0-3.18-2.32-3.18a2.52,2.52,0,0,0-2,.9,3.35,3.35,0,0,0-.79,2.28V291h-1.6V281h1.6v1.66h0a3.61,3.61,0,0,1,3.28-1.89,3.06,3.06,0,0,1,2.51,1.06,4.72,4.72,0,0,1,.87,3.06Z"/><path class="cls-3" d="M414.88,291.23a4.64,4.64,0,0,1-3.54-1.4,5.19,5.19,0,0,1-1.32-3.72,5.41,5.41,0,0,1,1.38-3.94,5,5,0,0,1,3.72-1.42,4.49,4.49,0,0,1,3.49,1.38,5.46,5.46,0,0,1,1.25,3.82,5.37,5.37,0,0,1-1.35,3.83A4.74,4.74,0,0,1,414.88,291.23Zm.12-9.12a3,3,0,0,0-2.44,1,4.31,4.31,0,0,0-.9,2.9,4.08,4.08,0,0,0,.91,2.8,3.09,3.09,0,0,0,2.43,1,2.93,2.93,0,0,0,2.39-1,4.36,4.36,0,0,0,.83-2.86,4.44,4.44,0,0,0-.83-2.89A2.92,2.92,0,0,0,415,282.11Z"/><path class="cls-3" d="M431.9,291h-1.6v-14.8h1.6Z"/><path class="cls-3" d="M440.52,291.23a4.64,4.64,0,0,1-3.54-1.4,5.19,5.19,0,0,1-1.32-3.72,5.41,5.41,0,0,1,1.38-3.94,5,5,0,0,1,3.72-1.42,4.49,4.49,0,0,1,3.49,1.38A5.46,5.46,0,0,1,445.5,286a5.37,5.37,0,0,1-1.35,3.83A4.74,4.74,0,0,1,440.52,291.23Zm.12-9.12a3,3,0,0,0-2.44,1,4.31,4.31,0,0,0-.9,2.9,4.08,4.08,0,0,0,.91,2.8,3.09,3.09,0,0,0,2.43,1,2.93,2.93,0,0,0,2.39-1,4.36,4.36,0,0,0,.83-2.86,4.44,4.44,0,0,0-.83-2.89A2.92,2.92,0,0,0,440.64,282.11Z"/><path class="cls-3" d="M457.56,291H456v-5.7q0-3.18-2.32-3.18a2.52,2.52,0,0,0-2,.9,3.35,3.35,0,0,0-.79,2.28V291h-1.6V281h1.6v1.66h0a3.61,3.61,0,0,1,3.28-1.89,3.06,3.06,0,0,1,2.51,1.06,4.72,4.72,0,0,1,.87,3.06Z"/><path class="cls-3" d="M470.32,290.19q0,5.51-5.27,5.51a7.08,7.08,0,0,1-3.24-.7v-1.6a6.66,6.66,0,0,0,3.22.94q3.69,0,3.69-3.93v-1.09h0a4,4,0,0,1-6.44.58,5.33,5.33,0,0,1-1.14-3.58,6.23,6.23,0,0,1,1.23-4.05,4.09,4.09,0,0,1,3.35-1.5,3.26,3.26,0,0,1,3,1.62h0V281h1.6Zm-1.6-3.72V285a2.86,2.86,0,0,0-.81-2,2.65,2.65,0,0,0-2-.85,2.78,2.78,0,0,0-2.32,1.08,4.82,4.82,0,0,0-.84,3,4.13,4.13,0,0,0,.81,2.67,2.6,2.6,0,0,0,2.13,1,2.79,2.79,0,0,0,2.19-1A3.57,3.57,0,0,0,468.71,286.47Z"/><path class="cls-3" d="M482.8,286.39h-7.06a3.74,3.74,0,0,0,.9,2.58,3.1,3.1,0,0,0,2.36.91,4.91,4.91,0,0,0,3.11-1.11v1.5a5.81,5.81,0,0,1-3.49,1,4.23,4.23,0,0,1-3.33-1.36,5.58,5.58,0,0,1-1.21-3.83,5.47,5.47,0,0,1,1.32-3.8,4.24,4.24,0,0,1,3.29-1.47,3.76,3.76,0,0,1,3,1.27,5.29,5.29,0,0,1,1.07,3.53ZM481.16,285a3.26,3.26,0,0,0-.67-2.16,2.28,2.28,0,0,0-1.83-.77,2.59,2.59,0,0,0-1.92.81,3.68,3.68,0,0,0-1,2.12Z"/><path class="cls-3" d="M491.63,282.61a2,2,0,0,0-1.21-.32,2,2,0,0,0-1.71,1,4.47,4.47,0,0,0-.69,2.64V291h-1.6V281H488v2.06h0a3.49,3.49,0,0,1,1-1.65,2.38,2.38,0,0,1,1.57-.59,2.62,2.62,0,0,1,1,.14Z"/><path class="cls-3" d="M509.55,291h-1.6v-5.76q0-3.12-2.32-3.12a2.53,2.53,0,0,0-2,.9,3.37,3.37,0,0,0-.8,2.32V291h-1.6v-14.8h1.6v6.46h0a3.64,3.64,0,0,1,3.28-1.89q3.38,0,3.38,4.07Z"/><path class="cls-3" d="M520.93,291h-1.6v-1.56h0a3.35,3.35,0,0,1-3.08,1.8,3.29,3.29,0,0,1-2.34-.79,2.74,2.74,0,0,1-.84-2.1q0-2.8,3.3-3.26l3-.42q0-2.55-2.06-2.55a4.92,4.92,0,0,0-3.26,1.23V281.7a6.2,6.2,0,0,1,3.4-.94q3.53,0,3.53,3.73Zm-1.6-5.06-2.41.33a3.92,3.92,0,0,0-1.68.55,1.59,1.59,0,0,0-.57,1.4,1.53,1.53,0,0,0,.52,1.2,2,2,0,0,0,1.39.46,2.57,2.57,0,0,0,2-.83,3,3,0,0,0,.78-2.11Z"/><path class="cls-3" d="M533,281l-4,10h-1.57l-3.79-10h1.76l2.54,7.27a6.5,6.5,0,0,1,.35,1.4h0a6.6,6.6,0,0,1,.31-1.36l2.66-7.3Z"/><path class="cls-3" d="M544,286.39H536.9a3.74,3.74,0,0,0,.9,2.58,3.1,3.1,0,0,0,2.36.91,4.91,4.91,0,0,0,3.11-1.11v1.5a5.81,5.81,0,0,1-3.49,1,4.23,4.23,0,0,1-3.33-1.36,5.58,5.58,0,0,1-1.21-3.83,5.47,5.47,0,0,1,1.32-3.8,4.24,4.24,0,0,1,3.29-1.47,3.76,3.76,0,0,1,3,1.27,5.29,5.29,0,0,1,1.07,3.53ZM542.32,285a3.26,3.26,0,0,0-.67-2.16,2.28,2.28,0,0,0-1.83-.77,2.59,2.59,0,0,0-1.92.81,3.68,3.68,0,0,0-1,2.12Z"/><path class="cls-3" d="M558.9,290.9a3.09,3.09,0,0,1-1.49.31q-2.63,0-2.63-2.93v-5.92h-1.72V281h1.72v-2.44l1.6-.52v3h2.52v1.37h-2.52V288a2.33,2.33,0,0,0,.34,1.44,1.37,1.37,0,0,0,1.13.43,1.68,1.68,0,0,0,1-.33Z"/><path class="cls-3" d="M566.42,291.23a4.64,4.64,0,0,1-3.54-1.4,5.19,5.19,0,0,1-1.32-3.72,5.41,5.41,0,0,1,1.38-3.94,5,5,0,0,1,3.72-1.42,4.49,4.49,0,0,1,3.49,1.38A5.46,5.46,0,0,1,571.4,286a5.37,5.37,0,0,1-1.35,3.83A4.74,4.74,0,0,1,566.42,291.23Zm.12-9.12a3,3,0,0,0-2.44,1,4.31,4.31,0,0,0-.9,2.9,4.08,4.08,0,0,0,.91,2.8,3.09,3.09,0,0,0,2.43,1,2.93,2.93,0,0,0,2.39-1,4.36,4.36,0,0,0,.83-2.86,4.44,4.44,0,0,0-.83-2.89A2.92,2.92,0,0,0,566.54,282.11Z"/><path class="cls-3" d="M268.32,315h-1.6v-5.74a4.33,4.33,0,0,0-.51-2.4,1.94,1.94,0,0,0-1.72-.74,2.13,2.13,0,0,0-1.74.94,3.59,3.59,0,0,0-.72,2.25V315h-1.6v-5.94q0-2.95-2.28-2.95a2.11,2.11,0,0,0-1.74.88,3.65,3.65,0,0,0-.68,2.3V315h-1.6V305h1.6v1.58h0a3.4,3.4,0,0,1,3.11-1.82,2.89,2.89,0,0,1,2.83,2.07,3.57,3.57,0,0,1,3.32-2.07q3.3,0,3.3,4.07Z"/><path class="cls-3" d="M279.71,315h-1.6v-1.56h0a3.35,3.35,0,0,1-3.08,1.8,3.29,3.29,0,0,1-2.34-.79,2.74,2.74,0,0,1-.84-2.1q0-2.8,3.3-3.26l3-.42q0-2.55-2.06-2.55a4.92,4.92,0,0,0-3.26,1.23V305.7a6.2,6.2,0,0,1,3.4-.94q3.53,0,3.53,3.73Zm-1.6-5.06-2.41.33a3.92,3.92,0,0,0-1.68.55,1.59,1.59,0,0,0-.57,1.4,1.53,1.53,0,0,0,.52,1.2,2,2,0,0,0,1.39.46,2.57,2.57,0,0,0,2-.83,3,3,0,0,0,.78-2.11Z"/><path class="cls-3" d="M292.22,315h-1.6v-5.7q0-3.18-2.32-3.18a2.52,2.52,0,0,0-2,.9,3.35,3.35,0,0,0-.79,2.28V315h-1.6V305h1.6v1.66h0a3.61,3.61,0,0,1,3.28-1.89,3.06,3.06,0,0,1,2.51,1.06,4.72,4.72,0,0,1,.87,3.06Z"/><path class="cls-3" d="M303.6,315H302v-1.56h0a3.35,3.35,0,0,1-3.08,1.8,3.29,3.29,0,0,1-2.34-.79,2.74,2.74,0,0,1-.84-2.1q0-2.8,3.3-3.26l3-.42q0-2.55-2.06-2.55a4.92,4.92,0,0,0-3.26,1.23V305.7a6.2,6.2,0,0,1,3.4-.94q3.53,0,3.53,3.73Zm-1.6-5.06-2.41.33a3.92,3.92,0,0,0-1.68.55,1.59,1.59,0,0,0-.57,1.4,1.53,1.53,0,0,0,.52,1.2,2,2,0,0,0,1.39.46,2.57,2.57,0,0,0,2-.83,3,3,0,0,0,.78-2.11Z"/><path class="cls-3" d="M316.35,314.19q0,5.51-5.27,5.51a7.08,7.08,0,0,1-3.24-.7v-1.6a6.66,6.66,0,0,0,3.22.94q3.69,0,3.69-3.93v-1.09h0a4,4,0,0,1-6.44.58,5.33,5.33,0,0,1-1.14-3.58,6.23,6.23,0,0,1,1.23-4.05,4.09,4.09,0,0,1,3.35-1.5,3.26,3.26,0,0,1,3,1.62h0V305h1.6Zm-1.6-3.72V309a2.86,2.86,0,0,0-.81-2,2.65,2.65,0,0,0-2-.85,2.78,2.78,0,0,0-2.32,1.08,4.82,4.82,0,0,0-.84,3,4.13,4.13,0,0,0,.81,2.67,2.6,2.6,0,0,0,2.13,1,2.79,2.79,0,0,0,2.19-1A3.57,3.57,0,0,0,314.75,310.47Z"/><path class="cls-3" d="M328.83,310.39h-7.06a3.74,3.74,0,0,0,.9,2.58,3.1,3.1,0,0,0,2.36.91,4.91,4.91,0,0,0,3.11-1.11v1.5a5.81,5.81,0,0,1-3.49,1,4.23,4.23,0,0,1-3.33-1.36,5.58,5.58,0,0,1-1.21-3.83,5.47,5.47,0,0,1,1.32-3.8,4.24,4.24,0,0,1,3.29-1.47,3.76,3.76,0,0,1,3,1.27,5.29,5.29,0,0,1,1.07,3.53ZM327.19,309a3.26,3.26,0,0,0-.67-2.16,2.28,2.28,0,0,0-1.83-.77,2.59,2.59,0,0,0-1.92.81,3.68,3.68,0,0,0-1,2.12Z"/><path class="cls-3" d="M346.29,315h-1.6v-1.56h0a3.35,3.35,0,0,1-3.08,1.8,3.29,3.29,0,0,1-2.34-.79,2.74,2.74,0,0,1-.84-2.1q0-2.8,3.3-3.26l3-.42q0-2.55-2.06-2.55a4.92,4.92,0,0,0-3.26,1.23V305.7a6.2,6.2,0,0,1,3.4-.94q3.53,0,3.53,3.73Zm-1.6-5.06-2.41.33a3.92,3.92,0,0,0-1.68.55,1.59,1.59,0,0,0-.57,1.4,1.53,1.53,0,0,0,.52,1.2,2,2,0,0,0,1.39.46,2.57,2.57,0,0,0,2-.83,3,3,0,0,0,.78-2.11Z"/><path class="cls-3" d="M365.49,315h-1.6v-5.76q0-3.12-2.32-3.12a2.53,2.53,0,0,0-2,.9,3.37,3.37,0,0,0-.8,2.32V315h-1.6v-14.8h1.6v6.46h0a3.64,3.64,0,0,1,3.28-1.89q3.38,0,3.38,4.07Z"/><path class="cls-3" d="M376.86,315h-1.6v-1.56h0a3.35,3.35,0,0,1-3.08,1.8,3.29,3.29,0,0,1-2.34-.79,2.74,2.74,0,0,1-.84-2.1q0-2.8,3.3-3.26l3-.42q0-2.55-2.06-2.55a4.92,4.92,0,0,0-3.26,1.23V305.7a6.2,6.2,0,0,1,3.4-.94q3.53,0,3.53,3.73Zm-1.6-5.06-2.41.33a3.92,3.92,0,0,0-1.68.55,1.59,1.59,0,0,0-.57,1.4,1.53,1.53,0,0,0,.52,1.2,2,2,0,0,0,1.39.46,2.57,2.57,0,0,0,2-.83,3,3,0,0,0,.78-2.11Z"/><path class="cls-3" d="M389.38,315h-1.6v-5.7q0-3.18-2.32-3.18a2.52,2.52,0,0,0-2,.9,3.35,3.35,0,0,0-.79,2.28V315h-1.6V305h1.6v1.66h0a3.61,3.61,0,0,1,3.28-1.89,3.06,3.06,0,0,1,2.51,1.06,4.72,4.72,0,0,1,.87,3.06Z"/><path class="cls-3" d="M402.13,315h-1.6v-1.7h0a4,4,0,0,1-6.45.59,5.51,5.51,0,0,1-1.13-3.66,6,6,0,0,1,1.25-4,4.12,4.12,0,0,1,3.33-1.49,3.21,3.21,0,0,1,3,1.62h0v-6.19h1.6Zm-1.6-4.52V309a2.86,2.86,0,0,0-.8-2.05,2.69,2.69,0,0,0-2-.84,2.77,2.77,0,0,0-2.3,1.07,4.71,4.71,0,0,0-.84,3,4.23,4.23,0,0,0,.81,2.73,2.63,2.63,0,0,0,2.16,1,2.74,2.74,0,0,0,2.17-1A3.6,3.6,0,0,0,400.53,310.47Z"/><path class="cls-3" d="M419.17,305l-3,10h-1.66l-2.06-7.16a4.66,4.66,0,0,1-.16-.93h0a4.38,4.38,0,0,1-.21.91L409.82,315h-1.6l-3-10h1.68l2.07,7.52a4.53,4.53,0,0,1,.14.9h.08a4.2,4.2,0,0,1,.18-.92l2.3-7.5h1.46l2.07,7.54a5.42,5.42,0,0,1,.15.9h.08a4.16,4.16,0,0,1,.17-.9l2-7.54Z"/><path class="cls-3" d="M427.44,306.61a2,2,0,0,0-1.21-.32,2,2,0,0,0-1.71,1,4.47,4.47,0,0,0-.69,2.64V315h-1.6V305h1.6v2.06h0a3.49,3.49,0,0,1,1-1.65,2.38,2.38,0,0,1,1.57-.59,2.62,2.62,0,0,1,1,.14Z"/><path class="cls-3" d="M431.2,302.45a1,1,0,0,1-.73-.29,1,1,0,0,1-.3-.74,1,1,0,0,1,1-1,1,1,0,0,1,.75.3,1,1,0,0,1,0,1.48A1,1,0,0,1,431.2,302.45ZM432,315h-1.6V305H432Z"/><path class="cls-3" d="M441.07,314.9a3.09,3.09,0,0,1-1.49.31q-2.63,0-2.63-2.93v-5.92h-1.72V305h1.72v-2.44l1.6-.52v3h2.52v1.37h-2.52V312a2.33,2.33,0,0,0,.34,1.44,1.37,1.37,0,0,0,1.13.43,1.68,1.68,0,0,0,1-.33Z"/><path class="cls-3" d="M449,314.9a3.09,3.09,0,0,1-1.49.31q-2.63,0-2.63-2.93v-5.92H443.2V305h1.72v-2.44l1.6-.52v3H449v1.37h-2.52V312a2.33,2.33,0,0,0,.34,1.44,1.37,1.37,0,0,0,1.13.43,1.68,1.68,0,0,0,1-.33Z"/><path class="cls-3" d="M460.42,310.39h-7.06a3.74,3.74,0,0,0,.9,2.58,3.1,3.1,0,0,0,2.36.91,4.91,4.91,0,0,0,3.11-1.11v1.5a5.81,5.81,0,0,1-3.49,1,4.23,4.23,0,0,1-3.33-1.36A5.58,5.58,0,0,1,451.7,310a5.47,5.47,0,0,1,1.32-3.8,4.24,4.24,0,0,1,3.29-1.47,3.76,3.76,0,0,1,3,1.27,5.29,5.29,0,0,1,1.07,3.53ZM458.78,309a3.26,3.26,0,0,0-.67-2.16,2.28,2.28,0,0,0-1.83-.77,2.59,2.59,0,0,0-1.92.81,3.68,3.68,0,0,0-1,2.12Z"/><path class="cls-3" d="M472.34,315h-1.6v-5.7q0-3.18-2.32-3.18a2.52,2.52,0,0,0-2,.9,3.35,3.35,0,0,0-.79,2.28V315H464V305h1.6v1.66h0a3.61,3.61,0,0,1,3.28-1.89,3.06,3.06,0,0,1,2.51,1.06,4.72,4.72,0,0,1,.87,3.06Z"/><path class="cls-3" d="M490.05,314.53a5.21,5.21,0,0,1-2.73.69,4.53,4.53,0,0,1-3.45-1.39,5,5,0,0,1-1.31-3.61,5.54,5.54,0,0,1,1.42-4,5,5,0,0,1,3.78-1.5,5.26,5.26,0,0,1,2.32.49v1.64a4.07,4.07,0,0,0-2.38-.78,3.22,3.22,0,0,0-2.51,1.1,4.17,4.17,0,0,0-1,2.89,4,4,0,0,0,.92,2.77,3.18,3.18,0,0,0,2.48,1,4,4,0,0,0,2.46-.87Z"/><path class="cls-3" d="M500.83,315h-1.6v-1.56h0a3.35,3.35,0,0,1-3.08,1.8,3.29,3.29,0,0,1-2.34-.79,2.74,2.74,0,0,1-.84-2.1q0-2.8,3.3-3.26l3-.42q0-2.55-2.06-2.55a4.92,4.92,0,0,0-3.26,1.23V305.7a6.2,6.2,0,0,1,3.4-.94q3.53,0,3.53,3.73Zm-1.6-5.06-2.41.33a3.92,3.92,0,0,0-1.68.55,1.59,1.59,0,0,0-.57,1.4,1.53,1.53,0,0,0,.52,1.2,2,2,0,0,0,1.39.46,2.57,2.57,0,0,0,2-.83,3,3,0,0,0,.78-2.11Z"/><path class="cls-3" d="M509.69,314.9a3.09,3.09,0,0,1-1.49.31q-2.63,0-2.63-2.93v-5.92h-1.72V305h1.72v-2.44l1.6-.52v3h2.52v1.37h-2.52V312a2.33,2.33,0,0,0,.34,1.44,1.37,1.37,0,0,0,1.13.43,1.68,1.68,0,0,0,1-.33Z"/><path class="cls-3" d="M520.19,315h-1.6v-1.56h0a3.35,3.35,0,0,1-3.08,1.8,3.29,3.29,0,0,1-2.34-.79,2.74,2.74,0,0,1-.84-2.1q0-2.8,3.3-3.26l3-.42q0-2.55-2.06-2.55a4.92,4.92,0,0,0-3.26,1.23V305.7a6.2,6.2,0,0,1,3.4-.94q3.53,0,3.53,3.73Zm-1.6-5.06-2.41.33a3.92,3.92,0,0,0-1.68.55,1.59,1.59,0,0,0-.57,1.4,1.53,1.53,0,0,0,.52,1.2,2,2,0,0,0,1.39.46,2.57,2.57,0,0,0,2-.83,3,3,0,0,0,.78-2.11Z"/><path class="cls-3" d="M526,315h-1.6v-14.8H526Z"/><path class="cls-3" d="M534.63,315.23a4.64,4.64,0,0,1-3.54-1.4,5.19,5.19,0,0,1-1.32-3.72,5.41,5.41,0,0,1,1.38-3.94,5,5,0,0,1,3.72-1.42,4.49,4.49,0,0,1,3.49,1.38,5.46,5.46,0,0,1,1.25,3.82,5.37,5.37,0,0,1-1.35,3.83A4.74,4.74,0,0,1,534.63,315.23Zm.12-9.12a3,3,0,0,0-2.44,1,4.31,4.31,0,0,0-.9,2.9,4.08,4.08,0,0,0,.91,2.8,3.09,3.09,0,0,0,2.43,1,2.93,2.93,0,0,0,2.39-1A4.36,4.36,0,0,0,538,310a4.44,4.44,0,0,0-.83-2.89A2.92,2.92,0,0,0,534.75,306.11Z"/><path class="cls-3" d="M551.9,314.19q0,5.51-5.27,5.51a7.08,7.08,0,0,1-3.24-.7v-1.6a6.66,6.66,0,0,0,3.22.94q3.69,0,3.69-3.93v-1.09h0a4,4,0,0,1-6.44.58,5.33,5.33,0,0,1-1.14-3.58,6.23,6.23,0,0,1,1.23-4.05,4.09,4.09,0,0,1,3.35-1.5,3.26,3.26,0,0,1,3,1.62h0V305h1.6Zm-1.6-3.72V309a2.86,2.86,0,0,0-.81-2,2.65,2.65,0,0,0-2-.85,2.78,2.78,0,0,0-2.32,1.08,4.82,4.82,0,0,0-.84,3,4.13,4.13,0,0,0,.81,2.67,2.6,2.6,0,0,0,2.13,1,2.79,2.79,0,0,0,2.19-1A3.57,3.57,0,0,0,550.3,310.47Z"/><path class="cls-3" d="M567.2,315.23a4.64,4.64,0,0,1-3.54-1.4,5.19,5.19,0,0,1-1.32-3.72,5.41,5.41,0,0,1,1.38-3.94,5,5,0,0,1,3.72-1.42,4.49,4.49,0,0,1,3.49,1.38,5.46,5.46,0,0,1,1.25,3.82,5.37,5.37,0,0,1-1.35,3.83A4.74,4.74,0,0,1,567.2,315.23Zm.12-9.12a3,3,0,0,0-2.44,1,4.31,4.31,0,0,0-.9,2.9,4.08,4.08,0,0,0,.91,2.8,3.09,3.09,0,0,0,2.43,1,2.93,2.93,0,0,0,2.39-1,4.36,4.36,0,0,0,.83-2.86,4.44,4.44,0,0,0-.83-2.89A2.92,2.92,0,0,0,567.32,306.11Z"/><path class="cls-3" d="M581.16,306.61a2,2,0,0,0-1.21-.32,2,2,0,0,0-1.71,1,4.47,4.47,0,0,0-.69,2.64V315h-1.6V305h1.6v2.06h0a3.49,3.49,0,0,1,1-1.65,2.38,2.38,0,0,1,1.57-.59,2.62,2.62,0,0,1,1,.14Z"/><path class="cls-3" d="M262.21,339h-1.6v-1.58h0a3.29,3.29,0,0,1-3.09,1.82q-3.57,0-3.57-4.26v-6h1.59v5.72q0,3.16,2.42,3.16a2.45,2.45,0,0,0,1.93-.86,3.31,3.31,0,0,0,.76-2.26V329h1.6Z"/><path class="cls-3" d="M266,338.63v-1.72a4.74,4.74,0,0,0,2.88,1q2.11,0,2.11-1.41a1.22,1.22,0,0,0-.18-.68,1.81,1.81,0,0,0-.49-.49,3.75,3.75,0,0,0-.72-.39l-.89-.36a11.58,11.58,0,0,1-1.17-.53,3.51,3.51,0,0,1-.84-.61,2.25,2.25,0,0,1-.51-.77,2.72,2.72,0,0,1-.17-1,2.39,2.39,0,0,1,.32-1.25,2.86,2.86,0,0,1,.86-.91,4,4,0,0,1,1.23-.55,5.42,5.42,0,0,1,1.42-.19,5.73,5.73,0,0,1,2.32.45v1.62a4.53,4.53,0,0,0-2.54-.72,3,3,0,0,0-.81.1,2,2,0,0,0-.62.29,1.33,1.33,0,0,0-.4.44,1.17,1.17,0,0,0-.14.57,1.37,1.37,0,0,0,.14.65,1.44,1.44,0,0,0,.42.47,3.16,3.16,0,0,0,.66.37l.89.36a12.35,12.35,0,0,1,1.19.52,4.08,4.08,0,0,1,.9.61,2.36,2.36,0,0,1,.57.78,2.51,2.51,0,0,1,.2,1,2.46,2.46,0,0,1-.33,1.29,2.81,2.81,0,0,1-.87.91,4,4,0,0,1-1.26.54,6.22,6.22,0,0,1-1.49.18A5.67,5.67,0,0,1,266,338.63Z"/><path class="cls-3" d="M284.36,334.39H277.3a3.74,3.74,0,0,0,.9,2.58,3.1,3.1,0,0,0,2.36.91,4.91,4.91,0,0,0,3.11-1.11v1.5a5.81,5.81,0,0,1-3.49,1,4.23,4.23,0,0,1-3.33-1.36,5.58,5.58,0,0,1-1.21-3.83,5.47,5.47,0,0,1,1.32-3.8,4.24,4.24,0,0,1,3.29-1.47,3.76,3.76,0,0,1,3,1.27,5.29,5.29,0,0,1,1.07,3.53ZM282.72,333a3.26,3.26,0,0,0-.67-2.16,2.28,2.28,0,0,0-1.83-.77,2.59,2.59,0,0,0-1.92.81,3.68,3.68,0,0,0-1,2.12Z"/><path class="cls-3" d="M301.82,339h-1.6v-1.56h0a3.35,3.35,0,0,1-3.08,1.8,3.29,3.29,0,0,1-2.34-.79,2.74,2.74,0,0,1-.84-2.1q0-2.8,3.3-3.26l3-.42q0-2.55-2.06-2.55a4.92,4.92,0,0,0-3.26,1.23V329.7a6.2,6.2,0,0,1,3.4-.94q3.53,0,3.53,3.73Zm-1.6-5.06-2.41.33a3.92,3.92,0,0,0-1.68.55,1.59,1.59,0,0,0-.57,1.4,1.53,1.53,0,0,0,.52,1.2,2,2,0,0,0,1.39.46,2.57,2.57,0,0,0,2-.83,3,3,0,0,0,.78-2.11Z"/><path class="cls-3" d="M314.36,337.55h0v6h-1.6V329h1.6v1.76h0a3.79,3.79,0,0,1,3.46-2,3.66,3.66,0,0,1,3,1.34,5.56,5.56,0,0,1,1.08,3.6,6.2,6.2,0,0,1-1.22,4,4.06,4.06,0,0,1-3.34,1.51A3.35,3.35,0,0,1,314.36,337.55Zm0-4v1.4a3,3,0,0,0,.81,2.1,2.87,2.87,0,0,0,4.33-.25,5.11,5.11,0,0,0,.83-3.1,4,4,0,0,0-.77-2.62,2.55,2.55,0,0,0-2.09-.95,2.84,2.84,0,0,0-2.25,1A3.57,3.57,0,0,0,314.32,333.51Z"/><path class="cls-3" d="M333.71,334.39h-7.06a3.74,3.74,0,0,0,.9,2.58,3.1,3.1,0,0,0,2.36.91,4.91,4.91,0,0,0,3.11-1.11v1.5a5.81,5.81,0,0,1-3.49,1,4.23,4.23,0,0,1-3.33-1.36A5.58,5.58,0,0,1,325,334a5.47,5.47,0,0,1,1.32-3.8,4.24,4.24,0,0,1,3.29-1.47,3.76,3.76,0,0,1,3,1.27,5.29,5.29,0,0,1,1.07,3.53ZM332.07,333a3.26,3.26,0,0,0-.67-2.16,2.28,2.28,0,0,0-1.83-.77,2.59,2.59,0,0,0-1.92.81,3.68,3.68,0,0,0-1,2.12Z"/><path class="cls-3" d="M345.64,339H344v-5.7q0-3.18-2.32-3.18a2.52,2.52,0,0,0-2,.9,3.35,3.35,0,0,0-.79,2.28V339h-1.6V329h1.6v1.66h0a3.61,3.61,0,0,1,3.28-1.89,3.06,3.06,0,0,1,2.51,1.06,4.72,4.72,0,0,1,.87,3.06Z"/><path class="cls-3" d="M356.67,338.53a5.21,5.21,0,0,1-2.73.69,4.53,4.53,0,0,1-3.45-1.39,5,5,0,0,1-1.31-3.61,5.54,5.54,0,0,1,1.42-4,5,5,0,0,1,3.78-1.5,5.26,5.26,0,0,1,2.32.49v1.64a4.07,4.07,0,0,0-2.38-.78,3.22,3.22,0,0,0-2.51,1.1,4.17,4.17,0,0,0-1,2.89,4,4,0,0,0,.92,2.77,3.18,3.18,0,0,0,2.48,1,4,4,0,0,0,2.46-.87Z"/><path class="cls-3" d="M361.11,326.45a1,1,0,0,1-.73-.29,1,1,0,0,1-.3-.74,1,1,0,0,1,1-1,1,1,0,0,1,.75.3,1,1,0,0,1,0,1.48A1,1,0,0,1,361.11,326.45Zm.78,12.54h-1.6V329h1.6Z"/><path class="cls-3" d="M367.94,339h-1.6v-14.8h1.6Z"/><path class="cls-3" d="M383.7,338.9a3.09,3.09,0,0,1-1.49.31q-2.63,0-2.63-2.93v-5.92h-1.72V329h1.72v-2.44l1.6-.52v3h2.52v1.37h-2.52V336a2.33,2.33,0,0,0,.34,1.44,1.37,1.37,0,0,0,1.13.43,1.68,1.68,0,0,0,1-.33Z"/><path class="cls-3" d="M391.21,339.23a4.64,4.64,0,0,1-3.54-1.4,5.19,5.19,0,0,1-1.32-3.72,5.41,5.41,0,0,1,1.38-3.94,5,5,0,0,1,3.72-1.42,4.49,4.49,0,0,1,3.49,1.38,5.46,5.46,0,0,1,1.25,3.82,5.37,5.37,0,0,1-1.35,3.83A4.74,4.74,0,0,1,391.21,339.23Zm.12-9.12a3,3,0,0,0-2.44,1,4.31,4.31,0,0,0-.9,2.9,4.08,4.08,0,0,0,.91,2.8,3.09,3.09,0,0,0,2.43,1,2.93,2.93,0,0,0,2.39-1,4.36,4.36,0,0,0,.83-2.86,4.44,4.44,0,0,0-.83-2.89A2.92,2.92,0,0,0,391.33,330.11Z"/><path class="cls-3" d="M415.17,339h-1.6v-1.7h0a4,4,0,0,1-6.45.59,5.51,5.51,0,0,1-1.13-3.66,6,6,0,0,1,1.25-4,4.12,4.12,0,0,1,3.33-1.49,3.21,3.21,0,0,1,3,1.62h0v-6.19h1.6Zm-1.6-4.52V333a2.86,2.86,0,0,0-.8-2.05,2.69,2.69,0,0,0-2-.84,2.77,2.77,0,0,0-2.3,1.07,4.71,4.71,0,0,0-.84,3,4.23,4.23,0,0,0,.81,2.73,2.63,2.63,0,0,0,2.16,1,2.74,2.74,0,0,0,2.17-1A3.6,3.6,0,0,0,413.57,334.47Z"/><path class="cls-3" d="M423.79,339.23a4.64,4.64,0,0,1-3.54-1.4,5.19,5.19,0,0,1-1.32-3.72,5.41,5.41,0,0,1,1.38-3.94,5,5,0,0,1,3.72-1.42,4.49,4.49,0,0,1,3.49,1.38,5.46,5.46,0,0,1,1.25,3.82,5.37,5.37,0,0,1-1.35,3.83A4.74,4.74,0,0,1,423.79,339.23Zm.12-9.12a3,3,0,0,0-2.44,1,4.31,4.31,0,0,0-.9,2.9,4.08,4.08,0,0,0,.91,2.8,3.09,3.09,0,0,0,2.43,1,2.93,2.93,0,0,0,2.39-1,4.36,4.36,0,0,0,.83-2.86,4.44,4.44,0,0,0-.83-2.89A2.92,2.92,0,0,0,423.91,330.11Z"/><path class="cls-3" d="M439.34,338.53a5.21,5.21,0,0,1-2.73.69,4.53,4.53,0,0,1-3.45-1.39,5,5,0,0,1-1.31-3.61,5.54,5.54,0,0,1,1.42-4,5,5,0,0,1,3.78-1.5,5.26,5.26,0,0,1,2.32.49v1.64a4.07,4.07,0,0,0-2.38-.78,3.22,3.22,0,0,0-2.51,1.1,4.17,4.17,0,0,0-1,2.89,4,4,0,0,0,.92,2.77,3.18,3.18,0,0,0,2.48,1,4,4,0,0,0,2.46-.87Z"/><path class="cls-3" d="M451.05,339h-1.6v-1.58h0a3.29,3.29,0,0,1-3.09,1.82q-3.57,0-3.57-4.26v-6h1.59v5.72q0,3.16,2.42,3.16a2.45,2.45,0,0,0,1.93-.86,3.31,3.31,0,0,0,.76-2.26V329h1.6Z"/><path class="cls-3" d="M469.68,339h-1.6v-5.74a4.33,4.33,0,0,0-.51-2.4,1.94,1.94,0,0,0-1.72-.74,2.13,2.13,0,0,0-1.74.94,3.59,3.59,0,0,0-.72,2.25V339h-1.6v-5.94q0-2.95-2.28-2.95a2.11,2.11,0,0,0-1.74.88,3.65,3.65,0,0,0-.68,2.3V339h-1.6V329h1.6v1.58h0a3.4,3.4,0,0,1,3.11-1.82,2.89,2.89,0,0,1,2.83,2.07,3.57,3.57,0,0,1,3.32-2.07q3.3,0,3.3,4.07Z"/><path class="cls-3" d="M481.95,334.39h-7.06a3.74,3.74,0,0,0,.9,2.58,3.1,3.1,0,0,0,2.36.91,4.91,4.91,0,0,0,3.11-1.11v1.5a5.81,5.81,0,0,1-3.49,1,4.23,4.23,0,0,1-3.33-1.36,5.58,5.58,0,0,1-1.21-3.83,5.47,5.47,0,0,1,1.32-3.8,4.24,4.24,0,0,1,3.29-1.47,3.76,3.76,0,0,1,3,1.27,5.29,5.29,0,0,1,1.07,3.53ZM480.31,333a3.26,3.26,0,0,0-.67-2.16,2.28,2.28,0,0,0-1.83-.77,2.59,2.59,0,0,0-1.92.81,3.68,3.68,0,0,0-1,2.12Z"/><path class="cls-3" d="M493.87,339h-1.6v-5.7q0-3.18-2.32-3.18a2.52,2.52,0,0,0-2,.9,3.35,3.35,0,0,0-.79,2.28V339h-1.6V329h1.6v1.66h0a3.61,3.61,0,0,1,3.28-1.89,3.06,3.06,0,0,1,2.51,1.06,4.72,4.72,0,0,1,.87,3.06Z"/><path class="cls-3" d="M502.73,338.9a3.09,3.09,0,0,1-1.49.31q-2.63,0-2.63-2.93v-5.92h-1.72V329h1.72v-2.44l1.6-.52v3h2.52v1.37h-2.52V336a2.33,2.33,0,0,0,.34,1.44,1.37,1.37,0,0,0,1.13.43,1.68,1.68,0,0,0,1-.33Z"/><path class="cls-3" d="M525.34,329l-3,10h-1.66l-2.06-7.16a4.66,4.66,0,0,1-.16-.93h0a4.38,4.38,0,0,1-.21.91L516,339h-1.6l-3-10H513l2.07,7.52a4.53,4.53,0,0,1,.14.9h.08a4.2,4.2,0,0,1,.18-.92l2.3-7.5h1.46l2.07,7.54a5.42,5.42,0,0,1,.15.9h.08a4.16,4.16,0,0,1,.17-.9l2-7.54Z"/><path class="cls-3" d="M536.7,339h-1.6v-5.76q0-3.12-2.32-3.12a2.53,2.53,0,0,0-2,.9,3.37,3.37,0,0,0-.8,2.32V339h-1.6v-14.8H530v6.46h0a3.64,3.64,0,0,1,3.28-1.89q3.38,0,3.38,4.07Z"/><path class="cls-3" d="M545.1,339.23a4.64,4.64,0,0,1-3.54-1.4,5.19,5.19,0,0,1-1.32-3.72,5.41,5.41,0,0,1,1.38-3.94,5,5,0,0,1,3.72-1.42,4.49,4.49,0,0,1,3.49,1.38,5.46,5.46,0,0,1,1.25,3.82,5.37,5.37,0,0,1-1.35,3.83A4.74,4.74,0,0,1,545.1,339.23Zm.12-9.12a3,3,0,0,0-2.44,1,4.31,4.31,0,0,0-.9,2.9,4.08,4.08,0,0,0,.91,2.8,3.09,3.09,0,0,0,2.43,1,2.93,2.93,0,0,0,2.39-1,4.36,4.36,0,0,0,.83-2.86,4.44,4.44,0,0,0-.83-2.89A2.92,2.92,0,0,0,545.21,330.11Z"/><path class="cls-3" d="M260.94,362.53a5.21,5.21,0,0,1-2.73.69,4.53,4.53,0,0,1-3.45-1.39,5,5,0,0,1-1.31-3.61,5.54,5.54,0,0,1,1.42-4,5,5,0,0,1,3.78-1.5,5.26,5.26,0,0,1,2.32.49v1.64a4.07,4.07,0,0,0-2.38-.78,3.22,3.22,0,0,0-2.51,1.1,4.17,4.17,0,0,0-1,2.89,4,4,0,0,0,.92,2.77,3.18,3.18,0,0,0,2.48,1,4,4,0,0,0,2.46-.87Z"/><path class="cls-3" d="M272.86,363h-1.6v-5.76q0-3.12-2.32-3.12a2.53,2.53,0,0,0-2,.9,3.37,3.37,0,0,0-.8,2.32V363h-1.6v-14.8h1.6v6.46h0a3.64,3.64,0,0,1,3.28-1.89q3.38,0,3.38,4.07Z"/><path class="cls-3" d="M285.12,358.39h-7.06A3.74,3.74,0,0,0,279,361a3.1,3.1,0,0,0,2.36.91,4.91,4.91,0,0,0,3.11-1.11v1.5a5.81,5.81,0,0,1-3.49,1,4.23,4.23,0,0,1-3.33-1.36,5.58,5.58,0,0,1-1.21-3.83,5.47,5.47,0,0,1,1.32-3.8,4.24,4.24,0,0,1,3.29-1.47,3.76,3.76,0,0,1,3,1.27,5.29,5.29,0,0,1,1.07,3.53ZM283.47,357a3.26,3.26,0,0,0-.67-2.16,2.28,2.28,0,0,0-1.83-.77,2.59,2.59,0,0,0-1.92.81,3.68,3.68,0,0,0-1,2.12Z"/><path class="cls-3" d="M295.55,362.53a5.21,5.21,0,0,1-2.73.69,4.53,4.53,0,0,1-3.45-1.39,5,5,0,0,1-1.31-3.61,5.54,5.54,0,0,1,1.42-4,5,5,0,0,1,3.78-1.5,5.26,5.26,0,0,1,2.32.49v1.64a4.07,4.07,0,0,0-2.38-.78,3.22,3.22,0,0,0-2.51,1.1,4.17,4.17,0,0,0-1,2.89,4,4,0,0,0,.92,2.77,3.18,3.18,0,0,0,2.48,1,4,4,0,0,0,2.46-.87Z"/><path class="cls-3" d="M307.48,363h-2.25l-4.41-4.8h0V363h-1.6v-14.8h1.6v9.38h0L305,353h2.1l-4.64,4.82Z"/><path class="cls-3" d="M318.35,358.39h-7.06a3.74,3.74,0,0,0,.9,2.58,3.1,3.1,0,0,0,2.36.91,4.91,4.91,0,0,0,3.11-1.11v1.5a5.81,5.81,0,0,1-3.49,1,4.23,4.23,0,0,1-3.33-1.36,5.58,5.58,0,0,1-1.21-3.83,5.47,5.47,0,0,1,1.32-3.8,4.24,4.24,0,0,1,3.29-1.47,3.76,3.76,0,0,1,3,1.27,5.29,5.29,0,0,1,1.07,3.53ZM316.71,357a3.26,3.26,0,0,0-.67-2.16,2.28,2.28,0,0,0-1.83-.77,2.59,2.59,0,0,0-1.92.81,3.68,3.68,0,0,0-1,2.12Z"/><path class="cls-3" d="M330.51,363h-1.6v-1.7h0a4,4,0,0,1-6.45.59,5.51,5.51,0,0,1-1.13-3.66,6,6,0,0,1,1.25-4,4.12,4.12,0,0,1,3.33-1.49,3.21,3.21,0,0,1,3,1.62h0v-6.19h1.6Zm-1.6-4.52V357a2.86,2.86,0,0,0-.8-2.05,2.69,2.69,0,0,0-2-.84,2.77,2.77,0,0,0-2.3,1.07,4.71,4.71,0,0,0-.84,3,4.23,4.23,0,0,0,.81,2.73,2.63,2.63,0,0,0,2.16,1,2.74,2.74,0,0,0,2.17-1A3.6,3.6,0,0,0,328.91,358.47Z"/><path class="cls-3" d="M345.81,363.23a4.64,4.64,0,0,1-3.54-1.4,5.19,5.19,0,0,1-1.32-3.72,5.41,5.41,0,0,1,1.38-3.94,5,5,0,0,1,3.72-1.42,4.49,4.49,0,0,1,3.49,1.38,5.46,5.46,0,0,1,1.25,3.82,5.37,5.37,0,0,1-1.35,3.83A4.74,4.74,0,0,1,345.81,363.23Zm.12-9.12a3,3,0,0,0-2.44,1,4.31,4.31,0,0,0-.9,2.9,4.08,4.08,0,0,0,.91,2.8,3.09,3.09,0,0,0,2.43,1,2.93,2.93,0,0,0,2.39-1,4.36,4.36,0,0,0,.83-2.86,4.44,4.44,0,0,0-.83-2.89A2.92,2.92,0,0,0,345.93,354.11Z"/><path class="cls-3" d="M362.64,363H361v-1.58h0a3.29,3.29,0,0,1-3.09,1.82q-3.57,0-3.57-4.26v-6h1.59v5.72q0,3.16,2.42,3.16a2.45,2.45,0,0,0,1.93-.86,3.31,3.31,0,0,0,.76-2.26V353h1.6Z"/><path class="cls-3" d="M371.71,362.9a3.09,3.09,0,0,1-1.49.31q-2.63,0-2.63-2.93v-5.92h-1.72V353h1.72v-2.44l1.6-.52v3h2.52v1.37h-2.52V360a2.33,2.33,0,0,0,.34,1.44,1.37,1.37,0,0,0,1.13.43,1.68,1.68,0,0,0,1-.33Z"/><path class="cls-3" d="M394.32,353l-3,10h-1.66l-2.06-7.16a4.66,4.66,0,0,1-.16-.93h0a4.38,4.38,0,0,1-.21.91L385,363h-1.6l-3-10H382l2.07,7.52a4.53,4.53,0,0,1,.14.9h.08a4.2,4.2,0,0,1,.18-.92l2.3-7.5h1.46l2.07,7.54a5.42,5.42,0,0,1,.15.9h.08a4.16,4.16,0,0,1,.17-.9l2-7.54Z"/><path class="cls-3" d="M405.68,363h-1.6v-5.76q0-3.12-2.32-3.12a2.53,2.53,0,0,0-2,.9,3.37,3.37,0,0,0-.8,2.32V363h-1.6v-14.8H399v6.46h0a3.64,3.64,0,0,1,3.28-1.89q3.38,0,3.38,4.07Z"/><path class="cls-3" d="M410.72,350.45a1,1,0,0,1-.73-.29,1,1,0,0,1-.3-.74,1,1,0,0,1,1-1,1,1,0,0,1,.75.3,1,1,0,0,1,0,1.48A1,1,0,0,1,410.72,350.45ZM411.5,363h-1.6V353h1.6Z"/><path class="cls-3" d="M422.76,362.53a5.21,5.21,0,0,1-2.73.69,4.53,4.53,0,0,1-3.45-1.39,5,5,0,0,1-1.31-3.61,5.54,5.54,0,0,1,1.42-4,5,5,0,0,1,3.78-1.5,5.26,5.26,0,0,1,2.32.49v1.64a4.07,4.07,0,0,0-2.38-.78,3.22,3.22,0,0,0-2.51,1.1,4.17,4.17,0,0,0-1,2.89,4,4,0,0,0,.92,2.77,3.18,3.18,0,0,0,2.48,1,4,4,0,0,0,2.46-.87Z"/><path class="cls-3" d="M434.68,363h-1.6v-5.76q0-3.12-2.32-3.12a2.53,2.53,0,0,0-2,.9,3.37,3.37,0,0,0-.8,2.32V363h-1.6v-14.8H428v6.46h0a3.64,3.64,0,0,1,3.28-1.89q3.38,0,3.38,4.07Z"/><path class="cls-3" d="M447.22,361.55h0V363h-1.6v-14.8h1.6v6.56h0a3.79,3.79,0,0,1,3.46-2,3.66,3.66,0,0,1,3,1.34,5.54,5.54,0,0,1,1.09,3.6,6.2,6.2,0,0,1-1.22,4,4.06,4.06,0,0,1-3.34,1.51A3.29,3.29,0,0,1,447.22,361.55Zm0-4v1.4A3,3,0,0,0,448,361a2.87,2.87,0,0,0,4.33-.25,5.11,5.11,0,0,0,.83-3.1,4,4,0,0,0-.77-2.62,2.55,2.55,0,0,0-2.09-.95,2.84,2.84,0,0,0-2.25,1A3.57,3.57,0,0,0,447.18,357.51Z"/><path class="cls-3" d="M462.71,363.23a4.64,4.64,0,0,1-3.54-1.4,5.19,5.19,0,0,1-1.32-3.72,5.41,5.41,0,0,1,1.38-3.94,5,5,0,0,1,3.72-1.42,4.49,4.49,0,0,1,3.49,1.38,5.46,5.46,0,0,1,1.25,3.82,5.37,5.37,0,0,1-1.35,3.83A4.74,4.74,0,0,1,462.71,363.23Zm.12-9.12a3,3,0,0,0-2.44,1,4.31,4.31,0,0,0-.9,2.9,4.08,4.08,0,0,0,.91,2.8,3.09,3.09,0,0,0,2.43,1,2.93,2.93,0,0,0,2.39-1,4.36,4.36,0,0,0,.83-2.86,4.44,4.44,0,0,0-.83-2.89A2.92,2.92,0,0,0,462.83,354.11Z"/><path class="cls-3" d="M475.63,363.23a4.64,4.64,0,0,1-3.54-1.4,5.19,5.19,0,0,1-1.32-3.72,5.41,5.41,0,0,1,1.38-3.94,5,5,0,0,1,3.72-1.42,4.49,4.49,0,0,1,3.49,1.38,5.46,5.46,0,0,1,1.25,3.82,5.37,5.37,0,0,1-1.35,3.83A4.74,4.74,0,0,1,475.63,363.23Zm.12-9.12a3,3,0,0,0-2.44,1,4.31,4.31,0,0,0-.9,2.9,4.08,4.08,0,0,0,.91,2.8,3.09,3.09,0,0,0,2.43,1,2.93,2.93,0,0,0,2.39-1A4.36,4.36,0,0,0,479,358a4.44,4.44,0,0,0-.83-2.89A2.92,2.92,0,0,0,475.75,354.11Z"/><path class="cls-3" d="M492.67,363h-2.25l-4.41-4.8h0V363h-1.6v-14.8H486v9.38h0l4.2-4.58h2.1l-4.64,4.82Z"/><path class="cls-3" d="M496.07,363.21a1,1,0,0,1-.77-.32,1.06,1.06,0,0,1-.32-.77,1.08,1.08,0,0,1,.32-.78,1,1,0,0,1,.77-.33,1.06,1.06,0,0,1,.78.33,1.07,1.07,0,0,1,.32.78,1.05,1.05,0,0,1-.32.77A1.06,1.06,0,0,1,496.07,363.21Z"/><path class="cls-3" d="M251.43,113.42a12.6,12.6,0,0,0,2,1.21,16,16,0,0,0,4.5,1.44,13.68,13.68,0,0,0,2.19.19q4.06,0,6.08-1.57a5.37,5.37,0,0,0,2-4.51,6,6,0,0,0-.47-2.48,6.12,6.12,0,0,0-1.47-2,15.27,15.27,0,0,0-2.52-1.83q-1.52-.91-3.59-2.05-2.29-1.25-3.92-2.35a14.36,14.36,0,0,1-2.67-2.27,7.63,7.63,0,0,1-1.52-2.5,9,9,0,0,1-.49-3.06,8.09,8.09,0,0,1,.92-3.88A9.05,9.05,0,0,1,255,84.85,11.51,11.51,0,0,1,258.64,83a15.21,15.21,0,0,1,4.5-.65,18.56,18.56,0,0,1,7,1.17v3.66a14.64,14.64,0,0,0-7.42-1.82,11.3,11.3,0,0,0-3,.39,7.82,7.82,0,0,0-2.47,1.13,5.48,5.48,0,0,0-1.67,1.86,5.25,5.25,0,0,0-.61,2.58,6.35,6.35,0,0,0,.41,2.4,5.72,5.72,0,0,0,1.32,1.9,12.59,12.59,0,0,0,2.39,1.78q1.48.88,3.62,2a43.22,43.22,0,0,1,3.91,2.33,15.18,15.18,0,0,1,2.78,2.37,8.72,8.72,0,0,1,1.66,2.61,8.29,8.29,0,0,1,.55,3.08,9.26,9.26,0,0,1-.87,4.12,8,8,0,0,1-2.44,3,11.12,11.12,0,0,1-3.74,1.77,17.73,17.73,0,0,1-6.77.46q-1.17-.14-2.37-.4a22.18,22.18,0,0,1-2.28-.62,8.14,8.14,0,0,1-1.76-.78Z"/><path class="cls-3" d="M280.1,86.7a2.22,2.22,0,0,1-1.59-.65,2.18,2.18,0,0,1-.67-1.64,2.11,2.11,0,0,1,.67-1.61,2.24,2.24,0,0,1,1.59-.64,2.5,2.5,0,0,1,.9.16,2.17,2.17,0,0,1,.73.46,2.27,2.27,0,0,1,.5.71,2.16,2.16,0,0,1,.19.91,2.34,2.34,0,0,1-.17.9,2.14,2.14,0,0,1-.5.73,2.4,2.4,0,0,1-.73.49A2.31,2.31,0,0,1,280.1,86.7Zm-1.57,31.95V93.15h3.19v25.5Z"/><path class="cls-3" d="M322,118.65v-15a18.31,18.31,0,0,0-.35-3.87,6.77,6.77,0,0,0-1.08-2.58,4.21,4.21,0,0,0-1.87-1.44,7.34,7.34,0,0,0-2.7-.45,5.56,5.56,0,0,0-2.64.66,7,7,0,0,0-2.18,1.82,8.84,8.84,0,0,0-1.47,2.73,10.41,10.41,0,0,0-.54,3.39v14.74H306V103.34q0-8-6.15-8a5.63,5.63,0,0,0-2.64.64A6.58,6.58,0,0,0,295,97.73a8.53,8.53,0,0,0-1.42,2.75,11.67,11.67,0,0,0-.51,3.55v14.62h-3.19V93.15h3.19v4.13h.1a8.54,8.54,0,0,1,7.84-4.73,7.75,7.75,0,0,1,2.54.41,7.36,7.36,0,0,1,2.14,1.15,7.48,7.48,0,0,1,1.63,1.76,7.91,7.91,0,0,1,1,2.24,10.25,10.25,0,0,1,3.5-4.13,8.65,8.65,0,0,1,4.87-1.42q8.39,0,8.39,10.36v15.74Z"/><path class="cls-3" d="M336,114.54v15.84h-3.19V93.15H336V98h.1a10.13,10.13,0,0,1,3.8-4.07,11.07,11.07,0,0,1,9.74-.52,9.06,9.06,0,0,1,3.26,2.5,11.33,11.33,0,0,1,2,3.93,17.72,17.72,0,0,1,.71,5.2,19.63,19.63,0,0,1-.8,5.77,13.31,13.31,0,0,1-2.29,4.47,10.41,10.41,0,0,1-3.62,2.9,10.85,10.85,0,0,1-4.79,1,8.67,8.67,0,0,1-8-4.71Zm0-6.5a9.08,9.08,0,0,0,.59,3.27,8.47,8.47,0,0,0,1.63,2.69,7.58,7.58,0,0,0,2.53,1.83,7.83,7.83,0,0,0,3.27.67,7.34,7.34,0,0,0,3.46-.81,7.55,7.55,0,0,0,2.63-2.3,11.16,11.16,0,0,0,1.67-3.61,17.77,17.77,0,0,0,.58-4.73,13.93,13.93,0,0,0-.55-4,9.16,9.16,0,0,0-1.56-3.08A6.74,6.74,0,0,0,347.84,96a7.44,7.44,0,0,0-3.2-.67,8.47,8.47,0,0,0-3.59.73,8.09,8.09,0,0,0-2.71,2,8.88,8.88,0,0,0-1.72,3,10.88,10.88,0,0,0-.6,3.62Z"/><path class="cls-3" d="M362.1,118.65V80.9h3.19v37.75Z"/><path class="cls-3" d="M375,106.47a14.27,14.27,0,0,0,.62,4.21,8.91,8.91,0,0,0,1.72,3.16,7.39,7.39,0,0,0,2.73,2,9.16,9.16,0,0,0,3.62.68,13,13,0,0,0,8.14-3v3.14a14.85,14.85,0,0,1-8.87,2.61,11.71,11.71,0,0,1-4.66-.9,9.65,9.65,0,0,1-3.56-2.6,11.88,11.88,0,0,1-2.27-4.2,18.59,18.59,0,0,1-.8-5.68,15.65,15.65,0,0,1,.87-5.3A13.07,13.07,0,0,1,375,96.35a11.13,11.13,0,0,1,3.66-2.79,10.62,10.62,0,0,1,4.63-1,10.44,10.44,0,0,1,4.36.86,8.56,8.56,0,0,1,3.18,2.45,11.11,11.11,0,0,1,2,3.88,18.2,18.2,0,0,1,.67,5.13v1.59Zm15.14-2.79a9.72,9.72,0,0,0-1.89-6.18,6.21,6.21,0,0,0-5.06-2.19,7.76,7.76,0,0,0-3,.57,7.14,7.14,0,0,0-2.43,1.66,8.93,8.93,0,0,0-1.73,2.64,13.25,13.25,0,0,0-1,3.5Z"/><path class="cls-3" d="M401.17,119.15a2.38,2.38,0,0,1-2.39-2.39,2.36,2.36,0,0,1,.68-1.72,2.3,2.3,0,0,1,1.71-.7,2.34,2.34,0,0,1,.93.19,2.5,2.5,0,0,1,.76.5,2.4,2.4,0,0,1,.52.76,2.36,2.36,0,0,1,.2,1,2.21,2.21,0,0,1-.2.93,2.59,2.59,0,0,1-.52.76,2.42,2.42,0,0,1-.76.51A2.35,2.35,0,0,1,401.17,119.15Z"/><path class="cls-3" d="M428.69,118.65h-3.31V82.94h3.31Z"/><path class="cls-3" d="M454.66,118.65V104q0-8.64-6.28-8.64a7.24,7.24,0,0,0-3.09.66,7.41,7.41,0,0,0-2.45,1.83,8.58,8.58,0,0,0-1.62,2.78,10.06,10.06,0,0,0-.59,3.47v14.59h-3.19V93.15h3.19v4.43h.1a9.21,9.21,0,0,1,8.54-5,7.71,7.71,0,0,1,6.38,2.71q2.19,2.71,2.19,7.84v15.54Z"/><path class="cls-3" d="M476.48,118.35a7.91,7.91,0,0,1-3.59.82q-6.18,0-6.18-7.12V95.94h-4.48V93.15h4.48V86.73l3.19-1v7.47h6.57v2.79H469.9v15.61a6.39,6.39,0,0,0,.85,3.74,3.33,3.33,0,0,0,2.86,1.15,5.15,5.15,0,0,0,2.86-.9Z"/><path class="cls-3" d="M498.41,118.65v-4.33h-.1a8.52,8.52,0,0,1-8,4.93q-9.09,0-9.09-11.11v-15h3.19v14.39q0,4.58,1.63,6.77a5.82,5.82,0,0,0,5,2.19,7,7,0,0,0,3-.63,6.86,6.86,0,0,0,2.34-1.79,8.39,8.39,0,0,0,1.53-2.78,11.15,11.15,0,0,0,.55-3.59V93.15h3.19v25.5Z"/><path class="cls-3" d="M511.39,86.7a2.22,2.22,0,0,1-1.59-.65,2.18,2.18,0,0,1-.67-1.64,2.11,2.11,0,0,1,.67-1.61,2.24,2.24,0,0,1,1.59-.64,2.5,2.5,0,0,1,.9.16,2.17,2.17,0,0,1,.73.46,2.27,2.27,0,0,1,.5.71,2.16,2.16,0,0,1,.19.91,2.34,2.34,0,0,1-.17.9,2.14,2.14,0,0,1-.5.73,2.4,2.4,0,0,1-.73.49A2.31,2.31,0,0,1,511.39,86.7Zm-1.57,31.95V93.15H513v25.5Z"/><path class="cls-3" d="M532.18,118.35a7.91,7.91,0,0,1-3.59.82q-6.18,0-6.18-7.12V95.94h-4.48V93.15h4.48V86.73l3.19-1v7.47h6.57v2.79h-6.57v15.61a6.39,6.39,0,0,0,.85,3.74,3.33,3.33,0,0,0,2.86,1.15,5.15,5.15,0,0,0,2.86-.9Z"/><path class="cls-3" d="M539,86.7a2.22,2.22,0,0,1-1.59-.65,2.18,2.18,0,0,1-.67-1.64,2.11,2.11,0,0,1,.67-1.61,2.24,2.24,0,0,1,1.59-.64,2.5,2.5,0,0,1,.9.16,2.17,2.17,0,0,1,.73.46,2.27,2.27,0,0,1,.5.71,2.16,2.16,0,0,1,.19.91,2.34,2.34,0,0,1-.17.9,2.14,2.14,0,0,1-.5.73,2.4,2.4,0,0,1-.73.49A2.31,2.31,0,0,1,539,86.7Zm-1.57,31.95V93.15h3.19v25.5Z"/><path class="cls-3" d="M557.93,118.65h-3l-9.76-25.5h3.51l7,19.42a14.78,14.78,0,0,1,.82,3.11h.1a15.49,15.49,0,0,1,.77-3l7.3-19.52h3.41Z"/><path class="cls-3" d="M573.82,106.47a14.27,14.27,0,0,0,.62,4.21,8.91,8.91,0,0,0,1.72,3.16,7.39,7.39,0,0,0,2.73,2,9.16,9.16,0,0,0,3.62.68,13,13,0,0,0,8.14-3v3.14a14.85,14.85,0,0,1-8.87,2.61,11.71,11.71,0,0,1-4.66-.9,9.65,9.65,0,0,1-3.56-2.6,11.88,11.88,0,0,1-2.27-4.2,18.59,18.59,0,0,1-.8-5.68,15.65,15.65,0,0,1,.87-5.3,13.07,13.07,0,0,1,2.42-4.22,11.13,11.13,0,0,1,3.66-2.79,10.62,10.62,0,0,1,4.63-1,10.44,10.44,0,0,1,4.36.86,8.56,8.56,0,0,1,3.18,2.45,11.11,11.11,0,0,1,2,3.88,18.2,18.2,0,0,1,.67,5.13v1.59ZM589,103.68a9.72,9.72,0,0,0-1.89-6.18A6.21,6.21,0,0,0,582,95.32a7.76,7.76,0,0,0-3,.57,7.14,7.14,0,0,0-2.43,1.66,8.93,8.93,0,0,0-1.73,2.64,13.25,13.25,0,0,0-1,3.5Z"/><path class="cls-3" d="M600,119.15a2.38,2.38,0,0,1-2.39-2.39,2.36,2.36,0,0,1,.68-1.72,2.3,2.3,0,0,1,1.71-.7,2.34,2.34,0,0,1,.93.19,2.5,2.5,0,0,1,.76.5,2.4,2.4,0,0,1,.52.76,2.36,2.36,0,0,1,.2,1,2.21,2.21,0,0,1-.2.93,2.59,2.59,0,0,1-.52.76,2.42,2.42,0,0,1-.76.51A2.35,2.35,0,0,1,600,119.15Z"/><rect class="cls-4" x="718.92" y="14.68" width="183.91" height="369.64" rx="12" ry="12"/><rect class="cls-3" x="727.33" y="24.29" width="166.88" height="328.76"/><rect class="cls-5" x="795.53" y="357" width="30.47" height="23.37" rx="10.42" ry="10.42"/><g class="cls-6"><rect class="cls-3" x="732.53" y="31.64" width="60.87" height="20.29"/><g class="cls-6"><polygon class="cls-7" points="767.04 34.26 756.61 49.62 777.47 49.62 767.04 34.26"/></g><polygon class="cls-3" points="755.8 51.93 778.3 51.93 767.05 35.32 755.8 51.93"/><g class="cls-6"><path class="cls-8" d="M767,35.17a46.13,46.13,0,0,1-9.37,15.14"/><path class="cls-8" d="M776.4,50.31A46.13,46.13,0,0,1,767,35.17"/><path class="cls-8" d="M767,35.33s.26,8.87,7.07,15"/><path class="cls-8" d="M767,35.33s-.26,8.87-7.07,15"/><text class="cls-9" transform="translate(735.91 48.61)">SC</text><text class="cls-9" transform="translate(776.58 48.61)">N</text></g></g><rect class="cls-10" x="735.76" y="62.71" width="70.5" height="42.11" rx="12" ry="12"/><rect class="cls-10" x="815.39" y="62.71" width="70.5" height="42.11" rx="12" ry="12"/><path class="cls-2" d="M752.83,87.95h-.92l-.75-2h-3l-.71,2h-.93l2.73-7.11h.86Zm-1.95-2.74-1.12-3a2.9,2.9,0,0,1-.11-.48h0a2.67,2.67,0,0,1-.11.48l-1.11,3Z"/><path class="cls-2" d="M753.69,87.95V80.83h2q3.76,0,3.76,3.47a3.5,3.5,0,0,1-1,2.65,3.87,3.87,0,0,1-2.79,1Zm.83-6.36v5.6h1.06a3,3,0,0,0,2.18-.75,2.81,2.81,0,0,0,.78-2.12q0-2.73-2.91-2.73Z"/><path class="cls-2" d="M760.63,87.95V80.83h2q3.76,0,3.76,3.47a3.5,3.5,0,0,1-1,2.65,3.87,3.87,0,0,1-2.79,1Zm.83-6.36v5.6h1.06a3,3,0,0,0,2.18-.75,2.81,2.81,0,0,0,.78-2.12q0-2.73-2.91-2.73Z"/><path class="cls-2" d="M770.17,87.95V80.83h2a2.21,2.21,0,0,1,1.46.45,1.46,1.46,0,0,1,.54,1.18,1.73,1.73,0,0,1-.33,1.05,1.77,1.77,0,0,1-.9.64v0a1.81,1.81,0,0,1,1.15.54,1.67,1.67,0,0,1,.43,1.19,1.86,1.86,0,0,1-.65,1.48,2.44,2.44,0,0,1-1.65.57Zm.83-6.36v2.3h.85a1.62,1.62,0,0,0,1.08-.33,1.15,1.15,0,0,0,.39-.93q0-1-1.36-1Zm0,3v2.56h1.13a1.69,1.69,0,0,0,1.14-.35,1.19,1.19,0,0,0,.4-1q0-1.26-1.72-1.26Z"/><path class="cls-2" d="M778.68,88.07a3.12,3.12,0,0,1-2.42-1,3.7,3.7,0,0,1-.91-2.59,3.92,3.92,0,0,1,.93-2.74,3.24,3.24,0,0,1,2.53-1,3.05,3.05,0,0,1,2.37,1,3.71,3.71,0,0,1,.9,2.59,3.93,3.93,0,0,1-.92,2.75A3.18,3.18,0,0,1,778.68,88.07Zm.06-6.6a2.29,2.29,0,0,0-1.82.81,3.6,3.6,0,0,0,0,4.24,2.23,2.23,0,0,0,1.78.8,2.33,2.33,0,0,0,1.84-.76,3.12,3.12,0,0,0,.67-2.14,3.26,3.26,0,0,0-.65-2.18A2.25,2.25,0,0,0,778.74,81.47Z"/><path class="cls-2" d="M786.15,88.07a3.12,3.12,0,0,1-2.42-1,3.7,3.7,0,0,1-.91-2.59,3.92,3.92,0,0,1,.93-2.74,3.24,3.24,0,0,1,2.53-1,3.05,3.05,0,0,1,2.37,1,3.71,3.71,0,0,1,.9,2.59,3.93,3.93,0,0,1-.92,2.75A3.18,3.18,0,0,1,786.15,88.07Zm.06-6.6a2.29,2.29,0,0,0-1.82.81,3.6,3.6,0,0,0,0,4.24,2.23,2.23,0,0,0,1.78.8,2.33,2.33,0,0,0,1.84-.76,3.12,3.12,0,0,0,.67-2.14,3.26,3.26,0,0,0-.65-2.18A2.25,2.25,0,0,0,786.21,81.47Z"/><path class="cls-2" d="M795.71,87.95h-1.16l-2.75-3.25a2,2,0,0,1-.19-.25h0v3.5h-.83V80.83h.83v3.34h0a2,2,0,0,1,.19-.24l2.66-3.1h1l-3,3.41Z"/><path class="cls-2" d="M751.09,141.51h-3.77v-7.11h3.61v.75h-2.78v2.37h2.57v.75h-2.57v2.49h2.94Z"/><path class="cls-2" d="M752.28,141.51v-7.11h2q3.76,0,3.76,3.47a3.5,3.5,0,0,1-1,2.65,3.87,3.87,0,0,1-2.79,1Zm.83-6.36v5.6h1.06a3,3,0,0,0,2.18-.75,2.81,2.81,0,0,0,.78-2.12q0-2.73-2.91-2.73Z"/><path class="cls-2" d="M760,141.51h-.83v-7.11H760Z"/><path class="cls-2" d="M765.94,135.15h-2.05v6.36h-.83v-6.36h-2v-.75h4.94Z"/><path class="cls-2" d="M769.48,141.51v-7.11h2a2.21,2.21,0,0,1,1.46.45,1.46,1.46,0,0,1,.54,1.18,1.73,1.73,0,0,1-.33,1.05,1.77,1.77,0,0,1-.9.64v0a1.81,1.81,0,0,1,1.15.54,1.67,1.67,0,0,1,.43,1.19,1.86,1.86,0,0,1-.65,1.48,2.44,2.44,0,0,1-1.65.57Zm.83-6.36v2.3h.85a1.62,1.62,0,0,0,1.08-.33,1.15,1.15,0,0,0,.39-.93q0-1-1.36-1Zm0,3v2.56h1.13a1.69,1.69,0,0,0,1.14-.35,1.19,1.19,0,0,0,.4-1q0-1.26-1.72-1.26Z"/><path class="cls-2" d="M778,141.63a3.12,3.12,0,0,1-2.42-1,3.7,3.7,0,0,1-.91-2.59,3.92,3.92,0,0,1,.93-2.74,3.24,3.24,0,0,1,2.53-1,3.05,3.05,0,0,1,2.37,1,3.71,3.71,0,0,1,.9,2.59,3.93,3.93,0,0,1-.92,2.75A3.18,3.18,0,0,1,778,141.63ZM778,135a2.29,2.29,0,0,0-1.82.81,3.6,3.6,0,0,0,0,4.24,2.23,2.23,0,0,0,1.78.8,2.33,2.33,0,0,0,1.84-.76,3.12,3.12,0,0,0,.67-2.14,3.26,3.26,0,0,0-.65-2.18A2.25,2.25,0,0,0,778,135Z"/><path class="cls-2" d="M785.46,141.63a3.12,3.12,0,0,1-2.42-1,3.7,3.7,0,0,1-.91-2.59,3.92,3.92,0,0,1,.93-2.74,3.24,3.24,0,0,1,2.53-1,3.05,3.05,0,0,1,2.37,1,3.71,3.71,0,0,1,.9,2.59,3.93,3.93,0,0,1-.92,2.75A3.18,3.18,0,0,1,785.46,141.63Zm.06-6.6a2.29,2.29,0,0,0-1.82.81,3.6,3.6,0,0,0,0,4.24,2.23,2.23,0,0,0,1.78.8,2.33,2.33,0,0,0,1.84-.76A3.12,3.12,0,0,0,788,138a3.26,3.26,0,0,0-.65-2.18A2.25,2.25,0,0,0,785.52,135Z"/><path class="cls-2" d="M795,141.51h-1.16l-2.75-3.25a2,2,0,0,1-.19-.25h0v3.5h-.83v-7.11h.83v3.34h0a2,2,0,0,1,.19-.24l2.66-3.1h1l-3,3.41Z"/><rect class="cls-10" x="734.84" y="114.42" width="70.5" height="42.11" rx="12" ry="12"/><rect class="cls-10" x="814.46" y="114.42" width="70.5" height="42.11" rx="12" ry="12"/><path class="cls-2" d="M833.57,87.76h-.92l-.75-2h-3l-.71,2h-.93L830,80.65h.86ZM831.62,85l-1.12-3a2.9,2.9,0,0,1-.11-.48h0a2.67,2.67,0,0,1-.11.48l-1.11,3Z"/><path class="cls-2" d="M834.44,87.76V80.65h2q3.76,0,3.76,3.47a3.5,3.5,0,0,1-1,2.65,3.87,3.87,0,0,1-2.79,1Zm.83-6.36V87h1.06a3,3,0,0,0,2.18-.75,2.81,2.81,0,0,0,.78-2.12q0-2.73-2.91-2.73Z"/><path class="cls-2" d="M841.37,87.76V80.65h2q3.76,0,3.76,3.47a3.5,3.5,0,0,1-1,2.65,3.87,3.87,0,0,1-2.79,1Zm.83-6.36V87h1.06a3,3,0,0,0,2.18-.75,2.81,2.81,0,0,0,.78-2.12q0-2.73-2.91-2.73Z"/><path class="cls-2" d="M856.12,84.89q0,3-2.7,3T850.82,85V80.65h.83v4.3q0,2.19,1.85,2.19T855.28,85V80.65h.83Z"/><path class="cls-2" d="M857.38,87.47v-1a1.91,1.91,0,0,0,.4.27,3.26,3.26,0,0,0,.5.2,3.87,3.87,0,0,0,.52.13,2.93,2.93,0,0,0,.49,0,1.9,1.9,0,0,0,1.15-.29,1.07,1.07,0,0,0,.25-1.32,1.42,1.42,0,0,0-.35-.39,3.47,3.47,0,0,0-.53-.34l-.66-.34q-.37-.19-.69-.38a3,3,0,0,1-.56-.43,1.79,1.79,0,0,1-.37-.53,1.64,1.64,0,0,1-.14-.69,1.62,1.62,0,0,1,.21-.85,1.83,1.83,0,0,1,.56-.59,2.54,2.54,0,0,1,.79-.35,3.63,3.63,0,0,1,.9-.11,3.46,3.46,0,0,1,1.53.25v.94a2.78,2.78,0,0,0-1.62-.44,2.66,2.66,0,0,0-.55.06,1.54,1.54,0,0,0-.49.19,1.09,1.09,0,0,0-.35.33.89.89,0,0,0-.13.5,1,1,0,0,0,.1.47,1.14,1.14,0,0,0,.3.36,3,3,0,0,0,.48.32l.66.34q.38.19.72.4a3.32,3.32,0,0,1,.6.46,2,2,0,0,1,.41.56,1.57,1.57,0,0,1,.15.7,1.78,1.78,0,0,1-.21.89,1.69,1.69,0,0,1-.56.59,2.43,2.43,0,0,1-.81.33,4.42,4.42,0,0,1-1,.1l-.42,0-.51-.08a4.09,4.09,0,0,1-.49-.13A1.54,1.54,0,0,1,857.38,87.47Z"/><path class="cls-2" d="M866.69,87.76h-3.77V80.65h3.61v.75h-2.78v2.37h2.57v.75h-2.57V87h2.94Z"/><path class="cls-2" d="M873,87.76h-1l-1.19-2a4.42,4.42,0,0,0-.32-.47,1.8,1.8,0,0,0-.31-.32,1.09,1.09,0,0,0-.35-.18,1.42,1.42,0,0,0-.42-.06h-.68v3h-.83V80.65H870a3,3,0,0,1,.86.12,1.92,1.92,0,0,1,.68.35,1.64,1.64,0,0,1,.45.59,2,2,0,0,1,.16.83,2,2,0,0,1-.11.68,1.78,1.78,0,0,1-.32.55,1.92,1.92,0,0,1-.5.41,2.52,2.52,0,0,1-.65.27v0a1.5,1.5,0,0,1,.31.18,1.72,1.72,0,0,1,.25.24,3.31,3.31,0,0,1,.24.32l.26.41Zm-4.27-6.36V84h1.13a1.71,1.71,0,0,0,.58-.09,1.34,1.34,0,0,0,.46-.27,1.23,1.23,0,0,0,.3-.43,1.44,1.44,0,0,0,.11-.57,1.11,1.11,0,0,0-.37-.89,1.59,1.59,0,0,0-1.07-.32Z"/><path class="cls-2" d="M831.84,139.66h-3.77v-7.11h3.61v.75H828.9v2.37h2.57v.75H828.9v2.49h2.94Z"/><path class="cls-2" d="M833,139.66v-7.11h2q3.76,0,3.76,3.47a3.5,3.5,0,0,1-1,2.65,3.87,3.87,0,0,1-2.79,1Zm.83-6.36v5.6h1.06a3,3,0,0,0,2.18-.75,2.81,2.81,0,0,0,.78-2.12q0-2.73-2.91-2.73Z"/><path class="cls-2" d="M840.79,139.66H840v-7.11h.83Z"/><path class="cls-2" d="M846.69,133.3h-2.05v6.36h-.83V133.3h-2v-.75h4.94Z"/><path class="cls-2" d="M855.42,136.78q0,3-2.7,3t-2.59-2.88v-4.35H851v4.3q0,2.19,1.85,2.19t1.78-2.11v-4.37h.83Z"/><path class="cls-2" d="M856.68,139.37v-1a1.91,1.91,0,0,0,.4.27,3.26,3.26,0,0,0,.5.2,3.87,3.87,0,0,0,.52.13,2.93,2.93,0,0,0,.49,0,1.9,1.9,0,0,0,1.15-.29,1.07,1.07,0,0,0,.25-1.32,1.42,1.42,0,0,0-.35-.39,3.47,3.47,0,0,0-.53-.34l-.66-.34q-.37-.19-.69-.38a3,3,0,0,1-.56-.43,1.79,1.79,0,0,1-.37-.53,1.64,1.64,0,0,1-.14-.69,1.62,1.62,0,0,1,.21-.85,1.83,1.83,0,0,1,.56-.59,2.54,2.54,0,0,1,.79-.35,3.63,3.63,0,0,1,.9-.11,3.46,3.46,0,0,1,1.53.25v.94a2.78,2.78,0,0,0-1.62-.44,2.66,2.66,0,0,0-.55.06,1.54,1.54,0,0,0-.49.19,1.09,1.09,0,0,0-.35.33.89.89,0,0,0-.13.5,1,1,0,0,0,.1.47,1.14,1.14,0,0,0,.3.36,3,3,0,0,0,.48.32l.66.34q.38.19.72.4a3.32,3.32,0,0,1,.6.46,2,2,0,0,1,.41.56,1.57,1.57,0,0,1,.15.7,1.78,1.78,0,0,1-.21.89,1.69,1.69,0,0,1-.56.59,2.43,2.43,0,0,1-.81.33,4.42,4.42,0,0,1-1,.1l-.42,0-.51-.08a4.09,4.09,0,0,1-.49-.13A1.54,1.54,0,0,1,856.68,139.37Z"/><path class="cls-2" d="M866,139.66h-3.77v-7.11h3.61v.75h-2.78v2.37h2.57v.75h-2.57v2.49H866Z"/><path class="cls-2" d="M872.29,139.66h-1l-1.19-2a4.42,4.42,0,0,0-.32-.47,1.8,1.8,0,0,0-.31-.32,1.09,1.09,0,0,0-.35-.18,1.42,1.42,0,0,0-.42-.06H868v3h-.83v-7.11h2.12a3,3,0,0,1,.86.12,1.92,1.92,0,0,1,.68.35,1.64,1.64,0,0,1,.45.59,2,2,0,0,1,.16.83,2,2,0,0,1-.11.68,1.78,1.78,0,0,1-.32.55,1.92,1.92,0,0,1-.5.41,2.52,2.52,0,0,1-.65.27v0a1.5,1.5,0,0,1,.31.18,1.72,1.72,0,0,1,.25.24,3.31,3.31,0,0,1,.24.32l.26.41ZM868,133.3v2.58h1.13a1.71,1.71,0,0,0,.58-.09,1.34,1.34,0,0,0,.46-.27,1.23,1.23,0,0,0,.3-.43,1.44,1.44,0,0,0,.11-.57,1.11,1.11,0,0,0-.37-.89,1.59,1.59,0,0,0-1.07-.32Z"/><path class="cls-2" d="M755.15,184.91V177.8h2q3.76,0,3.76,3.47a3.5,3.5,0,0,1-1,2.65,3.87,3.87,0,0,1-2.79,1Zm.83-6.36v5.6H757a3,3,0,0,0,2.18-.75,2.81,2.81,0,0,0,.78-2.12q0-2.73-2.91-2.73Z"/><path class="cls-2" d="M765.86,184.91h-3.77V177.8h3.61v.75h-2.78v2.37h2.57v.75h-2.57v2.49h2.94Z"/><path class="cls-2" d="M770.74,184.91h-3.69V177.8h.83v6.36h2.86Z"/><path class="cls-2" d="M775.42,184.91h-3.77V177.8h3.61v.75h-2.78v2.37h2.57v.75h-2.57v2.49h2.94Z"/><path class="cls-2" d="M780.81,178.55h-2.05v6.36h-.83v-6.36h-2v-.75h4.94Z"/><path class="cls-2" d="M785.51,184.91h-3.77V177.8h3.61v.75h-2.78v2.37h2.57v.75h-2.57v2.49h2.94Z"/><path class="cls-2" d="M757.78,197.1V190h2a2.21,2.21,0,0,1,1.46.45,1.46,1.46,0,0,1,.54,1.18,1.73,1.73,0,0,1-.33,1.05,1.77,1.77,0,0,1-.9.64v0a1.81,1.81,0,0,1,1.15.54,1.67,1.67,0,0,1,.43,1.19,1.86,1.86,0,0,1-.65,1.48,2.44,2.44,0,0,1-1.65.57Zm.83-6.36V193h.85a1.62,1.62,0,0,0,1.08-.33,1.15,1.15,0,0,0,.39-.93q0-1-1.36-1Zm0,3v2.56h1.13a1.69,1.69,0,0,0,1.14-.35,1.19,1.19,0,0,0,.4-1q0-1.26-1.72-1.26Z"/><path class="cls-2" d="M766.28,197.22a3.12,3.12,0,0,1-2.42-1,3.7,3.7,0,0,1-.91-2.59,3.92,3.92,0,0,1,.93-2.74,3.24,3.24,0,0,1,2.53-1,3.05,3.05,0,0,1,2.37,1,3.71,3.71,0,0,1,.9,2.59,3.93,3.93,0,0,1-.92,2.75A3.18,3.18,0,0,1,766.28,197.22Zm.06-6.6a2.29,2.29,0,0,0-1.82.81,3.6,3.6,0,0,0,0,4.24,2.23,2.23,0,0,0,1.78.8,2.33,2.33,0,0,0,1.84-.76,3.12,3.12,0,0,0,.67-2.14,3.26,3.26,0,0,0-.65-2.18A2.25,2.25,0,0,0,766.34,190.62Z"/><path class="cls-2" d="M773.76,197.22a3.12,3.12,0,0,1-2.42-1,3.7,3.7,0,0,1-.91-2.59,3.92,3.92,0,0,1,.93-2.74,3.24,3.24,0,0,1,2.53-1,3.05,3.05,0,0,1,2.37,1,3.71,3.71,0,0,1,.9,2.59,3.93,3.93,0,0,1-.92,2.75A3.18,3.18,0,0,1,773.76,197.22Zm.06-6.6a2.29,2.29,0,0,0-1.82.81,3.6,3.6,0,0,0,0,4.24,2.23,2.23,0,0,0,1.78.8,2.33,2.33,0,0,0,1.84-.76,3.12,3.12,0,0,0,.67-2.14,3.26,3.26,0,0,0-.65-2.18A2.25,2.25,0,0,0,773.82,190.62Z"/><path class="cls-2" d="M783.32,197.1h-1.16l-2.75-3.25a2,2,0,0,1-.19-.25h0v3.5h-.83V190h.83v3.34h0a2,2,0,0,1,.19-.24l2.66-3.1h1l-3,3.41Z"/><rect class="cls-10" x="734.84" y="167.05" width="70.5" height="42.11" rx="12" ry="12"/><rect class="cls-10" x="814.46" y="167.05" width="70.5" height="42.11" rx="12" ry="12"/><path class="cls-2" d="M834.78,184.91V177.8h2q3.76,0,3.76,3.47a3.5,3.5,0,0,1-1,2.65,3.87,3.87,0,0,1-2.79,1Zm.83-6.36v5.6h1.06a3,3,0,0,0,2.18-.75,2.81,2.81,0,0,0,.78-2.12q0-2.73-2.91-2.73Z"/><path class="cls-2" d="M845.49,184.91h-3.77V177.8h3.61v.75h-2.78v2.37h2.57v.75h-2.57v2.49h2.94Z"/><path class="cls-2" d="M850.37,184.91h-3.69V177.8h.83v6.36h2.86Z"/><path class="cls-2" d="M855,184.91h-3.77V177.8h3.61v.75h-2.78v2.37h2.57v.75h-2.57v2.49H855Z"/><path class="cls-2" d="M860.44,178.55h-2.05v6.36h-.83v-6.36h-2v-.75h4.94Z"/><path class="cls-2" d="M865.14,184.91h-3.77V177.8H865v.75H862.2v2.37h2.57v.75H862.2v2.49h2.94Z"/><path class="cls-2" d="M844.33,194.22q0,3-2.7,3T839,194.33V190h.83v4.3q0,2.19,1.85,2.19t1.78-2.11V190h.83Z"/><path class="cls-2" d="M845.59,196.81v-1a1.91,1.91,0,0,0,.4.27,3.26,3.26,0,0,0,.5.2,3.87,3.87,0,0,0,.52.13,2.93,2.93,0,0,0,.49,0,1.9,1.9,0,0,0,1.15-.29,1.07,1.07,0,0,0,.25-1.32,1.42,1.42,0,0,0-.35-.39,3.47,3.47,0,0,0-.53-.34l-.66-.34q-.37-.19-.69-.38a3,3,0,0,1-.56-.43,1.79,1.79,0,0,1-.37-.53,1.64,1.64,0,0,1-.14-.69,1.62,1.62,0,0,1,.21-.85,1.83,1.83,0,0,1,.56-.59,2.54,2.54,0,0,1,.79-.35,3.63,3.63,0,0,1,.9-.11,3.46,3.46,0,0,1,1.53.25v.94a2.78,2.78,0,0,0-1.62-.44,2.66,2.66,0,0,0-.55.06,1.54,1.54,0,0,0-.49.19,1.09,1.09,0,0,0-.35.33.89.89,0,0,0-.13.5,1,1,0,0,0,.1.47,1.14,1.14,0,0,0,.3.36,3,3,0,0,0,.48.32l.66.34q.38.19.72.4a3.32,3.32,0,0,1,.6.46,2,2,0,0,1,.41.56,1.57,1.57,0,0,1,.15.7,1.78,1.78,0,0,1-.21.89,1.69,1.69,0,0,1-.56.59,2.43,2.43,0,0,1-.81.33,4.42,4.42,0,0,1-1,.1l-.42,0-.51-.08A4.09,4.09,0,0,1,846,197,1.54,1.54,0,0,1,845.59,196.81Z"/><path class="cls-2" d="M854.9,197.1h-3.77V190h3.61v.75H852v2.37h2.57v.75H852v2.49h2.94Z"/><path class="cls-2" d="M861.19,197.1h-1l-1.19-2a4.42,4.42,0,0,0-.32-.47,1.8,1.8,0,0,0-.31-.32,1.09,1.09,0,0,0-.35-.18,1.42,1.42,0,0,0-.42-.06h-.68v3h-.83V190h2.12a3,3,0,0,1,.86.12,1.92,1.92,0,0,1,.68.35,1.64,1.64,0,0,1,.45.59,2,2,0,0,1,.16.83,2,2,0,0,1-.11.68,1.78,1.78,0,0,1-.32.55,1.92,1.92,0,0,1-.5.41,2.52,2.52,0,0,1-.65.27v0a1.5,1.5,0,0,1,.31.18,1.72,1.72,0,0,1,.25.24,3.31,3.31,0,0,1,.24.32l.26.41Zm-4.27-6.36v2.58h1.13a1.71,1.71,0,0,0,.58-.09,1.34,1.34,0,0,0,.46-.27,1.23,1.23,0,0,0,.3-.43,1.44,1.44,0,0,0,.11-.57,1.11,1.11,0,0,0-.37-.89,1.59,1.59,0,0,0-1.07-.32Z"/><rect class="cls-10" x="734.84" y="223.98" width="70.5" height="51.31" rx="12" ry="12"/><rect class="cls-10" x="815.39" y="223.98" width="70.5" height="51.31" rx="12" ry="12"/><rect class="cls-10" x="734.84" y="285.85" width="70.5" height="51.31" rx="12" ry="12"/><rect class="cls-10" x="815.39" y="285.85" width="70.5" height="51.31" rx="12" ry="12"/><path class="cls-2" d="M752.88,247.22v-1a1.93,1.93,0,0,0,.4.27,3.26,3.26,0,0,0,.5.2,3.94,3.94,0,0,0,.52.13,2.88,2.88,0,0,0,.49,0,1.91,1.91,0,0,0,1.15-.28,1.07,1.07,0,0,0,.25-1.32,1.42,1.42,0,0,0-.35-.39,3.58,3.58,0,0,0-.53-.34l-.66-.34q-.37-.19-.69-.38a3,3,0,0,1-.56-.43,1.78,1.78,0,0,1-.37-.53,1.64,1.64,0,0,1-.14-.69,1.62,1.62,0,0,1,.21-.85,1.84,1.84,0,0,1,.56-.59,2.55,2.55,0,0,1,.79-.35,3.61,3.61,0,0,1,.9-.11,3.47,3.47,0,0,1,1.53.25v.94a2.78,2.78,0,0,0-1.62-.44,2.66,2.66,0,0,0-.55.06,1.54,1.54,0,0,0-.49.19,1.08,1.08,0,0,0-.35.33.89.89,0,0,0-.13.5,1,1,0,0,0,.1.47,1.14,1.14,0,0,0,.3.36,3,3,0,0,0,.48.32l.66.34q.38.19.72.4a3.3,3.3,0,0,1,.6.46,2,2,0,0,1,.41.56,1.57,1.57,0,0,1,.15.7,1.78,1.78,0,0,1-.21.89,1.69,1.69,0,0,1-.56.59,2.43,2.43,0,0,1-.81.33,4.45,4.45,0,0,1-1,.1l-.42,0-.51-.08a4.09,4.09,0,0,1-.49-.13A1.51,1.51,0,0,1,752.88,247.22Z"/><path class="cls-2" d="M762.2,247.5h-3.77v-7.11H762v.75h-2.78v2.37h2.57v.75h-2.57v2.49h2.94Z"/><path class="cls-2" d="M768.89,247.5H768l-.75-2h-3l-.71,2h-.93l2.73-7.11h.86Zm-1.95-2.74-1.12-3a2.91,2.91,0,0,1-.11-.48h0a2.65,2.65,0,0,1-.11.48l-1.11,3Z"/><path class="cls-2" d="M774.85,247.5h-1l-1.19-2a4.36,4.36,0,0,0-.32-.47,1.8,1.8,0,0,0-.31-.32,1.09,1.09,0,0,0-.35-.18,1.42,1.42,0,0,0-.42-.06h-.68v3h-.83v-7.11h2.12a3,3,0,0,1,.86.12,1.91,1.91,0,0,1,.68.35,1.64,1.64,0,0,1,.45.59,2,2,0,0,1,.16.83,2,2,0,0,1-.11.68,1.76,1.76,0,0,1-.32.55,1.92,1.92,0,0,1-.5.41,2.55,2.55,0,0,1-.65.27v0a1.5,1.5,0,0,1,.31.18,1.72,1.72,0,0,1,.25.24,3.42,3.42,0,0,1,.24.31l.26.41Zm-4.27-6.36v2.58h1.13a1.71,1.71,0,0,0,.58-.09,1.32,1.32,0,0,0,.46-.27,1.22,1.22,0,0,0,.3-.43,1.45,1.45,0,0,0,.11-.57,1.11,1.11,0,0,0-.37-.89,1.59,1.59,0,0,0-1.07-.32Z"/><path class="cls-2" d="M780.34,247.21a4.16,4.16,0,0,1-2,.42,3.17,3.17,0,0,1-2.43-1,3.6,3.6,0,0,1-.91-2.56,3.78,3.78,0,0,1,1-2.76,3.49,3.49,0,0,1,2.6-1.05,4.18,4.18,0,0,1,1.68.29v.89a3.4,3.4,0,0,0-1.69-.43,2.59,2.59,0,0,0-2,.82,3.08,3.08,0,0,0-.76,2.19,2.93,2.93,0,0,0,.71,2.07,2.42,2.42,0,0,0,1.87.77,3.51,3.51,0,0,0,1.86-.48Z"/><path class="cls-2" d="M787,247.5h-.83v-3.24h-3.68v3.24h-.83v-7.11h.83v3.12h3.68v-3.12H787Z"/><path class="cls-2" d="M745.91,259.69h-.83v-7.11h.83Z"/><path class="cls-2" d="M753.33,259.69h-1L748.64,254a2.41,2.41,0,0,1-.23-.45h0a7.28,7.28,0,0,1,0,1v5.14h-.83v-7.11h1.08l3.56,5.58q.22.35.29.48h0a7.57,7.57,0,0,1,0-1v-5h.83Z"/><path class="cls-2" d="M760.3,252.58l-2.63,7.11h-.92l-2.58-7.11h.93l2,5.64a3.31,3.31,0,0,1,.14.63h0a3.11,3.11,0,0,1,.16-.64l2-5.63Z"/><path class="cls-2" d="M764.9,259.69h-3.77v-7.11h3.61v.75H762v2.37h2.57v.75H762v2.49h2.94Z"/><path class="cls-2" d="M771.82,259.69h-1L767.14,254a2.41,2.41,0,0,1-.23-.45h0a7.28,7.28,0,0,1,0,1v5.14h-.83v-7.11h1.08l3.56,5.58q.22.35.29.48h0a7.57,7.57,0,0,1,0-1v-5h.83Z"/><path class="cls-2" d="M777.71,253.34h-2.05v6.36h-.83v-6.36h-2v-.75h4.94Z"/><path class="cls-2" d="M781,259.81a3.12,3.12,0,0,1-2.42-1,3.69,3.69,0,0,1-.91-2.59,3.92,3.92,0,0,1,.93-2.74,3.24,3.24,0,0,1,2.53-1,3.05,3.05,0,0,1,2.37,1,3.71,3.71,0,0,1,.9,2.59,3.93,3.93,0,0,1-.92,2.75A3.18,3.18,0,0,1,781,259.81Zm.06-6.6a2.29,2.29,0,0,0-1.82.81,3.6,3.6,0,0,0,0,4.24,2.23,2.23,0,0,0,1.78.8,2.33,2.33,0,0,0,1.84-.76,3.12,3.12,0,0,0,.67-2.14,3.26,3.26,0,0,0-.65-2.18A2.25,2.25,0,0,0,781.1,253.22Z"/><path class="cls-2" d="M790.75,259.69h-1l-1.19-2a4.36,4.36,0,0,0-.32-.47,1.8,1.8,0,0,0-.31-.32,1.09,1.09,0,0,0-.35-.18,1.42,1.42,0,0,0-.42-.06h-.68v3h-.83v-7.11h2.12a3,3,0,0,1,.86.12,1.91,1.91,0,0,1,.68.35,1.64,1.64,0,0,1,.45.59,2,2,0,0,1,.16.83,2,2,0,0,1-.11.68,1.76,1.76,0,0,1-.32.55,1.92,1.92,0,0,1-.5.41,2.55,2.55,0,0,1-.65.27v0a1.5,1.5,0,0,1,.31.18,1.72,1.72,0,0,1,.25.24,3.42,3.42,0,0,1,.24.31l.26.41Zm-4.27-6.36v2.58h1.13a1.71,1.71,0,0,0,.58-.09,1.32,1.32,0,0,0,.46-.27,1.22,1.22,0,0,0,.3-.43,1.45,1.45,0,0,0,.11-.57,1.11,1.11,0,0,0-.37-.89,1.59,1.59,0,0,0-1.07-.32Z"/><path class="cls-2" d="M796,252.58l-2.35,4.48v2.63h-.83v-2.61l-2.29-4.5h.95l1.59,3.21s.08.19.17.44h0a2.62,2.62,0,0,1,.19-.44l1.67-3.21Z"/><path class="cls-2" d="M832,247.62a3.12,3.12,0,0,1-2.42-1,3.69,3.69,0,0,1-.91-2.59,3.92,3.92,0,0,1,.93-2.74,3.24,3.24,0,0,1,2.53-1,3.05,3.05,0,0,1,2.37,1,3.71,3.71,0,0,1,.9,2.59,3.93,3.93,0,0,1-.92,2.75A3.18,3.18,0,0,1,832,247.62ZM832,241a2.29,2.29,0,0,0-1.82.81,3.6,3.6,0,0,0,0,4.24,2.23,2.23,0,0,0,1.78.8,2.33,2.33,0,0,0,1.84-.76,3.12,3.12,0,0,0,.67-2.14,3.26,3.26,0,0,0-.65-2.18A2.25,2.25,0,0,0,832,241Z"/><path class="cls-2" d="M841.62,240.39,839,247.5h-.92l-2.58-7.11h.93l2,5.64a3.31,3.31,0,0,1,.14.63h0a3.11,3.11,0,0,1,.16-.64l2-5.63Z"/><path class="cls-2" d="M846.23,247.5h-3.77v-7.11h3.61v.75h-2.78v2.37h2.57v.75h-2.57v2.49h2.94Z"/><path class="cls-2" d="M852.51,247.5h-1l-1.19-2A4.36,4.36,0,0,0,850,245a1.8,1.8,0,0,0-.31-.32,1.09,1.09,0,0,0-.35-.18,1.42,1.42,0,0,0-.42-.06h-.68v3h-.83v-7.11h2.12a3,3,0,0,1,.86.12,1.91,1.91,0,0,1,.68.35,1.64,1.64,0,0,1,.45.59,2,2,0,0,1,.16.83,2,2,0,0,1-.11.68,1.76,1.76,0,0,1-.32.55,1.92,1.92,0,0,1-.5.41,2.55,2.55,0,0,1-.65.27v0a1.5,1.5,0,0,1,.31.18,1.72,1.72,0,0,1,.25.24,3.42,3.42,0,0,1,.24.31l.26.41Zm-4.27-6.36v2.58h1.13a1.71,1.71,0,0,0,.58-.09,1.32,1.32,0,0,0,.46-.27,1.22,1.22,0,0,0,.3-.43,1.45,1.45,0,0,0,.11-.57,1.11,1.11,0,0,0-.37-.89,1.59,1.59,0,0,0-1.07-.32Z"/><path class="cls-2" d="M853.31,247.5v-7.11h2q3.76,0,3.76,3.47a3.49,3.49,0,0,1-1,2.65,3.87,3.87,0,0,1-2.79,1Zm.83-6.36v5.6h1.06a3,3,0,0,0,2.18-.75,2.81,2.81,0,0,0,.78-2.12q0-2.73-2.91-2.73Z"/><path class="cls-2" d="M865.45,244.63q0,3-2.7,3t-2.59-2.88v-4.35H861v4.3q0,2.19,1.85,2.19t1.78-2.11v-4.37h.83Z"/><path class="cls-2" d="M870.81,247.5H867v-7.11h3.61v.75h-2.78v2.37h2.57v.75h-2.57v2.49h2.94Z"/><path class="cls-2" d="M838,259.69h-.83v-7.11H838Z"/><path class="cls-2" d="M843.9,253.34h-2.05v6.36H841v-6.36h-2v-.75h4.94Z"/><path class="cls-2" d="M848.6,259.69h-3.77v-7.11h3.61v.75h-2.78v2.37h2.57v.75h-2.57v2.49h2.94Z"/><path class="cls-2" d="M857,259.69h-.83v-4.77q0-.57.07-1.38h0a4.46,4.46,0,0,1-.21.69l-2.43,5.47h-.41l-2.42-5.43a4.25,4.25,0,0,1-.21-.73h0q0,.43,0,1.39v4.76h-.8v-7.11h1.1l2.18,5a6.36,6.36,0,0,1,.33.85h0q.21-.58.34-.87l2.23-4.94h1Z"/><path class="cls-2" d="M858.39,259.41v-1a1.93,1.93,0,0,0,.4.27,3.26,3.26,0,0,0,.5.2,3.94,3.94,0,0,0,.52.13,2.88,2.88,0,0,0,.49,0,1.91,1.91,0,0,0,1.15-.28,1.07,1.07,0,0,0,.25-1.32,1.42,1.42,0,0,0-.35-.39,3.58,3.58,0,0,0-.53-.34l-.66-.34q-.37-.19-.69-.38a3,3,0,0,1-.56-.43,1.78,1.78,0,0,1-.37-.53,1.64,1.64,0,0,1-.14-.69,1.62,1.62,0,0,1,.21-.85,1.84,1.84,0,0,1,.56-.59,2.55,2.55,0,0,1,.79-.35,3.61,3.61,0,0,1,.9-.11,3.47,3.47,0,0,1,1.53.25v.94a2.78,2.78,0,0,0-1.62-.44,2.66,2.66,0,0,0-.55.06,1.54,1.54,0,0,0-.49.19,1.08,1.08,0,0,0-.35.33.89.89,0,0,0-.13.5,1,1,0,0,0,.1.47,1.14,1.14,0,0,0,.3.36,3,3,0,0,0,.48.32l.66.34q.38.19.72.4a3.3,3.3,0,0,1,.6.46,2,2,0,0,1,.41.56,1.57,1.57,0,0,1,.15.7,1.78,1.78,0,0,1-.21.89,1.69,1.69,0,0,1-.56.59,2.43,2.43,0,0,1-.81.33,4.45,4.45,0,0,1-1,.1l-.42,0-.51-.08a4.09,4.09,0,0,1-.49-.13A1.51,1.51,0,0,1,858.39,259.41Z"/><path class="cls-2" d="M752.26,308.17a4.16,4.16,0,0,1-2,.42,3.17,3.17,0,0,1-2.43-1,3.6,3.6,0,0,1-.91-2.56,3.78,3.78,0,0,1,1-2.76,3.49,3.49,0,0,1,2.6-1.05,4.18,4.18,0,0,1,1.68.29v.89a3.4,3.4,0,0,0-1.69-.43,2.59,2.59,0,0,0-2,.82,3.08,3.08,0,0,0-.76,2.19,2.93,2.93,0,0,0,.71,2.07,2.42,2.42,0,0,0,1.87.77,3.51,3.51,0,0,0,1.86-.48Z"/><path class="cls-2" d="M758.87,308.46H758v-3.24h-3.68v3.24h-.83v-7.11h.83v3.12H758v-3.12h.83Z"/><path class="cls-2" d="M764.32,308.46h-3.77v-7.11h3.61v.75h-2.78v2.37H764v.75h-2.57v2.49h2.94Z"/><path class="cls-2" d="M770.35,308.17a4.16,4.16,0,0,1-2,.42,3.17,3.17,0,0,1-2.43-1A3.6,3.6,0,0,1,765,305a3.78,3.78,0,0,1,1-2.76,3.49,3.49,0,0,1,2.6-1.05,4.18,4.18,0,0,1,1.68.29v.89a3.4,3.4,0,0,0-1.69-.43,2.59,2.59,0,0,0-2,.82,3.08,3.08,0,0,0-.76,2.19,2.93,2.93,0,0,0,.71,2.07,2.42,2.42,0,0,0,1.87.77,3.51,3.51,0,0,0,1.86-.48Z"/><path class="cls-2" d="M776.56,308.46H775.4l-2.75-3.25a2,2,0,0,1-.19-.25h0v3.5h-.83v-7.11h.83v3.34h0a2,2,0,0,1,.19-.24l2.66-3.1h1l-3,3.41Z"/><path class="cls-2" d="M779.74,308.58a3.12,3.12,0,0,1-2.42-1,3.69,3.69,0,0,1-.91-2.59,3.92,3.92,0,0,1,.93-2.74,3.24,3.24,0,0,1,2.53-1,3.05,3.05,0,0,1,2.37,1,3.71,3.71,0,0,1,.9,2.59,3.93,3.93,0,0,1-.92,2.75A3.18,3.18,0,0,1,779.74,308.58Zm.06-6.6a2.29,2.29,0,0,0-1.82.81,3.6,3.6,0,0,0,0,4.24,2.23,2.23,0,0,0,1.78.8,2.33,2.33,0,0,0,1.84-.76,3.12,3.12,0,0,0,.67-2.14,3.26,3.26,0,0,0-.65-2.18A2.25,2.25,0,0,0,779.8,302Z"/><path class="cls-2" d="M789.55,305.59q0,3-2.7,3t-2.59-2.88v-4.35h.83v4.3q0,2.19,1.85,2.19t1.78-2.11v-4.37h.83Z"/><path class="cls-2" d="M795.35,302.11H793.3v6.36h-.83v-6.36h-2v-.75h4.94Z"/><path class="cls-2" d="M758.7,320.65v-7.11h2a2.21,2.21,0,0,1,1.46.45,1.46,1.46,0,0,1,.54,1.18,1.73,1.73,0,0,1-.33,1.05,1.76,1.76,0,0,1-.9.63v0a1.81,1.81,0,0,1,1.15.54,1.67,1.67,0,0,1,.43,1.19,1.86,1.86,0,0,1-.65,1.48,2.44,2.44,0,0,1-1.65.57Zm.83-6.36v2.3h.85a1.62,1.62,0,0,0,1.08-.33,1.15,1.15,0,0,0,.39-.93q0-1-1.36-1Zm0,3v2.56h1.13a1.69,1.69,0,0,0,1.14-.35,1.19,1.19,0,0,0,.4-1q0-1.26-1.72-1.26Z"/><path class="cls-2" d="M767.21,320.77a3.12,3.12,0,0,1-2.42-1,3.69,3.69,0,0,1-.91-2.59,3.92,3.92,0,0,1,.93-2.74,3.24,3.24,0,0,1,2.53-1,3.05,3.05,0,0,1,2.37,1,3.71,3.71,0,0,1,.9,2.59,3.93,3.93,0,0,1-.92,2.75A3.18,3.18,0,0,1,767.21,320.77Zm.06-6.6a2.29,2.29,0,0,0-1.82.81,3.6,3.6,0,0,0,0,4.24,2.23,2.23,0,0,0,1.78.8,2.33,2.33,0,0,0,1.84-.76,3.12,3.12,0,0,0,.67-2.14,3.26,3.26,0,0,0-.65-2.18A2.25,2.25,0,0,0,767.27,314.18Z"/><path class="cls-2" d="M774.68,320.77a3.12,3.12,0,0,1-2.42-1,3.69,3.69,0,0,1-.91-2.59,3.92,3.92,0,0,1,.93-2.74,3.24,3.24,0,0,1,2.53-1,3.05,3.05,0,0,1,2.37,1,3.71,3.71,0,0,1,.9,2.59,3.93,3.93,0,0,1-.92,2.75A3.18,3.18,0,0,1,774.68,320.77Zm.06-6.6a2.29,2.29,0,0,0-1.82.81,3.6,3.6,0,0,0,0,4.24,2.23,2.23,0,0,0,1.78.8,2.33,2.33,0,0,0,1.84-.76,3.12,3.12,0,0,0,.67-2.14,3.26,3.26,0,0,0-.65-2.18A2.25,2.25,0,0,0,774.74,314.18Z"/><path class="cls-2" d="M784.24,320.65h-1.16l-2.75-3.25a2,2,0,0,1-.19-.25h0v3.5h-.83v-7.11h.83v3.34h0a2,2,0,0,1,.19-.24l2.66-3.1h1L781,317Z"/><path class="cls-2" d="M837.6,308.46h-1l-1.19-2a4.36,4.36,0,0,0-.32-.47,1.8,1.8,0,0,0-.31-.32,1.09,1.09,0,0,0-.35-.18,1.42,1.42,0,0,0-.42-.06h-.68v3h-.83v-7.11h2.12a3,3,0,0,1,.86.12,1.91,1.91,0,0,1,.68.35,1.64,1.64,0,0,1,.45.59,2,2,0,0,1,.16.83,2,2,0,0,1-.11.68,1.76,1.76,0,0,1-.32.55,1.92,1.92,0,0,1-.5.41,2.55,2.55,0,0,1-.65.27v0a1.5,1.5,0,0,1,.31.18,1.72,1.72,0,0,1,.25.24,3.42,3.42,0,0,1,.24.31l.26.41Zm-4.27-6.36v2.58h1.13a1.71,1.71,0,0,0,.58-.09,1.32,1.32,0,0,0,.46-.27,1.22,1.22,0,0,0,.3-.43,1.45,1.45,0,0,0,.11-.57,1.11,1.11,0,0,0-.37-.89,1.59,1.59,0,0,0-1.07-.32Z"/><path class="cls-2" d="M842.17,308.46H838.4v-7.11H842v.75h-2.78v2.37h2.57v.75h-2.57v2.49h2.94Z"/><path class="cls-2" d="M847.56,302.11h-2.05v6.36h-.83v-6.36h-2v-.75h4.94Z"/><path class="cls-2" d="M853.7,305.59q0,3-2.7,3t-2.59-2.88v-4.35h.83v4.3q0,2.19,1.85,2.19t1.78-2.11v-4.37h.83Z"/><path class="cls-2" d="M860.39,308.46h-1l-1.19-2a4.36,4.36,0,0,0-.32-.47,1.8,1.8,0,0,0-.31-.32,1.09,1.09,0,0,0-.35-.18,1.42,1.42,0,0,0-.42-.06h-.68v3h-.83v-7.11h2.12a3,3,0,0,1,.86.12,1.91,1.91,0,0,1,.68.35,1.64,1.64,0,0,1,.45.59,2,2,0,0,1,.16.83,2,2,0,0,1-.11.68,1.76,1.76,0,0,1-.32.55,1.92,1.92,0,0,1-.5.41,2.55,2.55,0,0,1-.65.27v0a1.5,1.5,0,0,1,.31.18,1.72,1.72,0,0,1,.25.24,3.42,3.42,0,0,1,.24.31l.26.41Zm-4.27-6.36v2.58h1.13a1.71,1.71,0,0,0,.58-.09,1.32,1.32,0,0,0,.46-.27,1.22,1.22,0,0,0,.3-.43,1.45,1.45,0,0,0,.11-.57,1.11,1.11,0,0,0-.37-.89,1.59,1.59,0,0,0-1.07-.32Z"/><path class="cls-2" d="M866.92,308.46h-1l-3.66-5.67a2.41,2.41,0,0,1-.23-.45h0a7.28,7.28,0,0,1,0,1v5.14h-.83v-7.11h1.08l3.56,5.58q.22.35.29.48h0a7.57,7.57,0,0,1,0-1v-5h.83Z"/><path class="cls-2" d="M837.4,320.65v-7.11h2a2.21,2.21,0,0,1,1.46.45,1.46,1.46,0,0,1,.54,1.18,1.73,1.73,0,0,1-.33,1.05,1.76,1.76,0,0,1-.9.63v0a1.81,1.81,0,0,1,1.15.54,1.67,1.67,0,0,1,.43,1.19,1.86,1.86,0,0,1-.65,1.48,2.44,2.44,0,0,1-1.65.57Zm.83-6.36v2.3h.85a1.62,1.62,0,0,0,1.08-.33,1.15,1.15,0,0,0,.39-.93q0-1-1.36-1Zm0,3v2.56h1.13a1.69,1.69,0,0,0,1.14-.35,1.19,1.19,0,0,0,.4-1q0-1.26-1.72-1.26Z"/><path class="cls-2" d="M845.91,320.77a3.12,3.12,0,0,1-2.42-1,3.69,3.69,0,0,1-.91-2.59,3.92,3.92,0,0,1,.93-2.74,3.24,3.24,0,0,1,2.53-1,3.05,3.05,0,0,1,2.37,1,3.71,3.71,0,0,1,.9,2.59,3.93,3.93,0,0,1-.92,2.75A3.18,3.18,0,0,1,845.91,320.77Zm.06-6.6a2.29,2.29,0,0,0-1.82.81,3.6,3.6,0,0,0,0,4.24,2.23,2.23,0,0,0,1.78.8,2.33,2.33,0,0,0,1.84-.76,3.12,3.12,0,0,0,.67-2.14,3.26,3.26,0,0,0-.65-2.18A2.25,2.25,0,0,0,846,314.18Z"/><path class="cls-2" d="M853.38,320.77a3.12,3.12,0,0,1-2.42-1,3.69,3.69,0,0,1-.91-2.59,3.92,3.92,0,0,1,.93-2.74,3.24,3.24,0,0,1,2.53-1,3.05,3.05,0,0,1,2.37,1,3.71,3.71,0,0,1,.9,2.59,3.93,3.93,0,0,1-.92,2.75A3.18,3.18,0,0,1,853.38,320.77Zm.06-6.6a2.29,2.29,0,0,0-1.82.81,3.6,3.6,0,0,0,0,4.24,2.23,2.23,0,0,0,1.78.8,2.33,2.33,0,0,0,1.84-.76,3.12,3.12,0,0,0,.67-2.14,3.26,3.26,0,0,0-.65-2.18A2.25,2.25,0,0,0,853.44,314.18Z"/><path class="cls-2" d="M862.94,320.65h-1.16L859,317.4a2,2,0,0,1-.19-.25h0v3.5H858v-7.11h.83v3.34h0a2,2,0,0,1,.19-.24l2.66-3.1h1l-3,3.41Z"/></svg>