<svg id="Layer_1" data-name="Layer 1" xmlns="http://www.w3.org/2000/svg" viewBox="0 0 1280 436"><defs><style>.cls-1{fill:#1d363a;}.cls-10,.cls-2,.cls-4{fill:#fff;}.cls-3{fill:#026b80;}.cls-4{font-size:20px;font-family:SegoeUI, Segoe UI;letter-spacing:0.06em;}.cls-5{letter-spacing:0em;}.cls-6{letter-spacing:-0.01em;}.cls-7{letter-spacing:0.06em;}.cls-8{letter-spacing:0em;}.cls-9{letter-spacing:0.03em;}.cls-10{font-size:51px;font-family:SegoeUI-Semilight, Segoe UI;}.cls-11{letter-spacing:-0.01em;}</style></defs><title>stat_banner_2</title><rect class="cls-1" width="1280" height="436"/><path class="cls-2" d="M327.71,333H314.85V308.26h2.9v22.15h10Z"/><path class="cls-2" d="M335,333h-2.9V308.26H335Z"/><path class="cls-2" d="M356.7,310.89h-7.15V333h-2.9V310.89h-7.14v-2.63H356.7Z"/><path class="cls-2" d="M374.29,333H361.16V308.26h12.58v2.63h-9.67v8.24H373v2.61h-8.95v8.67h10.23Z"/><path class="cls-2" d="M397.38,333h-3.46l-4.15-6.94a15.2,15.2,0,0,0-1.11-1.65,6.31,6.31,0,0,0-1.1-1.11,3.8,3.8,0,0,0-1.21-.63,5,5,0,0,0-1.46-.2h-2.38V333h-2.9V308.26H387a10.55,10.55,0,0,1,3,.41,6.71,6.71,0,0,1,2.38,1.24A5.74,5.74,0,0,1,394,312a6.85,6.85,0,0,1,.57,2.89,7,7,0,0,1-.39,2.38,6.21,6.21,0,0,1-1.11,1.93,6.7,6.7,0,0,1-1.73,1.44,8.82,8.82,0,0,1-2.27.92v.07a5.24,5.24,0,0,1,1.08.63,6,6,0,0,1,.87.84,11.15,11.15,0,0,1,.82,1.1q.41.61.91,1.43Zm-14.86-22.15v9h3.94a6,6,0,0,0,2-.33,4.66,4.66,0,0,0,1.6-.94,4.26,4.26,0,0,0,1.05-1.5,5,5,0,0,0,.38-2,3.88,3.88,0,0,0-1.29-3.1,5.53,5.53,0,0,0-3.72-1.11Z"/><path class="cls-2" d="M420.53,333h-3.21l-2.63-6.94h-10.5L401.71,333h-3.23l9.5-24.77h3Zm-6.79-9.55-3.89-10.56a10.11,10.11,0,0,1-.38-1.66h-.07a9.25,9.25,0,0,1-.4,1.66l-3.85,10.56Z"/><path class="cls-2" d="M440.91,332a14.53,14.53,0,0,1-6.84,1.45,11,11,0,0,1-8.47-3.4,12.56,12.56,0,0,1-3.18-8.93,13.16,13.16,0,0,1,3.58-9.61,12.14,12.14,0,0,1,9.07-3.66,14.54,14.54,0,0,1,5.84,1V312a11.84,11.84,0,0,0-5.87-1.49,9,9,0,0,0-6.92,2.85,10.74,10.74,0,0,0-2.65,7.62,10.22,10.22,0,0,0,2.48,7.21,8.44,8.44,0,0,0,6.5,2.69,12.2,12.2,0,0,0,6.46-1.66Z"/><path class="cls-2" d="M462.62,308.26l-8.17,15.62V333h-2.9v-9.09l-8-15.69h3.3l5.55,11.19q.1.21.6,1.52h.05a9.09,9.09,0,0,1,.66-1.52l5.8-11.19Z"/><path class="cls-2" d="M489.51,333l-3.3-7.26a7.89,7.89,0,0,0-2-3,4.13,4.13,0,0,0-2.56-.77h-3.08v11h-1.71V308.26h6.88a7.21,7.21,0,0,1,5.16,1.77,6.13,6.13,0,0,1,1.87,4.67,6.64,6.64,0,0,1-1.54,4.47,7.19,7.19,0,0,1-4.3,2.31v.07q1.47.59,2.87,3.58l3.68,7.9Zm-11-23.2v10.61h4.27a6.52,6.52,0,0,0,4.5-1.49,5.18,5.18,0,0,0,1.67-4.08,4.71,4.71,0,0,0-1.5-3.71,6.26,6.26,0,0,0-4.3-1.34Z"/><path class="cls-2" d="M513.18,333l-2.83-7.71H499.6L496.76,333h-1.88l9.35-24.77h1.62L515.09,333Zm-7.6-20.73a9.31,9.31,0,0,1-.31-1q-.12-.43-.26-.86h-.07a16.71,16.71,0,0,1-.57,1.85l-4.16,11.49h9.55Z"/><path class="cls-2" d="M522.73,309.83V333H521v-23.2h-7.15v-1.57h16v1.57Z"/><path class="cls-2" d="M534.66,333V308.26h11.57v1.57h-9.86v9.93h9.16v1.55h-9.16v10.16H546.8V333Z"/><path class="cls-2" d="M316.49,343.11v10.11h9.16v1.55h-9.16v11.54h-1.71V341.54h11.57v1.57Z"/><path class="cls-2" d="M341.42,366.74a10.67,10.67,0,0,1-8.37-3.49,13.1,13.1,0,0,1-3.12-9.07q0-5.93,3.2-9.49a11.17,11.17,0,0,1,8.75-3.57,10.42,10.42,0,0,1,8.11,3.43,12.89,12.89,0,0,1,3.1,9q0,6.15-3.18,9.67A10.88,10.88,0,0,1,341.42,366.74Zm.17-24.07a9.11,9.11,0,0,0-7.11,3.13A11.84,11.84,0,0,0,331.7,354a12,12,0,0,0,2.64,8.15,8.88,8.88,0,0,0,7,3,9.26,9.26,0,0,0,7.27-3q2.68-3,2.68-8.35t-2.62-8.2A9,9,0,0,0,341.6,342.68Z"/><path class="cls-2" d="M370.84,366.31l-3.3-7.26a7.89,7.89,0,0,0-2-3,4.13,4.13,0,0,0-2.56-.77h-3.08v11h-1.71V341.54H365a7.21,7.21,0,0,1,5.16,1.77,6.13,6.13,0,0,1,1.87,4.67,6.64,6.64,0,0,1-1.54,4.47,7.19,7.19,0,0,1-4.3,2.31v.07q1.47.59,2.87,3.58l3.68,7.9Zm-11-23.2v10.61h4.27a6.52,6.52,0,0,0,4.5-1.49,5.18,5.18,0,0,0,1.67-4.08,4.71,4.71,0,0,0-1.5-3.71,6.26,6.26,0,0,0-4.3-1.34Z"/><path class="cls-2" d="M406.74,366.31h-3.21l-2.63-6.94H390.4l-2.47,6.94H384.7l9.5-24.77h3ZM400,356.76l-3.89-10.56a10.09,10.09,0,0,1-.38-1.66h-.07a9.27,9.27,0,0,1-.4,1.66l-3.85,10.56Z"/><path class="cls-2" d="M410.39,366.31V341.54h6.84q13.1,0,13.1,12.08a12.17,12.17,0,0,1-3.64,9.22q-3.64,3.48-9.74,3.48Zm2.9-22.15v19.52H417q4.87,0,7.58-2.61t2.71-7.39q0-9.52-10.12-9.52Z"/><path class="cls-2" d="M453.32,356.29q0,10.43-9.42,10.43-9,0-9-10V341.54h2.9v15q0,7.62,6.43,7.62,6.2,0,6.2-7.36V341.54h2.9Z"/><path class="cls-2" d="M472.36,366.31H459.51V341.54h2.9v22.15h10Z"/><path class="cls-2" d="M488.39,344.16h-7.15v22.15h-2.9V344.16H471.2v-2.63h17.19Z"/><path class="cls-2" d="M490.43,365.31v-3.42a6.64,6.64,0,0,0,1.41.93,11.41,11.41,0,0,0,1.73.7,13.75,13.75,0,0,0,1.82.44,10.16,10.16,0,0,0,1.69.16,6.63,6.63,0,0,0,4-1,3.73,3.73,0,0,0,.88-4.6,5,5,0,0,0-1.22-1.36A12.12,12.12,0,0,0,498.9,356l-2.29-1.18q-1.3-.66-2.42-1.33a10.48,10.48,0,0,1-2-1.49,6.2,6.2,0,0,1-1.3-1.84,6.27,6.27,0,0,1,.27-5.36,6.37,6.37,0,0,1,2-2.06,8.85,8.85,0,0,1,2.76-1.21,12.62,12.62,0,0,1,3.15-.4,12.08,12.08,0,0,1,5.34.88v3.27a9.68,9.68,0,0,0-5.63-1.52,9.29,9.29,0,0,0-1.9.2,5.37,5.37,0,0,0-1.69.65,3.75,3.75,0,0,0-1.21,1.16,3.07,3.07,0,0,0-.47,1.73,3.56,3.56,0,0,0,.35,1.64,4,4,0,0,0,1,1.26,10.41,10.41,0,0,0,1.68,1.11q1,.54,2.29,1.17T501.4,354a11.53,11.53,0,0,1,2.09,1.61,7.14,7.14,0,0,1,1.43,2,5.49,5.49,0,0,1,.53,2.45,6.22,6.22,0,0,1-.72,3.1,5.88,5.88,0,0,1-1.93,2.06,8.45,8.45,0,0,1-2.81,1.15,15.37,15.37,0,0,1-3.35.35,13.66,13.66,0,0,1-1.45-.1q-.86-.1-1.76-.28a14.38,14.38,0,0,1-1.7-.45A5.3,5.3,0,0,1,490.43,365.31Z"/><path class="cls-2" d="M520,366.31V341.54h1.71v24.77Z"/><path class="cls-2" d="M545.59,366.31l-14.75-20a12.09,12.09,0,0,1-.79-1.21l-.22-.35h-.07q0,.45,0,1.09v20.49h-1.71V341.54h1.31L544,361.39q.48.66,1.05,1.59h.09q-.09-1.21-.09-2.07V341.54h1.71v24.77Z"/><path class="cls-2" d="M314.85,399.59V374.81h7a7.7,7.7,0,0,1,5.1,1.57,5.08,5.08,0,0,1,1.88,4.09,6,6,0,0,1-1.14,3.66,6.15,6.15,0,0,1-3.14,2.21v.07a6.3,6.3,0,0,1,4,1.89,5.82,5.82,0,0,1,1.5,4.15,6.48,6.48,0,0,1-2.28,5.15,8.49,8.49,0,0,1-5.75,2Zm2.9-22.15v8h3a5.64,5.64,0,0,0,3.75-1.15,4,4,0,0,0,1.36-3.24q0-3.61-4.75-3.61Zm0,10.61V397h3.94a5.9,5.9,0,0,0,4-1.21,4.14,4.14,0,0,0,1.41-3.32q0-4.39-6-4.39Z"/><path class="cls-2" d="M353.29,389.57q0,10.43-9.42,10.43-9,0-9-10V374.81h2.9v15q0,7.62,6.43,7.62,6.2,0,6.2-7.36V374.81h2.9Z"/><path class="cls-2" d="M377.27,399.59h-3.46l-4.15-6.94a15.16,15.16,0,0,0-1.11-1.65,6.31,6.31,0,0,0-1.1-1.11,3.8,3.8,0,0,0-1.21-.63,5,5,0,0,0-1.46-.2h-2.38v10.54h-2.9V374.81h7.39a10.54,10.54,0,0,1,3,.41,6.71,6.71,0,0,1,2.38,1.24,5.74,5.74,0,0,1,1.58,2.06,6.85,6.85,0,0,1,.57,2.89,7,7,0,0,1-.39,2.38,6.21,6.21,0,0,1-1.11,1.93,6.7,6.7,0,0,1-1.73,1.44,8.82,8.82,0,0,1-2.27.92v.07a5.23,5.23,0,0,1,1.08.63,6,6,0,0,1,.87.84,11.1,11.1,0,0,1,.82,1.1q.41.61.91,1.43Zm-14.86-22.15v9h3.94a6,6,0,0,0,2-.33,4.66,4.66,0,0,0,1.6-.94,4.27,4.27,0,0,0,1.05-1.5,5,5,0,0,0,.38-2,3.88,3.88,0,0,0-1.29-3.1,5.53,5.53,0,0,0-3.72-1.11Z"/><path class="cls-2" d="M398,399.59h-4l-9.57-11.33a6.89,6.89,0,0,1-.66-.86h-.07v12.2h-2.9V374.81h2.9v11.64h.07a6.83,6.83,0,0,1,.66-.85l9.26-10.8h3.61L386.59,386.7Z"/><path class="cls-2" d="M404.17,399.59h-2.9V374.81h2.9Z"/><path class="cls-2" d="M430.69,399.59h-3.56l-12.75-19.75a8.25,8.25,0,0,1-.79-1.55h-.1a25.51,25.51,0,0,1,.14,3.4v17.9h-2.9V374.81h3.77l12.4,19.44q.78,1.21,1,1.66H428a26.21,26.21,0,0,1-.17-3.65V374.81h2.9Z"/><path class="cls-2" d="M456.4,399.59h-3.21l-2.63-6.94h-10.5l-2.47,6.94h-3.23l9.5-24.77h3ZM449.61,390l-3.89-10.56a10.11,10.11,0,0,1-.38-1.66h-.07a9.25,9.25,0,0,1-.4,1.66L441,390Z"/><path class="cls-2" d="M482.39,377.44h-9.67V386h8.95v2.61h-8.95v11h-2.9V374.81h12.58Z"/><path class="cls-2" d="M504.22,399.59H501l-2.63-6.94h-10.5l-2.47,6.94h-3.23l9.5-24.77h3ZM497.43,390l-3.89-10.56a10.11,10.11,0,0,1-.38-1.66h-.07a9.25,9.25,0,0,1-.4,1.66L488.85,390Z"/><path class="cls-2" d="M506.75,398.58v-3.42a6.64,6.64,0,0,0,1.41.93,11.41,11.41,0,0,0,1.73.7,13.75,13.75,0,0,0,1.82.44,10.16,10.16,0,0,0,1.69.16,6.63,6.63,0,0,0,4-1,3.73,3.73,0,0,0,.88-4.6,5,5,0,0,0-1.22-1.36,12.09,12.09,0,0,0-1.84-1.17l-2.29-1.18q-1.3-.66-2.42-1.33a10.48,10.48,0,0,1-2-1.49,6.2,6.2,0,0,1-1.3-1.84,6.27,6.27,0,0,1,.27-5.36,6.37,6.37,0,0,1,2-2.06,8.85,8.85,0,0,1,2.76-1.21,12.62,12.62,0,0,1,3.15-.4,12.08,12.08,0,0,1,5.34.88v3.27a9.68,9.68,0,0,0-5.63-1.52,9.26,9.26,0,0,0-1.9.2,5.37,5.37,0,0,0-1.69.65,3.75,3.75,0,0,0-1.21,1.16,3.07,3.07,0,0,0-.47,1.73,3.56,3.56,0,0,0,.35,1.64,4,4,0,0,0,1,1.26,10.41,10.41,0,0,0,1.68,1.11q1,.54,2.29,1.17t2.52,1.38a11.53,11.53,0,0,1,2.09,1.61,7.14,7.14,0,0,1,1.43,2,5.49,5.49,0,0,1,.53,2.45,6.22,6.22,0,0,1-.72,3.1,5.88,5.88,0,0,1-1.93,2.06,8.45,8.45,0,0,1-2.81,1.15,15.37,15.37,0,0,1-3.35.35,13.66,13.66,0,0,1-1.45-.1q-.86-.1-1.76-.28a14.38,14.38,0,0,1-1.7-.45A5.3,5.3,0,0,1,506.75,398.58Z"/><path class="cls-2" d="M536.72,400a10.87,10.87,0,0,1-8.44-3.47,12.88,12.88,0,0,1-3.17-9q0-6,3.23-9.54a11.28,11.28,0,0,1,8.79-3.56,10.63,10.63,0,0,1,8.27,3.46,12.93,12.93,0,0,1,3.14,9q0,6.06-3.21,9.59A11.07,11.07,0,0,1,536.72,400Zm.21-23a8,8,0,0,0-6.34,2.82,12.53,12.53,0,0,0-.06,14.76,7.75,7.75,0,0,0,6.19,2.79,8.13,8.13,0,0,0,6.43-2.66q2.35-2.66,2.35-7.45t-2.28-7.58A7.82,7.82,0,0,0,536.93,377Z"/><path class="cls-3" d="M296.63,373.24a38.25,38.25,0,0,1-8.23-9.62s-1.9-6.65-4.05-8.86c0,0,.06-1.08-4.05,0a6.2,6.2,0,0,1-1.65-3.16s.13-2.22-2.91-3.54c0,0-2,2.34-2-.76s.82-5.82-3.92.76c0,0-3.73.57-2.15-3.16,0,0-2.47,2.22-2.91-.88,0,0-12-1.07-12.53,0,0,0-3.16-3.8-3.92-1.14,0,0-6.77-1.14-7.34,2.15,0,0-10.51-.19-9.49,3.92,0,0-3.86-.7-3.92,1.27l-4.05-1.52-3.67,3.67-4.05,1-2.41,8.1-2.91-1.14s.38,5.63-3.42-1.77c0,0-7.34,2-4.56-4.94,0,0-1.65-1.65-1.52,1.14,0,0-1.84,3.61-3.29.25a1.46,1.46,0,0,1-2.41.38L189.91,353s0,3.29-3.16-.63c0,0-2.79-1.08,0-2,0,0,1.88-2.34-.73-2.25,0,0-1.28-1.9-4.94-3,0,0-1.23,3.28-3.7-.95,0,0,3-1.8,0-5.32,0,0,2.71,0,.66-2.09,0,0-.85-2-2.28-1.52,0,0,.28-1.38-.57-1.23,0,0-1.23.55-1.8,0a.59.59,0,0,0,.47-.84s-1.8,0-1.33-.85c0,0,1.57.43,1.8,0,0,0-3.56-2.09-3.23-3.51,0,0-.71.38-1.8-6.27,0,0-2.94,2.47-4.65-.95h-3.8s-4.84,3.47-7.41,0a5.92,5.92,0,0,0-2.75-2s-.81-4.42-2.47-4.27c0,0-.9-1.85,2.18-6.46,0,0,1.42-.62.09-3.89a8,8,0,0,1,1.42-2.37s-.76-2.18.95-5.79c0,0,1.38,0,1-2.09,0,0,2.37-1.76-1-5.6,0,0,0-8-2.09-8.17,0,0-1.23-1.85,1.61-1.71,0,0,9.31.09,8.64-4.56,0,0-1.76-1.38,2.85-4.08,0,0-1.33-8.45.95-8.55,0,0,3.51-.62,1.14-2.37,0,0-.24-3.94.66-4.75,0,0-.9-5-4.08-4.18,0,0-2.47.62.47-3.7,0,0,.76-3.61-.19-4.65,0,0-2-3-4.37-1.9,0,0-.9.19-.95-.95,0,0-4.18-1.47-.19-1.71a1.31,1.31,0,0,1,1.23.76S160,237,161,237.75c0,0,.81-1.09,2.66-.21,0,0,6.17-7.43,9.49-6.9l.66-.85,1,.66s2.85-1.14,4.08-.66c0,0,1.33-2.18,5.13-.85,0,0,1.76-1.66,4.65.09a4.14,4.14,0,0,1,2.56-.09s2.18-5,5.89-2.66c0,0-.81-4.51,5.22-4.08L200.73,219l5.22-4.46s-1.23-2.75,1.14-2.94c0,0,1.85.85,2.09,2.28,0,0,2.23.43.85-3,0,0-.95-3.32-2.09-4.46,0,0,1.66-4.79,3.8-5.32,0,0-1.47-1-1.23-2,0,0-2-5.13-3.23-4a2.09,2.09,0,0,1-1-2.66s-.81-3.61,2-1.8c0,0,2.23-1.61,3.51-.95,0,0,1.71-1.52,3,.76,0,0,.43,1.19,3.32.28,0,0,5-1.8,2-13.67,0,0-4-1.61-4.18-5.51,0,0-.19-1-2.47-2.66,0,0,.09-4.56,6.27-3.23,0,0,2.18-.47-1.33-1.9,0,0-.38-2.09,1.71-1.9,0,0,1-2.56,3-1.33,0,0,3.7-3.51,4-7,0,0,2.75.57,5.13-3.42,0,0,1.33-4.75,3,0,0,0,4.46.95-1.52,3.23,0,0-.09,2.28,3.23,1.33,0,0,3-.09,3.8,1.71,0,0,2.75-1.52,3.61,1.33,0,0,2,3,4.56,3l4.75,4.18,1.52-.19s.13,2.34,3.16,1.27c0,0,5.13,2.6,3.54-2.91,0,0-2.79-3,1.77-2.41,0,0,5.51-.57,6.46-.25,0,0,3.42,1.14,2.28-3.42,0,0-1.14-.76-1.52-7.85,0,0-1.27-3.23.76-5.32l.13-4.94s-3.35-2.79.51-2.28c0,0,3,2.34,4.05,1.9,0,0,4.05-2.15,5.82,2.53,0,0,.38,2.53,1.39.25,0,0,1-2,3.42.25l4.18-1.27s-1.71-1.71-1.14-9.49c0,0,.7.06,1.14-2.41l2.41-7s-2.09-1.39,2.53-3.67c0,0,7.44-2.6,10.19-8.29l6.65-3.23,8.74,2.28,9.87,4.75,6.08-1.9L339,96s7.12-1.8,11.39,0l4.56-.8L374.3,82.13s12-3.61,12.91-3l17.66-16.33H420l2.85,3.9,7.69-3.9,25.07,8.74s1.38,1.35-.84,2.59l-.95,1.77L456,80.23l-3.35,12.41,1.08,3.29,5.76,5.51,1.14.13s1.2,2.63,2.66,3.29c0,0,2.09,1.84,2.22,3.23a1.48,1.48,0,0,0-.76,2,2.2,2.2,0,0,1-1.33,2.53s-2.12,1.9-.06,3.16c0,0,2.72.92.82,2.66,0,0-.82.79,1.9,1.71,0,0-.19,2.37,1.27,2.66a1.44,1.44,0,0,0,1.46.82s-.85,2.09,0,2.72a3.63,3.63,0,0,1,2.34,2.91,4.64,4.64,0,0,0,2.41,1.58s1.17,3,3,2.34c0,0,1,.63-.76,2.6,0,0-1.08,3.42,4.24,2.66,0,0,6-.6,5.76.44,0,0-3.7,2.85,4.43,2.15a11.15,11.15,0,0,1,5.44,3.35l1.39.19s.41,2.12,1.2,2.47c0,0-2.47,2.72.89,3.35,0,0,3.35.66,4.68,2.66,0,0,1.93-.16,2.41.89a5,5,0,0,0,3.35,0,4.49,4.49,0,0,1,2.53,2.28,1,1,0,0,1-.82.7s-1.9.57-2.34-.63c0,0-1.3-2.31-1.39.44,0,0-.09,2.63-1.52,1.52a2,2,0,0,0-2.47-.51s-5.63-3.2-6.65-2.53l-.13,15.89s-.73,3.26,2.53,3.29l4.11.57,25.13,20.64,15.38.76s2.53-5.32,3.42-4.81c0,0,.82,1.3,2.72-1.65a6.21,6.21,0,0,0,3.29.32,6.83,6.83,0,0,0,2.72-.25,2.45,2.45,0,0,0,2,1.52,2.2,2.2,0,0,1,.89,2.47s4.3-.22,3.92,7.28c0,0,3.1,2.41,1.84,4.05,0,0,1.74,2-.7,1.39,0,0-1.44.7-2.3,0,0,0-1.5,1.17-2.76.38,0,0-1.33,1.55-2.34,1.2,0,0-1.36-.51-1.65.44,0,0,0,1.2-.63,1.39l18.48,25.26s.82,2-.95,2.72a2.91,2.91,0,0,1-.76,3.23s-2.12,1.52-2.53,3a1.82,1.82,0,0,0-.06,1.9,2.28,2.28,0,0,1-1.9,2,23.94,23.94,0,0,1-4.9,3l-8.9,9.68s-1.68,1.3-2.91.13c0,0-3.54-.51-4.05.06a6.26,6.26,0,0,0-4.43-.32s-4.05,2-5.32,1.27c0,0-6.84,4.15-8.17-.95,0,0,1.39-1.77-1.33-1.08a1.42,1.42,0,0,1-2-.38,2.34,2.34,0,0,1-2.6-.19s-.25.82-1.77.82c0,0-1.61.89-.7,1.77,0,0,1.74,1.8-2.66,3,0,0-2.47.38.63,2.66,0,0,.16,1.14-1.84,1.52a1.13,1.13,0,0,0-1.39.19s-2.53-3.8-.63.51c0,0,.35.89-.76,1.39s-1.11,0-2-.57a5,5,0,0,0-3.23.25s-1.42-2.28-2-.06c0,0,1.87.85,1.2,5.06,0,0-.19,1.33-2-.38,0,0,0,.66-1.46,1.58,0,0-1.11,1.58,2,5.57,0,0-.44,2.25-1.77.38,0,0-1.23-2.22-2.91-.57,0,0-2.25-1.93-3.48-1.71,0,0,1,.41-.95,2.41,0,0,1.68,2.53-.89,1.77l-14.75.06-8.48,3.1a5.15,5.15,0,0,0-.19-3.54l-42.13-8.39s-1,.1-.22,1.08.12,1.25-.22,1.46-1.76.25-2,1.41a1.61,1.61,0,0,1-1.38,1.25s-.85-.27-1.17-1.88c0,0-2.41-.85-3.05,1.23a2.63,2.63,0,0,0,.06,2.17s.37.79-2.66,1.6c0,0-.62,1.65-1.88,1.06a2.07,2.07,0,0,1-2.36,0,1.32,1.32,0,0,0-1.08,1.33s-.71,2.5-2.09,3.18a3.11,3.11,0,0,0-1.09-.78s-.69-.83-.59-1.22c0,0-1.06-.31-.92-.71,0,0,1-.58.89-1.08s-1-.51-1.28,0-.49-.87-.49-.87l-5.84,0a1.52,1.52,0,0,0-2.31.06s-1.44-.45-1.38,1.23c0,0-.75,1.09-1.23-.45s-2.85-1.28-2.85-1.28l-2.3,0-.69-.5h-3.39s-1.76-.28-2.07,1l-14.7-.13-2.5-1.39L361.2,284s-.8-.22-.65.66-3.63.76-3.63.76l-51.43-.09s.21.62-2.41.66-3.94.33-5.13-.85l-4.18.09s-1.28.76-.09,2.56c0,0,2.33,1.14-.28,3.8a1.26,1.26,0,0,1-1.61.47s-.09,3.56-1.8,5.51c0,0,.33,2.28-1.33,3.13,0,0,2.23.85-.28,4.84,0,0,1,1.28.57,2.37a4.53,4.53,0,0,1,1.23,3.13,11.69,11.69,0,0,1,2.28,4.37,3.51,3.51,0,0,0,3,.85s3.42,2-1.14,2.28a2.43,2.43,0,0,0-1.14,2.66s-1.42,1.33.28,1.8c0,0,1.76,2.09,2.85,1.8,0,0,3.56.81-1.14,4.75a15,15,0,0,1,0,6.93s1.23,4.42,2.28,5.32c0,0-2.14,5,.19,6,0,0,2.52,3.13-.66,3.13a5.76,5.76,0,0,1-1.52,2.94,5.3,5.3,0,0,1,.28,2.75s1.66-.95,1.61,2.94c0,0-2.42,3.28.47,5,0,0,2.47.76,2.66,3,0,0-1.85,2.18-1.61,2.94A4.3,4.3,0,0,1,296.63,373.24Z"/><path class="cls-2" d="M247.43,257.24v-3.68a33,33,0,0,1,.6-6.62,21.92,21.92,0,0,1,1.84-5.41,23.22,23.22,0,0,1,3.08-4.64,43.32,43.32,0,0,1,4.28-4.34q2.44-2.17,5.55-4.45l6.78-5q3.57-2.58,6.67-5.11a35.25,35.25,0,0,0,5.41-5.44,24.37,24.37,0,0,0,3.65-6.4,22.1,22.1,0,0,0,1.35-8q0-7.8-4.31-12.11t-12.11-4.31a23.54,23.54,0,0,0-10.16,2.31,40.89,40.89,0,0,0-9.56,6.43v-5.93a38,38,0,0,1,9.72-5.44,30.43,30.43,0,0,1,10.88-2,24.46,24.46,0,0,1,8.57,1.43,18.6,18.6,0,0,1,6.56,4.06,18,18,0,0,1,4.2,6.37,22.45,22.45,0,0,1,1.48,8.35,27.52,27.52,0,0,1-1.57,9.64,28.33,28.33,0,0,1-4.26,7.63,38.74,38.74,0,0,1-6.29,6.32q-3.6,2.88-7.61,5.74-5.33,3.79-9,6.73a40.34,40.34,0,0,0-6,5.74,18.57,18.57,0,0,0-3.32,5.77,21.16,21.16,0,0,0-1,6.87v.82H292v4.61Z"/><path class="cls-2" d="M299.45,235.27a21.56,21.56,0,0,1,.91-6.18,20.41,20.41,0,0,1,2.75-5.74,21.55,21.55,0,0,1,4.59-4.83,22.75,22.75,0,0,1,6.48-3.46,24.15,24.15,0,0,1-5-3.19,21,21,0,0,1-3.84-4.15,18.27,18.27,0,0,1-2.44-4.94,18,18,0,0,1-.85-5.52,20.29,20.29,0,0,1,1.57-8,19.24,19.24,0,0,1,10.85-10.57,22.88,22.88,0,0,1,16.42,0,20,20,0,0,1,6.54,4.23,19.17,19.17,0,0,1,4.28,6.37,20.46,20.46,0,0,1,1.54,8,17.93,17.93,0,0,1-.85,5.55,19.91,19.91,0,0,1-2.39,4.94,19.53,19.53,0,0,1-3.73,4.15,24.06,24.06,0,0,1-4.89,3.16,22.28,22.28,0,0,1,6.32,3.46,21.6,21.6,0,0,1,4.5,4.83,20.29,20.29,0,0,1,2.69,5.74,22.22,22.22,0,0,1,.88,6.18,26.53,26.53,0,0,1-1.7,9.8,20.78,20.78,0,0,1-4.75,7.31,20.24,20.24,0,0,1-7.3,4.56,27.11,27.11,0,0,1-9.42,1.57,26.54,26.54,0,0,1-9.28-1.57,20.2,20.2,0,0,1-12.11-11.81A26.32,26.32,0,0,1,299.45,235.27Zm5.22.55a20.25,20.25,0,0,0,1.32,7.47,17,17,0,0,0,3.65,5.74,15.87,15.87,0,0,0,5.6,3.68,20.78,20.78,0,0,0,14.42,0,16.37,16.37,0,0,0,5.68-3.68,16.59,16.59,0,0,0,3.71-5.74,20.25,20.25,0,0,0,1.32-7.47,19.33,19.33,0,0,0-1.26-7,17.36,17.36,0,0,0-3.6-5.77,17.14,17.14,0,0,0-5.66-3.93,19.33,19.33,0,0,0-14.45-.11,17.14,17.14,0,0,0-5.66,3.73,17,17,0,0,0-3.73,5.74A19.42,19.42,0,0,0,304.67,235.82Zm2.75-38.39a15.72,15.72,0,0,0,1.18,6.12,15.16,15.16,0,0,0,8.07,8.21,14.62,14.62,0,0,0,5.9,1.21,14.81,14.81,0,0,0,5.93-1.21,15,15,0,0,0,4.86-3.32,16,16,0,0,0,3.27-4.94,15.3,15.3,0,0,0,1.21-6.07,16.09,16.09,0,0,0-1.18-6.21,15.58,15.58,0,0,0-3.24-5,14.74,14.74,0,0,0-4.83-3.3,15.19,15.19,0,0,0-6-1.18A15,15,0,0,0,316.4,183a14.68,14.68,0,0,0-7.88,8.32A16.83,16.83,0,0,0,307.42,197.43Z"/><path class="cls-2" d="M357.47,258.23a4.21,4.21,0,0,1-3.13-1.29,4.34,4.34,0,0,1-1.26-3.16,4.22,4.22,0,0,1,1.26-3.16,4.3,4.3,0,0,1,3.13-1.24,4.49,4.49,0,0,1,3.19,1.24,4.14,4.14,0,0,1,1.32,3.16,4.25,4.25,0,0,1-1.32,3.16A4.39,4.39,0,0,1,357.47,258.23Z"/><path class="cls-2" d="M379.56,257.24a151.42,151.42,0,0,1,4.61-19.61,194.76,194.76,0,0,1,6.76-18.54q3.84-9.09,8.4-18t9.61-18H367.31v-4.61h48.45v1.87q-5.55,10.16-10.38,19.58t-8.76,18.7a195.33,195.33,0,0,0-6.84,18.76,144.79,144.79,0,0,0-4.56,19.86Z"/><path class="cls-2" d="M435.82,217.2q-8.46,0-13.35-5.55t-4.89-14.39q0-9.61,5.19-15t13.59-5.36q8.24,0,13.07,5.33t4.83,14.89a20.93,20.93,0,0,1-5,14.31Q444.22,217.2,435.82,217.2Zm.44-35.76a12.53,12.53,0,0,0-10,4.2q-3.65,4.2-3.65,11.73,0,7.09,3.54,11.26a13.42,13.42,0,0,0,19.55-.11q3.54-4.28,3.54-11.48,0-7.74-3.52-11.67A12.12,12.12,0,0,0,436.26,181.45Zm-.33,77.61h-5.44l47.4-80.47h5.27Zm43-.44q-8.4,0-13.32-5.55t-4.92-14.39q0-9.72,5.27-15a18.2,18.2,0,0,1,13.51-5.33q8.24,0,13.07,5.38t4.83,14.89a20.93,20.93,0,0,1-5,14.31Q487.28,258.62,478.88,258.62Zm.44-35.81a12.43,12.43,0,0,0-9.94,4.28q-3.68,4.28-3.68,11.7,0,7.09,3.54,11.26a12.11,12.11,0,0,0,9.75,4.17q6.32,0,9.86-4.26t3.54-11.51q0-7.74-3.52-11.7A12.14,12.14,0,0,0,479.32,222.81Z"/><text class="cls-4" transform="translate(644.87 177.05)">The non-profit organization Friends of African<tspan x="-8.59" y="37.34">Village Libraries (</tspan><tspan class="cls-5" x="164.45" y="37.34">F</tspan><tspan class="cls-6" x="174.24" y="37.34">A</tspan><tspan class="cls-7" x="186.98" y="37.34">VL) supports 34 community</tspan><tspan x="-11" y="74.67">libraries with the goal of improving the literacy</tspan><tspan x="-3.49" y="112.01">levels of local residents. </tspan><tspan class="cls-8" x="242.2" y="112.01">F</tspan><tspan class="cls-6" x="251.99" y="112.01">A</tspan><tspan x="264.72" y="112.01">VL developed these</tspan><tspan x="12.62" y="149.35">libraries across Burkina </tspan><tspan class="cls-9" x="249.44" y="149.35">F</tspan><tspan x="259.73" y="149.35">aso, as well as three</tspan><tspan x="83.76" y="186.68">libraries in Ghana and one in Uganda.</tspan></text><text class="cls-10" transform="translate(725.2 126.65)">Li<tspan class="cls-11" x="35.09" y="0">t</tspan><tspan x="50.9" y="0">eracy Epidemic</tspan></text></svg>